<svg width="146" height="146" viewBox="0 0 146 146" fill="none" xmlns="http://www.w3.org/2000/svg">
<path d="M41.825 80.3564C42.3066 90.2301 39.6576 98.418 32.1921 107.328" stroke="#C6C6C6" stroke-width="15.8942" stroke-linecap="round"/>
<path d="M103.737 80.3564C103.256 90.2301 105.905 98.418 113.37 107.328" stroke="#C6C6C6" stroke-width="15.8942" stroke-linecap="round"/>
<path d="M61.5724 87.0991C62.054 96.9728 62.5357 105.161 56.5151 122.5" stroke="#C6C6C6" stroke-width="15.8942" stroke-linecap="round"/>
<path d="M83.9901 87.0991C83.5085 96.9728 83.0268 105.161 89.0474 122.5" stroke="#C6C6C6" stroke-width="15.8942" stroke-linecap="round"/>
<g opacity="0.2" filter="url(#filter0_i_873_16752)">
<path d="M141.043 75.0547C141.043 112.027 110.854 90.5034 73.6134 90.5034C36.3729 90.5034 6.18359 112.027 6.18359 75.0547C6.18359 38.0824 36.3729 8.11035 73.6134 8.11035C110.854 8.11035 141.043 38.0824 141.043 75.0547Z" fill="#E1E1E1"/>
</g>
<g filter="url(#filter1_i_873_16752)">
<path d="M136.227 73.6134C136.227 108.194 108.194 88.0626 73.6134 88.0626C39.033 88.0626 11 108.194 11 73.6134C11 39.033 39.033 11 73.6134 11C108.194 11 136.227 39.033 136.227 73.6134Z" fill="#E1E1E1"/>
</g>
<path d="M75.1433 58.8432C74.4762 57.2859 72.2685 57.2859 71.6014 58.8432L68.5756 65.9071L78.1692 65.9071L75.1433 58.8432Z" fill="#D5D5D5"/>
<rect x="52.9707" y="43" width="4" height="24" transform="rotate(45 52.9707 43)" fill="#8B8B8B"/>
<rect x="55.7991" y="59.9707" width="4" height="24" transform="rotate(135 55.7991 59.9707)" fill="#8B8B8B"/>
<rect x="107.971" y="43" width="4" height="24" transform="rotate(45 107.971 43)" fill="#8B8B8B"/>
<rect x="110.799" y="59.9707" width="4" height="24" transform="rotate(135 110.799 59.9707)" fill="#8B8B8B"/>
<defs>
<filter id="filter0_i_873_16752" x="6.18359" y="8.11035" width="134.86" height="88.6221" filterUnits="userSpaceOnUse" color-interpolation-filters="sRGB">
<feFlood flood-opacity="0" result="BackgroundImageFix"/>
<feBlend mode="normal" in="SourceGraphic" in2="BackgroundImageFix" result="shape"/>
<feColorMatrix in="SourceAlpha" type="matrix" values="0 0 0 0 0 0 0 0 0 0 0 0 0 0 0 0 0 0 127 0" result="hardAlpha"/>
<feOffset/>
<feGaussianBlur stdDeviation="9.63283"/>
<feComposite in2="hardAlpha" operator="arithmetic" k2="-1" k3="1"/>
<feColorMatrix type="matrix" values="0 0 0 0 0.8875 0 0 0 0 0.8875 0 0 0 0 0.8875 0 0 0 1 0"/>
<feBlend mode="normal" in2="shape" result="effect1_innerShadow_873_16752"/>
</filter>
<filter id="filter1_i_873_16752" x="11" y="11" width="125.227" height="82.8887" filterUnits="userSpaceOnUse" color-interpolation-filters="sRGB">
<feFlood flood-opacity="0" result="BackgroundImageFix"/>
<feBlend mode="normal" in="SourceGraphic" in2="BackgroundImageFix" result="shape"/>
<feColorMatrix in="SourceAlpha" type="matrix" values="0 0 0 0 0 0 0 0 0 0 0 0 0 0 0 0 0 0 127 0" result="hardAlpha"/>
<feOffset/>
<feGaussianBlur stdDeviation="9.63283"/>
<feComposite in2="hardAlpha" operator="arithmetic" k2="-1" k3="1"/>
<feColorMatrix type="matrix" values="0 0 0 0 0.9 0 0 0 0 0.9 0 0 0 0 0.9 0 0 0 1 0"/>
<feBlend mode="normal" in2="shape" result="effect1_innerShadow_873_16752"/>
</filter>
</defs>
</svg>
