<svg width="32" height="33" viewBox="0 0 32 33" fill="none" xmlns="http://www.w3.org/2000/svg">
<path d="M7.82605 18.7944C7.51711 18.7944 7.26434 18.5416 7.26434 18.2327V9.2453C7.26434 8.93636 7.51711 8.68359 7.82605 8.68359H22.4305C22.7395 8.68359 22.9923 8.93636 22.9923 9.2453V18.2327C22.9923 18.5416 22.7395 18.7944 22.4305 18.7944H7.82605Z" fill="white" fill-opacity="0.8"/>
<path d="M22.4406 9.28553V18.2729H7.83607V9.28553H22.4406ZM22.4406 8.16211H7.83607C7.21819 8.16211 6.71265 8.66765 6.71265 9.28553V18.2729C6.71265 18.8908 7.21819 19.3963 7.83607 19.3963H22.4406C23.0584 19.3963 23.564 18.8908 23.564 18.2729V9.28553C23.564 8.66203 23.0641 8.16211 22.4406 8.16211Z" fill="black"/>
<path d="M9.52118 17.1499C9.21224 17.1499 8.95947 16.8971 8.95947 16.5881V7.60077C8.95947 7.29183 9.21224 7.03906 9.52118 7.03906H24.1257C24.4346 7.03906 24.6874 7.29183 24.6874 7.60077V16.5881C24.6874 16.8971 24.4346 17.1499 24.1257 17.1499H9.52118Z" fill="#9EFEDD"/>
<path d="M24.1257 7.59998V16.5874H9.52119V7.59998H24.1257ZM24.1257 6.47656H9.52119C8.90331 6.47656 8.39777 6.9821 8.39777 7.59998V16.5874C8.39777 17.2052 8.90331 17.7108 9.52119 17.7108H24.1257C24.7436 17.7108 25.2491 17.2052 25.2491 16.5874V7.59998C25.2491 6.97649 24.7492 6.47656 24.1257 6.47656Z" fill="black"/>
<path d="M14.5766 13.7789H12.8915C12.4252 13.7789 12.0489 13.4025 12.0489 12.9363C12.0489 12.4701 12.4252 12.0938 12.8915 12.0938H14.5766C15.0428 12.0938 15.4192 12.4701 15.4192 12.9363C15.4192 13.4025 15.0428 13.7789 14.5766 13.7789Z" fill="#6CD7B2"/>
<path d="M23.0022 13.7789H21.3171C20.8509 13.7789 20.4745 13.4025 20.4745 12.9363C20.4745 12.4701 20.8509 12.0938 21.3171 12.0938H23.0022C23.4685 12.0938 23.8448 12.4701 23.8448 12.9363C23.8448 13.4025 23.4685 13.7789 23.0022 13.7789Z" fill="#6CD7B2"/>
<path d="M14.5766 13.2179C14.4193 13.2179 14.2957 13.0943 14.2957 12.9371V10.1285C14.2957 9.97123 14.4193 9.84766 14.5766 9.84766C14.7338 9.84766 14.8574 9.97123 14.8574 10.1285V12.9371C14.8574 13.0887 14.7338 13.2179 14.5766 13.2179Z" fill="#FF7BAC"/>
<path d="M14.5766 9.28516C14.1104 9.28516 13.734 9.6615 13.734 10.1277V12.9363C13.734 13.4025 14.1104 13.7788 14.5766 13.7788C15.0428 13.7788 15.4191 13.4025 15.4191 12.9363V10.1277C15.4191 9.6615 15.0428 9.28516 14.5766 9.28516Z" fill="#272928"/>
<path d="M21.3171 13.2179C21.1598 13.2179 21.0363 13.0943 21.0363 12.9371V10.1285C21.0363 9.97123 21.1598 9.84766 21.3171 9.84766C21.4744 9.84766 21.598 9.97123 21.598 10.1285V12.9371C21.598 13.0887 21.4744 13.2179 21.3171 13.2179Z" fill="#FF7BAC"/>
<path d="M21.3171 9.28516C20.8509 9.28516 20.4745 9.6615 20.4745 10.1277V12.9363C20.4745 13.4025 20.8509 13.7788 21.3171 13.7788C21.7833 13.7788 22.1597 13.4025 22.1597 12.9363V10.1277C22.1597 9.6615 21.7833 9.28516 21.3171 9.28516Z" fill="#272928"/>
<path d="M5.56523 23.7989C5.42539 23.7223 5.24893 23.6524 5.03584 23.5858C5.02585 23.5824 5.01919 23.5824 5.01253 23.5791C5.00587 23.5758 4.99588 23.5725 4.98589 23.5725C4.97258 23.5691 4.96259 23.5658 4.94927 23.5591C4.93595 23.5558 4.92596 23.5525 4.91264 23.5491C4.75949 23.4992 4.64295 23.4559 4.55638 23.4193C4.46982 23.3827 4.39989 23.3294 4.33996 23.2628C4.28003 23.1962 4.2534 23.113 4.2534 23.0064V22.8633C4.2534 22.7434 4.29668 22.6468 4.38658 22.5769C4.46649 22.5137 4.57969 22.4804 4.72286 22.4737C4.84605 22.4704 5.02252 22.527 5.11242 22.6069C5.14238 22.6335 5.16902 22.6602 5.19233 22.6935C5.3022 22.8366 5.49198 22.8899 5.65513 22.8133L5.6851 22.8C5.8882 22.7034 5.96145 22.4537 5.84491 22.2606C5.81828 22.2207 5.79164 22.1807 5.76501 22.1441C5.65846 22.0076 5.52195 21.9077 5.36213 21.8411C5.20231 21.7745 5.01586 21.7412 4.8061 21.7412C4.52642 21.7412 4.29002 21.7878 4.09358 21.8777C3.89714 21.9709 3.75064 22.1041 3.64742 22.2773C3.5442 22.4537 3.49426 22.6635 3.49426 22.9065V23.0231C3.49426 23.2828 3.54754 23.4892 3.65075 23.6457C3.75397 23.8022 3.88049 23.9154 4.02699 23.9886C4.17349 24.0619 4.36327 24.1351 4.59634 24.2051L4.63296 24.2151C4.63629 24.2184 4.63962 24.2184 4.64295 24.2184C4.64628 24.2184 4.65294 24.2217 4.6596 24.225C4.80277 24.2683 4.91597 24.3083 5.00587 24.3449C5.09244 24.3815 5.16569 24.4315 5.21896 24.4914C5.27223 24.5547 5.3022 24.6312 5.3022 24.7278V24.9143C5.3022 25.0474 5.25559 25.1507 5.16236 25.2239C5.06913 25.2972 4.93928 25.3338 4.76947 25.3338C4.60633 25.3338 4.46982 25.2905 4.35661 25.2006C4.31666 25.1706 4.28003 25.134 4.24674 25.0907C4.1302 24.9442 3.93043 24.8909 3.75729 24.9675C3.52423 25.0707 3.43766 25.3604 3.58083 25.5702C3.60081 25.5968 3.62078 25.6234 3.64076 25.6501C3.75729 25.7899 3.90712 25.8965 4.09025 25.9664C4.27337 26.0363 4.48313 26.0729 4.72619 26.0729C5.00587 26.0729 5.2456 26.0263 5.44537 25.9364C5.64514 25.8432 5.7983 25.71 5.90484 25.5369C6.01139 25.3604 6.06133 25.1507 6.06133 24.9076V24.7345C6.06133 24.4881 6.01472 24.2883 5.91816 24.1385C5.82161 23.9886 5.70507 23.8754 5.56523 23.7989Z" fill="black"/>
<path d="M8.06236 23.0763C7.89589 22.9931 7.69611 22.9531 7.46305 22.9531C7.22998 22.9531 7.03021 22.9931 6.86373 23.0763C6.69725 23.1596 6.57073 23.2794 6.48416 23.4392C6.39759 23.5991 6.35431 23.7888 6.35431 24.0152V25.0108C6.35431 25.2372 6.39759 25.4303 6.48416 25.5901C6.57073 25.7499 6.69725 25.8731 6.86373 25.9564C7.03021 26.0396 7.22998 26.0829 7.46305 26.0829C7.69611 26.0829 7.89589 26.0396 8.06236 25.9564C8.22884 25.8731 8.35536 25.7499 8.44193 25.5934C8.5285 25.4336 8.57178 25.2438 8.57178 25.0174V24.0152C8.57178 23.7922 8.5285 23.5991 8.44193 23.4392C8.35536 23.2794 8.22884 23.1596 8.06236 23.0763ZM7.81598 24.9875C7.81598 25.1073 7.78601 25.2039 7.72275 25.2705C7.66282 25.3371 7.57625 25.3704 7.46305 25.3704C7.34984 25.3704 7.26327 25.3371 7.20334 25.2705C7.14341 25.2039 7.11344 25.1107 7.11344 24.9875V24.0386C7.11344 23.9187 7.14341 23.8255 7.20667 23.7622C7.2666 23.6956 7.35317 23.6623 7.46637 23.6623C7.57625 23.6623 7.66282 23.6956 7.72608 23.7589C7.78601 23.8255 7.8193 23.9187 7.8193 24.0386V24.9875H7.81598Z" fill="black"/>
<path d="M9.74047 23.7822C9.81039 23.7023 9.90694 23.6623 10.0301 23.6623C10.1267 23.6623 10.2066 23.6923 10.2665 23.7522C10.2765 23.7622 10.2898 23.7755 10.2998 23.7888C10.3997 23.922 10.5762 23.972 10.7327 23.9187C10.9757 23.8355 11.0756 23.5458 10.9324 23.3327C10.9291 23.3294 10.9258 23.3227 10.9225 23.3194C10.8359 23.1929 10.716 23.0996 10.5695 23.043C10.423 22.9831 10.2432 22.9531 10.0368 22.9531C9.79374 22.9531 9.58398 22.9964 9.40751 23.0863C9.23438 23.1762 9.1012 23.3061 9.00797 23.4759C8.91474 23.6457 8.87146 23.8521 8.87146 24.0885V24.9575C8.87146 25.1939 8.91807 25.397 9.00797 25.5635C9.1012 25.7333 9.23438 25.8598 9.40751 25.9497C9.58065 26.0363 9.79041 26.0829 10.0368 26.0829C10.2466 26.0829 10.4264 26.0529 10.5729 25.9963C10.7194 25.9397 10.8359 25.8498 10.9225 25.7266L10.9258 25.7233C11.0723 25.5135 10.9724 25.2205 10.7293 25.1373L10.7227 25.134C10.5662 25.0774 10.3931 25.134 10.2865 25.2605C10.2799 25.2705 10.2732 25.2771 10.2632 25.2838C10.2033 25.3437 10.1267 25.3704 10.0268 25.3704C9.90029 25.3704 9.80373 25.3304 9.73714 25.2538C9.66722 25.1773 9.63392 25.0674 9.63392 24.9275V24.1185C9.63392 23.972 9.66722 23.8588 9.74047 23.7822Z" fill="black"/>
<path d="M11.6882 21.7852H11.6816C11.4718 21.7852 11.302 21.955 11.302 22.1647C11.302 22.3745 11.4718 22.5443 11.6816 22.5443H11.6882C11.898 22.5443 12.0678 22.3745 12.0678 22.1647C12.0678 21.955 11.898 21.7852 11.6882 21.7852Z" fill="#272928"/>
<path d="M11.6882 22.999H11.6816C11.4718 22.999 11.302 23.1688 11.302 23.3786V25.6593C11.302 25.8691 11.4718 26.0389 11.6816 26.0389H11.6882C11.898 26.0389 12.0678 25.8691 12.0678 25.6593V23.3786C12.0678 23.1688 11.898 22.999 11.6882 22.999Z" fill="black"/>
<path d="M14.1155 23.073C13.9523 22.9931 13.7559 22.9531 13.5295 22.9531C13.2631 22.9531 13.04 23.0131 12.8602 23.1329C12.8569 23.1329 12.8569 23.1362 12.8536 23.1362C12.6005 23.3061 12.6471 23.6923 12.9302 23.8088C13.0167 23.8454 13.1166 23.8255 13.1865 23.7655C13.2132 23.7422 13.2398 23.7256 13.2698 23.7056C13.3464 23.6656 13.4296 23.6457 13.5195 23.6457C13.6427 23.6457 13.7392 23.6756 13.8092 23.7356C13.8791 23.7955 13.9124 23.8787 13.9124 23.9886V24.2317H13.4396C13.0933 24.2317 12.8336 24.3116 12.6571 24.4747C12.4807 24.6379 12.3941 24.8743 12.3941 25.1839C12.3941 25.4836 12.464 25.7066 12.6039 25.8598C12.7437 26.013 12.9501 26.0895 13.2298 26.0895C13.363 26.0895 13.4862 26.0662 13.5927 26.023C13.7026 25.9797 13.7892 25.9131 13.8558 25.8232C13.8791 25.7932 13.8957 25.7633 13.9124 25.7266C13.9157 25.9031 14.0622 26.0463 14.2387 26.0463H14.2919C14.4717 26.0463 14.6182 25.8998 14.6182 25.72V23.982C14.6182 23.7689 14.5749 23.5824 14.4884 23.4326C14.4018 23.2694 14.2786 23.1529 14.1155 23.073ZM13.7925 25.3804C13.7126 25.4336 13.5927 25.4603 13.4362 25.4603C13.323 25.4603 13.2398 25.437 13.1832 25.3903C13.1266 25.3437 13.1 25.2738 13.1 25.1806C13.1 25.0607 13.1299 24.9708 13.1932 24.9142C13.2531 24.8543 13.3463 24.8243 13.4629 24.8243H13.9157V25.1473C13.9124 25.2472 13.8724 25.3271 13.7925 25.3804Z" fill="black"/>
<path d="M15.7636 25.2413C15.727 25.2013 15.707 25.148 15.707 25.0781V22.1781C15.707 21.9683 15.5439 21.7885 15.3341 21.7852C15.121 21.7819 14.9479 21.9517 14.9479 22.1648V25.2346C14.9479 25.491 15.0145 25.6874 15.1476 25.8273C15.2808 25.9671 15.4673 26.037 15.7037 26.037H16.3163C16.3429 26.037 16.3663 26.0137 16.3663 25.9871V25.3478C16.3663 25.3212 16.3429 25.2979 16.3163 25.2979H15.9234C15.8535 25.2979 15.8002 25.2779 15.7636 25.2413Z" fill="black"/>
<path d="M19.3228 25.3045H18.7435V22.1781C18.7435 21.9683 18.5804 21.7885 18.3706 21.7852C18.1575 21.7819 17.9844 21.9517 17.9844 22.1648V25.9604C17.9844 26.0037 18.021 26.0403 18.0643 26.0403H18.3107H18.7468H19.3395C19.5459 26.0403 19.7091 25.8705 19.7057 25.6674C19.6991 25.4643 19.5259 25.3045 19.3228 25.3045Z" fill="black"/>
<path d="M21.5403 23.073C21.3772 22.9931 21.1807 22.9531 20.9543 22.9531C20.688 22.9531 20.4649 23.0131 20.2851 23.1329C20.2818 23.1329 20.2818 23.1362 20.2784 23.1362C20.0254 23.3061 20.072 23.6923 20.355 23.8088C20.4416 23.8454 20.5415 23.8255 20.6114 23.7655C20.638 23.7422 20.6647 23.7256 20.6946 23.7056C20.7712 23.6656 20.8545 23.6457 20.9444 23.6457C21.0675 23.6457 21.1674 23.6756 21.234 23.7356C21.3039 23.7955 21.3372 23.8787 21.3372 23.9886V24.2317H20.8644C20.5182 24.2317 20.2585 24.3116 20.082 24.4747C19.9055 24.6379 19.819 24.8743 19.819 25.1839C19.819 25.4836 19.8889 25.7066 20.0287 25.8598C20.1686 26.013 20.375 26.0895 20.6547 26.0895C20.7879 26.0895 20.9111 26.0662 21.0176 26.023C21.1275 25.9797 21.214 25.9131 21.2806 25.8232C21.3039 25.7932 21.3206 25.7633 21.3372 25.7266C21.3406 25.9031 21.4837 26.0429 21.6602 26.0429H21.7168C21.8966 26.0429 22.0398 25.8964 22.0398 25.72V23.9786C22.0398 23.7655 21.9965 23.5791 21.9099 23.4292C21.8267 23.2694 21.7035 23.1529 21.5403 23.073ZM21.2174 25.3804C21.1375 25.4336 21.0176 25.4603 20.8611 25.4603C20.7479 25.4603 20.6647 25.437 20.6081 25.3903C20.5515 25.3437 20.5248 25.2738 20.5248 25.1806C20.5248 25.0607 20.5548 24.9708 20.6181 24.9142C20.678 24.8543 20.7712 24.8243 20.8877 24.8243H21.3406V25.1473C21.3372 25.2472 21.2973 25.3271 21.2174 25.3804Z" fill="black"/>
<path d="M24.1607 22.9991H24.154C24.0008 22.9991 23.8677 23.1023 23.8277 23.2488L23.4115 24.8037L22.9421 23.2488C22.8988 23.1056 22.7689 22.9991 22.6158 22.9991C22.3827 22.9957 22.2195 23.2221 22.2895 23.4452L23.1052 25.9424L23.0086 26.2986C22.982 26.3952 22.9454 26.515 22.8921 26.5517H22.8022C22.6124 26.5517 22.4626 26.7082 22.4626 26.8946C22.4626 27.1044 22.6224 27.2842 22.8322 27.3008C22.9687 27.3108 23.0719 27.2642 23.1518 27.2076C23.1751 27.1909 23.1984 27.171 23.2217 27.151L23.2917 27.0877C23.4748 26.9146 23.6013 26.5084 23.6512 26.3386L23.6945 26.1921L24.4903 23.4319C24.5502 23.2155 24.3871 22.9991 24.1607 22.9991Z" fill="black"/>
<path d="M26.4514 23.1096C26.2849 23.0064 26.0851 22.9531 25.8521 22.9531C25.6124 22.9531 25.4059 22.9997 25.2361 23.0963C25.0663 23.1895 24.9365 23.3294 24.8466 23.5058C24.7567 23.6856 24.7134 23.902 24.7134 24.1551V24.9342C24.7134 25.1739 24.76 25.3804 24.8532 25.5502C24.9464 25.7233 25.0796 25.8531 25.2561 25.943C25.4292 26.0329 25.6423 26.0796 25.8887 26.0796C26.1684 26.0796 26.3948 26.0163 26.5713 25.8931C26.6245 25.8565 26.6745 25.8099 26.7178 25.7599C26.8776 25.5768 26.801 25.2905 26.5746 25.2039L26.548 25.1939C26.4148 25.144 26.2716 25.1839 26.1717 25.2871C26.1584 25.3004 26.1451 25.3138 26.1284 25.3271C26.0585 25.3804 25.9719 25.407 25.8654 25.407C25.7256 25.407 25.619 25.367 25.5424 25.2871C25.4659 25.2072 25.4292 25.094 25.4292 24.9475V24.8143H26.4214C26.7178 24.8143 26.9575 24.5746 26.9575 24.2783C26.9575 23.9986 26.9142 23.7589 26.8276 23.5591C26.7411 23.3627 26.6145 23.2128 26.4514 23.1096ZM26.2416 24.275H25.4326V24.1251C25.4326 23.972 25.4692 23.8521 25.5424 23.7655C25.6157 23.6823 25.7189 23.639 25.8487 23.639C25.9653 23.639 26.0585 23.6756 26.1318 23.7522C26.205 23.8288 26.2416 23.9287 26.2416 24.0585V24.275Z" fill="black"/>
<path d="M28.9952 23.1156C28.9785 23.1056 28.9619 23.0989 28.9452 23.0923C28.892 23.0723 28.8354 23.0623 28.7754 23.0623C28.6123 23.0623 28.4658 23.1122 28.3293 23.2154C28.2227 23.2954 28.1328 23.3986 28.0596 23.5251V23.3952C28.0596 23.1755 27.8831 22.999 27.6634 22.999C27.4436 22.999 27.2672 23.1755 27.2672 23.3952V25.6427C27.2672 25.8624 27.4436 26.0389 27.6634 26.0389C27.8831 26.0389 28.0596 25.8624 28.0596 25.6427V24.4174C28.0596 24.2343 28.1062 24.0911 28.1994 23.9879C28.2926 23.8847 28.4225 23.8314 28.5856 23.8314C28.6389 23.8314 28.6889 23.8347 28.7355 23.8447C28.8021 23.858 28.8687 23.8247 28.892 23.7582L29.0518 23.2654C29.0684 23.2121 29.0485 23.1455 28.9952 23.1156Z" fill="black"/>
</svg>
