<svg width="348" height="348" viewBox="0 0 348 348" fill="none" xmlns="http://www.w3.org/2000/svg">
<g clip-path="url(#clip0_6161_7491)">
<path d="M60.5218 253.377C59.001 252.544 57.082 251.784 54.7646 251.06C54.656 251.023 54.5836 251.023 54.5112 250.987C54.4387 250.951 54.3301 250.915 54.2215 250.915C54.0767 250.879 53.968 250.842 53.8232 250.77C53.6784 250.734 53.5697 250.698 53.4249 250.661C51.7593 250.118 50.492 249.647 49.5506 249.249C48.6091 248.851 47.8487 248.272 47.197 247.547C46.5452 246.823 46.2556 245.918 46.2556 244.759V243.202C46.2556 241.899 46.7263 240.849 47.7039 240.088C48.5729 239.4 49.804 239.038 51.361 238.966C52.7007 238.93 54.6198 239.545 55.5974 240.414C55.9233 240.704 56.213 240.994 56.4664 241.356C57.6613 242.913 59.7252 243.492 61.4994 242.659L61.8253 242.514C64.034 241.464 64.8306 238.749 63.5633 236.649C63.2737 236.214 62.984 235.78 62.6943 235.381C61.5357 233.897 60.0511 232.81 58.3131 232.086C56.575 231.362 54.5474 231 52.2662 231C49.2247 231 46.6539 231.507 44.5176 232.485C42.3813 233.498 40.7881 234.947 39.6656 236.83C38.5431 238.749 38 241.03 38 243.673V244.94C38 247.765 38.5793 250.01 39.7018 251.711C40.8243 253.413 42.2002 254.644 43.7934 255.441C45.3866 256.237 47.4505 257.034 49.9851 257.794L50.3834 257.903C50.4196 257.939 50.4558 257.939 50.492 257.939C50.5282 257.939 50.6006 257.975 50.673 258.012C52.23 258.482 53.4611 258.917 54.4387 259.315C55.3802 259.713 56.1768 260.257 56.7561 260.908C57.3354 261.596 57.6613 262.429 57.6613 263.479V265.507C57.6613 266.955 57.1544 268.078 56.1405 268.874C55.1267 269.671 53.7146 270.069 51.8679 270.069C50.0937 270.069 48.6091 269.598 47.378 268.621C46.9435 268.295 46.5452 267.897 46.1832 267.426C44.9159 265.833 42.7433 265.253 40.8605 266.086C38.3259 267.209 37.3844 270.359 38.9414 272.64C39.1587 272.93 39.3759 273.219 39.5932 273.509C40.8605 275.03 42.4899 276.188 44.4813 276.949C46.4728 277.709 48.754 278.107 51.3972 278.107C54.4387 278.107 57.0458 277.601 59.2183 276.623C61.3908 275.609 63.0564 274.161 64.2151 272.278C65.3738 270.359 65.9169 268.078 65.9169 265.434V263.552C65.9169 260.872 65.41 258.7 64.3599 257.07C63.3099 255.441 62.0426 254.21 60.5218 253.377Z" fill="#F2F2F2"/>
<path d="M87.6783 245.52C85.8679 244.614 83.6954 244.18 81.1608 244.18C78.6262 244.18 76.4537 244.614 74.6432 245.52C72.8328 246.425 71.4568 247.728 70.5154 249.466C69.574 251.204 69.1033 253.268 69.1033 255.73V266.557C69.1033 269.019 69.574 271.119 70.5154 272.857C71.4568 274.595 72.8328 275.935 74.6432 276.84C76.4537 277.745 78.6262 278.216 81.1608 278.216C83.6954 278.216 85.8679 277.745 87.6783 276.84C89.4888 275.935 90.8647 274.595 91.8061 272.893C92.7475 271.155 93.2183 269.092 93.2183 266.629V255.73C93.2183 253.305 92.7475 251.204 91.8061 249.466C90.8647 247.728 89.4888 246.425 87.6783 245.52ZM84.9989 266.303C84.9989 267.607 84.673 268.657 83.9851 269.381C83.3333 270.105 82.3919 270.467 81.1608 270.467C79.9297 270.467 78.9882 270.105 78.3365 269.381C77.6847 268.657 77.3589 267.643 77.3589 266.303V255.984C77.3589 254.68 77.6847 253.667 78.3727 252.979C79.0245 252.254 79.9659 251.892 81.197 251.892C82.3919 251.892 83.3333 252.254 84.0213 252.942C84.673 253.667 85.0351 254.68 85.0351 255.984V266.303H84.9989Z" fill="#F2F2F2"/>
<path d="M105.928 253.196C106.688 252.327 107.738 251.892 109.078 251.892C110.128 251.892 110.997 252.218 111.648 252.87C111.757 252.979 111.902 253.123 112.011 253.268C113.097 254.717 115.016 255.26 116.718 254.68C119.361 253.775 120.447 250.625 118.89 248.308C118.854 248.272 118.818 248.199 118.782 248.163C117.84 246.787 116.537 245.773 114.943 245.158C113.35 244.506 111.395 244.18 109.15 244.18C106.507 244.18 104.226 244.651 102.307 245.628C100.424 246.606 98.9754 248.018 97.9616 249.865C96.9478 251.711 96.4771 253.956 96.4771 256.527V265.978C96.4771 268.548 96.984 270.757 97.9616 272.568C98.9754 274.414 100.424 275.79 102.307 276.768C104.189 277.709 106.471 278.216 109.15 278.216C111.431 278.216 113.386 277.89 114.98 277.275C116.573 276.659 117.84 275.681 118.782 274.342L118.818 274.306C120.411 272.024 119.325 268.838 116.681 267.933L116.609 267.897C114.907 267.281 113.024 267.897 111.866 269.273C111.793 269.381 111.721 269.454 111.612 269.526C110.961 270.178 110.128 270.467 109.041 270.467C107.666 270.467 106.615 270.033 105.891 269.2C105.131 268.367 104.769 267.172 104.769 265.652V256.853C104.769 255.26 105.131 254.029 105.928 253.196Z" fill="#F2F2F2"/>
<path d="M127.11 231.471H127.037C124.756 231.471 122.909 233.317 122.909 235.598C122.909 237.88 124.756 239.726 127.037 239.726H127.11C129.391 239.726 131.237 237.88 131.237 235.598C131.237 233.317 129.391 231.471 127.11 231.471Z" fill="#F2F2F2"/>
<path d="M127.11 244.687H127.037C124.756 244.687 122.909 246.533 122.909 248.815V273.618C122.909 275.899 124.756 277.745 127.037 277.745H127.11C129.391 277.745 131.237 275.899 131.237 273.618V248.815C131.237 246.533 129.391 244.687 127.11 244.687Z" fill="#F2F2F2"/>
<path d="M153.506 245.483C151.731 244.614 149.595 244.18 147.133 244.18C144.236 244.18 141.81 244.832 139.855 246.135C139.819 246.135 139.819 246.171 139.783 246.171C137.031 248.018 137.538 252.218 140.615 253.486C141.557 253.884 142.643 253.667 143.403 253.015C143.693 252.761 143.983 252.58 144.309 252.363C145.141 251.929 146.047 251.711 147.024 251.711C148.364 251.711 149.414 252.037 150.174 252.689C150.935 253.341 151.297 254.246 151.297 255.441V258.084H146.155C142.39 258.084 139.565 258.953 137.646 260.727C135.727 262.502 134.786 265.072 134.786 268.44C134.786 271.699 135.546 274.125 137.067 275.79C138.588 277.456 140.833 278.289 143.874 278.289C145.322 278.289 146.662 278.035 147.821 277.564C149.016 277.094 149.957 276.369 150.681 275.392C150.935 275.066 151.116 274.74 151.297 274.342C151.333 276.261 152.926 277.818 154.845 277.818H155.425C157.38 277.818 158.973 276.225 158.973 274.269V255.368C158.973 253.051 158.502 251.023 157.561 249.394C156.62 247.62 155.28 246.352 153.506 245.483ZM149.993 270.576C149.124 271.155 147.821 271.445 146.119 271.445C144.888 271.445 143.983 271.192 143.367 270.685C142.752 270.178 142.462 269.417 142.462 268.404C142.462 267.1 142.788 266.122 143.476 265.507C144.128 264.855 145.141 264.529 146.409 264.529H151.333V268.041C151.297 269.128 150.862 269.997 149.993 270.576Z" fill="#F2F2F2"/>
<path d="M171.429 269.055C171.031 268.621 170.813 268.042 170.813 267.281V235.743C170.813 233.462 169.039 231.507 166.758 231.471C164.441 231.435 162.558 233.281 162.558 235.599V268.983C162.558 271.771 163.282 273.907 164.73 275.428C166.179 276.949 168.206 277.709 170.777 277.709H177.44C177.729 277.709 177.983 277.456 177.983 277.166V270.214C177.983 269.924 177.729 269.671 177.44 269.671H173.167C172.407 269.671 171.827 269.454 171.429 269.055Z" fill="#F2F2F2"/>
<path d="M210.136 269.743H203.836V235.743C203.836 233.462 202.062 231.507 199.78 231.471C197.463 231.435 195.58 233.281 195.58 235.599V276.876C195.58 277.347 195.978 277.745 196.449 277.745H199.129H203.872H210.317C212.562 277.745 214.336 275.899 214.3 273.69C214.228 271.481 212.345 269.743 210.136 269.743Z" fill="#F2F2F2"/>
<path d="M234.251 245.483C232.477 244.614 230.341 244.18 227.878 244.18C224.982 244.18 222.556 244.832 220.6 246.135C220.564 246.135 220.564 246.171 220.528 246.171C217.776 248.018 218.283 252.218 221.361 253.486C222.302 253.884 223.389 253.667 224.149 253.015C224.439 252.761 224.728 252.58 225.054 252.363C225.887 251.929 226.792 251.711 227.77 251.711C229.11 251.711 230.196 252.037 230.92 252.689C231.68 253.341 232.042 254.246 232.042 255.441V258.084H226.901C223.135 258.084 220.311 258.953 218.392 260.727C216.473 262.502 215.531 265.072 215.531 268.44C215.531 271.699 216.292 274.125 217.812 275.79C219.333 277.456 221.578 278.289 224.62 278.289C226.068 278.289 227.408 278.035 228.566 277.564C229.761 277.094 230.703 276.369 231.427 275.392C231.68 275.066 231.861 274.74 232.042 274.342C232.079 276.261 233.636 277.782 235.555 277.782H236.17C238.125 277.782 239.682 276.188 239.682 274.269V255.332C239.682 253.015 239.212 250.987 238.27 249.358C237.365 247.62 236.025 246.352 234.251 245.483ZM230.739 270.576C229.87 271.155 228.566 271.445 226.865 271.445C225.633 271.445 224.728 271.192 224.113 270.685C223.497 270.178 223.207 269.417 223.207 268.404C223.207 267.1 223.533 266.122 224.221 265.507C224.873 264.855 225.887 264.529 227.154 264.529H232.079V268.041C232.042 269.128 231.608 269.997 230.739 270.576Z" fill="#F2F2F2"/>
<path d="M262.747 244.687H262.675C261.009 244.687 259.561 245.809 259.126 247.403L254.6 264.312L249.495 247.403C249.024 245.846 247.612 244.687 245.946 244.687C243.412 244.651 241.638 247.113 242.398 249.539L251.269 276.695L250.219 280.57C249.929 281.62 249.531 282.923 248.952 283.322H247.974C245.91 283.322 244.281 285.023 244.281 287.051C244.281 289.332 246.019 291.287 248.3 291.469C249.785 291.577 250.907 291.07 251.776 290.455C252.029 290.274 252.283 290.056 252.536 289.839L253.297 289.151C255.288 287.268 256.664 282.851 257.207 281.004L257.678 279.411L266.332 249.394C266.984 247.04 265.209 244.687 262.747 244.687Z" fill="#F2F2F2"/>
<path d="M287.659 245.882C285.848 244.759 283.676 244.18 281.141 244.18C278.534 244.18 276.289 244.687 274.443 245.737C272.596 246.751 271.184 248.272 270.206 250.191C269.229 252.146 268.758 254.499 268.758 257.251V265.724C268.758 268.331 269.265 270.576 270.279 272.423C271.293 274.306 272.741 275.718 274.66 276.695C276.543 277.673 278.86 278.18 281.54 278.18C284.581 278.18 287.043 277.492 288.962 276.152C289.542 275.754 290.085 275.247 290.556 274.704C292.294 272.712 291.461 269.598 288.999 268.657L288.709 268.548C287.261 268.005 285.704 268.44 284.617 269.562C284.473 269.707 284.328 269.852 284.147 269.997C283.386 270.576 282.445 270.866 281.286 270.866C279.765 270.866 278.607 270.431 277.774 269.562C276.941 268.693 276.543 267.462 276.543 265.869V264.421H287.333C290.556 264.421 293.163 261.814 293.163 258.591C293.163 255.549 292.692 252.942 291.75 250.77C290.809 248.634 289.433 247.004 287.659 245.882ZM285.378 258.555H276.579V256.925C276.579 255.26 276.977 253.956 277.774 253.015C278.57 252.11 279.693 251.639 281.105 251.639C282.372 251.639 283.386 252.037 284.183 252.87C284.979 253.703 285.378 254.789 285.378 256.201V258.555Z" fill="#F2F2F2"/>
<path d="M315.322 245.954C315.141 245.845 314.96 245.773 314.779 245.701C314.2 245.483 313.584 245.375 312.933 245.375C311.158 245.375 309.565 245.918 308.081 247.04C306.922 247.909 305.944 249.032 305.148 250.408V248.996C305.148 246.606 303.229 244.687 300.839 244.687C298.449 244.687 296.53 246.606 296.53 248.996V273.436C296.53 275.826 298.449 277.745 300.839 277.745C303.229 277.745 305.148 275.826 305.148 273.436V260.112C305.148 258.12 305.655 256.563 306.668 255.441C307.682 254.318 309.094 253.739 310.869 253.739C311.448 253.739 311.991 253.775 312.498 253.884C313.222 254.029 313.946 253.667 314.2 252.942L315.938 247.583C316.119 247.004 315.902 246.28 315.322 245.954Z" fill="#F2F2F2"/>
<path d="M244.181 94.4552V192.273H85.2272V94.4552H244.181ZM244.181 82.228H85.2272C78.5022 82.228 73 87.7303 73 94.4552V192.273C73 198.998 78.5022 204.5 85.2272 204.5H244.181C250.906 204.5 256.408 198.998 256.408 192.273V94.4552C256.408 87.7303 250.967 82.228 244.181 82.228Z" fill="#F2F2F2"/>
<path d="M103.568 180.045C100.205 180.045 97.4543 177.294 97.4543 173.932V76.1143C97.4543 72.7519 100.205 70.0007 103.568 70.0007H262.521C265.884 70.0007 268.635 72.7519 268.635 76.1143V173.932C268.635 177.294 265.884 180.045 262.521 180.045H103.568Z" fill="#9EFEDD"/>
<path d="M262.438 76.2272V174.045H103.485V76.2272H262.438ZM262.438 64H103.485C96.7599 64 91.2577 69.5022 91.2577 76.2272V174.045C91.2577 180.77 96.7599 186.272 103.485 186.272H262.438C269.163 186.272 274.666 180.77 274.666 174.045V76.2272C274.666 69.5022 269.225 64 262.438 64Z" fill="#F2F2F2"/>
<path d="M158.59 143.364H140.249C135.175 143.364 131.079 139.268 131.079 134.194C131.079 129.119 135.175 125.023 140.249 125.023H158.59C163.665 125.023 167.761 129.119 167.761 134.194C167.761 139.268 163.665 143.364 158.59 143.364Z" fill="#6CD7B2"/>
<path d="M250.294 143.364H231.953C226.879 143.364 222.783 139.268 222.783 134.194C222.783 129.119 226.879 125.023 231.953 125.023H250.294C255.369 125.023 259.465 129.119 259.465 134.194C259.465 139.268 255.369 143.364 250.294 143.364Z" fill="#6CD7B2"/>
<path d="M158.59 137.25C156.879 137.25 155.534 135.905 155.534 134.194V103.626C155.534 101.914 156.879 100.569 158.59 100.569C160.302 100.569 161.647 101.914 161.647 103.626V134.194C161.647 135.905 160.302 137.25 158.59 137.25Z" fill="#FF7BAC"/>
<path d="M158.59 94.4553C153.516 94.4553 149.42 98.5514 149.42 103.626V134.194C149.42 139.268 153.516 143.364 158.59 143.364C163.665 143.364 167.761 139.268 167.761 134.194V103.626C167.761 98.5514 163.665 94.4553 158.59 94.4553Z" fill="#307960"/>
<path d="M231.954 137.25C230.242 137.25 228.897 135.905 228.897 134.194V103.626C228.897 101.914 230.242 100.569 231.954 100.569C233.665 100.569 235.01 101.914 235.01 103.626V134.194C235.01 135.905 233.665 137.25 231.954 137.25Z" fill="#FF7BAC"/>
<path d="M231.953 94.4553C226.879 94.4553 222.783 98.5514 222.783 103.626V134.194C222.783 139.268 226.879 143.364 231.953 143.364C237.028 143.364 241.124 139.268 241.124 134.194V103.626C241.124 98.5514 237.028 94.4553 231.953 94.4553Z" fill="#307960"/>
</g>
<defs>
<clipPath id="clip0_6161_7491">
<rect width="348" height="348" fill="white"/>
</clipPath>
</defs>
</svg>
