<svg width="13" height="13" viewBox="0 0 13 13" fill="none" xmlns="http://www.w3.org/2000/svg">
<path d="M11.4738 7.43176C11.2866 7.43176 11.107 7.50613 10.9747 7.63851C10.8423 7.77089 10.7679 7.95044 10.7679 8.13765V10.3824C10.7679 10.5696 10.6936 10.7491 10.5612 10.8815C10.4288 11.0139 10.2493 11.0882 10.062 11.0882H2.29733C2.11012 11.0882 1.93058 11.0139 1.7982 10.8815C1.66582 10.7491 1.59145 10.5696 1.59145 10.3824V2.61765C1.59145 2.43044 1.66582 2.25089 1.7982 2.11851C1.93058 1.98613 2.11012 1.91176 2.29733 1.91176H4.54204C4.72925 1.91176 4.9088 1.8374 5.04117 1.70502C5.17355 1.57264 5.24792 1.39309 5.24792 1.20588C5.24792 1.01867 5.17355 0.839127 5.04117 0.706748C4.9088 0.57437 4.72925 0.5 4.54204 0.5H2.29733C1.7357 0.5 1.19707 0.723109 0.799932 1.12024C0.402796 1.51738 0.179688 2.05601 0.179688 2.61765V10.3824C0.179688 10.944 0.402796 11.4826 0.799932 11.8798C1.19707 12.2769 1.7357 12.5 2.29733 12.5H10.062C10.6237 12.5 11.1623 12.2769 11.5594 11.8798C11.9566 11.4826 12.1797 10.944 12.1797 10.3824V8.13765C12.1797 7.95044 12.1053 7.77089 11.9729 7.63851C11.8406 7.50613 11.661 7.43176 11.4738 7.43176ZM12.1232 0.937647C12.0516 0.765165 11.9145 0.6281 11.742 0.556471C11.6572 0.5203 11.566 0.501115 11.4738 0.5H7.23851C7.0513 0.5 6.87176 0.57437 6.73938 0.706748C6.607 0.839127 6.53263 1.01867 6.53263 1.20588C6.53263 1.39309 6.607 1.57264 6.73938 1.70502C6.87176 1.8374 7.0513 1.91176 7.23851 1.91176H9.77263L4.61969 7.05765C4.55353 7.12327 4.50101 7.20134 4.46518 7.28736C4.42934 7.37338 4.41089 7.46564 4.41089 7.55882C4.41089 7.65201 4.42934 7.74427 4.46518 7.83029C4.50101 7.91631 4.55353 7.99438 4.61969 8.06C4.68531 8.12616 4.76338 8.17867 4.8494 8.21451C4.93542 8.25035 5.02768 8.2688 5.12086 8.2688C5.21405 8.2688 5.30631 8.25035 5.39233 8.21451C5.47835 8.17867 5.55642 8.12616 5.62204 8.06L10.7679 2.90706V5.44118C10.7679 5.62839 10.8423 5.80793 10.9747 5.94031C11.107 6.07269 11.2866 6.14706 11.4738 6.14706C11.661 6.14706 11.8406 6.07269 11.9729 5.94031C12.1053 5.80793 12.1797 5.62839 12.1797 5.44118V1.20588C12.1786 1.11364 12.1594 1.02251 12.1232 0.937647Z" fill="#7492EF"/>
</svg>
