<svg width="102" height="32" viewBox="0 0 102 32" fill="none" xmlns="http://www.w3.org/2000/svg">
<g clip-path="url(#clip0_3650_6667)">
<path d="M24.6733 10.8419V22.546H5.65417V10.8419H24.6733ZM24.6733 9.37891H5.65417C4.84952 9.37891 4.19116 10.0373 4.19116 10.8419V22.546C4.19116 23.3507 4.84952 24.009 5.65417 24.009H24.6733C25.478 24.009 26.1363 23.3507 26.1363 22.546V10.8419C26.1363 10.0299 25.4853 9.37891 24.6733 9.37891Z" fill="#272928"/>
<path d="M7.84869 21.0831C7.44636 21.0831 7.11719 20.7539 7.11719 20.3516V8.64752C7.11719 8.24519 7.44636 7.91602 7.84869 7.91602H26.8678C27.2701 7.91602 27.5993 8.24519 27.5993 8.64752V20.3516C27.5993 20.7539 27.2701 21.0831 26.8678 21.0831H7.84869Z" fill="#9EFEDD"/>
<path d="M26.8679 8.64758V20.3517H7.84875V8.64758H26.8679ZM26.8679 7.18457H7.84875C7.0441 7.18457 6.38574 7.84292 6.38574 8.64758V20.3517C6.38574 21.1563 7.0441 21.8147 7.84875 21.8147H26.8679C27.6725 21.8147 28.3309 21.1563 28.3309 20.3517V8.64758C28.3309 7.83561 27.6799 7.18457 26.8679 7.18457Z" fill="#272928"/>
<path d="M14.4324 16.6945H12.2379C11.6307 16.6945 11.1406 16.2044 11.1406 15.5973C11.1406 14.9901 11.6307 14.5 12.2379 14.5H14.4324C15.0395 14.5 15.5297 14.9901 15.5297 15.5973C15.5297 16.2044 15.0395 16.6945 14.4324 16.6945Z" fill="#6CD7B2"/>
<path d="M25.4048 16.6945H23.2103C22.6031 16.6945 22.113 16.2044 22.113 15.5973C22.113 14.9901 22.6031 14.5 23.2103 14.5H25.4048C26.012 14.5 26.5021 14.9901 26.5021 15.5973C26.5021 16.2044 26.012 16.6945 25.4048 16.6945Z" fill="#6CD7B2"/>
<path d="M14.4324 15.9623C14.2276 15.9623 14.0667 15.8013 14.0667 15.5965V11.939C14.0667 11.7342 14.2276 11.5732 14.4324 11.5732C14.6372 11.5732 14.7982 11.7342 14.7982 11.939V15.5965C14.7982 15.794 14.6372 15.9623 14.4324 15.9623Z" fill="#FF7BAC"/>
<path d="M14.4322 10.8418C13.8251 10.8418 13.335 11.3319 13.335 11.9391V15.5966C13.335 16.2037 13.8251 16.6938 14.4322 16.6938C15.0394 16.6938 15.5295 16.2037 15.5295 15.5966V11.9391C15.5295 11.3319 15.0394 10.8418 14.4322 10.8418Z" fill="#272928"/>
<path d="M23.2105 15.9623C23.0057 15.9623 22.8447 15.8013 22.8447 15.5965V11.939C22.8447 11.7342 23.0057 11.5732 23.2105 11.5732C23.4153 11.5732 23.5762 11.7342 23.5762 11.939V15.5965C23.5762 15.794 23.4153 15.9623 23.2105 15.9623Z" fill="#FF7BAC"/>
<path d="M23.2103 10.8418C22.6031 10.8418 22.113 11.3319 22.113 11.9391V15.5966C22.113 16.2037 22.6031 16.6938 23.2103 16.6938C23.8174 16.6938 24.3076 16.2037 24.3076 15.5966V11.9391C24.3076 11.3319 23.8174 10.8418 23.2103 10.8418Z" fill="#272928"/>
<path d="M40.099 15.4422C39.7473 15.2496 39.3035 15.0738 38.7676 14.9063C38.7425 14.8979 38.7258 14.8979 38.709 14.8895C38.6923 14.8812 38.6671 14.8728 38.642 14.8728C38.6085 14.8644 38.5834 14.8561 38.5499 14.8393C38.5164 14.8309 38.4913 14.8226 38.4578 14.8142C38.0727 14.6886 37.7796 14.5797 37.5619 14.4876C37.3442 14.3955 37.1684 14.2616 37.0176 14.0941C36.8669 13.9266 36.7999 13.7173 36.7999 13.4494V13.0893C36.7999 12.7879 36.9088 12.5451 37.1349 12.3692C37.3358 12.2101 37.6205 12.1264 37.9805 12.1097C38.2904 12.1013 38.7341 12.2436 38.9602 12.4446C39.0356 12.5116 39.1026 12.5786 39.1612 12.6623C39.4375 13.0223 39.9147 13.1563 40.325 12.9637L40.4004 12.9302C40.9111 12.6874 41.0954 12.0594 40.8023 11.5738C40.7353 11.4733 40.6683 11.3728 40.6013 11.2807C40.3334 10.9374 39.9901 10.6862 39.5882 10.5188C39.1863 10.3513 38.7174 10.2676 38.1899 10.2676C37.4865 10.2676 36.892 10.3848 36.398 10.6109C35.904 10.8453 35.5356 11.1802 35.276 11.6157C35.0165 12.0594 34.8909 12.5869 34.8909 13.1982V13.4912C34.8909 14.1443 35.0248 14.6635 35.2844 15.057C35.544 15.4505 35.8622 15.7352 36.2306 15.9194C36.599 16.1036 37.0763 16.2879 37.6624 16.4637L37.7545 16.4888C37.7629 16.4972 37.7712 16.4972 37.7796 16.4972C37.788 16.4972 37.8047 16.5056 37.8215 16.5139C38.1815 16.6228 38.4662 16.7233 38.6923 16.8154C38.91 16.9075 39.0942 17.0331 39.2281 17.1838C39.3621 17.3429 39.4375 17.5354 39.4375 17.7783V18.2472C39.4375 18.5821 39.3202 18.8417 39.0858 19.0259C38.8514 19.2101 38.5248 19.3022 38.0978 19.3022C37.6875 19.3022 37.3442 19.1933 37.0595 18.9673C36.959 18.8919 36.8669 18.7998 36.7832 18.6909C36.4901 18.3225 35.9877 18.1886 35.5523 18.3811C34.9662 18.6407 34.7485 19.3692 35.1086 19.8967C35.1588 19.9637 35.209 20.0306 35.2593 20.0976C35.5523 20.4493 35.9291 20.7172 36.3897 20.8931C36.8502 21.0689 37.3777 21.161 37.9889 21.161C38.6923 21.161 39.2951 21.0438 39.7975 20.8177C40.2999 20.5833 40.6851 20.2483 40.953 19.8129C41.2209 19.3692 41.3465 18.8417 41.3465 18.2304V17.795C41.3465 17.1754 41.2293 16.673 40.9865 16.2962C40.7437 15.9194 40.4506 15.6347 40.099 15.4422Z" fill="#272928"/>
<path d="M46.3787 13.6252C45.96 13.4159 45.4576 13.3154 44.8715 13.3154C44.2854 13.3154 43.783 13.4159 43.3643 13.6252C42.9457 13.8346 42.6275 14.136 42.4098 14.5379C42.1921 14.9398 42.0833 15.4171 42.0833 15.9865V18.49C42.0833 19.0594 42.1921 19.545 42.4098 19.9469C42.6275 20.3489 42.9457 20.6587 43.3643 20.868C43.783 21.0773 44.2854 21.1862 44.8715 21.1862C45.4576 21.1862 45.96 21.0773 46.3787 20.868C46.7973 20.6587 47.1155 20.3489 47.3332 19.9553C47.5509 19.5534 47.6598 19.0761 47.6598 18.5068V15.9865C47.6598 15.4255 47.5509 14.9398 47.3332 14.5379C47.1155 14.136 46.7973 13.8346 46.3787 13.6252ZM45.7591 18.4314C45.7591 18.7328 45.6837 18.9757 45.5246 19.1431C45.3739 19.3106 45.1562 19.3943 44.8715 19.3943C44.5868 19.3943 44.3691 19.3106 44.2184 19.1431C44.0677 18.9757 43.9923 18.7412 43.9923 18.4314V16.0451C43.9923 15.7436 44.0677 15.5092 44.2268 15.3501C44.3775 15.1826 44.5952 15.0989 44.8799 15.0989C45.1562 15.0989 45.3739 15.1826 45.533 15.3417C45.6837 15.5092 45.7674 15.7436 45.7674 16.0451V18.4314H45.7591Z" fill="#272928"/>
<path d="M50.5987 15.4003C50.7745 15.1994 51.0174 15.0989 51.3272 15.0989C51.57 15.0989 51.7709 15.1743 51.9217 15.325C51.9468 15.3501 51.9803 15.3836 52.0054 15.4171C52.2566 15.752 52.7004 15.8776 53.0939 15.7436C53.7051 15.5343 53.9563 14.8058 53.5963 14.27C53.5879 14.2616 53.5795 14.2448 53.5712 14.2365C53.3535 13.9183 53.052 13.6838 52.6836 13.5415C52.3152 13.3908 51.8631 13.3154 51.3439 13.3154C50.7327 13.3154 50.2052 13.4243 49.7614 13.6504C49.326 13.8764 48.9911 14.203 48.7566 14.63C48.5222 15.057 48.4133 15.5762 48.4133 16.1707V18.3561C48.4133 18.9505 48.5306 19.4613 48.7566 19.88C48.9911 20.307 49.326 20.6252 49.7614 20.8512C50.1968 21.0689 50.7243 21.1862 51.3439 21.1862C51.8714 21.1862 52.3236 21.1108 52.692 20.9685C53.0604 20.8261 53.3535 20.6 53.5712 20.2902L53.5795 20.2819C53.948 19.7544 53.6968 19.0175 53.0855 18.8082L53.0688 18.7998C52.6752 18.6575 52.2398 18.7998 51.9719 19.118C51.9552 19.1431 51.9384 19.1599 51.9133 19.1766C51.7626 19.3273 51.57 19.3943 51.3188 19.3943C51.0006 19.3943 50.7578 19.2938 50.5903 19.1013C50.4145 18.9087 50.3308 18.6324 50.3308 18.2807V16.246C50.3308 15.8776 50.4145 15.5929 50.5987 15.4003Z" fill="#272928"/>
<path d="M55.4972 10.376H55.4804C54.9529 10.376 54.5259 10.803 54.5259 11.3305C54.5259 11.858 54.9529 12.285 55.4804 12.285H55.4972C56.0247 12.285 56.4517 11.858 56.4517 11.3305C56.4517 10.803 56.0247 10.376 55.4972 10.376Z" fill="#272928"/>
<path d="M55.4972 13.4326H55.4804C54.9529 13.4326 54.5259 13.8596 54.5259 14.3872V20.1227C54.5259 20.6502 54.9529 21.0773 55.4804 21.0773H55.4972C56.0247 21.0773 56.4517 20.6502 56.4517 20.1227V14.3872C56.4517 13.8596 56.0247 13.4326 55.4972 13.4326Z" fill="#272928"/>
<path d="M61.6011 13.6169C61.1908 13.4159 60.6968 13.3154 60.1274 13.3154C59.4576 13.3154 58.8966 13.4661 58.4445 13.7676C58.4361 13.7676 58.4361 13.776 58.4277 13.776C57.7913 14.203 57.9086 15.1743 58.6203 15.4673C58.838 15.5594 59.0892 15.5092 59.265 15.3585C59.332 15.2999 59.399 15.258 59.4743 15.2078C59.6669 15.1073 59.8763 15.057 60.1023 15.057C60.4121 15.057 60.655 15.1324 60.8308 15.2831C61.0066 15.4338 61.0904 15.6432 61.0904 15.9195V16.5307H59.9014C59.0306 16.5307 58.3775 16.7317 57.9337 17.1419C57.4899 17.5522 57.2722 18.1467 57.2722 18.9254C57.2722 19.679 57.4481 20.24 57.7997 20.6252C58.1514 21.0103 58.6705 21.2029 59.3739 21.2029C59.7088 21.2029 60.0186 21.1443 60.2865 21.0354C60.5629 20.9266 60.7806 20.7591 60.948 20.5331C61.0066 20.4577 61.0485 20.3823 61.0904 20.2902C61.0987 20.734 61.4672 21.0941 61.9109 21.0941H62.0449C62.497 21.0941 62.8655 20.7256 62.8655 20.2735V15.9027C62.8655 15.3668 62.7566 14.8979 62.5389 14.5212C62.3212 14.1109 62.0114 13.8178 61.6011 13.6169ZM60.7889 19.4194C60.588 19.5534 60.2865 19.6204 59.893 19.6204C59.6083 19.6204 59.399 19.5618 59.2566 19.4446C59.1143 19.3273 59.0473 19.1515 59.0473 18.917C59.0473 18.6156 59.1227 18.3895 59.2818 18.2472C59.4325 18.0965 59.6669 18.0211 59.96 18.0211H61.0987V18.8333C61.0904 19.0845 60.9899 19.2855 60.7889 19.4194Z" fill="#272928"/>
<path d="M65.7458 19.0674C65.6536 18.9669 65.6034 18.833 65.6034 18.6571V11.3641C65.6034 10.8366 65.1931 10.3845 64.6656 10.3761C64.1297 10.3677 63.6943 10.7948 63.6943 11.3306V19.0507C63.6943 19.6954 63.8618 20.1894 64.1967 20.5411C64.5316 20.8927 65.0005 21.0686 65.595 21.0686H67.1357C67.2027 21.0686 67.2613 21.01 67.2613 20.943V19.3353C67.2613 19.2684 67.2027 19.2097 67.1357 19.2097H66.1477C65.9718 19.2097 65.8379 19.1595 65.7458 19.0674Z" fill="#272928"/>
<path d="M74.6966 19.2265H73.2396V11.3641C73.2396 10.8366 72.8294 10.3845 72.3018 10.3761C71.766 10.3677 71.3306 10.7948 71.3306 11.3306V20.876C71.3306 20.9848 71.4227 21.077 71.5315 21.077H72.1511H73.248H74.7384C75.2576 21.077 75.6678 20.6499 75.6595 20.1392C75.6427 19.6284 75.2073 19.2265 74.6966 19.2265Z" fill="#272928"/>
<path d="M80.2732 13.6169C79.863 13.4159 79.3689 13.3154 78.7996 13.3154C78.1297 13.3154 77.5687 13.4661 77.1166 13.7676C77.1082 13.7676 77.1082 13.776 77.0998 13.776C76.4635 14.203 76.5807 15.1743 77.2924 15.4673C77.5101 15.5594 77.7613 15.5092 77.9371 15.3585C78.0041 15.2999 78.0711 15.258 78.1465 15.2078C78.3391 15.1073 78.5484 15.057 78.7745 15.057C79.0843 15.057 79.3355 15.1324 79.5029 15.2831C79.6787 15.4338 79.7625 15.6432 79.7625 15.9195V16.5307H78.5735C77.7027 16.5307 77.0496 16.7317 76.6058 17.1419C76.162 17.5522 75.9443 18.1467 75.9443 18.9254C75.9443 19.679 76.1202 20.24 76.4718 20.6252C76.8235 21.0103 77.3426 21.2029 78.046 21.2029C78.3809 21.2029 78.6907 21.1443 78.9587 21.0354C79.235 20.9266 79.4527 20.7591 79.6201 20.5331C79.6788 20.4577 79.7206 20.3823 79.7625 20.2902C79.7709 20.734 80.1309 21.0857 80.5747 21.0857H80.717C81.1692 21.0857 81.5292 20.7173 81.5292 20.2735V15.8944C81.5292 15.3585 81.4204 14.8896 81.2027 14.5128C80.9933 14.1109 80.6835 13.8178 80.2732 13.6169ZM79.461 19.4194C79.2601 19.5534 78.9587 19.6204 78.5651 19.6204C78.2804 19.6204 78.0711 19.5618 77.9288 19.4446C77.7864 19.3273 77.7194 19.1515 77.7194 18.917C77.7194 18.6156 77.7948 18.3895 77.9539 18.2472C78.1046 18.0965 78.339 18.0211 78.6321 18.0211H79.7708V18.8333C79.7625 19.0845 79.662 19.2855 79.461 19.4194Z" fill="#272928"/>
<path d="M86.8627 13.4327H86.846C86.4608 13.4327 86.1259 13.6923 86.0254 14.0607L84.9788 17.9709L83.7982 14.0607C83.6893 13.7006 83.3628 13.4327 82.9776 13.4327C82.3915 13.4243 81.9812 13.9937 82.157 14.5547L84.2085 20.8345L83.9656 21.7305C83.8987 21.9733 83.8065 22.2747 83.6726 22.3668H83.4465C82.9692 22.3668 82.5924 22.7604 82.5924 23.2293C82.5924 23.7568 82.9944 24.2089 83.5219 24.2508C83.8652 24.2759 84.1247 24.1587 84.3257 24.0163C84.3843 23.9745 84.4429 23.9242 84.5015 23.874L84.6774 23.7149C85.1379 23.2795 85.456 22.258 85.5816 21.831L85.6905 21.4625L87.6917 14.5212C87.8424 13.977 87.4321 13.4327 86.8627 13.4327Z" fill="#272928"/>
<path d="M92.6235 13.709C92.2048 13.4494 91.7024 13.3154 91.1163 13.3154C90.5134 13.3154 89.9943 13.4327 89.5673 13.6755C89.1402 13.9099 88.8137 14.2616 88.5876 14.7054C88.3615 15.1575 88.2527 15.7018 88.2527 16.3381V18.2974C88.2527 18.9003 88.3699 19.4194 88.6044 19.8465C88.8388 20.2819 89.1737 20.6084 89.6175 20.8345C90.0529 21.0606 90.5888 21.1778 91.2084 21.1778C91.9117 21.1778 92.4811 21.0187 92.9249 20.7089C93.0589 20.6168 93.1845 20.4996 93.2933 20.374C93.6952 19.9134 93.5026 19.1934 92.9333 18.9757L92.8663 18.9505C92.5313 18.8249 92.1713 18.9254 91.9201 19.185C91.8866 19.2185 91.8531 19.252 91.8113 19.2855C91.6354 19.4194 91.4177 19.4864 91.1498 19.4864C90.7981 19.4864 90.5302 19.3859 90.3376 19.185C90.145 18.984 90.0529 18.6993 90.0529 18.3309V17.996H92.5481C93.2933 17.996 93.8962 17.3931 93.8962 16.6479C93.8962 15.9446 93.7873 15.3417 93.5696 14.8393C93.3519 14.3453 93.0337 13.9685 92.6235 13.709ZM92.096 16.6396H90.0613V16.2628C90.0613 15.8776 90.1534 15.5762 90.3376 15.3585C90.5218 15.1491 90.7814 15.0403 91.1079 15.0403C91.401 15.0403 91.6354 15.1324 91.8196 15.325C92.0038 15.5176 92.096 15.7688 92.096 16.0953V16.6396Z" fill="#272928"/>
<path d="M99.0205 13.7257C98.9786 13.7006 98.9367 13.6838 98.8949 13.6671C98.7609 13.6168 98.6185 13.5917 98.4678 13.5917C98.0575 13.5917 97.6891 13.7173 97.3458 13.9769C97.0779 14.1778 96.8518 14.4374 96.6676 14.7556V14.429C96.6676 13.8764 96.2238 13.4326 95.6712 13.4326C95.1186 13.4326 94.6748 13.8764 94.6748 14.429V20.0809C94.6748 20.6335 95.1186 21.0773 95.6712 21.0773C96.2238 21.0773 96.6676 20.6335 96.6676 20.0809V16.9996C96.6676 16.539 96.7848 16.179 97.0193 15.9194C97.2537 15.6599 97.5803 15.5259 97.9906 15.5259C98.1245 15.5259 98.2501 15.5343 98.3674 15.5594C98.5348 15.5929 98.7023 15.5092 98.7609 15.3417L99.1628 14.1025C99.2047 13.9685 99.1544 13.801 99.0205 13.7257Z" fill="#272928"/>
</g>
<defs>
<clipPath id="clip0_3650_6667">
<rect width="101.548" height="31.2547" fill="white"/>
</clipPath>
</defs>
</svg>
