<svg width="122" height="24" viewBox="0 0 122 24" fill="none" xmlns="http://www.w3.org/2000/svg">
<path d="M18.36 0.151999C18.36 0.151999 18.36 0.205332 18.36 0.311998C18.36 0.397332 18.36 0.439999 18.36 0.439999L5.752 23H0.44V22.712L12.152 1.912H0.888V0.567999H14.968C15.3947 0.567999 15.8427 0.546666 16.312 0.504C16.8027 0.461332 17.2293 0.407999 17.592 0.344C17.976 0.279999 18.232 0.215999 18.36 0.151999ZM18.008 21.656L17.816 23H2.68V21.656H18.008ZM19.256 16.568L18.104 23H12.248L12.664 21.976L13.176 21.656C14.584 21.656 15.7893 21.1973 16.792 20.28C17.816 19.3413 18.5307 18.104 18.936 16.568H19.256ZM4.44 1.912C3.43733 1.93333 2.648 2.24266 2.072 2.84C1.496 3.416 1.208 4.20533 1.208 5.208V5.592H0.888V1.816H4.44V1.912ZM0.888 -0.00800133C1.10133 0.0773322 1.42133 0.162666 1.848 0.247999C2.296 0.333333 2.78667 0.407999 3.32 0.471998C3.85333 0.535999 4.344 0.567999 4.792 0.567999L0.888 0.919998V-0.00800133ZM29.9207 3.8V15.864C29.9207 17.8267 30.3687 19.3627 31.2647 20.472C32.1821 21.5813 33.4514 22.136 35.0728 22.136C36.7581 22.136 38.0594 21.6133 38.9767 20.568C39.9154 19.5227 40.3954 18.072 40.4167 16.216V3.8H42.5287V16.024C42.5287 18.3067 41.8247 20.1093 40.4167 21.432C39.0301 22.7547 37.0567 23.416 34.4967 23.416C31.4034 23.416 29.0994 22.7653 27.5847 21.464C26.0701 20.1413 25.3127 18.3387 25.3127 16.056V3.8H29.9207ZM25.3767 3.8V5.464H25.3127C25.2914 5.05867 25.1421 4.728 24.8647 4.472C24.5874 4.216 24.2461 4.088 23.8407 4.088C23.8407 4.088 23.7661 4.088 23.6167 4.088C23.4674 4.088 23.3927 4.088 23.3927 4.088V3.8H25.3767ZM31.8088 3.8V4.088C31.8088 4.088 31.7341 4.088 31.5848 4.088C31.4354 4.088 31.3608 4.088 31.3608 4.088C30.9554 4.088 30.6141 4.216 30.3368 4.472C30.0594 4.728 29.9207 5.05867 29.9207 5.464H29.8568V3.8H31.8088ZM40.4808 3.8V5.464H40.4167C40.3954 5.05867 40.2461 4.728 39.9688 4.472C39.6914 4.216 39.3607 4.088 38.9767 4.088C38.9767 4.088 38.9021 4.088 38.7528 4.088C38.6034 4.088 38.5287 4.088 38.5287 4.088V3.8H40.4808ZM44.4167 3.8V4.088C44.4167 4.088 44.3421 4.088 44.1928 4.088C44.0648 4.088 44.0007 4.088 44.0007 4.088C43.5954 4.088 43.2434 4.216 42.9447 4.472C42.6674 4.728 42.5287 5.05867 42.5287 5.464H42.4648V3.8H44.4167ZM72.6112 0.151999L72.8673 3.64L63.3632 20.12C63.3632 20.12 63.2566 20.312 63.0433 20.696C62.8299 21.0587 62.6166 21.5067 62.4032 22.04C62.2112 22.5733 62.1152 23.1067 62.1152 23.64H61.7952L60.5472 20.856L72.6112 0.151999ZM50.9152 20.664V23H47.3632V22.68C47.3846 22.68 47.4806 22.68 47.6512 22.68C47.8006 22.68 47.8752 22.68 47.8752 22.68C48.4512 22.68 48.9632 22.5093 49.4112 22.168C49.8592 21.8053 50.1259 21.304 50.2112 20.664H50.9152ZM52.3232 21.176C52.3232 21.1973 52.3232 21.2187 52.3232 21.24C52.3232 21.2613 52.3232 21.2933 52.3232 21.336C52.3232 21.6773 52.4406 21.9973 52.6752 22.296C52.9312 22.5733 53.2299 22.712 53.5712 22.712H54.0512V23H52.0992V21.176H52.3232ZM52.8672 0.151999H53.1552L54.2752 3.352L52.1312 23H49.8912L52.8672 0.151999ZM53.1552 0.151999L63.6192 17.336L61.7952 23.64L52.3232 7.736L53.1552 0.151999ZM72.8993 0.151999L75.9393 23H70.7873L69.1873 8.28L72.6112 0.151999H72.8993ZM74.9473 20.664H75.6192C75.7259 21.304 76.0033 21.8053 76.4513 22.168C76.8993 22.5093 77.4006 22.68 77.9552 22.68C77.9552 22.68 78.0406 22.68 78.2113 22.68C78.3819 22.68 78.4673 22.68 78.4673 22.68V23H74.9473V20.664ZM70.5952 21.176H70.8193V23H68.8673V22.712H69.3472C69.7099 22.712 70.0086 22.5733 70.2432 22.296C70.4779 21.9973 70.5952 21.6773 70.5952 21.336C70.5952 21.2933 70.5952 21.2613 70.5952 21.24C70.5952 21.2187 70.5952 21.1973 70.5952 21.176ZM90.9193 2.936L100.391 22.84H94.9833L89.0313 8.792L90.9193 2.936ZM84.9033 20.888C84.6686 21.464 84.7006 21.912 84.9993 22.232C85.2979 22.5307 85.6286 22.68 85.9913 22.68H86.2473V23H79.8473V22.68C79.8473 22.68 79.8899 22.68 79.9753 22.68C80.0606 22.68 80.1033 22.68 80.1033 22.68C80.5299 22.68 80.9779 22.552 81.4473 22.296C81.9166 22.0187 82.3006 21.5493 82.5993 20.888H84.9033ZM90.9193 2.936L90.9833 6.776L84.0393 22.904H81.6713L89.1593 6.808C89.2019 6.68 89.2979 6.456 89.4473 6.136C89.5966 5.79467 89.7566 5.42133 89.9273 5.016C90.0979 4.58933 90.2579 4.19467 90.4073 3.832C90.5566 3.448 90.6419 3.14933 90.6633 2.936H90.9193ZM93.7033 16.728V17.976H85.5433V16.728H93.7033ZM94.1833 20.888H99.4633C99.7833 21.5493 100.178 22.0187 100.647 22.296C101.117 22.552 101.565 22.68 101.991 22.68C101.991 22.68 102.034 22.68 102.119 22.68C102.205 22.68 102.247 22.68 102.247 22.68V23H92.8393V22.68H93.0953C93.4579 22.68 93.7886 22.5307 94.0873 22.232C94.3859 21.912 94.4179 21.464 94.1833 20.888ZM111.353 3.8H114.425C116.153 3.8 117.55 4.03467 118.617 4.504C119.684 4.97333 120.484 5.61333 121.017 6.424C121.55 7.21333 121.838 8.10933 121.881 9.112C121.924 10.3707 121.668 11.4693 121.113 12.408C120.58 13.3467 119.854 14.0613 118.937 14.552C118.02 15.0427 117.017 15.2667 115.929 15.224C114.841 15.16 113.764 14.776 112.697 14.072V13.784C112.697 13.784 112.804 13.784 113.017 13.784C113.252 13.784 113.54 13.752 113.881 13.688C114.222 13.6027 114.574 13.4533 114.937 13.24C115.321 13.0267 115.684 12.7067 116.025 12.28C116.366 11.8533 116.633 11.2773 116.825 10.552C116.889 10.296 116.932 10.0187 116.953 9.72C116.996 9.4 117.006 9.12267 116.985 8.888C116.964 7.71467 116.612 6.78667 115.929 6.104C115.268 5.4 114.34 5.048 113.145 5.048H111.641C111.641 5.048 111.62 4.952 111.577 4.76C111.534 4.54667 111.481 4.33333 111.417 4.12C111.374 3.90667 111.353 3.8 111.353 3.8ZM111.705 3.8V23H107.097V3.8H111.705ZM107.161 20.984L107.289 23H104.985V22.68C105.006 22.68 105.07 22.68 105.177 22.68C105.284 22.68 105.348 22.68 105.369 22.68C105.838 22.68 106.233 22.52 106.553 22.2C106.894 21.8587 107.076 21.4533 107.097 20.984H107.161ZM107.161 5.784H107.097C107.076 5.29333 106.894 4.89867 106.553 4.6C106.233 4.28 105.838 4.12 105.369 4.12C105.326 4.12 105.252 4.12 105.145 4.12C105.06 4.12 104.996 4.12 104.953 4.12V3.8H107.289L107.161 5.784ZM111.641 20.984H111.705C111.726 21.4533 111.897 21.8587 112.217 22.2C112.537 22.52 112.942 22.68 113.433 22.68C113.476 22.68 113.54 22.68 113.625 22.68C113.732 22.68 113.796 22.68 113.817 22.68V23H111.481L111.641 20.984Z" fill="#35655F"/>
</svg>
