<svg xmlns="http://www.w3.org/2000/svg" width="51" height="41" viewBox="0 0 51 41" fill="none">
    <g clip-path="url(#clip0_1714_16657)">
        <path d="M48.9827 12.7387C48.3914 13.7052 47.5732 14.9113 46.4392 16.1814C45.4266 17.3475 44.1306 18.5457 42.5591 19.6559C39.9589 21.4691 37.3343 22.4755 34.6207 23.0826C33.43 23.3542 32.2149 23.5618 30.9917 23.7136C30.4976 23.7935 30.0035 23.8494 29.5013 23.9053C28.6507 23.9932 27.7921 24.073 26.9254 24.1609C26.253 24.2248 24.6329 24.3606 22.3567 24.3686C21.9112 24.3766 21.4414 24.3686 20.9473 24.3526C18.8655 24.3127 16.3382 24.1529 13.5678 23.7535C10.3763 23.2823 7.52494 22.6033 5.07863 21.8685H5.07053C4.04988 21.5729 3.11024 21.2614 2.24349 20.9419C2.19489 20.4227 2.13009 19.8876 2.04098 19.3684C1.96808 18.7294 1.86278 18.0984 1.76557 17.4753C1.60356 16.5248 1.49016 15.2788 1.61976 13.841C1.70887 12.8745 1.89518 12.0438 2.08959 11.3409C2.71332 9.05649 3.25604 6.83595 3.73396 4.6953C3.90407 3.92849 4.05798 3.16968 4.21189 2.43482C4.70601 2.47476 5.15963 2.58659 5.62945 2.81024C6.91741 3.44125 7.50064 4.59945 7.69505 5.0148C8.30258 6.26085 8.21348 7.41106 8.15677 7.87433C9.59054 7.17143 10.4492 7.25929 10.9838 7.49892C12.0855 8.01012 12.1017 9.28813 13.5111 9.83128C14.1997 10.0949 14.8477 10.031 15.0583 9.99902C16.0141 9.85524 16.3544 9.33605 17.132 8.9207C18.501 8.19384 19.9833 8.46541 20.8825 8.62516C21.8059 8.80089 23.2802 9.06448 24.2927 10.3265C24.9084 11.1013 25.1028 11.924 25.1757 12.4113C25.2486 12.2994 25.3458 12.1876 25.4673 12.0678C25.5807 11.948 25.7103 11.8122 25.8642 11.7004H25.8804C26.0748 11.5406 26.2935 11.4048 26.5608 11.285C27.4114 10.9096 28.1566 11.0214 28.756 11.0374C29.2502 11.0534 29.7281 10.9975 30.1655 10.9096C31.1619 10.7179 32.0124 10.3105 32.7495 9.95109C33.1302 9.77537 33.7621 9.4319 34.4749 8.81686C35.1958 8.18585 36.0059 7.25929 36.7106 5.92538C36.7835 5.98129 37.229 6.26884 37.3424 6.84394C37.4397 7.32319 37.229 7.69062 37.1804 7.79446C37.4559 7.6427 37.8204 7.41106 38.1768 7.08357C38.4765 6.81199 38.7843 6.46853 39.0354 6.05318C39.9508 4.49561 39.2946 3.32144 39.7483 1.77186C39.9589 1.05298 40.3153 0.565742 40.7932 0.150391C40.8256 0.198316 40.8742 0.246241 40.9228 0.286179C41.822 0.749455 43.4582 1.73991 44.8272 3.601C45.9937 5.19851 46.4716 6.74809 46.6822 7.68263C47.6461 9.368 48.3914 11.0614 48.9827 12.7387Z" fill="url(#paint0_linear_1714_16657)" stroke="#C6BA9B" stroke-width="0.25" stroke-miterlimit="10"/>
        <path d="M31.1544 31.0312C31.0815 32.5169 30.9924 33.9866 30.9114 35.4723C30.7413 35.3126 30.5793 35.1608 30.4172 35.025C30.0608 34.7135 29.7287 34.4339 29.4209 34.2023C29.996 33.2198 30.5793 32.1655 31.1544 31.0312Z" fill="url(#paint1_linear_1714_16657)" stroke="#C6BA9B" stroke-width="0.25" stroke-miterlimit="10"/>
        <path d="M28.748 11.0402V11.0312" stroke="#C6BA9B" stroke-width="0.25" stroke-miterlimit="10"/>
        <path d="M50.0935 32.4455V32.4614C49.6156 32.9727 48.9432 33.5877 48.0117 34.0749C47.9388 34.1229 47.8497 34.1628 47.7768 34.1868C48.1899 30.201 48.5868 26.2312 48.9918 22.2534C48.4896 22.1336 47.9793 22.0058 47.4771 21.886C46.8533 21.7262 46.2296 21.5824 45.5978 21.4387C44.2288 22.0777 42.6492 22.7246 40.8915 23.2758C38.3884 24.0586 36.0636 24.5218 33.9899 24.7615C33.107 24.8733 32.2727 24.9452 31.4869 24.9771C31.3816 26.99 31.2682 28.9869 31.1629 30.9838C31.1548 30.9997 31.1548 31.0157 31.1548 31.0317C30.5716 32.1659 29.9965 33.2123 29.4132 34.1868C28.5303 33.5078 27.8823 33.1404 27.8012 33.0845C27.1208 32.7091 26.4161 32.3816 25.7276 32.134C24.3748 31.6307 23.0139 31.3512 21.6693 31.2394C20.6162 31.1515 19.5956 31.1675 18.5992 31.2633C14.4437 31.6068 10.8958 33.2203 9.27568 33.9711C7.50979 34.7778 5.98692 35.7124 4.67466 36.6549C2.59286 38.1965 1.08619 39.77 0.0898438 40.9362C1.57221 38.484 2.56856 34.7938 2.64956 28.6833C2.65766 27.8127 2.64956 26.958 2.61716 26.1034C2.60906 25.5522 2.57666 25.0011 2.55236 24.45C2.51996 23.8589 2.47136 23.2678 2.41465 22.6847C2.40655 22.5489 2.39845 22.4131 2.38225 22.2694C2.37415 22.1256 2.36605 21.9658 2.33365 21.8141C2.31745 21.5265 2.28505 21.231 2.24455 20.9434C3.11129 21.2629 4.05093 21.5744 5.07158 21.87H5.07968C7.52599 22.6048 10.3773 23.2838 13.5689 23.755C16.3392 24.1544 18.8665 24.3142 20.9483 24.3541C21.4424 24.3701 21.9123 24.3781 22.3578 24.3701C24.634 24.3621 26.2541 24.2263 26.9264 24.1624C27.7931 24.0745 28.6518 23.9947 29.5023 23.9068C30.0046 23.8509 30.4987 23.795 30.9928 23.7151C32.216 23.5633 33.431 23.3557 34.6218 23.0921C37.3354 22.477 39.9599 21.4706 42.5601 19.6574C44.1316 18.5472 45.4277 17.349 46.4402 16.1829C47.5743 14.9128 48.3924 13.7067 48.9837 12.7402C51.9485 21.207 50.7577 29.1306 50.0935 32.4455Z" fill="url(#paint2_linear_1714_16657)" stroke="#C6BA9B" stroke-width="0.25" stroke-miterlimit="10"/>
        <path d="M33.8435 27.5647C33.6086 31.0632 33.3898 34.5618 33.163 38.0603C33.0172 37.8367 32.8552 37.629 32.6932 37.4213C32.6446 37.3574 32.5879 37.2935 32.5474 37.2296C32.3854 37.0379 32.2315 36.8542 32.0695 36.6705C31.867 36.4309 31.6483 36.1992 31.4458 35.9915C31.2756 35.8238 31.1217 35.6561 30.9597 35.5123C30.9435 35.4963 30.9354 35.4883 30.9111 35.4644C30.9921 33.9787 31.0812 32.509 31.1541 31.0233C31.1541 31.0073 31.1541 30.9993 31.1622 30.9754C31.2676 28.9785 31.381 26.9816 31.4863 24.9688C32.0371 25.5838 32.596 26.1908 33.1468 26.7979C33.3817 27.0535 33.6005 27.3011 33.8354 27.5567L33.8435 27.5647Z" fill="url(#paint3_linear_1714_16657)" stroke="#C6BA9B" stroke-width="0.25" stroke-miterlimit="10"/>
        <path d="M48.9912 22.252C48.5862 26.2297 48.1893 30.1995 47.7762 34.1853C47.7276 34.2093 47.679 34.2412 47.6385 34.2572C47.5575 34.2971 47.4684 34.3291 47.3874 34.369C47.2577 34.4249 47.12 34.4729 46.9823 34.5128C46.7393 34.6087 46.4963 34.6726 46.2614 34.7285C46.4558 31.7971 46.6421 28.8656 46.8365 25.9342C45.6053 26.5892 44.131 27.2601 42.4137 27.8432C40.016 28.65 37.8289 29.0493 36.0549 29.241C35.8119 31.9089 35.577 34.5767 35.334 37.2445C34.6617 37.5001 34.0541 38.0753 33.6734 38.8341C33.5033 38.5705 33.3332 38.3069 33.1631 38.0593C33.3899 34.5607 33.6086 31.0622 33.8435 27.5637C36.1521 27.4918 39.6272 27.0844 43.4506 25.455C45.0625 24.776 46.4396 23.9932 47.598 23.2264C48.1002 22.891 48.57 22.5635 48.9912 22.252Z" fill="url(#paint4_linear_1714_16657)" stroke="#C6BA9B" stroke-width="0.25" stroke-miterlimit="10"/>
        <path d="M40.7864 0.15154L40.7773 0.142578" stroke="#C6BA9B" stroke-width="0.25" stroke-miterlimit="10"/>
        <path d="M47.5007 4.22461C47.3387 4.51216 47.1767 4.78374 47.0146 5.0633" stroke="#C6BA9B" stroke-width="0.25" stroke-miterlimit="10"/>
        <path d="M48.991 22.2526C48.5697 22.5641 48.0999 22.8996 47.5977 23.2271C46.4393 23.9939 45.0704 24.7766 43.4503 25.4556C39.6188 27.085 36.1438 27.4924 33.8432 27.5643C33.6083 27.3167 33.3896 27.0691 33.1547 26.8055C32.6039 26.1984 32.045 25.5914 31.4941 24.9763C32.2799 24.9364 33.1061 24.8645 33.9972 24.7527C36.0709 24.513 38.3957 24.0498 40.8987 23.267C42.6565 22.7159 44.236 22.0689 45.605 21.4219C46.2287 21.5657 46.8525 21.7174 47.4843 21.8692C47.9865 21.989 48.4968 22.1168 48.9991 22.2366L48.991 22.2526Z" fill="url(#paint5_linear_1714_16657)" stroke="#C6BA9B" stroke-width="0.25" stroke-miterlimit="10"/>
        <path d="M46.8365 25.9355C46.6421 28.867 46.4558 31.7984 46.2614 34.7298C46.2209 34.7378 46.1885 34.7458 46.148 34.7538C45.9617 34.8017 45.7754 34.8257 45.5972 34.8576C45.338 34.9055 45.0949 34.9215 44.86 34.9295C44.1067 34.9774 43.5073 34.9055 43.1752 34.8576C42.9726 35.3049 42.6 35.9439 41.9439 36.519C40.3076 37.9488 38.2339 37.7811 37.7884 37.7331C37.5535 37.5175 37.0999 37.1421 36.4437 37.0702C36.3708 37.0622 36.2817 37.0622 36.2088 37.0622C35.9091 37.0622 35.6094 37.1261 35.334 37.2459C35.577 34.5781 35.8119 31.9102 36.0549 29.2424C37.8289 29.0507 40.016 28.6513 42.4137 27.8446C44.131 27.2615 45.6053 26.5905 46.8365 25.9355Z" fill="url(#paint6_linear_1714_16657)" stroke="#C6BA9B" stroke-width="0.25" stroke-miterlimit="10"/>
    </g>
    <defs>
        <linearGradient id="paint0_linear_1714_16657" x1="1.56306" y1="12.2595" x2="48.9827" y2="12.2595" gradientUnits="userSpaceOnUse">
            <stop stop-color="#3F3B3A"/>
            <stop offset="1" stop-color="#050C05"/>
        </linearGradient>
        <linearGradient id="paint1_linear_1714_16657" x1="29.4128" y1="33.2518" x2="31.1544" y2="33.2518" gradientUnits="userSpaceOnUse">
            <stop stop-color="#9FA0A0"/>
            <stop offset="0.58" stop-color="#D4DADF"/>
            <stop offset="1" stop-color="#DCDDDD"/>
        </linearGradient>
        <linearGradient id="paint2_linear_1714_16657" x1="0.0898437" y1="26.8382" x2="50.8954" y2="26.8382" gradientUnits="userSpaceOnUse">
            <stop stop-color="#727171"/>
            <stop offset="1" stop-color="#F7F9F9"/>
        </linearGradient>
        <linearGradient id="paint3_linear_1714_16657" x1="30.9111" y1="31.5185" x2="33.8435" y2="31.5185" gradientUnits="userSpaceOnUse">
            <stop stop-color="#3F3B3A"/>
            <stop offset="1" stop-color="#050C05"/>
        </linearGradient>
        <linearGradient id="paint4_linear_1714_16657" x1="33.1631" y1="30.543" x2="48.9912" y2="30.543" gradientUnits="userSpaceOnUse">
            <stop stop-color="#3F3B3A"/>
            <stop offset="1" stop-color="#050C05"/>
        </linearGradient>
        <linearGradient id="paint5_linear_1714_16657" x1="31.486" y1="24.4971" x2="48.991" y2="24.4971" gradientUnits="userSpaceOnUse">
            <stop stop-color="#3F3B3A"/>
            <stop offset="1" stop-color="#050C05"/>
        </linearGradient>
        <linearGradient id="paint6_linear_1714_16657" x1="35.334" y1="31.8463" x2="46.8365" y2="31.8463" gradientUnits="userSpaceOnUse">
            <stop stop-color="#47A0C5"/>
            <stop offset="0.23" stop-color="#46A7CF"/>
            <stop offset="1" stop-color="#3EBFF0"/>
        </linearGradient>
        <clipPath id="clip0_1714_16657">
            <rect width="51" height="41" fill="white"/>
        </clipPath>
    </defs>
</svg>
