<svg xmlns="http://www.w3.org/2000/svg" width="60" height="155" viewBox="0 0 60 155" fill="none">
    <g clip-path="url(#clip0_1716_17822)">
        <path d="M46.4197 154.921L46.3936 154.895" stroke="#C6BA9B" stroke-width="0.25" stroke-miterlimit="10"/>
        <path d="M51.6965 25.7285C49.2892 24.7292 44.3873 23.1338 38.2381 23.8877C34.2695 24.3873 31.1819 25.6935 29.1758 26.7366C30.1527 24.4136 31.4348 22.4764 32.8217 20.8634C37.4444 15.4899 43.3755 13.7542 44.3088 13.5C45.2333 15.5162 45.9398 16.8398 47.3703 18.1547C48.0157 18.7333 48.6612 19.2067 49.2717 19.5836C49.2543 20.057 49.2019 20.618 49.0624 21.2404C48.9316 21.7663 48.7746 22.2484 48.6263 22.6254C49.3241 23.0111 50.4405 23.7474 51.304 25.0886C51.4348 25.2815 51.5657 25.4919 51.6965 25.7373V25.7285Z" fill="url(#paint0_linear_1716_17822)" stroke="#C6BA9B" stroke-width="0.25" stroke-miterlimit="10"/>
        <path d="M59.7818 41.4016C58.0984 42.5061 55.4817 44.0401 52.0277 45.3989C49.2889 46.4683 49.2541 46.1615 48.0766 46.8102C45.8437 48.0462 44.7621 49.8169 43.6457 52.0961C43.4538 52.4818 43.2619 52.8675 43.07 53.2795C42.3984 52.175 40.8197 49.9835 38.0111 48.616C36.258 47.7569 34.6967 47.5465 34.2606 47.4939C32.5598 47.2923 32.1934 47.6517 30.5886 47.6079C30.1176 46.8102 26.3932 40.2269 27.6753 31.9957C27.78 31.3382 27.9108 30.672 28.0853 29.9883C30.9287 32.2148 35.3596 35.1076 41.3517 37.0011C47.6405 38.9909 53.1442 39.1137 56.7726 38.877C56.79 38.8857 56.8075 38.912 56.8249 38.9296C57.4006 39.6221 58.3513 40.6214 59.7905 41.3928L59.7818 41.4016Z" fill="url(#paint1_linear_1716_17822)" stroke="#C6BA9B" stroke-width="0.25" stroke-miterlimit="10"/>
        <path d="M56.7732 38.895C53.1448 39.1317 47.6411 39.0089 41.3524 37.0191C35.3603 35.1256 30.9294 32.2328 28.0859 30.0063C28.3476 28.9368 28.7052 27.8411 29.1849 26.7453C31.191 25.6934 34.2787 24.3961 38.2473 23.8964C44.3964 23.1425 49.2983 24.7467 51.7057 25.7372C52.1243 26.4561 52.5168 27.4116 52.3685 28.5599C52.2551 29.4628 51.8539 30.1728 51.4701 30.655C51.2172 30.9968 50.9643 31.2247 50.8247 31.3562C51.6272 31.7507 52.761 32.4345 53.7466 33.6179C55.2556 35.3974 54.8195 36.4142 56.4767 38.5356C56.5639 38.6408 56.6599 38.7723 56.7732 38.9037V38.895Z" fill="url(#paint2_linear_1716_17822)" stroke="#C6BA9B" stroke-width="0.25" stroke-miterlimit="10"/>
        <path d="M23.4633 147.698C22.7394 148.391 21.5793 149.303 19.9657 149.758C17.602 150.433 16.8519 149.417 13.5549 149.609C10.3102 149.794 9.31592 150.881 7.46681 150.074C6.66437 149.723 6.06254 149.171 5.19904 148.032C1.80611 143.535 0.846666 138.415 0.593722 136.89C0.192501 134.514 0.175056 132.84 0.122723 129.982C0.0529457 125.109 0.489056 124.46 0.672222 118.832C0.94261 110.662 0.0616678 110.329 1.02983 107.016C1.75377 104.5 2.66088 103.299 2.35561 101.002C2.18988 99.8275 1.70144 98.3198 2.46899 96.8032C2.76555 96.2247 3.13188 95.8477 3.43716 95.5497C4.68443 94.34 6.17593 93.8579 7.25748 93.6562H7.2662C8.07737 93.9806 8.94086 94.2962 9.88286 94.5679C12.9618 95.4708 15.7791 95.7513 18.0992 95.7689C18.1515 96.286 18.1864 96.8295 18.1602 97.3818C18.073 100.099 17.0089 101.888 15.8925 104.333C13.7206 104.123 11.3482 104.079 8.82748 104.324C8.47859 104.368 8.12098 104.395 7.77209 104.438C7.33598 104.842 6.8737 105.35 6.47248 105.99C6.21954 106.402 6.00148 106.867 5.83576 107.393C5.53049 108.418 5.58282 109.26 5.60026 109.575C5.80087 113.169 4.59721 108.848 6.1236 129.062C6.18465 129.965 6.35909 131.797 7.58892 133.471C8.02503 134.067 8.46114 134.471 8.7577 134.707C10.3277 134.62 11.889 134.523 13.459 134.444C14.1655 136.452 15.1249 138.459 16.4158 140.423C17.1659 141.554 18.2998 143.096 19.9657 144.744C20.9426 145.709 22.0852 146.717 23.4459 147.698H23.4633Z" fill="url(#paint3_linear_1716_17822)" stroke="#C6BA9B" stroke-width="0.25" stroke-miterlimit="10"/>
        <path d="M41.7185 55.9885C41.3784 56.6108 41.012 57.2508 40.6021 57.917C38.9361 60.5906 38.3692 60.652 36.6771 62.5279C33.79 61.064 29.8563 59.416 25.0068 58.329C20.637 57.3647 16.7818 57.1193 13.7552 57.1543C13.2057 58.8111 12.6911 60.5643 12.2462 62.4578C12.1764 62.712 12.1154 62.9662 12.0543 63.2292C10.5105 70.014 10.3012 76.1502 10.589 81.1205C12.9527 81.7867 15.4909 82.4003 18.2035 82.9526C20.4102 83.3997 22.5035 83.7503 24.5271 84.0308C24.0125 85.7139 23.053 88.0719 21.3173 89.9654C19.852 91.5871 18.8402 91.7799 18.1511 91.7011C17.2877 91.5959 16.6684 91.0085 16.3282 90.6316C17.0347 91.8676 17.8546 93.6383 18.0901 95.7597C15.77 95.7509 12.9527 95.4617 9.87378 94.5588C8.93179 94.287 8.06829 93.9714 7.25712 93.6471C7.39668 93.6296 7.51879 93.6033 7.64962 93.5857C6.79485 93.0948 6.32385 92.6215 5.97496 92.2095C4.86724 90.8595 4.57941 89.3605 4.49219 88.519L4.58813 86.7044C4.98063 79.0956 5.69585 71.0221 6.83846 62.5279C7.52751 57.4612 8.31251 52.5873 9.19345 47.9238C9.60339 47.4504 10.0046 46.9683 10.4146 46.4949C11.1036 46.4861 12.1241 46.5475 13.2929 46.9069C16.7382 47.9588 17.1219 50.273 19.381 50.3695C21.4481 50.4659 22.0587 48.5549 24.5969 48.8442C25.5912 48.9494 25.5563 49.2474 26.8733 49.5542C29.2894 50.0977 30.1442 49.2825 32.1503 49.4403C34.4093 49.5981 35.9968 50.8165 38.1337 52.4382C39.8171 53.7181 40.9946 55.033 41.7272 55.9797L41.7185 55.9885Z" fill="url(#paint4_linear_1716_17822)" stroke="#C6BA9B" stroke-width="0.25" stroke-miterlimit="10"/>
        <path d="M30.5799 47.6158C27.5184 47.5457 27.2654 46.1957 24.64 46.0905C22.0147 45.9853 21.5262 47.3177 19.1974 47.2038C18.6828 47.1863 18.1507 47.0898 17.6187 46.9145C17.5053 45.9064 17.3657 44.4337 17.2611 42.6718C17.1477 40.7433 17.1128 38.9901 17.1302 37.2456C17.1477 35.1769 17.2611 33.1256 17.4268 30.7676C18.5694 31.3724 20.558 32.249 23.1747 32.4244C25.0413 32.5558 26.5938 32.2753 27.6666 32.0036C26.3758 40.2348 30.1001 46.8181 30.5799 47.6158Z" fill="url(#paint5_linear_1716_17822)" stroke="#C6BA9B" stroke-width="0.25" stroke-miterlimit="10"/>
        <path d="M32.7 18.3992C31.2434 19.0391 28.8797 19.8543 25.8793 19.8894C22.4515 19.9332 19.8174 18.969 18.4131 18.3291C18.6137 15.8132 18.8056 13.613 18.9626 11.7546C19.3115 9.2738 20.8117 7.24009 22.7829 6.24077C23.4022 5.9252 24.0738 5.72358 24.7628 5.62715C25.9752 5.46937 27.2138 5.69728 28.3128 6.24077C30.4148 7.25763 32.0633 9.37023 32.386 12.0526C32.4907 14.1652 32.5954 16.2778 32.7 18.3904V18.3992Z" fill="url(#paint6_linear_1716_17822)" stroke="#C6BA9B" stroke-width="0.25" stroke-miterlimit="10"/>
        <path d="M32.8302 20.8634C31.4347 22.4764 30.1612 24.4137 29.1843 26.7366C28.7133 27.8412 28.347 28.9281 28.0854 29.9976C27.9022 30.6726 27.7801 31.3476 27.6754 32.005C26.6026 32.2767 25.05 32.5573 23.1835 32.4258C20.5668 32.2592 18.5782 31.3738 17.4355 30.769C17.5228 29.4979 17.6274 28.1392 17.7408 26.6578C17.9763 23.6072 18.2031 20.8196 18.4124 18.3301C19.8167 18.97 22.4508 19.9343 25.8786 19.8904C28.8878 19.8466 31.2428 19.0314 32.6994 18.4002C32.743 19.2242 32.7866 20.0394 32.8302 20.8722V20.8634Z" fill="url(#paint7_linear_1716_17822)" stroke="#C6BA9B" stroke-width="0.25" stroke-miterlimit="10"/>
        <path d="M28.3209 6.25036C27.2132 5.70687 25.9833 5.47896 24.771 5.63674C24.0732 5.73317 23.4103 5.93479 22.791 6.25036C22.8085 4.69002 22.8433 3.13844 22.8608 1.5781C22.9655 1.42031 23.7592 0.263201 25.242 0.122945C27.0126 -0.0436085 28.1116 1.37648 28.1726 1.45537C28.2162 3.05955 28.2686 4.64619 28.3209 6.25036Z" fill="url(#paint8_linear_1716_17822)" stroke="#C6BA9B" stroke-width="0.25" stroke-miterlimit="10"/>
        <path d="M43.0699 53.2874C42.8082 53.8309 42.5466 54.4007 42.2326 54.9968C42.0668 55.3211 41.8924 55.6542 41.718 55.9961C40.9766 55.0494 39.8078 53.7345 38.1244 52.4546C35.9962 50.8329 34.4 49.6145 32.141 49.4567C30.1349 49.2989 29.2801 50.1141 26.8641 49.5706C25.547 49.2638 25.5732 48.9658 24.5876 48.8606C22.0494 48.5713 21.4301 50.4823 19.3717 50.3859C17.1126 50.2894 16.7376 47.9665 13.2836 46.9233C12.1148 46.5639 11.0943 46.5025 10.4053 46.5113C11.5217 45.8451 12.673 45.1789 13.868 44.5039C15.1763 45.8013 16.4323 46.5464 17.6185 46.9233C18.1593 47.0899 18.6826 47.1863 19.1972 47.2126C21.5261 47.3266 22.0145 45.9941 24.6399 46.0993C27.2653 46.2045 27.5182 47.5545 30.5797 47.6246C32.1846 47.6684 32.5509 47.309 34.2518 47.5106C34.6966 47.5632 36.2579 47.7736 38.0023 48.6327C40.8196 50.0002 42.3896 52.1917 43.0612 53.2962L43.0699 53.2874Z" fill="url(#paint9_linear_1716_17822)" stroke="#C6BA9B" stroke-width="0.25" stroke-miterlimit="10"/>
        <path d="M17.6187 46.9146C16.4238 46.5464 15.1765 45.7926 13.8682 44.4952C15.0195 43.8465 16.1534 43.2417 17.2611 42.6719C17.3658 44.4338 17.5053 45.9065 17.6187 46.9146Z" fill="url(#paint10_linear_1716_17822)" stroke="#C6BA9B" stroke-width="0.25" stroke-miterlimit="10"/>
        <path d="M17.2617 42.681C16.154 43.2508 15.0113 43.8556 13.8687 44.5043C12.6738 45.1705 11.5312 45.8368 10.406 46.5117C9.99609 46.9851 9.59487 47.4672 9.18492 47.9406C8.3127 52.6041 7.51898 57.478 6.82993 62.5447C5.68732 71.0302 4.9721 79.1124 4.5796 86.7213C3.90799 87.0894 3.07938 86.993 2.52989 86.4846C2.024 86.02 1.83211 85.2749 2.06761 84.5999C2.47755 81.8298 2.87005 79.0335 3.23638 76.2021C4.64066 65.2972 5.54777 54.7693 6.06238 44.6796C7.37071 43.5225 8.87965 42.3304 10.5718 41.1382C12.8919 39.5165 15.116 38.2542 17.1221 37.2461C17.1047 38.9993 17.1308 40.7437 17.253 42.6722L17.2617 42.681Z" fill="url(#paint11_linear_1716_17822)" stroke="#C6BA9B" stroke-width="0.25" stroke-miterlimit="10"/>
        <path d="M24.5436 84.0293H24.5273" stroke="#C6BA9B" stroke-width="0.25" stroke-miterlimit="10"/>
        <path d="M12.2453 62.4576L12.2373 62.4414" stroke="#C6BA9B" stroke-width="0.25" stroke-miterlimit="10"/>
        <path d="M25.0067 58.3302C20.6368 57.3659 16.7816 57.1205 13.755 57.1555C13.2055 58.8123 12.6909 60.5655 12.2461 62.4589C15.6826 65.8514 18.6918 68.3935 20.9596 70.173C22.3115 71.2337 23.5937 72.1804 25.4166 72.2944C28.0071 72.4609 30.0655 70.8392 30.9639 70.0328H30.9727C32.0368 68.4987 33.2404 66.9033 34.54 65.1676C35.4384 63.9667 36.1187 63.1427 36.677 62.5291C33.7899 61.0652 29.8562 59.4172 25.0067 58.3302ZM25.0241 68.9282C23.8466 68.9282 22.8959 67.9728 22.8959 66.7893C22.8959 65.6059 23.8466 64.6417 25.0241 64.6417C26.2016 64.6417 27.1611 65.6059 27.1611 66.7893C27.1611 67.9728 26.2016 68.9282 25.0241 68.9282Z" fill="url(#paint12_linear_1716_17822)" stroke="#C6BA9B" stroke-width="0.25" stroke-miterlimit="10"/>
        <path d="M30.9642 70.0308C30.4758 70.7233 30.0135 71.4071 29.5687 72.0733C27.4579 75.2992 25.9315 78.3497 25.0593 82.0665C24.9721 82.4347 24.8151 83.1447 24.5359 84.0301C22.5124 83.7408 20.4103 83.3902 18.2123 82.9519C15.4997 82.3996 12.9616 81.786 10.5979 81.1198C10.31 76.1495 10.5281 70.0133 12.0632 63.2284C12.1243 62.9655 12.1766 62.7112 12.2551 62.457C15.6916 65.8495 18.7008 68.3916 20.9686 70.1711C22.3205 71.2318 23.6027 72.1785 25.4256 72.2925C28.0161 72.459 30.0745 70.8373 30.9729 70.0308H30.9642Z" fill="url(#paint13_linear_1716_17822)" stroke="#C6BA9B" stroke-width="0.25" stroke-miterlimit="10"/>
        <path d="M27.1695 66.7883C27.1695 67.9717 26.21 68.9272 25.0325 68.9272C23.855 68.9272 22.9043 67.9717 22.9043 66.7883C22.9043 65.6049 23.855 64.6406 25.0325 64.6406C26.21 64.6406 27.1695 65.6049 27.1695 66.7883Z" fill="url(#paint14_linear_1716_17822)" stroke="#C6BA9B" stroke-width="0.25" stroke-miterlimit="10"/>
        <path d="M13.4757 134.445C11.9057 134.532 10.3444 134.629 8.77444 134.708C8.47789 134.462 8.03305 134.059 7.60567 133.472C6.37584 131.797 6.20139 129.965 6.14034 129.062C4.61395 108.839 5.81762 113.161 5.61701 109.576C5.59956 109.26 5.54723 108.418 5.85251 107.393C6.0095 106.876 6.23628 106.411 6.48923 105.99C6.9515 107.288 7.94583 109.497 10.074 111.46C11.1207 112.416 12.1587 113.047 13.0134 113.494C12.8477 114.151 12.6907 114.853 12.5163 115.58C12.1238 117.29 10.388 125.705 13.4844 134.445H13.4757Z" fill="url(#paint15_linear_1716_17822)" stroke="#C6BA9B" stroke-width="0.25" stroke-miterlimit="10"/>
        <path d="M15.8917 104.331C15.848 104.419 15.8044 104.515 15.7608 104.594C15.7608 104.594 14.4961 107.434 12.9959 113.483C12.1411 113.036 11.0944 112.405 10.0565 111.449C7.92829 109.486 6.93396 107.277 6.47168 105.979C6.8729 105.339 7.33518 104.831 7.77129 104.428C8.12017 104.384 8.47779 104.357 8.82667 104.314C11.3474 104.068 13.7198 104.112 15.8917 104.322V104.331Z" fill="url(#paint16_linear_1716_17822)" stroke="#C6BA9B" stroke-width="0.25" stroke-miterlimit="10"/>
    </g>
    <defs>
        <linearGradient id="paint0_linear_1716_17822" x1="29.1845" y1="20.1183" x2="51.6965" y2="20.1183" gradientUnits="userSpaceOnUse">
            <stop stop-color="#5A4021"/>
            <stop offset="1" stop-color="#6E5E32"/>
        </linearGradient>
        <linearGradient id="paint1_linear_1716_17822" x1="27.405" y1="41.647" x2="59.7818" y2="41.647" gradientUnits="userSpaceOnUse">
            <stop stop-color="#5A4021"/>
            <stop offset="1" stop-color="#6E5E32"/>
        </linearGradient>
        <linearGradient id="paint2_linear_1716_17822" x1="28.0859" y1="31.3387" x2="56.7732" y2="31.3387" gradientUnits="userSpaceOnUse">
            <stop stop-color="#5A4021"/>
            <stop offset="1" stop-color="#6E5E32"/>
        </linearGradient>
        <linearGradient id="paint3_linear_1716_17822" x1="0.105279" y1="122.014" x2="23.4633" y2="122.014" gradientUnits="userSpaceOnUse">
            <stop stop-color="#C59D62"/>
            <stop offset="1" stop-color="#C9BC9C"/>
        </linearGradient>
        <linearGradient id="paint4_linear_1716_17822" x1="4.49219" y1="71.1361" x2="41.7185" y2="71.1361" gradientUnits="userSpaceOnUse">
            <stop stop-color="#C59D62"/>
            <stop offset="1" stop-color="#C9BC9C"/>
        </linearGradient>
        <linearGradient id="paint5_linear_1716_17822" x1="17.1302" y1="39.1917" x2="30.5799" y2="39.1917" gradientUnits="userSpaceOnUse">
            <stop stop-color="#47A0C5"/>
            <stop offset="0.23" stop-color="#46A7CF"/>
            <stop offset="1" stop-color="#3EBFF0"/>
        </linearGradient>
        <linearGradient id="paint6_linear_1716_17822" x1="18.4131" y1="12.7364" x2="32.7" y2="12.7364" gradientUnits="userSpaceOnUse">
            <stop stop-color="#47A0C5"/>
            <stop offset="0.23" stop-color="#46A7CF"/>
            <stop offset="1" stop-color="#3EBFF0"/>
        </linearGradient>
        <linearGradient id="paint7_linear_1716_17822" x1="17.4355" y1="25.3955" x2="32.8302" y2="25.3955" gradientUnits="userSpaceOnUse">
            <stop stop-color="#9FA0A0"/>
            <stop offset="0.58" stop-color="#D4DADF"/>
            <stop offset="1" stop-color="#DCDDDD"/>
        </linearGradient>
        <linearGradient id="paint8_linear_1716_17822" x1="22.7823" y1="3.18227" x2="28.3209" y2="3.18227" gradientUnits="userSpaceOnUse">
            <stop stop-color="#C3483E"/>
            <stop offset="0.16" stop-color="#C3483E"/>
            <stop offset="0.87" stop-color="#E3805D"/>
        </linearGradient>
        <linearGradient id="paint9_linear_1716_17822" x1="10.414" y1="50.2456" x2="43.0699" y2="50.2456" gradientUnits="userSpaceOnUse">
            <stop stop-color="#C59D62"/>
            <stop offset="1" stop-color="#C9BC9C"/>
        </linearGradient>
        <linearGradient id="paint10_linear_1716_17822" x1="13.8682" y1="44.7932" x2="17.6187" y2="44.7932" gradientUnits="userSpaceOnUse">
            <stop stop-color="#262F2D"/>
            <stop offset="0.53" stop-color="#5A4021"/>
            <stop offset="1" stop-color="#6E5E32"/>
        </linearGradient>
        <linearGradient id="paint11_linear_1716_17822" x1="1.98039" y1="62.0976" x2="17.2617" y2="62.0976" gradientUnits="userSpaceOnUse">
            <stop stop-color="#C59D62"/>
            <stop offset="1" stop-color="#C9BC9C"/>
        </linearGradient>
        <linearGradient id="paint12_linear_1716_17822" x1="12.2461" y1="64.7293" x2="36.677" y2="64.7293" gradientUnits="userSpaceOnUse">
            <stop stop-color="#C59D62"/>
            <stop offset="1" stop-color="#C9BC9C"/>
        </linearGradient>
        <linearGradient id="paint13_linear_1716_17822" x1="10.4845" y1="73.2479" x2="30.9642" y2="73.2479" gradientUnits="userSpaceOnUse">
            <stop stop-color="#C59D62"/>
            <stop offset="1" stop-color="#C9BC9C"/>
        </linearGradient>
        <linearGradient id="paint14_linear_1716_17822" x1="22.8956" y1="66.7883" x2="27.1695" y2="66.7883" gradientUnits="userSpaceOnUse">
            <stop stop-color="#262F2D"/>
            <stop offset="0.53" stop-color="#5A4021"/>
            <stop offset="1" stop-color="#6E5E32"/>
        </linearGradient>
        <linearGradient id="paint15_linear_1716_17822" x1="5.34662" y1="120.349" x2="13.4757" y2="120.349" gradientUnits="userSpaceOnUse">
            <stop stop-color="#C59D62"/>
            <stop offset="1" stop-color="#C9BC9C"/>
        </linearGradient>
        <linearGradient id="paint16_linear_1716_17822" x1="6.4804" y1="108.819" x2="15.8917" y2="108.819" gradientUnits="userSpaceOnUse">
            <stop stop-color="#C59D62"/>
            <stop offset="1" stop-color="#C9BC9C"/>
        </linearGradient>
        <clipPath id="clip0_1716_17822">
            <rect width="60" height="155" fill="white"/>
        </clipPath>
    </defs>
</svg>
