<svg xmlns="http://www.w3.org/2000/svg" width="62" height="19" viewBox="0 0 62 19" fill="none">
    <g clip-path="url(#clip0_1716_19460)">
        <path d="M5.70829 18.4169C4.60114 18.5706 3.48384 18.7242 2.36654 18.8676C2.20403 18.8266 0.934369 18.5091 0.375719 17.2698C0.020214 16.4811 0.131944 15.7539 0.192888 15.4773C0.89374 15.0574 1.62506 14.6374 2.36654 14.2175C3.07755 13.818 3.78856 13.4288 4.47926 13.0703C4.42847 13.6746 4.42847 14.4121 4.57067 15.2622C4.79413 16.6552 5.302 17.7307 5.70829 18.4169Z" fill="#E3805D" stroke="#C6BA9B" stroke-width="0.25" stroke-miterlimit="10"/>
        <path d="M48.6322 8.90039C44.2544 10.1807 39.8767 11.4713 35.4989 12.7516C35.2754 10.5085 34.8894 7.78395 33.0713 5.55107C35.9052 4.63948 38.7492 3.73813 41.5932 2.83678C43.1067 2.35538 44.6201 1.87398 46.1335 1.39258C46.1945 2.36562 46.357 3.61522 46.7938 5.00821C47.3118 6.688 48.033 7.9888 48.6322 8.90039Z" fill="#FFF100" stroke="#C6BA9B" stroke-width="0.25" stroke-miterlimit="10"/>
        <path d="M54.4932 4.92768C52.543 6.25922 50.5827 7.58051 48.6325 8.9018C48.0332 7.99021 47.312 6.68941 46.794 5.00962C46.3573 3.61663 46.1947 2.36703 46.1338 1.39399C48.2059 1.23011 50.278 1.06623 52.35 0.902344C52.3602 1.36326 52.4516 2.31582 53.0204 3.30935C53.508 4.15949 54.1276 4.67162 54.4932 4.92768Z" fill="#C9BC9C" stroke="#C6BA9B" stroke-width="0.25" stroke-miterlimit="10"/>
        <path d="M61.5226 0.164062C59.1763 1.75166 56.8401 3.33927 54.4938 4.92687C54.1281 4.6708 53.5085 4.15867 53.021 3.30854C52.4522 2.31501 52.3607 1.36245 52.3506 0.901529C55.4079 0.655707 58.4653 0.409885 61.5226 0.164062Z" fill="#231916" stroke="#C6BA9B" stroke-width="0.25" stroke-miterlimit="10"/>
        <path d="M7.34446 18.2014C6.79597 18.2731 6.25763 18.3448 5.70914 18.4165C5.30285 17.7302 4.79498 16.6547 4.57152 15.2618C4.42932 14.4116 4.42932 13.6742 4.48011 13.0698C5.03876 12.7626 5.58725 12.4758 6.13574 12.1992C6.18653 14.217 6.64361 16.3065 7.34446 18.2014Z" fill="#FFF100" stroke="#C6BA9B" stroke-width="0.25" stroke-miterlimit="10"/>
    </g>
    <defs>
        <clipPath id="clip0_1716_19460">
            <rect width="62" height="19" fill="white"/>
        </clipPath>
    </defs>
</svg>
