<svg xmlns="http://www.w3.org/2000/svg" width="84" height="77" viewBox="0 0 84 77" fill="none">
    <path d="M81.0426 46.1731C80.2738 46.7115 79.098 47.4825 77.5757 48.1894C76.2399 48.809 73.5594 49.8872 68.1024 50.383C62.4245 50.8836 62.7492 49.9537 59.735 50.638C55.662 51.56 55.0541 53.2522 51.0822 54.4518C49.1272 55.0387 46.1126 55.5826 42.0179 54.9294C42.002 54.5775 41.989 54.1856 41.9673 53.7732C41.9463 53.3507 41.9267 52.9083 41.9005 52.4153C41.7966 50.4335 41.6927 48.7423 41.6211 47.4544C44.3374 45.2761 48.4118 42.59 53.8128 40.7271C58.2677 39.21 62.0143 38.8067 63.8073 38.6798C65.378 38.5776 67.3592 39.065 70.3672 38.7612C72.2249 38.5685 73.7309 38.2414 74.732 37.9696C74.8954 38.0711 75.0695 38.1633 75.27 38.3074C76.289 38.939 77.6874 40.0278 78.9242 41.7168C80.1702 43.4166 80.7571 45.0809 81.054 46.1539L81.0426 46.1731Z" fill="url(#paint0_linear_1710_10858)" stroke="#C9BC9C" stroke-width="0.25" stroke-miterlimit="10"/>
    <path d="M82.9627 53.4949C75.3904 59.2276 68.8567 62.2553 64.6756 63.8715C59.7023 65.7839 57.3324 65.9914 55.1183 65.538C52.9535 65.098 51.8227 64.1981 46.7306 62.163C44.5747 61.3027 42.7948 60.6587 41.6289 60.2676C41.6778 60.1407 41.7173 60.0031 41.7555 59.8854C42.0517 58.9335 42.128 58.1168 41.9976 54.9203C46.1024 55.5742 49.1069 55.0296 51.062 54.4427C55.0346 53.2331 55.6424 51.5409 59.7148 50.6289C62.729 49.9446 62.4043 50.8745 68.0822 50.3739C73.5392 49.8781 76.2197 48.7999 77.5555 48.1803C79.0777 47.4734 80.2628 46.7131 81.0224 46.1641C81.5212 46.7798 82.2585 47.8631 82.7053 49.3774C83.2241 51.1573 83.0804 52.661 82.9435 53.4835L82.9627 53.4949Z" fill="url(#paint1_linear_1710_10858)" stroke="#C9BC9C" stroke-width="0.25" stroke-miterlimit="10"/>
    <path d="M83.2067 57.8207C82.8042 60.4592 81.5177 62.255 80.8606 63.0617C80.6676 63.0985 80.4832 63.156 80.2882 63.2227C79.9493 63.3397 77.287 64.2988 75.8495 66.9762C75.6757 67.3151 75.5808 67.5291 75.3751 68.4772C74.201 69.0778 73.0909 69.6228 72.0447 70.112C67.5513 72.1878 64.2402 73.2525 61.7513 73.7324C60.1974 74.0263 58.97 74.092 57.981 74.0438C57.2826 73.9957 56.3682 73.8825 55.0459 73.8715C54.6148 73.8719 54.1325 73.8887 53.6096 73.9128C52.1008 73.9892 50.9463 74.1602 50.0034 74.3157C48.3411 74.582 47.2836 74.7997 45.9843 74.3092C45.2711 74.0395 44.3258 73.5032 43.3674 72.2844C43.0915 71.9246 42.8283 71.5255 42.5593 71.0659C42.0918 71.0136 41.3398 70.8716 40.5599 70.4068C39.3369 69.681 38.7899 68.6008 38.482 67.9781C37.9178 66.8567 37.7599 65.8033 37.719 65.0888C40.1776 63.3037 41.1955 61.4794 41.6506 60.2578C42.8165 60.6489 44.5964 61.2929 46.7523 62.1532C51.8444 64.1883 52.9751 65.0883 55.14 65.5282C57.3541 65.9816 59.7246 65.7642 64.6973 63.8617C68.8784 62.2455 75.4121 59.2178 82.9844 53.4851C83.2311 54.4143 83.5056 55.9568 83.2273 57.8121L83.2067 57.8207Z" fill="url(#paint2_linear_1710_10858)" stroke="#C9BC9C" stroke-width="0.25" stroke-miterlimit="10"/>
    <path d="M29.5557 0.734375C33.5739 16.3077 37.5921 31.881 41.6104 47.4543" stroke="#231916" stroke-width="0.25" stroke-miterlimit="10"/>
    <path d="M4.44727 8.58594C8.90885 17.8749 14.1114 27.7561 20.1885 38.0385C26.0409 47.9446 31.9553 56.9528 37.7186 65.0985" stroke="#231916" stroke-width="0.25" stroke-miterlimit="10"/>
    <defs>
        <linearGradient id="paint0_linear_1710_10858" x1="41.6065" y1="46.6841" x2="81.0462" y2="46.515" gradientUnits="userSpaceOnUse">
            <stop stop-color="#3F3B3A"/>
            <stop offset="1" stop-color="#050C05"/>
        </linearGradient>
        <linearGradient id="paint1_linear_1710_10858" x1="41.6258" y1="56.0763" x2="83.1054" y2="55.8986" gradientUnits="userSpaceOnUse">
            <stop stop-color="#3F3B3A"/>
            <stop offset="1" stop-color="#050C05"/>
        </linearGradient>
        <linearGradient id="paint2_linear_1710_10858" x1="37.7115" y1="64.172" x2="83.3511" y2="63.9764" gradientUnits="userSpaceOnUse">
            <stop stop-color="#3F3B3A"/>
            <stop offset="1" stop-color="#050C05"/>
        </linearGradient>
    </defs>
</svg>
