<svg xmlns="http://www.w3.org/2000/svg" width="64" height="49" viewBox="0 0 64 49" fill="none">
    <g clip-path="url(#clip0_1716_17633)">
        <path d="M13.0204 30.9422C13.0204 31.3058 13.0115 31.696 13.0027 32.0685C12.8342 36.361 11.9562 39.9706 11.0427 42.7199C10.546 43.0392 10.076 43.3762 9.62369 43.7043C7.21139 45.5047 5.47311 47.3494 4.32904 48.724C6.02298 45.8506 7.19365 41.5226 7.27347 34.3567C7.44197 21.2398 3.88561 9.1783 0.205078 0.203125C0.391322 0.274075 0.568697 0.353894 0.737203 0.460319C1.24272 0.73525 1.65955 1.10774 2.03204 1.50683C2.21828 1.70194 2.39566 1.91479 2.56416 2.12764C2.73267 2.34049 2.91005 2.57108 3.06968 2.78393C3.48651 3.35153 3.78805 3.84818 3.99203 4.2118C4.55963 4.04329 5.41103 3.83931 6.42207 3.71515C6.75021 3.67967 7.04288 3.6442 7.33555 3.61759C8.58604 6.17179 9.85427 9.27585 10.8653 12.912C12.2932 18.1269 12.7544 22.8007 12.8076 26.499C12.9495 27.847 13.0293 29.337 13.0115 30.9422H13.0204Z" fill="url(#paint0_linear_1716_17633)" stroke="#C6BA9B" stroke-width="0.221719" stroke-miterlimit="10"/>
        <path d="M58.5345 41.1946C56.5833 41.9041 54.8451 41.709 54.1444 41.5937C53.8961 42.1259 53.4704 42.8797 52.7166 43.5449C50.8187 45.221 48.4241 45.0259 47.9097 44.9727C47.6348 44.7155 47.1027 44.2721 46.3399 44.1923C45.1161 44.0504 43.8301 44.8663 43.1472 46.2587C41.6129 43.7488 39.6529 41.913 38.2162 40.8133C37.1963 40.0062 36.4424 39.5805 36.336 39.5184C35.5556 39.075 34.7485 38.7025 33.9414 38.401C32.3717 37.8156 30.8019 37.4875 29.241 37.3633C28.026 37.2569 26.8464 37.2658 25.7024 37.3722C20.8955 37.789 16.7893 39.6781 14.918 40.5561C14.6608 40.6714 14.4125 40.7955 14.1641 40.9197C14.0666 40.964 13.9602 41.0173 13.8626 41.0705C13.5433 41.2301 13.2418 41.3897 12.9314 41.5671C12.6298 41.7268 12.3372 41.8953 12.0534 42.0726C11.8405 42.2057 11.6099 42.3387 11.406 42.4717C11.2729 42.5604 11.1399 42.6402 11.0069 42.7289C11.9203 39.9796 12.7983 36.37 12.9669 32.0776C12.9757 31.7051 12.9846 31.3149 12.9846 30.9512C13.0023 29.3549 12.9225 27.8649 12.7806 26.508C12.7274 22.8097 12.2662 18.1359 10.8384 12.9211C9.82732 9.28489 8.56796 6.17196 7.30859 3.62663C8.63891 3.4936 9.64994 3.4936 10.6876 4.02572C12.1687 4.75296 12.8427 6.11875 13.0821 6.59766C13.7828 8.06987 13.6852 9.40905 13.6054 9.95005C15.2639 9.11638 16.2572 9.23168 16.878 9.50661C18.1551 10.1097 18.1639 11.6085 19.8047 12.2382C20.6117 12.5486 21.3478 12.4776 21.5961 12.4333C22.7047 12.2737 23.0861 11.6617 23.9907 11.1651C24.78 10.7394 25.6137 10.6063 26.3587 10.6063C26.9883 13.4709 28.9749 20.6103 35.1298 24.7431C35.7507 25.1599 36.5134 25.6743 37.4002 26.1089C38.3669 26.5878 39.4667 26.978 40.6728 27.0667C41.2315 27.1022 41.808 27.0756 42.4022 26.9603C43.3423 26.7741 44.1582 26.4016 44.85 25.9493C46.2335 25.0713 47.1204 23.9006 47.5195 23.3773C49.4351 20.8586 49.6657 18.1891 49.9673 14.5618C50.1269 12.6994 50.189 10.0387 49.7544 6.82825C50.1535 5.45359 49.7367 4.25631 50.1535 2.79297C52.6013 6.26065 56.2907 12.3978 58.1886 20.9029C60.1486 29.6653 59.3238 36.9909 58.5167 41.1946H58.5345Z" fill="url(#paint1_linear_1716_17633)" stroke="#C6BA9B" stroke-width="0.221719" stroke-miterlimit="10"/>
        <path d="M49.9934 14.5627C49.6918 18.19 49.4701 20.8595 47.5456 23.3783C47.1465 23.9015 46.2596 25.0722 44.8761 25.9502C44.1932 26.4025 43.3773 26.775 42.4283 26.9612C41.8341 27.0765 41.2577 27.1031 40.6989 27.0677C39.5016 26.979 38.393 26.5976 37.4264 26.1276C36.5395 25.6841 35.7768 25.1697 35.156 24.7529C29.001 20.6289 27.0144 13.4807 26.3848 10.6161C27.1475 10.6161 27.8304 10.7492 28.3448 10.829C28.6108 10.8733 28.9212 10.9354 29.2494 11.0152H29.2582C29.5332 13.1703 30.3846 16.4163 33.0097 19.0326C33.9675 19.9904 34.9697 20.6644 35.8743 21.1522C35.8832 21.1522 35.8832 21.1611 35.8832 21.1611C37.1958 21.8883 38.6946 22.4736 40.2023 22.5889H40.2111C40.9118 22.6422 41.6301 22.5978 42.313 22.4204C42.6589 22.3495 42.9959 22.2253 43.3418 22.0657C45.2752 21.1788 46.4015 19.3785 47.0756 17.6047C47.6875 16.0172 47.9447 14.4652 48.0688 13.6049C48.2817 12.2835 48.2906 11.1039 48.2285 10.155V10.1106C48.2285 10.1106 48.2462 10.0219 48.2462 9.97759C48.2906 9.64944 48.3083 9.33017 48.3438 9.01976C48.6897 8.70049 49.0444 8.29252 49.3282 7.80474C49.5322 7.45886 49.6564 7.13072 49.7539 6.82031C50.1973 10.0308 50.1264 12.6826 49.9668 14.5539L49.9934 14.5627Z" fill="url(#paint2_linear_1716_17633)" stroke="#C6BA9B" stroke-width="0.221719" stroke-miterlimit="10"/>
        <path d="M62.1436 38.7769C61.5938 39.3888 60.8133 40.1072 59.7402 40.6836C59.3322 40.8965 58.9331 41.0739 58.5429 41.198C59.35 36.9942 60.1748 29.6686 58.2148 20.9063C56.3169 12.4012 52.6275 6.25516 50.1797 2.79635C50.428 1.94495 50.836 1.37735 51.3947 0.898438C51.51 1.00486 51.643 1.13789 51.7583 1.26206C53.7981 3.26639 55.9178 5.82059 57.7979 8.9956C64.9461 21.1901 63.0837 34.0143 62.1525 38.7769H62.1436Z" fill="url(#paint3_linear_1716_17633)" stroke="#C6BA9B" stroke-width="0.221719" stroke-miterlimit="10"/>
        <path d="M37.4619 13.6604V13.6504" stroke="#C6BA9B" stroke-width="0.221719" stroke-miterlimit="10"/>
        <path d="M51.386 0.898672L51.376 0.888672" stroke="#C6BA9B" stroke-width="0.221719" stroke-miterlimit="10"/>
        <path d="M48.2466 10.1562C48.3087 11.114 48.2998 12.2935 48.087 13.6061C47.9539 14.4664 47.6967 16.0184 47.0937 17.5971C46.4197 19.3797 45.2933 21.18 43.3599 22.0669C43.0141 22.2265 42.677 22.3418 42.3312 22.4217C41.6483 22.6079 40.9299 22.6434 40.2293 22.5902H40.2204C38.7127 22.4749 37.205 21.8895 35.9013 21.1623C35.9013 21.1623 35.9013 21.1534 35.8925 21.1534C34.9878 20.6568 33.9857 19.9827 33.0278 19.0338C30.4027 16.4175 29.5513 13.1716 29.2764 11.0164C30.2608 11.2648 31.4315 11.7259 32.3095 12.8257C33.019 13.7303 33.2407 14.6881 33.3383 15.2734C33.4269 15.1404 33.5334 15.0163 33.6664 14.8744C33.7994 14.7325 33.9591 14.5728 34.1364 14.4309H34.1453C34.367 14.2624 34.6242 14.085 34.9258 13.952C35.9102 13.5086 36.7705 13.6327 37.4534 13.6593C38.0298 13.6771 38.5797 13.615 39.0941 13.5086C40.2381 13.2868 41.2314 12.8079 42.0828 12.3822C42.5263 12.1783 43.2535 11.7792 44.0783 11.0519C44.9031 10.3158 45.8521 9.22496 46.6591 7.66406C46.7478 7.72614 47.2622 8.06316 47.3863 8.73718C47.4928 9.30478 47.2622 9.74822 47.1912 9.85464C47.4662 9.70387 47.7943 9.49102 48.1313 9.20722C48.2023 9.15401 48.2732 9.09193 48.3442 9.02098C48.3087 9.33139 48.291 9.64179 48.2466 9.9788C48.2466 10.0231 48.2377 10.0675 48.2289 10.1118V10.1473L48.2466 10.1562Z" fill="url(#paint4_linear_1716_17633)" stroke="#C6BA9B" stroke-width="0.221719" stroke-miterlimit="10"/>
    </g>
    <defs>
        <linearGradient id="paint0_linear_1716_17633" x1="6.61718" y1="48.724" x2="6.61718" y2="0.203125" gradientUnits="userSpaceOnUse">
            <stop stop-color="#C3483E"/>
            <stop offset="0.16" stop-color="#C3483E"/>
            <stop offset="0.87" stop-color="#E3805D"/>
        </linearGradient>
        <linearGradient id="paint1_linear_1716_17633" x1="18.6695" y1="47.1278" x2="45.7457" y2="0.238769" gradientUnits="userSpaceOnUse">
            <stop stop-color="#9FA0A0"/>
            <stop offset="0.58" stop-color="#D4DADF"/>
            <stop offset="1" stop-color="#DCDDDD"/>
        </linearGradient>
        <linearGradient id="paint2_linear_1716_17633" x1="38.2511" y1="27.0765" x2="38.2511" y2="6.82918" gradientUnits="userSpaceOnUse">
            <stop stop-color="#C3483E"/>
            <stop offset="0.16" stop-color="#C3483E"/>
            <stop offset="0.87" stop-color="#E3805D"/>
        </linearGradient>
        <linearGradient id="paint3_linear_1716_17633" x1="56.6184" y1="41.198" x2="56.6184" y2="0.907304" gradientUnits="userSpaceOnUse">
            <stop stop-color="#C3483E"/>
            <stop offset="0.16" stop-color="#C3483E"/>
            <stop offset="0.87" stop-color="#E3805D"/>
        </linearGradient>
        <linearGradient id="paint4_linear_1716_17633" x1="29.2675" y1="15.1404" x2="48.3619" y2="15.1404" gradientUnits="userSpaceOnUse">
            <stop stop-color="#C28A7C"/>
            <stop offset="1" stop-color="#C9BEB4"/>
        </linearGradient>
        <clipPath id="clip0_1716_17633">
            <rect width="63.1809" height="48.7958" fill="white"/>
        </clipPath>
    </defs>
</svg>
