<svg xmlns="http://www.w3.org/2000/svg" width="27" height="22" viewBox="0 0 27 22" fill="none">
    <g clip-path="url(#clip0_1696_8829)">
        <path d="M2.82556 3.10098V3.08789" stroke="#C9BC9C" stroke-width="0.0888482" stroke-miterlimit="10"/>
        <path d="M3.01264 5.37364L3.00977 5.37" stroke="#C9BC9C" stroke-width="0.0888482" stroke-miterlimit="10"/>
        <path d="M23.9893 16.5668C23.7645 16.7565 23.5269 16.9517 23.2807 17.1442C22.7884 17.5292 22.2575 17.9087 21.7117 18.2693H21.7096C20.9175 18.7925 20.0934 19.275 19.2993 19.6735C18.2376 20.2076 17.2401 20.5871 16.3432 20.8609H16.341C15.4334 21.1375 14.6329 21.3055 13.98 21.414C14.0485 21.2079 14.1148 20.9911 14.1791 20.7579C14.2604 20.4651 14.453 19.725 14.5793 18.5783C15.3949 18.5675 18.8926 18.4129 20.8383 15.1571C21.1059 14.7043 21.3756 14.1432 21.5982 13.4491C21.5854 13.254 21.5726 13.0615 21.5597 12.8663C23.2508 12.6521 24.3403 12.6548 25.0317 12.7741C25.7895 12.9042 26.072 13.178 26.1491 13.4681C26.3396 14.1784 25.3999 15.3577 23.9893 16.5668Z" fill="url(#paint0_linear_1696_8829)" stroke="#C9BC9C" stroke-width="0.0888482" stroke-miterlimit="10"/>
        <path d="M21.5983 13.4492C21.3756 14.1432 21.1059 14.7043 20.8384 15.1571C18.8926 18.413 15.3949 18.5675 14.5793 18.5783C14.68 17.6729 14.7377 16.518 14.6628 15.1327C15.2793 15.1842 16.6214 15.1923 18.0856 14.2814C19.7445 13.254 20.5986 11.6491 20.9133 10.9822C21.1316 11.5894 21.3478 12.2157 21.5597 12.8663C21.5726 13.0615 21.5854 13.254 21.5983 13.4492Z" fill="url(#paint1_linear_1696_8829)" stroke="#C9BC9C" stroke-width="0.0888482" stroke-miterlimit="10"/>
        <path d="M20.9133 10.9822C20.5987 11.6491 19.7446 13.254 18.0857 14.2815C16.6215 15.1924 15.2794 15.1842 14.6629 15.1327C14.6608 15.0812 14.6565 15.027 14.6543 14.9755C14.451 11.6356 13.6162 9.24721 12.9098 7.22482C12.2248 5.2675 11.7153 3.80357 10.7478 2.39929C10.8741 1.91403 11.131 1.2417 11.664 0.72662C12.2483 0.160026 12.8605 0.0786971 13.111 0.0488764C14.3033 -0.0893832 15.2408 0.694088 15.7011 1.07905C18.3361 3.28036 20.7849 10.5918 20.9133 10.9822Z" fill="url(#paint2_linear_1696_8829)" stroke="#C9BC9C" stroke-width="0.0888482" stroke-miterlimit="10"/>
        <path d="M3.52338 12.8473C2.47022 13.4464 1.41921 14.0456 0.368191 14.6447C0.32324 14.623 0.194806 14.5525 0.104902 14.3736C1.45715e-05 14.1594 0.0278419 13.9425 0.0342636 13.891C1.17946 13.2377 2.32253 12.5871 3.46773 11.9337C3.46345 12.2075 3.47629 12.5139 3.52338 12.8473Z" fill="url(#paint3_linear_1696_8829)" stroke="#C9BC9C" stroke-width="0.0888482" stroke-miterlimit="10"/>
        <path d="M18.0898 4.34312L23.5205 0.466431" stroke="#231916" stroke-width="0.266544" stroke-miterlimit="10"/>
    </g>
    <defs>
        <linearGradient id="paint0_linear_1696_8829" x1="20.0784" y1="21.414" x2="20.0784" y2="12.6928" gradientUnits="userSpaceOnUse">
            <stop stop-color="#C59D62"/>
            <stop offset="1" stop-color="#C9BC9C"/>
        </linearGradient>
        <linearGradient id="paint1_linear_1696_8829" x1="14.5793" y1="14.7802" x2="21.5983" y2="14.7802" gradientUnits="userSpaceOnUse">
            <stop stop-color="#9FA0A0"/>
            <stop offset="0.58" stop-color="#D4DADF"/>
            <stop offset="1" stop-color="#DCDDDD"/>
        </linearGradient>
        <linearGradient id="paint2_linear_1696_8829" x1="15.8316" y1="15.1517" x2="15.8316" y2="0.0326103" gradientUnits="userSpaceOnUse">
            <stop stop-color="#C59D62"/>
            <stop offset="1" stop-color="#C9BC9C"/>
        </linearGradient>
        <linearGradient id="paint3_linear_1696_8829" x1="0.0257013" y1="13.2892" x2="3.52338" y2="13.2892" gradientUnits="userSpaceOnUse">
            <stop stop-color="#3F3B3A"/>
            <stop offset="1" stop-color="#050C05"/>
        </linearGradient>
        <clipPath id="clip0_1696_8829">
            <rect width="26.2005" height="21.4573" fill="white"/>
        </clipPath>
    </defs>
</svg>
