<svg xmlns="http://www.w3.org/2000/svg" width="66" height="137" viewBox="0 0 66 137" fill="none">
    <g clip-path="url(#clip0_1714_16006)">
        <path d="M54.8758 113.947L54.8506 113.922" stroke="#C6BA9B" stroke-width="0.25" stroke-miterlimit="10"/>
        <path d="M55.9353 20.5458C54.5928 21.3958 53.7567 22.4944 53.0171 23.8497C52.0605 22.318 50.2196 19.7438 47.1969 17.3702C47.1567 17.3461 47.1326 17.314 47.0924 17.29C46.2242 16.6164 45.2676 15.9508 44.1903 15.3413C42.9282 14.6116 41.6983 14.0502 40.5326 13.6092C38.1048 12.695 35.9745 12.3181 34.4873 12.1497C34.6481 12.0133 34.833 11.885 35.0259 11.7407C36.5212 10.7222 38.1209 10.3052 40.1869 9.93637C40.6371 9.85617 41.1114 9.76796 41.6179 9.68777C43.4829 9.367 45.0505 9.26275 46.1197 9.22266C47.9445 11.9813 50.2196 14.8922 53.0171 17.7551C53.1297 17.8834 53.2583 18.0117 53.3869 18.14C54.2391 18.99 55.0912 19.792 55.9353 20.5458Z" fill="url(#paint0_linear_1714_16006)" stroke="#C6BA9B" stroke-width="0.25" stroke-miterlimit="10"/>
        <path d="M40.5242 13.6079C35.331 19.3336 29.4304 26.8717 23.9961 36.3985C19.848 43.6799 16.8655 50.5524 14.7191 56.5427C14.6387 56.4946 14.5583 56.4385 14.4779 56.3984C14.3493 56.3182 14.2287 56.23 14.1001 56.1418C13.867 55.9734 13.6258 55.7969 13.3927 55.6045C11.7206 54.2653 10.6835 52.7817 10.0967 51.8034C10.7398 48.9646 11.3106 45.8772 11.7447 42.5572C12.026 40.4562 12.219 38.4354 12.3556 36.5027C15.1532 32.437 17.581 29.4058 19.6711 27.1123C21.1824 25.4683 22.5089 24.2013 23.6584 23.223C24.1488 22.806 24.607 22.4451 25.0331 22.1243C26.7534 20.8332 28.9561 19.486 31.2151 16.575C32.4129 15.0193 32.8711 14.0169 33.5303 13.1508C33.7875 12.798 34.093 12.4772 34.4869 12.1484C35.9661 12.3168 38.1045 12.6937 40.5322 13.6079H40.5242Z" fill="url(#paint1_linear_1714_16006)" stroke="#C6BA9B" stroke-width="0.25" stroke-miterlimit="10"/>
        <path d="M30.0816 62.1812H30.0736C29.0044 61.7642 28.0156 61.3873 27.1153 61.0586C25.7004 60.5293 24.5106 60.1283 23.5942 59.8076C21.1664 58.9976 19.3898 58.4764 17.9428 57.9712C16.6807 57.5381 15.6838 57.1211 14.7272 56.5357C14.6468 56.4876 14.5664 56.4315 14.486 56.3914C14.3574 56.3112 14.2368 56.223 14.1082 56.1348C11.7849 57.9872 8.06288 61.4194 5.12865 66.8324C2.02561 72.5661 1.23779 77.8588 1.0127 80.874C2.66069 82.0929 4.87944 83.5524 7.64485 84.9157C9.1401 85.6454 10.7881 86.3511 12.6049 86.9686C13.3847 87.2332 14.1403 87.4658 14.888 87.6743C17.2916 88.3399 19.5023 88.7408 21.4558 88.9574C22.6295 89.0937 23.7067 89.1739 24.6634 89.2059C24.2855 84.5628 25.0653 80.874 25.2904 79.8796C26.7615 73.3921 28.1362 70.3769 28.1362 70.3769C29.1491 68.1315 30.1379 66.5517 30.2183 64.1139C30.2344 63.4403 30.1781 62.7907 30.0816 62.1812ZM17.5167 77.6583C17.2675 77.947 16.8575 78.0593 16.4877 77.9229C13.2078 76.8323 9.91988 75.7337 6.63194 74.6431C6.56763 74.5869 6.2943 74.3384 6.25411 73.9214C6.21391 73.5525 6.37469 73.2798 6.43097 73.1996C9.22049 69.6792 12.01 66.1427 14.7995 62.6223C14.8156 62.6063 15.0648 62.3577 15.4025 62.4298C15.6838 62.494 15.8848 62.7666 15.8928 63.0794C16.4797 67.6102 17.0665 72.1331 17.6534 76.6639C17.7981 77.0007 17.7498 77.3856 17.5167 77.6663V77.6583Z" fill="url(#paint2_linear_1714_16006)" stroke="#C6BA9B" stroke-width="0.25" stroke-miterlimit="10"/>
        <path d="M6.93833 88.0262C6.7052 89.5979 6.65697 91.0093 6.7052 92.1881C5.41092 91.5065 4.24527 90.7768 3.2404 90.055C2.13102 89.2772 1.19046 88.4993 0.426758 87.8097C0.619693 85.5001 0.812629 83.1906 1.0136 80.873C2.66159 82.092 4.88035 83.5515 7.64576 84.9147C7.38047 85.8209 7.11519 86.8554 6.93833 88.0342V88.0262Z" fill="url(#paint3_linear_1714_16006)" stroke="#C6BA9B" stroke-width="0.25" stroke-miterlimit="10"/>
        <path d="M14.88 87.6668C14.8961 88.6692 14.88 89.7438 14.7996 90.9066C14.6951 92.3981 14.5022 93.7534 14.2691 94.9643C12.7176 94.6195 11.1017 94.1303 9.42961 93.4567C8.4569 93.0557 7.54849 92.6307 6.7044 92.1896C6.65617 91.0188 6.7044 89.5994 6.93753 88.0277C7.11439 86.8569 7.37164 85.8144 7.64496 84.9082C9.14021 85.638 10.7882 86.3436 12.605 86.9611C13.3848 87.2258 14.1405 87.4583 14.8881 87.6668H14.88Z" fill="url(#paint4_linear_1714_16006)" stroke="#C6BA9B" stroke-width="0.25" stroke-miterlimit="10"/>
        <path d="M17.6537 76.6554C17.0668 72.1245 16.48 67.6017 15.8932 63.0709C15.8851 62.7581 15.6761 62.4855 15.4028 62.4213C15.0651 62.3491 14.8159 62.5977 14.7999 62.6138C12.0103 66.1342 9.22081 69.6707 6.43128 73.1911C6.37501 73.2713 6.21423 73.5439 6.25442 73.9128C6.30266 74.3298 6.56794 74.5784 6.63225 74.6346C9.91216 75.7252 13.2001 76.8238 16.488 77.9144C16.8578 78.0427 17.2678 77.9305 17.517 77.6498C17.7502 77.3691 17.8064 76.9842 17.6537 76.6474V76.6554ZM8.28025 73.2713C10.3463 70.7132 12.4203 68.147 14.4863 65.5969C15.0089 68.9971 15.5153 72.4052 16.0379 75.8054C13.4493 74.9553 10.8688 74.1133 8.28025 73.2713Z" fill="#241916" stroke="#C6BA9B" stroke-width="0.25" stroke-miterlimit="10"/>
        <path d="M14.4942 65.5977C12.4282 68.1478 10.3541 70.7139 8.28809 73.272C10.8766 74.114 13.4571 74.9561 16.0457 75.8061C15.5232 72.406 15.0167 68.9978 14.4942 65.5977ZM12.7176 73.5447C12.3156 73.5447 11.9941 73.2239 11.9941 72.8229C11.9941 72.422 12.3156 72.1092 12.7176 72.1092C13.1195 72.1092 13.4411 72.422 13.4411 72.8229C13.4411 73.2239 13.1195 73.5447 12.7176 73.5447ZM12.8301 71.4196C12.814 71.171 12.7015 69.7516 12.8542 68.9818C12.8783 68.8615 12.9266 68.669 13.0874 68.5166C13.2562 68.3482 13.5536 68.236 13.7787 68.3322C14.0842 68.4525 14.1565 68.8615 14.1967 69.0219C14.3897 70.1044 13.0552 71.2191 12.8221 71.4196H12.8301Z" fill="#F5E92A" stroke="#C6BA9B" stroke-width="0.25" stroke-miterlimit="10"/>
        <path d="M12.8226 71.4275C12.8065 71.179 12.694 69.7596 12.8467 68.9897C12.8708 68.8694 12.919 68.677 13.0798 68.5246C13.2486 68.3562 13.5461 68.2439 13.7712 68.3402C14.0767 68.4604 14.149 68.8694 14.1892 69.0298C14.3821 70.1124 13.0477 71.2271 12.8145 71.4275H12.8226Z" fill="#241916" stroke="#C6BA9B" stroke-width="0.25" stroke-miterlimit="10"/>
        <path d="M13.4412 72.8309C13.4412 73.2319 13.1196 73.5526 12.7176 73.5526C12.3157 73.5526 11.9941 73.2319 11.9941 72.8309C11.9941 72.4299 12.3157 72.1172 12.7176 72.1172C13.1196 72.1172 13.4412 72.4299 13.4412 72.8309Z" fill="#241916" stroke="#C6BA9B" stroke-width="0.25" stroke-miterlimit="10"/>
        <path d="M40.1867 9.9346C38.1207 10.3035 36.5129 10.7205 35.0257 11.7389C34.8327 11.8752 34.6478 12.0036 34.4871 12.1479C34.1012 12.4687 33.7957 12.7975 33.5304 13.1503C33.1767 12.8295 32.823 12.5007 32.4854 12.188C32.6622 11.5946 32.9918 10.7606 33.6832 9.96668C35.4517 7.9298 38.0644 7.85763 38.5869 7.84961C39.1255 8.5553 39.6561 9.24495 40.1867 9.94262V9.9346Z" fill="url(#paint5_linear_1714_16006)" stroke="#C6BA9B" stroke-width="0.25" stroke-miterlimit="10"/>
        <path d="M23.6585 23.208C22.5089 24.1863 21.1824 25.4534 19.6711 27.0973C19.1405 27.1935 18.1437 27.2817 16.9941 26.985C17.589 26.6963 18.7145 26.0628 19.5907 24.7717C20.057 24.0981 20.3062 23.4405 20.4429 22.9434C21.7211 23.3042 22.8706 23.2882 23.6585 23.2V23.208Z" fill="url(#paint6_linear_1714_16006)" stroke="#C6BA9B" stroke-width="0.25" stroke-miterlimit="10"/>
        <path d="M20.4435 22.9503C20.3068 23.4475 20.0576 24.105 19.5913 24.7787C18.7231 26.0617 17.5896 26.7033 16.9947 26.992C16.7375 26.9278 16.4722 26.8476 16.2069 26.7353C15.9818 26.6391 15.2181 26.3183 14.3901 25.6046C14.3499 25.5645 14.3097 25.5325 14.2695 25.4924C14.8242 25.2037 15.5316 24.7706 16.2471 24.1371C17.1314 23.3512 17.7022 22.5413 18.0639 21.9238C18.6267 22.3007 19.2296 22.5333 19.7521 22.7257C19.9852 22.8059 20.2184 22.8942 20.4435 22.9503Z" fill="url(#paint7_linear_1714_16006)" stroke="#C6BA9B" stroke-width="0.25" stroke-miterlimit="10"/>
        <path d="M18.0642 21.9254C17.7024 22.5348 17.1317 23.3528 16.2474 24.1387C15.5319 24.7802 14.8325 25.2132 14.2698 25.4939C13.2649 24.5797 12.7344 23.5453 12.2842 22.3905C12.6218 22.4627 13.7875 22.6792 15.0094 22.0457C15.9901 21.5405 16.4805 20.7546 16.6574 20.4258C16.7056 20.522 16.7619 20.6102 16.8262 20.7065C17.1799 21.2518 17.614 21.6367 18.0562 21.9254H18.0642Z" fill="url(#paint8_linear_1714_16006)" stroke="#C6BA9B" stroke-width="0.25" stroke-miterlimit="10"/>
        <path d="M16.6642 20.4241C16.4874 20.7449 15.997 21.5308 15.0162 22.044C13.7943 22.6695 12.6287 22.461 12.291 22.3888H12.283C12.1624 22.0761 12.0418 21.7473 11.9212 21.4265C11.3183 19.7505 10.9405 18.716 10.9967 17.457C11.5514 17.6896 12.3955 17.9542 13.4325 18.0264C14.5821 18.1066 15.5146 17.9221 16.1176 17.7618C16.1095 17.842 16.1095 17.9302 16.1095 18.0023C16.1015 18.4033 16.0935 19.3897 16.6642 20.4241Z" fill="url(#paint9_linear_1714_16006)" stroke="#C6BA9B" stroke-width="0.25" stroke-miterlimit="10"/>
        <path d="M16.9379 15.9826C16.8896 15.9986 16.8334 16.0307 16.7932 16.0547C16.2385 16.3755 16.134 17.2095 16.1179 17.7628C15.515 17.9312 14.5825 18.1157 13.4329 18.0275C12.3959 17.9553 11.5518 17.6826 10.9971 17.4581C10.9971 17.2897 11.0131 17.1133 11.0373 16.9368C11.1337 16.1911 11.3508 14.4028 12.6853 13.3763C13.3445 12.8551 13.8991 12.831 14.5101 12.7188C14.5664 13.0957 14.7111 13.649 15.0487 14.2264C15.6597 15.2608 16.544 15.7741 16.9459 15.9745L16.9379 15.9826Z" fill="url(#paint10_linear_1714_16006)" stroke="#C6BA9B" stroke-width="0.25" stroke-miterlimit="10"/>
        <path d="M21.0937 14.7556C20.3782 15.3491 19.1161 16.0147 17.7575 15.9585C17.452 15.9425 17.2028 15.8944 16.9456 15.9826C16.5356 15.7821 15.6593 15.2689 15.0484 14.2344C14.7107 13.665 14.566 13.1037 14.5098 12.7268C14.976 12.6466 15.4744 12.5022 16.0774 12.0452C16.7687 11.5239 17.2189 10.8824 17.4842 10.3691C17.5485 10.8583 17.7816 12.1735 18.8589 13.3282C19.6949 14.2264 20.6274 14.6033 21.1017 14.7556H21.0937Z" fill="url(#paint11_linear_1714_16006)" stroke="#C6BA9B" stroke-width="0.25" stroke-miterlimit="10"/>
        <path d="M22.9433 10.8583C22.8709 11.2272 22.7745 11.6362 22.5253 12.2857C22.051 13.4886 21.8178 14.09 21.2551 14.6193C21.1988 14.6674 21.1426 14.7155 21.0863 14.7556C20.612 14.6113 19.6795 14.2264 18.8434 13.3282C17.7662 12.1734 17.5331 10.8583 17.4688 10.3691C17.6536 10.0163 17.7582 9.74362 17.8144 9.58324C18.2887 8.30017 17.9993 7.59448 18.1279 6.70435C18.2003 6.1831 18.4093 5.71799 18.6987 5.29297C18.7389 5.85431 18.9318 7.3539 20.0493 8.78934C21.0943 10.1205 22.3886 10.6658 22.9353 10.8583H22.9433Z" fill="url(#paint12_linear_1714_16006)" stroke="#C6BA9B" stroke-width="0.25" stroke-miterlimit="10"/>
        <path d="M23.9884 7.92252C23.7392 8.37159 23.5543 8.86878 23.3614 9.37399C23.1041 10.0476 23.0398 10.4245 22.9514 10.8656C22.4047 10.6731 21.1185 10.1278 20.0654 8.79661C18.948 7.36117 18.747 5.8696 18.7148 5.30024C19.5509 4.0733 21.1024 3.19119 22.3726 2.51758C22.252 3.03883 22.1073 3.96103 22.3565 5.06768C22.7102 6.59133 23.5945 7.54562 23.9884 7.92252Z" fill="url(#paint13_linear_1714_16006)" stroke="#C6BA9B" stroke-width="0.25" stroke-miterlimit="10"/>
        <path d="M26.6975 5.94113C25.9338 6.07746 25.3791 6.40624 25.3389 6.4303C24.7119 6.8072 24.3019 7.32845 23.9884 7.92187C23.6025 7.54497 22.7102 6.59069 22.3565 5.06704C22.1072 3.96039 22.252 3.03016 22.3725 2.51693C22.6619 2.37259 22.9272 2.22022 23.1764 2.09191C23.5382 1.89143 25.154 1.00932 27.1557 0.496094C26.8663 0.897054 26.3116 1.81926 26.1911 3.11837C26.0705 4.4656 26.4885 5.50007 26.6975 5.94915V5.94113Z" fill="url(#paint14_linear_1714_16006)" stroke="#C6BA9B" stroke-width="0.25" stroke-miterlimit="10"/>
        <path d="M33.096 0.858837C32.5895 1.09139 30.6923 2.00558 29.8 4.13869C29.3659 5.17317 29.3176 6.12745 29.3498 6.72889C29.1086 6.47228 28.8433 6.27982 28.5057 6.12745C27.8867 5.86282 27.2436 5.84678 26.705 5.94301C26.4879 5.50195 26.0779 4.46748 26.1985 3.11223C26.3191 1.8051 26.8738 0.882894 27.1632 0.489953C29.0443 0.000782266 31.2631 -0.167621 33.104 0.858837H33.096Z" fill="url(#paint15_linear_1714_16006)" stroke="#C6BA9B" stroke-width="0.25" stroke-miterlimit="10"/>
        <path d="M38.5791 7.84166C38.0566 7.84968 35.4439 7.92185 33.6754 9.95873C32.9921 10.7526 32.6544 11.5866 32.4776 12.18C31.5129 11.1696 31.4405 10.3757 30.709 8.96435C30.9502 8.29875 31.3601 7.47278 32.0515 6.67888C33.4101 5.12315 35.1304 4.56181 36.1192 4.36133C36.5292 4.92267 36.9794 5.56421 37.4939 6.29395C37.8798 6.84728 38.2415 7.36853 38.5791 7.84968V7.84166Z" fill="url(#paint16_linear_1714_16006)" stroke="#C6BA9B" stroke-width="0.25" stroke-miterlimit="10"/>
        <path d="M36.1273 4.36181C35.1385 4.56229 33.4181 5.13166 32.0595 6.67936C31.3682 7.47326 30.9582 8.29924 30.717 8.96483C30.6768 8.89266 30.6447 8.80445 30.5964 8.72426C30.1061 7.81809 29.7604 7.16853 29.3424 6.72748C29.3182 6.12604 29.3584 5.17175 29.7925 4.13727C30.6929 2.00417 32.5821 1.08998 33.0885 0.857422C33.1448 0.881479 33.2091 0.913556 33.2654 0.953652C33.8603 1.31452 34.6802 2.36503 36.1031 4.33775C36.1112 4.34577 36.1112 4.35379 36.1192 4.36181H36.1273Z" fill="url(#paint17_linear_1714_16006)" stroke="#C6BA9B" stroke-width="0.25" stroke-miterlimit="10"/>
        <path d="M26.6973 5.95019V5.94141" stroke="#C6BA9B" stroke-width="0.25" stroke-miterlimit="10"/>
        <path d="M16.9472 15.9912L16.9385 15.9824" stroke="#C6BA9B" stroke-width="0.25" stroke-miterlimit="10"/>
        <path d="M10.9902 17.457H10.9814" stroke="#C6BA9B" stroke-width="0.25" stroke-miterlimit="10"/>
        <path d="M53.0095 23.8486C52.8246 24.1854 52.6478 24.5222 52.4629 24.8911C52.077 25.6689 51.6831 26.5029 51.2249 27.4091C50.8229 28.203 50.3647 29.045 49.81 29.9351C47.8726 33.0225 47.6395 32.0923 44.5204 36.2222C42.8643 38.4114 41.4093 40.336 40.1793 42.2045C38.3384 44.9952 37.012 47.6415 36.2402 50.8572C36.0151 51.8035 35.2755 55.1956 32.9764 57.7056C31.6982 59.0929 30.8139 59.2694 30.2271 59.2052C29.4634 59.109 28.9328 58.6118 28.6353 58.283C29.19 59.2453 29.8251 60.5845 30.0824 62.1884C29.0132 61.7714 28.0244 61.3945 27.124 61.0657C30.6451 54.3376 34.1581 47.6175 37.6712 40.8813C37.5023 40.8573 37.0843 40.7611 36.7065 40.4002C36.2322 39.9511 36.1679 39.3818 36.1598 39.2374C36.6904 37.6496 37.2853 36.0297 37.9525 34.3778C38.9976 31.7715 40.1311 29.3016 41.3128 26.9921C43.1457 23.4155 45.1153 20.1758 47.0928 17.2969C47.133 17.3209 47.1572 17.353 47.1973 17.3771C50.22 19.7508 52.0609 22.3249 53.0176 23.8566L53.0095 23.8486Z" fill="url(#paint18_linear_1714_16006)" stroke="#C6BA9B" stroke-width="0.25" stroke-miterlimit="10"/>
        <path d="M47.0922 17.2824C45.1066 20.1693 43.1451 23.401 41.3122 26.9776C40.2189 26.753 39.1176 26.5125 38.0162 26.2879C34.9051 32.4707 31.7941 38.6616 28.683 44.8444C28.6026 44.9647 28.2408 45.4137 27.5816 45.5661C26.9385 45.7104 26.4401 45.4618 26.3115 45.3977C25.8452 45.109 25.379 44.8283 24.9047 44.5396C24.6233 44.4835 24.2294 44.4675 23.8355 44.6439C23.3692 44.8684 23.1441 45.2854 23.0477 45.4298C22.5975 46.2557 20.5797 51.1795 17.9509 57.9718C16.6888 57.5388 15.692 57.1218 14.7354 56.5364C16.8818 50.546 19.8642 43.6736 24.0123 36.3921C29.4467 26.8733 35.3473 19.3273 40.5405 13.6016C41.7061 14.0346 42.9441 14.604 44.1982 15.3337C45.2754 15.9432 46.224 16.6088 47.1003 17.2824H47.0922Z" fill="url(#paint19_linear_1714_16006)" stroke="#C6BA9B" stroke-width="0.25" stroke-miterlimit="10"/>
        <path d="M37.9443 34.3705C37.2771 36.0224 36.6822 37.6423 36.1516 39.2301C36.1597 39.3744 36.224 39.9438 36.6983 40.3929C37.0761 40.7537 37.4942 40.842 37.663 40.874C34.1499 47.6021 30.6369 54.3222 27.1158 61.0584C25.701 60.5291 24.5112 60.1281 23.5948 59.8074C21.167 58.9974 19.3904 58.4762 17.9434 57.971C20.5721 51.1787 22.5899 46.2469 23.0401 45.4289C23.1365 45.2846 23.3616 44.8676 23.8279 44.6431C24.2138 44.4666 24.6157 44.4827 24.8971 44.5388C25.3714 44.8275 25.8457 45.1082 26.3039 45.3969C26.4325 45.461 26.9309 45.7096 27.5741 45.5653C28.2332 45.4209 28.595 44.9638 28.6754 44.8435C31.7865 38.6607 34.8976 32.4699 38.0086 26.2871C39.11 26.5197 40.2113 26.7602 41.3046 26.9768C40.1149 29.2863 38.9894 31.7562 37.9443 34.3624V34.3705Z" fill="url(#paint20_linear_1714_16006)" stroke="#C6BA9B" stroke-width="0.25" stroke-miterlimit="10"/>
        <path d="M17.9434 57.9795V57.9707" stroke="#C6BA9B" stroke-width="0.25" stroke-miterlimit="10"/>
        <path d="M21.5286 92.718C21.5688 91.3708 21.5286 90.1118 21.4563 88.957C22.63 89.0934 23.7072 89.1735 24.6638 89.2056C24.8246 91.1383 25.1703 93.2393 25.8536 95.3804C24.7442 95.5488 23.2008 95.7172 21.3438 95.7252C21.4483 94.795 21.5126 93.7846 21.5367 92.718H21.5286Z" fill="url(#paint21_linear_1714_16006)" stroke="#C6BA9B" stroke-width="0.25" stroke-miterlimit="10"/>
        <path d="M21.5285 92.7181C21.5044 93.7847 21.432 94.7871 21.3356 95.7253H21.3114C19.2856 95.7333 16.882 95.5489 14.2773 94.9635C14.5105 93.7526 14.7034 92.3973 14.8079 90.9058C14.8883 89.751 14.9124 88.6684 14.8883 87.666C17.292 88.3316 19.5027 88.7326 21.4562 88.9491C21.5285 90.1039 21.5687 91.3629 21.5285 92.7101V92.7181Z" fill="url(#paint22_linear_1714_16006)" stroke="#C6BA9B" stroke-width="0.25" stroke-miterlimit="10"/>
        <path d="M24.8245 122.679C23.699 123.489 22.1314 124.379 19.985 124.932C20.9497 122.374 21.0059 120.401 20.186 119.904C19.6634 119.591 18.7872 119.84 18.2325 120.313C16.8417 121.5 18.0958 123.537 16.7855 125.453C16.1022 126.472 15.0812 126.881 14.004 127.306C11.1582 128.445 9.87999 127.21 8.54552 128.228C6.92165 129.479 8.34455 131.692 6.59205 134.178C5.00837 136.44 2.11434 137.089 1.9616 136.849C1.84101 136.664 3.42469 136.039 4.13212 134.291C4.60642 133.096 4.72701 131.275 3.8186 129.976C3.23176 129.126 2.6208 129.094 2.37963 128.332C2.08218 127.41 2.64491 126.4 3.20764 125.662C2.60472 124.9 1.52749 123.312 1.45514 121.139C1.38279 119.134 2.19473 117.562 2.68511 116.616C4.0035 114.098 5.16111 114.026 5.46659 112.31C5.82031 110.313 4.65466 108.076 3.8186 108.092C3.59351 108.1 2.95843 108.276 2.28316 110.971C1.37475 109.078 -0.345587 104.748 0.217141 99.1665C0.651246 94.9403 2.21885 91.7968 3.24784 90.0566C4.26075 90.7784 5.41836 91.5081 6.71264 92.1897C7.55673 92.6308 8.46513 93.0558 9.43785 93.4568C11.11 94.1304 12.7258 94.6196 14.2773 94.9644C16.8819 95.5498 19.2856 95.7342 21.3114 95.7262H21.3355C23.2006 95.7182 24.736 95.5498 25.8454 95.3814C26.4885 97.3862 27.405 99.4231 28.7073 101.388C29.278 102.246 30.1221 103.385 31.3039 104.611C31.4245 105.838 32.3972 117.154 24.8245 122.679Z" fill="url(#paint23_linear_1714_16006)" stroke="#C6BA9B" stroke-width="0.25" stroke-miterlimit="10"/>
        <path d="M65.8793 112.725C64.1107 119.421 62.4788 121.105 61.281 121.354C61.0318 121.402 60.3163 121.482 59.5285 121.963C58.4593 122.621 57.8885 123.615 57.575 124.329C57.6152 124.144 57.985 122.356 57.374 122.067C56.9721 121.875 56.345 122.412 56.1441 122.589C53.66 124.682 55.1955 128.25 52.9445 130.391C51.6744 131.61 50.6856 130.937 48.3141 132.757C47.2851 133.551 46.5777 134.369 46.1516 134.914C45.8301 134.345 45.4603 133.471 45.5326 132.452C45.7014 130.143 47.9684 129.205 47.7996 127.208C47.7353 126.502 47.4298 126.342 46.7706 125.155C46.1114 123.992 45.3397 122.252 44.9297 119.83C45.195 119.75 45.4603 119.662 45.6934 119.573C46.1597 119.934 46.9475 120.464 48.0408 120.736C50.4846 121.346 52.5265 120.183 53.3063 119.726C54.6006 118.988 55.9994 118.194 56.1521 116.727C56.2727 115.524 55.4929 114.529 54.89 113.944C55.6296 114.489 56.8836 115.163 58.2342 114.898C60.1716 114.497 61.281 112.38 61.5543 110.359C62.5029 111.121 63.7168 111.891 65.1959 112.484C65.4291 112.581 65.6622 112.661 65.8873 112.725H65.8793Z" fill="url(#paint24_linear_1714_16006)" stroke="#C6BA9B" stroke-width="0.25" stroke-miterlimit="10"/>
    </g>
    <defs>
        <linearGradient id="paint0_linear_1714_16006" x1="34.4873" y1="16.5362" x2="55.9353" y2="16.5362" gradientUnits="userSpaceOnUse">
            <stop stop-color="#9FA0A0"/>
            <stop offset="1" stop-color="#F7F9F9"/>
        </linearGradient>
        <linearGradient id="paint1_linear_1714_16006" x1="31.81" y1="39.4939" x2="19.4524" y2="27.1059" gradientUnits="userSpaceOnUse">
            <stop stop-color="#9FA0A0"/>
            <stop offset="1" stop-color="#F7F9F9"/>
        </linearGradient>
        <linearGradient id="paint2_linear_1714_16006" x1="1.0127" y1="72.6704" x2="30.2263" y2="72.6704" gradientUnits="userSpaceOnUse">
            <stop stop-color="#727171"/>
            <stop offset="1" stop-color="#F7F9F9"/>
        </linearGradient>
        <linearGradient id="paint3_linear_1714_16006" x1="0.426758" y1="86.5346" x2="7.64576" y2="86.5346" gradientUnits="userSpaceOnUse">
            <stop stop-color="#3F3B3A"/>
            <stop offset="1" stop-color="#050C05"/>
        </linearGradient>
        <linearGradient id="paint4_linear_1714_16006" x1="6.69636" y1="89.9362" x2="14.8881" y2="89.9362" gradientUnits="userSpaceOnUse">
            <stop stop-color="#3F3B3A"/>
            <stop offset="1" stop-color="#050C05"/>
        </linearGradient>
        <linearGradient id="paint5_linear_1714_16006" x1="32.4854" y1="10.4959" x2="40.1867" y2="10.4959" gradientUnits="userSpaceOnUse">
            <stop stop-color="#727171"/>
            <stop offset="1" stop-color="#B6B5B6"/>
        </linearGradient>
        <linearGradient id="paint6_linear_1714_16006" x1="16.9941" y1="25.0765" x2="23.6585" y2="25.0765" gradientUnits="userSpaceOnUse">
            <stop stop-color="#727171"/>
            <stop offset="1" stop-color="#B6B5B6"/>
        </linearGradient>
        <linearGradient id="paint7_linear_1714_16006" x1="14.2695" y1="24.4579" x2="20.4435" y2="24.4579" gradientUnits="userSpaceOnUse">
            <stop stop-color="#727171"/>
            <stop offset="1" stop-color="#B6B5B6"/>
        </linearGradient>
        <linearGradient id="paint8_linear_1714_16006" x1="12.2922" y1="22.9598" x2="18.0642" y2="22.9598" gradientUnits="userSpaceOnUse">
            <stop stop-color="#727171"/>
            <stop offset="1" stop-color="#B6B5B6"/>
        </linearGradient>
        <linearGradient id="paint9_linear_1714_16006" x1="10.9807" y1="19.9751" x2="16.6642" y2="19.9751" gradientUnits="userSpaceOnUse">
            <stop stop-color="#727171"/>
            <stop offset="1" stop-color="#B6B5B6"/>
        </linearGradient>
        <linearGradient id="paint10_linear_1714_16006" x1="10.989" y1="15.3891" x2="16.9379" y2="15.3891" gradientUnits="userSpaceOnUse">
            <stop stop-color="#727171"/>
            <stop offset="1" stop-color="#B6B5B6"/>
        </linearGradient>
        <linearGradient id="paint11_linear_1714_16006" x1="14.5017" y1="13.1759" x2="21.0937" y2="13.1759" gradientUnits="userSpaceOnUse">
            <stop stop-color="#727171"/>
            <stop offset="1" stop-color="#B6B5B6"/>
        </linearGradient>
        <linearGradient id="paint12_linear_1714_16006" x1="17.4768" y1="10.0243" x2="22.9433" y2="10.0243" gradientUnits="userSpaceOnUse">
            <stop stop-color="#727171"/>
            <stop offset="1" stop-color="#B6B5B6"/>
        </linearGradient>
        <linearGradient id="paint13_linear_1714_16006" x1="18.7148" y1="6.68756" x2="23.9884" y2="6.68756" gradientUnits="userSpaceOnUse">
            <stop stop-color="#727171"/>
            <stop offset="1" stop-color="#B6B5B6"/>
        </linearGradient>
        <linearGradient id="paint14_linear_1714_16006" x1="22.2198" y1="4.20096" x2="27.1557" y2="4.20096" gradientUnits="userSpaceOnUse">
            <stop stop-color="#727171"/>
            <stop offset="1" stop-color="#B6B5B6"/>
        </linearGradient>
        <linearGradient id="paint15_linear_1714_16006" x1="26.1664" y1="3.41696" x2="33.096" y2="3.41696" gradientUnits="userSpaceOnUse">
            <stop stop-color="#727171"/>
            <stop offset="1" stop-color="#B6B5B6"/>
        </linearGradient>
        <linearGradient id="paint16_linear_1714_16006" x1="30.717" y1="8.26668" x2="38.5791" y2="8.26668" gradientUnits="userSpaceOnUse">
            <stop stop-color="#727171"/>
            <stop offset="1" stop-color="#B6B5B6"/>
        </linearGradient>
        <linearGradient id="paint17_linear_1714_16006" x1="29.3343" y1="4.90712" x2="36.1273" y2="4.90712" gradientUnits="userSpaceOnUse">
            <stop stop-color="#727171"/>
            <stop offset="1" stop-color="#B6B5B6"/>
        </linearGradient>
        <linearGradient id="paint18_linear_1714_16006" x1="45.1876" y1="47.1042" x2="31.2262" y2="33.1084" gradientUnits="userSpaceOnUse">
            <stop stop-color="#9FA0A0"/>
            <stop offset="1" stop-color="#F7F9F9"/>
        </linearGradient>
        <linearGradient id="paint19_linear_1714_16006" x1="34.9775" y1="40.9791" x2="24.0634" y2="30.0301" gradientUnits="userSpaceOnUse">
            <stop stop-color="#9FA0A0"/>
            <stop offset="1" stop-color="#F7F9F9"/>
        </linearGradient>
        <linearGradient id="paint20_linear_1714_16006" x1="37.6871" y1="50.5211" x2="25.7305" y2="38.5351" gradientUnits="userSpaceOnUse">
            <stop stop-color="#9FA0A0"/>
            <stop offset="1" stop-color="#F7F9F9"/>
        </linearGradient>
        <linearGradient id="paint21_linear_1714_16006" x1="21.3357" y1="92.3411" x2="25.8456" y2="92.3411" gradientUnits="userSpaceOnUse">
            <stop stop-color="#3F3B3A"/>
            <stop offset="1" stop-color="#050C05"/>
        </linearGradient>
        <linearGradient id="paint22_linear_1714_16006" x1="14.2693" y1="91.6997" x2="21.5446" y2="91.6997" gradientUnits="userSpaceOnUse">
            <stop stop-color="#3F3B3A"/>
            <stop offset="1" stop-color="#050C05"/>
        </linearGradient>
        <linearGradient id="paint23_linear_1714_16006" x1="15.7565" y1="90.0566" x2="15.7565" y2="136.905" gradientUnits="userSpaceOnUse">
            <stop stop-color="#15181F"/>
            <stop offset="0.46" stop-color="#C7483B"/>
            <stop offset="0.73" stop-color="#BE4A47"/>
            <stop offset="1" stop-color="#EF8350"/>
        </linearGradient>
        <linearGradient id="paint24_linear_1714_16006" x1="55.3964" y1="110.359" x2="55.3964" y2="134.906" gradientUnits="userSpaceOnUse">
            <stop stop-color="#15181F"/>
            <stop offset="0.46" stop-color="#C7483B"/>
            <stop offset="0.73" stop-color="#BE4A47"/>
            <stop offset="1" stop-color="#EF8350"/>
        </linearGradient>
        <clipPath id="clip0_1714_16006">
            <rect width="66" height="137" fill="white"/>
        </clipPath>
    </defs>
</svg>
