<svg xmlns="http://www.w3.org/2000/svg" width="73" height="76" viewBox="0 0 73 76" fill="none">
    <g clip-path="url(#clip0_1710_10573)">
        <path d="M31.5832 26.0927C30.417 25.3601 29.1012 24.7845 27.7332 24.3958C27.6211 22.8408 27.5463 21.256 27.5014 19.6263C27.494 19.3796 27.494 19.1329 27.4865 18.8937C27.4865 18.7442 27.479 18.6021 27.479 18.4676C27.4342 16.4192 27.4342 15.7389 27.0081 14.7521C26.1409 12.7711 24.5037 11.7843 24.1822 11.5974C21.8573 10.2443 19.4651 10.7527 18.3662 10.9919C17.5513 11.1638 15.1292 11.6796 13.4397 13.6981C13.1855 14.0046 12.9762 14.3186 12.7893 14.64C12.0343 15.9856 11.8324 17.5854 11.668 20.015C11.5708 21.4803 11.4885 23.2146 11.4661 25.2031C11.4437 27.1169 11.4811 29.2699 11.6156 31.6248C11.4437 31.9387 11.2792 32.2527 11.1297 32.5667C10.9129 33.0077 10.7111 33.4488 10.5167 33.8749C9.97098 35.086 9.48506 36.1774 8.77487 36.9773C8.61788 34.1515 8.43847 29.853 8.46089 25.248C8.46089 24.179 8.47585 23.095 8.50575 22.011C8.53565 21.0317 8.60293 19.103 9.23089 16.6883C9.51496 15.5894 9.78409 14.5653 10.1653 13.6084C10.2775 13.2869 10.4195 12.9729 10.5765 12.659C10.9578 11.8964 11.4437 11.1713 12.109 10.491C12.4155 10.177 12.737 9.90043 13.0584 9.65373C13.1407 9.58645 13.2229 9.52665 13.3126 9.47432C13.4247 9.38461 13.5369 9.30985 13.649 9.24257C13.8135 9.13791 13.9779 9.03325 14.1424 8.94354C14.1798 8.92112 14.2246 8.89869 14.262 8.88374C14.4041 8.8015 14.5461 8.72675 14.6881 8.65947C14.89 8.56976 15.0843 8.48005 15.2787 8.41277C15.4432 8.33801 15.6076 8.27821 15.7721 8.22588C15.944 8.16607 16.116 8.11374 16.2879 8.06141C16.4225 8.02403 16.5645 7.98666 16.6916 7.94928C16.9383 7.882 17.1775 7.82967 17.4018 7.79229C17.5438 7.76239 17.6859 7.73996 17.8204 7.71753C17.9251 7.6951 18.0372 7.68015 18.1344 7.6652C18.2989 7.64277 18.4559 7.62782 18.5979 7.6054C18.7998 7.58297 18.9866 7.56802 19.1436 7.55307C20.4519 7.43345 23.3898 7.14938 26.2829 8.93607C29.0265 10.633 30.1254 13.1748 30.5515 14.1989C31.015 15.3203 31.2169 16.3295 31.3589 17.7349C31.3589 17.7574 31.3664 17.7798 31.3664 17.8097C31.4262 18.4152 31.486 19.103 31.5458 19.9029C31.7402 22.4895 31.6804 24.6275 31.5832 26.0927Z" fill="url(#paint0_linear_1710_10573)" stroke="#C6BA9B" stroke-width="0.186892" stroke-miterlimit="10"/>
        <path d="M1.2118 19.6872C0.860444 19.448 0.479185 19.1789 0.0605469 18.8574C0.441806 19.1265 0.830542 19.4031 1.2118 19.6872Z" fill="url(#paint1_linear_1710_10573)" stroke="#C6BA9B" stroke-width="0.186892" stroke-miterlimit="10"/>
        <path d="M16.29 8.0625C16.118 8.10735 15.9461 8.15968 15.7741 8.22697C15.6097 8.27929 15.4452 8.3391 15.2807 8.41386C15.0864 8.48114 14.892 8.57085 14.6902 8.66055C14.5481 8.72784 14.4061 8.80259 14.264 8.88482C14.2267 8.89978 14.1818 8.9222 14.1444 8.94463C13.98 9.03434 13.8155 9.139 13.651 9.24366C13.5389 9.31094 13.4268 9.3857 13.3146 9.4754C13.2249 9.52773 13.1427 9.58754 13.0605 9.65482C12.739 9.90152 12.4176 10.1781 12.1111 10.4921C11.4457 11.1724 10.9598 11.8975 10.5785 12.66C10.4215 12.974 10.2795 13.288 10.1674 13.6095C9.78612 14.5663 9.51699 15.5905 9.23292 16.6894C8.60496 19.1041 8.53768 21.0328 8.50778 22.0121C8.47787 23.0961 8.46292 24.1801 8.46292 25.2491C8.44049 29.8541 8.61991 34.1526 8.7769 36.9784C8.32088 37.5017 7.76768 37.8979 7.05002 38.1222C6.10061 38.4138 5.69692 38.1521 3.83548 38.6754C3.20752 38.8548 2.68422 39.0417 2.24316 39.1987C2.00394 39.2809 1.79462 39.3557 1.59277 39.423C2.87111 32.1267 3.35703 27.4843 3.52897 24.3894C3.5514 23.8885 3.60373 22.9017 3.78315 21.5636C3.91771 20.5917 4.11955 19.4255 4.43353 18.1472C4.56062 17.6463 4.70266 17.123 4.85964 16.5848C5.33809 14.97 5.64459 13.9608 6.24265 12.9815C7.10982 11.5611 8.38069 10.5594 9.74874 9.84171C10.1749 9.62492 10.6383 9.42307 11.1243 9.22871C12.9932 8.48861 14.7724 8.17464 16.29 8.0625Z" fill="url(#paint2_linear_1710_10573)" stroke="#C6BA9B" stroke-width="0.186892" stroke-miterlimit="10"/>
        <path d="M1.2118 19.6872C0.860444 19.448 0.479185 19.1789 0.0605469 18.8574C0.441806 19.1265 0.830542 19.4031 1.2118 19.6872Z" fill="url(#paint3_linear_1710_10573)" stroke="#C6BA9B" stroke-width="0.186892" stroke-miterlimit="10"/>
        <path d="M11.1764 1.87207C11.1764 1.87207 11.1688 1.88732 11.1611 1.89494" stroke="#C6BA9B" stroke-width="0.186892" stroke-miterlimit="10"/>
        <path d="M9.86662 9.33203H9.84375" stroke="#C6BA9B" stroke-width="0.186892" stroke-miterlimit="10"/>
        <path d="M1.40527 16.1206V16.1133" stroke="#C6BA9B" stroke-width="0.186892" stroke-miterlimit="10"/>
        <path d="M57.4272 8.33105H57.4199" stroke="#C6BA9B" stroke-width="0.186892" stroke-miterlimit="10"/>
        <path d="M72.6937 4.95162C72.5218 4.45822 72.2377 4.00968 71.8714 3.606C70.6977 2.30523 68.6718 1.46795 66.6011 1.26611C65.8535 1.19135 65.1059 1.19883 64.3883 1.29601C61.8764 1.63989 60.2019 3.01542 59.4842 3.62095C57.9966 4.87686 57.0546 6.35705 56.3818 7.91946C55.7688 9.30246 55.3801 10.7602 54.9988 12.1806C54.6475 13.4739 54.8119 13.2122 53.9223 18.6545C53.7803 19.4918 53.6607 20.217 53.5485 20.8449C52.8608 24.8668 52.7038 25.2331 52.5094 27.2964C52.1431 31.1165 52.5767 30.967 52.173 34.4432C51.8291 37.3886 51.2311 39.9528 50.6779 42.33C50.1396 44.655 49.9004 46.008 49.4369 48.7292C49.108 50.6205 49.0033 51.4578 49.3472 52.467C49.6238 53.2669 50.0499 53.7902 49.9303 54.6275C49.8107 55.4573 49.2425 55.9432 48.8538 56.3693C47.9642 57.3337 47.6203 58.5896 46.94 61.1014C46.5737 62.4545 46.4018 63.6133 46.3121 64.772C46.2448 65.5794 46.2224 66.3793 46.1925 67.2465C46.1028 70.3713 46.0654 71.9487 46.8578 72.8981C46.9251 72.9803 46.9998 73.0625 47.0746 73.1298C47.0895 73.1448 47.097 73.1597 47.112 73.1672C48.6819 74.6922 51.3806 74.453 52.0085 74.3932C53.4588 74.2586 54.7446 73.5335 57.3238 72.0683C59.559 70.7974 60.0524 70.1993 60.314 69.8256C61.3606 68.323 61.3158 66.6334 61.3083 65.9233C61.2933 63.4862 61.6821 59.6885 63.0576 53.2968C64.6051 50.8523 66.8328 46.8902 68.5373 41.6647C71.0192 34.0694 69.1278 33.8077 71.692 21.0692C72.6414 16.3819 72.1929 11.5153 72.8582 6.78316C72.8881 6.56637 72.9928 5.81132 72.6937 4.95162ZM58.7367 64.8169C58.1236 66.5288 57.1668 67.6277 56.9126 67.9118C56.4267 68.45 53.8625 71.2908 51.3133 70.5133C49.9154 70.0872 49.2276 68.779 49.1603 68.6369C48.6071 67.538 48.7716 66.4615 48.936 65.5345C49.1603 64.2861 49.3547 63.1722 49.549 62.1929C50.2219 58.7317 50.8498 56.8852 52.315 56.2871C52.3749 56.2647 52.5468 56.2348 52.8458 56.1899C53.1673 56.1451 53.6308 56.0853 54.2512 56.0105C57.6676 55.5844 58.2732 55.8161 58.5871 56.1675C58.9235 56.5338 58.9086 57.0122 58.9011 57.6178C58.8413 63.0975 59.3123 63.1872 58.7367 64.8169ZM69.2549 18.961C69.1129 20.1796 69.0606 20.0525 67.8719 25.8013C67.1842 29.1579 67.2664 28.8887 66.7132 31.5351C65.2629 38.4501 65.2704 37.5456 65.0461 39.2575C64.7172 41.8291 64.7247 43.6233 63.8052 46.4865C63.4239 47.6452 63.1099 48.318 62.639 48.9759C62.1007 49.7235 60.5458 51.8989 57.9891 51.8839C56.4117 51.8765 55.0212 51.0392 54.1167 49.9403C53.7429 49.4842 53.4439 48.9834 53.257 48.475C52.9953 47.7947 52.9505 47.1518 53.4738 44.1616C53.9971 41.2012 54.4456 39.5416 54.9689 37.1269C55.4249 35.0412 55.694 33.5311 56.1351 31.0343C56.6734 27.9842 57.0247 25.5994 57.1892 24.5005C57.4135 22.9456 57.563 21.8766 57.6901 20.8599H57.6975C57.7648 20.2618 57.8321 19.6787 57.9069 19.0208C58.1087 17.0323 58.161 15.9633 58.4601 13.6982C58.6843 12.0386 58.8563 11.1191 58.9983 10.5584C59.1104 10.1173 59.2076 9.90052 59.2899 9.71363C60.1271 7.93441 61.4129 6.94763 62.2801 6.28229C63.5734 5.28802 65.2554 3.99473 66.5413 4.56288C66.8179 4.68249 67.2215 4.95162 67.8719 6.39443C68.2457 7.21675 68.5148 8.0017 68.7017 8.68198C69.0232 9.84071 69.1204 10.7004 69.1503 10.9322C69.4119 13.3991 69.6511 15.6493 69.2549 18.961Z" fill="url(#paint4_linear_1710_10573)" stroke="#C6BA9B" stroke-width="0.186892" stroke-miterlimit="10"/>
        <path d="M69.2617 18.961C69.1197 20.1795 69.0674 20.0524 67.8787 25.8012C67.191 29.1578 67.2732 28.8887 66.72 31.5351C65.2697 38.4501 65.2772 37.5455 65.0529 39.2574C64.724 41.8291 64.7315 43.6232 63.812 46.4864C63.4307 47.6452 63.1167 48.318 62.6457 48.9758C62.1075 49.7234 60.5526 51.8988 57.9959 51.8839C56.4185 51.8764 55.028 51.0391 54.1235 49.9402C53.7497 49.4842 53.4507 48.9833 53.2638 48.475C53.0021 47.7947 52.9573 47.1518 53.4806 44.1615C54.0039 41.2011 54.4524 39.5415 54.9757 37.1269C55.4317 35.0412 55.7008 33.5311 56.1419 31.0342C56.6802 27.9841 57.0315 25.5994 57.196 24.5005C57.4202 22.9455 57.5698 21.8765 57.6968 20.8598H57.7043C57.7716 20.2617 57.8389 19.6786 57.9136 19.0208C58.1155 17.0322 58.1678 15.9632 58.4668 13.6981C58.6911 12.0385 58.8631 11.119 59.0051 10.5583C59.1172 10.1172 59.2144 9.90045 59.2966 9.71356C60.1339 7.93435 61.4197 6.94756 62.2869 6.28222C63.5802 5.28796 65.2622 3.99466 66.548 4.56282C66.8246 4.68243 67.2283 4.95155 67.8787 6.39436C68.2525 7.21668 68.5216 8.00163 68.7085 8.68191C69.03 9.84064 69.1272 10.7003 69.1571 10.9321C69.4187 13.3991 69.6579 15.6492 69.2617 18.961Z" fill="url(#paint5_linear_1710_10573)" stroke="#C6BA9B" stroke-width="0.186892" stroke-miterlimit="10"/>
        <path d="M58.7354 64.817C58.1224 66.5289 57.1655 67.6278 56.9114 67.9119C56.4254 68.4501 53.8613 71.2909 51.3121 70.5134C49.9141 70.0873 49.2264 68.7791 49.1591 68.637C48.6059 67.5381 48.7703 66.4616 48.9348 65.5346C49.1591 64.2862 49.3534 63.1723 49.5478 62.193C50.2206 58.7318 50.8486 56.8853 52.3138 56.2872C52.3736 56.2648 52.5456 56.2349 52.8446 56.19C53.166 56.1452 53.6295 56.0854 54.25 56.0106C57.6664 55.5845 58.2719 55.8162 58.5859 56.1676C58.9223 56.5339 58.9074 57.0124 58.8999 57.6179C58.8401 63.0976 59.311 63.1873 58.7354 64.817Z" fill="url(#paint6_linear_1710_10573)" stroke="#C6BA9B" stroke-width="0.186892" stroke-miterlimit="10"/>
        <path d="M66.6002 1.26669C65.8526 1.19194 65.105 1.19941 64.3874 1.2966C61.8755 1.64048 60.201 3.016 59.4833 3.62153C57.9957 4.87745 57.0537 6.35763 56.3809 7.92005C55.7679 9.30305 55.3792 10.7608 54.9979 12.1812C54.6466 13.4745 54.811 13.2128 53.9214 18.6551C53.7794 19.4924 53.6598 20.2175 53.5476 20.8455C52.8599 24.8674 52.7029 25.2337 52.5085 27.297C52.1422 31.1171 52.5758 30.9676 52.1721 34.4438C51.8282 37.3892 51.2302 39.9533 50.677 42.3306C50.1387 44.6555 49.8995 46.0086 49.436 48.7298C49.1071 50.6211 49.0024 51.4584 49.3463 52.4676C49.6229 53.2675 50.049 53.7908 49.9294 54.6281C49.8098 55.4579 49.2416 55.9438 48.8529 56.3699C47.9633 57.3343 47.6194 58.5902 46.9391 61.102C46.5728 62.4551 46.4009 63.6139 46.3112 64.7726C46.2439 65.58 46.2215 66.3799 46.1916 67.247C46.1019 70.3719 46.0645 71.9492 46.8569 72.8986C46.9242 72.9809 46.9989 73.0631 47.0737 73.1304C45.9972 72.2483 44.9132 71.3587 43.8367 70.4616C43.6797 69.6168 43.5003 68.4132 43.4555 66.9704C43.4405 66.6564 43.433 66.1033 43.4629 65.3557C43.5153 64.2642 43.6648 62.7691 44.061 60.9899C44.7488 57.88 45.2646 58.0594 45.8327 55.2859C46.3411 52.804 45.9299 52.662 46.3859 49.5297C46.7074 47.3468 47.0214 46.6814 47.8811 43.1081C47.8811 43.1081 48.7408 39.5571 49.3239 36.4622C50.1238 32.2085 50.2359 28.9566 50.4303 22.7817C50.4677 21.6902 50.4826 20.7633 50.4976 19.9708C50.5499 16.3451 50.4676 15.3733 50.9835 13.0409C51.4993 10.7085 52.1871 8.92179 52.815 7.62102C53.4804 6.25297 54.0709 5.43812 54.3027 5.11667C55.1175 4.01774 55.9922 3.12066 56.8295 2.39552C56.8369 2.38805 56.8444 2.38057 56.8519 2.38057C57.8461 1.52087 58.7806 0.907862 59.5132 0.466797C61.8755 0.735921 64.2378 1.00505 66.6002 1.26669Z" fill="url(#paint7_linear_1710_10573)" stroke="#C6BA9B" stroke-width="0.186892" stroke-miterlimit="10"/>
        <path d="M56.8296 2.39551C55.9923 3.12065 55.1177 4.01773 54.3028 5.11665C54.0711 5.43811 53.4805 6.25296 52.8152 7.62101C52.1872 8.92177 51.4994 10.7085 50.9836 13.0409C50.4678 15.3733 50.55 16.3451 50.4977 19.9708C50.4828 20.7632 50.4678 21.6902 50.4304 22.7817C50.2361 28.9566 50.1239 32.2085 49.324 36.4622C48.7409 39.5571 47.8812 43.1081 47.8812 43.1081C47.0215 46.6814 46.7075 47.3468 46.3861 49.5297C45.9301 52.662 46.3412 52.804 45.8329 55.2859C45.2647 58.0594 44.7489 57.88 44.0611 60.9899C43.6649 62.7691 43.5154 64.2642 43.4631 65.3557C43.4332 66.1032 43.4407 66.6564 43.4556 66.9704C43.5005 68.4132 43.6799 69.6168 43.8369 70.4616C42.723 70.1924 38.9926 69.1384 36.2266 65.5052C33.8643 62.4028 33.5354 59.1733 33.4756 57.9473C33.6924 57.7155 33.8942 57.4913 34.0961 57.2745C34.1858 57.1773 34.2605 57.0876 34.3428 57.0053C36.0024 55.2037 37.1611 54.0225 37.8339 53.2974C38.2376 52.8563 38.6637 52.3704 39.0898 51.8396C39.1048 51.8396 39.1123 51.8172 39.1197 51.8097C42.2745 47.9149 46.0198 41.4185 49.4661 30.0331C48.6437 30.5265 47.8663 30.9077 47.1411 31.1993C45.9899 31.6628 44.9881 31.902 44.263 32.0291C43.5304 32.1637 42.4688 32.3505 41.2652 32.3505C41.0858 32.3505 40.9064 32.3431 40.7195 32.3356C40.5401 32.3281 40.3532 32.3132 40.1663 32.2907C39.8598 32.2608 39.5533 32.216 39.2393 32.1412C39.1496 30.6162 39.045 27.0353 40.0916 22.692C40.3009 21.8173 40.5551 20.9128 40.869 19.9858C41.4521 18.2664 42.2296 16.4797 43.2538 14.693C43.8593 13.6315 44.562 12.5699 45.3619 11.5158C49.3465 6.29781 54.1309 3.63647 56.8296 2.39551Z" fill="url(#paint8_linear_1710_10573)" stroke="#C6BA9B" stroke-width="0.186892" stroke-miterlimit="10"/>
        <path d="M27.7341 24.3961C25.5811 23.7681 23.2935 23.6186 21.2228 24.0522C20.5799 24.1868 19.9743 24.3736 19.3912 24.6054C16.9766 25.5623 15.0852 27.2294 13.8219 28.6124C12.7678 29.7711 12.1548 30.728 12.0277 30.9223C11.8857 31.1541 11.7436 31.3933 11.6165 31.6251C11.482 29.2702 11.4446 27.1172 11.467 25.2034C11.4894 23.2149 11.5717 21.4806 11.6689 20.0153C11.8333 17.5857 12.0352 15.9859 12.7902 14.6403C12.9771 14.3189 13.1864 14.0049 13.4406 13.6984C15.1301 11.6799 17.5522 11.1641 18.3671 10.9922C19.466 10.753 21.8582 10.2446 24.1831 11.5977C24.5046 11.7846 26.1418 12.7714 27.009 14.7524C27.4351 15.7392 27.4351 16.4195 27.4799 18.4679C27.4799 18.6024 27.4874 18.7445 27.4874 18.894C27.4949 19.1332 27.4949 19.3799 27.5023 19.6266C27.5472 21.2563 27.622 22.8411 27.7341 24.3961Z" fill="url(#paint9_linear_1710_10573)" stroke="#C6BA9B" stroke-width="0.186892" stroke-miterlimit="10"/>
        <path d="M17.0142 8.02539C16.7825 8.03287 16.5358 8.04782 16.2891 8.06277" stroke="#C6BA9B" stroke-width="0.186892" stroke-miterlimit="10"/>
        <path d="M28.0852 69.244C27.9581 69.5131 27.7488 69.9168 27.0909 70.7392C25.85 72.2866 22.9868 75.8675 21.1926 75.2246C21.1702 75.2171 21.1478 75.2021 21.1104 75.1872C20.759 75.0377 19.9143 74.4396 19.6377 71.8456C21.245 70.8289 22.6055 69.8271 24.1007 68.4665C25.7453 66.9789 26.4929 66.022 28.1973 63.9961C28.5263 65.0128 29.057 67.1508 28.0852 69.244Z" fill="url(#paint10_linear_1710_10573)" stroke="#C6BA9B" stroke-width="0.186892" stroke-miterlimit="10"/>
        <path d="M21.1107 75.1854C20.236 75.3947 18.726 75.5965 16.9991 75.0957C16.3337 74.9013 15.7731 74.6471 15.3096 74.3855C17.014 73.4211 18.397 72.6287 19.638 71.8438C19.9146 74.4378 20.7593 75.0359 21.1107 75.1854Z" fill="url(#paint11_linear_1710_10573)" stroke="#C6BA9B" stroke-width="0.186892" stroke-miterlimit="10"/>
    </g>
    <defs>
        <linearGradient id="paint0_linear_1710_10573" x1="8.46089" y1="22.2203" x2="31.6804" y2="22.2203" gradientUnits="userSpaceOnUse">
            <stop stop-color="#3F3B3A"/>
            <stop offset="1" stop-color="#050C05"/>
        </linearGradient>
        <linearGradient id="paint1_linear_1710_10573" x1="0.0605469" y1="19.2686" x2="1.2118" y2="19.2686" gradientUnits="userSpaceOnUse">
            <stop stop-color="#3F3B3A"/>
            <stop offset="1" stop-color="#050C05"/>
        </linearGradient>
        <linearGradient id="paint2_linear_1710_10573" x1="1.59277" y1="23.739" x2="16.29" y2="23.739" gradientUnits="userSpaceOnUse">
            <stop stop-color="#3F3B3A"/>
            <stop offset="1" stop-color="#050C05"/>
        </linearGradient>
        <linearGradient id="paint3_linear_1710_10573" x1="0.0605469" y1="19.2686" x2="1.2118" y2="19.2686" gradientUnits="userSpaceOnUse">
            <stop stop-color="#262F2D"/>
            <stop offset="0.53" stop-color="#5A4021"/>
            <stop offset="1" stop-color="#6E5E32"/>
        </linearGradient>
        <linearGradient id="paint4_linear_1710_10573" x1="46.1476" y1="37.8297" x2="72.9031" y2="37.8297" gradientUnits="userSpaceOnUse">
            <stop stop-color="#3F3B3A"/>
            <stop offset="1" stop-color="#050C05"/>
        </linearGradient>
        <linearGradient id="paint5_linear_1710_10573" x1="61.2702" y1="51.8839" x2="61.2702" y2="4.42078" gradientUnits="userSpaceOnUse">
            <stop stop-color="#5A4021"/>
            <stop offset="1" stop-color="#B28247"/>
        </linearGradient>
        <linearGradient id="paint6_linear_1710_10573" x1="53.9061" y1="70.648" x2="53.9061" y2="55.7789" gradientUnits="userSpaceOnUse">
            <stop stop-color="#5A4021"/>
            <stop offset="1" stop-color="#B28247"/>
        </linearGradient>
        <linearGradient id="paint7_linear_1710_10573" x1="43.448" y1="36.7986" x2="66.6002" y2="36.7986" gradientUnits="userSpaceOnUse">
            <stop stop-color="#5A4021"/>
            <stop offset="1" stop-color="#B28247"/>
        </linearGradient>
        <linearGradient id="paint8_linear_1710_10573" x1="33.4756" y1="36.4248" x2="56.8296" y2="36.4248" gradientUnits="userSpaceOnUse">
            <stop stop-color="#3F3B3A"/>
            <stop offset="1" stop-color="#050C05"/>
        </linearGradient>
        <linearGradient id="paint9_linear_1710_10573" x1="11.467" y1="21.1591" x2="27.7341" y2="21.1591" gradientUnits="userSpaceOnUse">
            <stop stop-color="#5A4021"/>
            <stop offset="1" stop-color="#B28247"/>
        </linearGradient>
        <linearGradient id="paint10_linear_1710_10573" x1="19.6377" y1="69.6477" x2="28.6459" y2="69.6477" gradientUnits="userSpaceOnUse">
            <stop stop-color="#3F3B3A"/>
            <stop offset="1" stop-color="#050C05"/>
        </linearGradient>
        <linearGradient id="paint11_linear_1710_10573" x1="15.3096" y1="73.623" x2="21.1107" y2="73.623" gradientUnits="userSpaceOnUse">
            <stop stop-color="#3F3B3A"/>
            <stop offset="1" stop-color="#050C05"/>
        </linearGradient>
        <clipPath id="clip0_1710_10573">
            <rect width="73" height="75.1306" fill="white" transform="translate(0 0.369141)"/>
        </clipPath>
    </defs>
</svg>
