<svg xmlns="http://www.w3.org/2000/svg" width="70" height="59" viewBox="0 0 70 59" fill="none">
    <g clip-path="url(#clip0_1716_16860)">
        <path d="M69.0943 35.8656C68.7696 35.8656 68.287 35.7691 67.3656 34.9969C66.2337 34.0755 65.8037 33.3033 64.6717 31.8203C63.7064 30.583 63.215 29.96 62.7851 29.6529C62.3639 29.337 61.3635 28.7227 58.5906 28.5384C55.9142 28.3805 53.8345 28.7754 53.0974 28.9246C51.0002 29.3633 50.7545 29.6704 45.779 31.4254C41.7688 32.8558 40.5315 33.1454 39.031 33.2594C37.3374 33.3998 35.9158 33.2419 34.9769 33.0927H34.9681C34.8365 32.9523 34.7137 32.8295 34.582 32.7066C37.8113 30.4777 43.4799 27.1695 51.2722 25.6515C57.1778 24.4844 62.241 24.7564 65.6896 25.2303C66.2512 29.8284 67.8044 33.4613 69.0943 35.8568V35.8656Z" fill="url(#paint0_linear_1716_16860)" stroke="#C6BA9B" stroke-width="0.219376" stroke-miterlimit="10"/>
        <path d="M12.8214 52.9269C11.4963 54.524 10.3205 54.0063 9.2587 55.2436C8.60057 56.007 8.35487 56.9986 8.29345 57.9287C6.50334 58.1832 5.41523 57.9902 5.01158 57.3583C4.87995 57.1477 4.81853 56.902 4.84485 56.5949C4.94138 54.9628 7.24922 51.9441 11.7333 47.5391C11.8122 47.8462 11.9263 48.0919 12.0492 48.3025C12.6459 49.3204 13.576 49.4345 13.7866 50.4173C14.0148 51.4966 13.1636 52.5145 12.8214 52.9269Z" fill="url(#paint1_linear_1716_16860)" stroke="#C6BA9B" stroke-width="0.219376" stroke-miterlimit="10"/>
        <path d="M24.491 39.7115C23.9733 39.9134 23.2186 40.2556 22.4552 40.8786C20.9283 42.1159 20.981 43.1426 19.2698 45.2135C17.7781 47.0211 16.7338 47.4599 16.2863 47.6266C15.83 47.7934 14.9174 48.0917 13.9697 47.7232C13.4695 47.5213 13.1448 47.2054 12.9693 47.0299C12.8728 46.9334 12.7938 46.8369 12.7236 46.7403C13.8907 45.5469 15.207 44.2921 16.6636 43.046C18.8837 41.1506 21.0424 39.5624 23.0431 38.2461C23.2712 38.4567 23.4906 38.6761 23.7276 38.913C23.9382 39.1236 24.1839 39.3869 24.4822 39.7028L24.491 39.7115Z" fill="url(#paint2_linear_1716_16860)" stroke="#C6BA9B" stroke-width="0.219376" stroke-miterlimit="10"/>
        <path d="M65.6914 25.231C62.2428 24.7659 57.1796 24.4851 51.274 25.6522C43.4905 27.1703 37.813 30.4785 34.5838 32.7074C34.1802 32.3213 33.7326 31.9264 33.2588 31.5403C35.9527 29.6712 39.4891 27.6442 43.8591 26.0646C52.7394 22.853 60.7072 23.0636 65.5422 23.634C65.5773 24.0903 65.6036 24.4413 65.63 24.6694C65.6475 24.8625 65.6738 25.038 65.6914 25.2222V25.231Z" fill="url(#paint3_linear_1716_16860)" stroke="#C6BA9B" stroke-width="0.219376" stroke-miterlimit="10"/>
        <path d="M32.0718 52.3809H32.0557" stroke="#C6BA9B" stroke-width="0.219376" stroke-miterlimit="10"/>
        <path d="M8.30061 57.9277H8.29297" stroke="#C6BA9B" stroke-width="0.219376" stroke-miterlimit="10"/>
        <path d="M11.7406 47.5381C7.2565 51.9519 4.94866 54.9618 4.85213 56.6027C4.75561 55.4268 4.66786 54.2334 4.59766 53.0576C5.00131 52.4872 5.44884 51.8993 5.92269 51.285C6.58082 50.4426 7.3267 49.5739 8.12523 48.6876C9.39761 47.3011 10.6524 46.0989 11.8283 45.0723C11.5563 46.1691 11.5738 46.9589 11.7318 47.5468L11.7406 47.5381Z" fill="url(#paint4_linear_1716_16860)" stroke="#C6BA9B" stroke-width="0.219376" stroke-miterlimit="10"/>
        <path d="M4.87008 56.9545L4.84375 56.5859" stroke="#C6BA9B" stroke-width="0.219376" stroke-miterlimit="10"/>
        <path d="M23.0429 38.2548C21.0334 39.571 18.8835 41.1505 16.6634 43.0547C15.2067 44.3096 13.8905 45.5468 12.7234 46.749C12.2057 46.0909 12.0214 45.3626 11.9688 44.9063C13.0744 43.9322 14.2064 42.9319 15.3735 41.9491C17.4356 40.1941 19.4802 38.5444 21.5072 36.9648C21.6213 37.0526 21.7529 37.1491 21.867 37.2544C22.0601 37.4124 22.2531 37.5703 22.4549 37.7458C22.648 37.9126 22.841 38.0968 23.0429 38.2723V38.2548Z" fill="url(#paint5_linear_1716_16860)" stroke="#C6BA9B" stroke-width="0.219376" stroke-miterlimit="10"/>
        <path d="M65.5406 23.6433C60.7056 23.0729 52.7378 22.8623 43.8575 26.074C39.4875 27.6535 35.9512 29.6805 33.2572 31.5496C33.2572 31.5496 33.2543 31.5438 33.2484 31.5321C32.7044 31.0933 32.1779 30.716 31.6602 30.365C33.9504 29.0136 36.2407 27.671 38.531 26.3109C40.9354 25.1438 43.7171 24.0206 46.8498 23.1168C47.7799 22.8448 48.7101 22.6078 49.5964 22.3972C56.1426 20.8879 61.7586 20.9318 65.488 21.2301C65.4704 22.2042 65.4968 23.0203 65.5406 23.6521V23.6433Z" fill="url(#paint6_linear_1716_16860)" stroke="#C6BA9B" stroke-width="0.219376" stroke-miterlimit="10"/>
        <path d="M38.522 26.3022C36.2317 27.6623 33.9415 29.0049 31.6512 30.3563C29.826 29.1278 28.1675 28.4345 26.939 27.9343C24.8944 27.0919 22.9639 26.5654 21.4458 26.2232C20.7964 26.074 20.226 25.96 19.761 25.8634C16.4264 25.2141 15.6455 25.4422 14.6276 24.9947C13.5044 22.4148 11.9687 17.8957 12.232 12.2007C12.3811 9.26103 12.9603 6.76892 13.5833 4.85595C13.8817 4.75065 14.18 4.64535 14.4872 4.54883C17.8305 5.61938 23.815 8.0413 29.5101 13.4292C34.5206 18.1677 37.1794 23.2046 38.5396 26.3022H38.522Z" fill="url(#paint7_linear_1716_16860)" stroke="#C6BA9B" stroke-width="0.219376" stroke-miterlimit="10"/>
        <path d="M21.516 36.9462C19.4889 38.5257 17.4443 40.1842 15.3822 41.9304C14.2151 42.9132 13.0831 43.9136 11.9775 44.8876C11.9687 44.7823 11.9599 44.6945 11.9424 44.6243C11.8985 44.7735 11.8546 44.9227 11.8283 45.0631C10.6524 46.0898 9.39761 47.292 8.12523 48.6784C7.31792 49.5735 6.57204 50.4422 5.92269 51.2758C5.44884 51.8901 5.00131 52.478 4.59766 53.0484C4.64153 52.2411 4.68541 51.425 4.72928 50.6089C5.36986 49.7665 6.04554 48.9153 6.79142 48.0378C7.65138 47.0024 8.59908 45.9406 9.59944 44.8613C12.1793 42.1322 14.7679 39.8507 17.1811 37.9641C17.2688 37.9465 17.3478 37.9114 17.4356 37.8763C18.822 37.4025 19.8838 36.7531 20.5858 36.2617C20.8578 36.4548 21.1825 36.6829 21.516 36.9286V36.9462Z" fill="url(#paint8_linear_1716_16860)" stroke="#C6BA9B" stroke-width="0.219376" stroke-miterlimit="10"/>
        <path d="M49.5963 22.3911C48.7012 22.6017 47.7798 22.8386 46.8497 23.1106C43.717 24.0145 40.9441 25.1377 38.5309 26.3048C37.1708 23.2072 34.512 18.1791 29.5014 13.4318C23.8064 8.04388 17.8218 5.62197 14.4785 4.55141C15.6017 4.18286 16.7425 3.88451 17.892 3.65635C22.2708 2.80517 26.8338 2.98945 31.2038 4.31448C44.6384 8.39488 49.1663 21.1187 49.5875 22.3823L49.5963 22.3911Z" fill="url(#paint9_linear_1716_16860)" stroke="#C6BA9B" stroke-width="0.219376" stroke-miterlimit="10"/>
        <path d="M14.6195 25.003C14.4615 24.9328 14.2948 24.8363 14.1017 24.731C12.18 23.5727 11.3727 21.7212 10.1091 18.6938C9.3632 16.9036 8.43304 14.2097 7.92409 10.726C7.67839 10.6909 7.41514 10.6821 7.16944 10.6821C5.73033 10.6734 4.36142 10.9366 3.19434 11.4368C5.46707 9.20792 8.04694 7.40904 10.8023 6.05768C11.7061 5.61015 12.6275 5.2065 13.5752 4.87305C12.961 6.78601 12.373 9.27812 12.2239 12.2178C11.9606 17.9128 13.4962 22.4319 14.6195 25.0118V25.003Z" fill="url(#paint10_linear_1716_16860)" stroke="#C6BA9B" stroke-width="0.219376" stroke-miterlimit="10"/>
        <path d="M10.048 30.1086C7.88052 30.872 6.30101 30.758 5.23045 30.5035C4.7917 30.3982 4.77415 30.3455 2.40489 29.5996C1.43085 29.2925 0.772726 29.0907 0.281323 29.0029C0.132147 27.8973 0.0356213 26.5372 0.149697 24.984C0.237448 23.9661 0.395398 23.0622 0.5709 22.2812C1.22025 23.58 2.00123 24.5452 2.51896 25.1682C5.12515 28.3448 8.40702 29.6172 10.0304 30.1086H10.048Z" fill="url(#paint11_linear_1716_16860)" stroke="#C6BA9B" stroke-width="0.219376" stroke-miterlimit="10"/>
        <path d="M0.290039 29.0194V29.0117" stroke="#C6BA9B" stroke-width="0.219376" stroke-miterlimit="10"/>
        <path d="M0.588867 22.283V22.2754" stroke="#C6BA9B" stroke-width="0.219376" stroke-miterlimit="10"/>
        <path d="M17.1816 37.9725C14.7596 39.8592 12.171 42.1407 9.59991 44.8697C8.59078 45.9403 7.65185 47.0021 6.7919 48.0463C5.49319 46.7651 3.6943 44.6328 2.33417 41.5528C1.18464 38.9466 0.763434 36.5598 0.614258 34.8398C0.631808 34.8486 0.649358 34.8749 0.658133 34.8837C2.19377 36.7528 3.10637 37.7707 4.01898 38.227C5.08076 38.7535 7.41493 38.7009 12.1184 38.6131C14.4437 38.5605 15.7249 38.4639 17.1903 37.9901L17.1816 37.9725Z" fill="url(#paint12_linear_1716_16860)" stroke="#C6BA9B" stroke-width="0.219376" stroke-miterlimit="10"/>
        <path d="M17.892 3.66159C16.7337 3.88097 15.6017 4.17932 14.4785 4.55665C14.1714 4.65318 13.873 4.75848 13.5747 4.86378C12.627 5.206 11.7056 5.60966 10.8017 6.04841C10.1261 3.9775 11.1176 1.81883 12.7498 1.11683C14.5575 0.353398 17.0496 1.38008 17.8832 3.66159H17.892Z" fill="url(#paint13_linear_1716_16860)" stroke="#C6BA9B" stroke-width="0.219376" stroke-miterlimit="10"/>
    </g>
    <defs>
        <linearGradient id="paint0_linear_1716_16860" x1="51.8338" y1="35.8656" x2="51.8338" y2="24.8266" gradientUnits="userSpaceOnUse">
            <stop stop-color="#1E0000"/>
            <stop offset="1" stop-color="#8F4D36"/>
        </linearGradient>
        <linearGradient id="paint1_linear_1716_16860" x1="9.3289" y1="58.034" x2="9.3289" y2="47.5391" gradientUnits="userSpaceOnUse">
            <stop stop-color="#1E0000"/>
            <stop offset="1" stop-color="#8F4D36"/>
        </linearGradient>
        <linearGradient id="paint2_linear_1716_16860" x1="18.6117" y1="47.8987" x2="18.6117" y2="38.2461" gradientUnits="userSpaceOnUse">
            <stop stop-color="#1E0000"/>
            <stop offset="1" stop-color="#8F4D36"/>
        </linearGradient>
        <linearGradient id="paint3_linear_1716_16860" x1="33.2588" y1="28.0039" x2="65.6914" y2="28.0039" gradientUnits="userSpaceOnUse">
            <stop stop-color="#C3483E"/>
            <stop offset="0.16" stop-color="#C3483E"/>
            <stop offset="0.87" stop-color="#E3805D"/>
        </linearGradient>
        <linearGradient id="paint4_linear_1716_16860" x1="4.59766" y1="50.8287" x2="11.8283" y2="50.8287" gradientUnits="userSpaceOnUse">
            <stop stop-color="#C3483E"/>
            <stop offset="0.16" stop-color="#C3483E"/>
            <stop offset="0.87" stop-color="#E3805D"/>
        </linearGradient>
        <linearGradient id="paint5_linear_1716_16860" x1="11.9775" y1="41.8438" x2="23.0429" y2="41.8438" gradientUnits="userSpaceOnUse">
            <stop stop-color="#C3483E"/>
            <stop offset="0.16" stop-color="#C3483E"/>
            <stop offset="0.87" stop-color="#E3805D"/>
        </linearGradient>
        <linearGradient id="paint6_linear_1716_16860" x1="31.6514" y1="26.3021" x2="65.5406" y2="26.3021" gradientUnits="userSpaceOnUse">
            <stop stop-color="#9FA0A0"/>
            <stop offset="0.58" stop-color="#D4DADF"/>
            <stop offset="1" stop-color="#DCDDDD"/>
        </linearGradient>
        <linearGradient id="paint7_linear_1716_16860" x1="12.1969" y1="17.4569" x2="38.522" y2="17.4569" gradientUnits="userSpaceOnUse">
            <stop stop-color="#9FA0A0"/>
            <stop offset="0.58" stop-color="#D4DADF"/>
            <stop offset="1" stop-color="#DCDDDD"/>
        </linearGradient>
        <linearGradient id="paint8_linear_1716_16860" x1="4.59766" y1="44.6682" x2="21.516" y2="44.6682" gradientUnits="userSpaceOnUse">
            <stop stop-color="#9FA0A0"/>
            <stop offset="0.58" stop-color="#D4DADF"/>
            <stop offset="1" stop-color="#DCDDDD"/>
        </linearGradient>
        <linearGradient id="paint9_linear_1716_16860" x1="14.4697" y1="14.7305" x2="49.5963" y2="14.7305" gradientUnits="userSpaceOnUse">
            <stop stop-color="#C3483E"/>
            <stop offset="0.16" stop-color="#C3483E"/>
            <stop offset="0.87" stop-color="#E3805D"/>
        </linearGradient>
        <linearGradient id="paint10_linear_1716_16860" x1="3.19434" y1="14.9293" x2="14.6195" y2="14.9293" gradientUnits="userSpaceOnUse">
            <stop stop-color="#C3483E"/>
            <stop offset="0.16" stop-color="#C3483E"/>
            <stop offset="0.87" stop-color="#E3805D"/>
        </linearGradient>
        <linearGradient id="paint11_linear_1716_16860" x1="0.105822" y1="26.4933" x2="10.048" y2="26.4933" gradientUnits="userSpaceOnUse">
            <stop stop-color="#C3483E"/>
            <stop offset="0.16" stop-color="#C3483E"/>
            <stop offset="0.87" stop-color="#E3805D"/>
        </linearGradient>
        <linearGradient id="paint12_linear_1716_16860" x1="0.605483" y1="41.4387" x2="17.1816" y2="41.4387" gradientUnits="userSpaceOnUse">
            <stop stop-color="#C3483E"/>
            <stop offset="0.16" stop-color="#C3483E"/>
            <stop offset="0.87" stop-color="#E3805D"/>
        </linearGradient>
        <linearGradient id="paint13_linear_1716_16860" x1="10.5911" y1="3.45977" x2="17.892" y2="3.45977" gradientUnits="userSpaceOnUse">
            <stop stop-color="#9FA0A0"/>
            <stop offset="0.58" stop-color="#D4DADF"/>
            <stop offset="1" stop-color="#DCDDDD"/>
        </linearGradient>
        <clipPath id="clip0_1716_16860">
            <rect width="69.2791" height="57.3889" fill="white" transform="translate(0 0.757812)"/>
        </clipPath>
    </defs>
</svg>
