<svg xmlns="http://www.w3.org/2000/svg" width="68" height="44" viewBox="0 0 68 44" fill="none">
    <g clip-path="url(#clip0_1714_16268)">
        <path d="M33.1313 18.7216C32.8889 18.7296 32.5091 18.7456 32.0243 18.8014C30.3839 18.993 27.5071 19.5438 24.5657 21.2681C23.2808 22.0105 21.996 22.9924 20.7839 24.2377C19.6606 25.4032 18.796 26.6245 18.1495 27.79C16.7354 30.3126 16.2586 32.6116 16.0728 33.7531C15.7819 33.5616 15.4667 33.3859 15.1354 33.2343C13.5596 32.5477 12.1293 32.6835 11.1273 32.7553C10.7798 32.7713 10.4162 32.8032 10.0283 32.8112C10.1091 30.3365 10.497 27.9976 11.1273 25.9061C12.1617 22.4655 13.8667 19.6716 16 17.9393C16.5253 17.5242 17.0586 17.165 17.6243 16.8696C19.7657 15.768 22.1899 15.4168 22.1899 15.4168C24.2667 15.1134 26.0849 15.305 27.4909 15.6083C28.3071 15.784 28.994 16.0075 29.495 16.1911C29.7132 16.5982 30.1172 16.5583 31.0788 17.0772C31.1516 17.1171 31.2243 17.157 31.297 17.1969C32.1536 17.6918 32.7516 18.2826 33.1475 18.7136L33.1313 18.7216Z" fill="url(#paint0_linear_1714_16268)" stroke="#C6BA9B" stroke-width="0.246377" stroke-miterlimit="10"/>
        <path d="M58.3602 11.5211C58.0613 11.561 57.4229 11.6408 56.5421 11.8563H56.5259C55.2491 12.1756 53.4956 12.7584 51.7017 13.8281C50.134 14.77 48.5421 16.0712 47.1845 17.9073C47.1037 18.019 47.0229 18.1308 46.9501 18.2425C44.3158 21.9944 44.1299 25.8501 44.1299 27.287C43.6532 27.0236 43.3784 26.6883 43.233 26.4887C42.7966 24.7325 41.9562 23.136 40.7279 21.8667C39.6774 20.7811 38.4815 20.0706 37.334 19.6156C37.4552 19.2564 37.5926 18.8812 37.7542 18.506C37.835 18.3064 37.9239 18.1228 38.0047 17.9232C38.6916 16.3985 39.9037 14.307 41.9804 12.4071H41.9885C42.3602 12.0639 42.7724 11.7286 43.2087 11.4013C43.8229 10.9383 44.4451 10.5472 45.0592 10.2039C46.6592 9.31782 48.2431 8.78298 49.6734 8.47963C52.1784 7.94479 54.1986 8.0805 54.934 8.16032C55.4188 8.28805 56.9461 8.775 57.835 10.2438C58.1259 10.7068 58.2714 11.1618 58.3602 11.529V11.5211Z" fill="url(#paint1_linear_1714_16268)" stroke="#C6BA9B" stroke-width="0.246377" stroke-miterlimit="10"/>
        <path d="M43.5637 29.1701C43.588 31.565 42.9415 34.0955 41.5516 36.4424C34.0041 36.6739 26.4566 36.8895 18.9092 37.121C18.3839 36.0592 17.495 34.6942 16.0566 33.7522C16.2425 32.6107 16.7193 30.3117 18.1334 27.7891C18.788 26.6236 19.6445 25.4023 20.7678 24.2368C21.9799 22.9835 23.2647 22.0096 24.5496 21.2672C27.491 19.5429 30.3758 18.9921 32.0082 18.8005C32.493 18.7447 32.8728 18.7287 33.1152 18.7207C33.8263 18.7447 35.4991 18.8644 37.3172 19.6068C38.4647 20.0698 39.6526 20.7723 40.7112 21.8579C41.9395 23.1272 42.7799 24.7237 43.2162 26.4799C43.4344 27.3421 43.5395 28.2441 43.5556 29.1781L43.5637 29.1701Z" fill="url(#paint2_linear_1714_16268)" stroke="#C6BA9B" stroke-width="0.246377" stroke-miterlimit="10"/>
        <path d="M31.0631 12.4387C30.3277 14.2029 29.0106 15.3365 29.4792 16.1906C28.9782 16.007 28.2995 15.7835 27.4752 15.6079C26.0691 15.3045 24.251 15.113 22.1742 15.4163C22.1742 15.4163 19.75 15.7675 17.6085 16.8692C17.0348 16.9889 16.2106 17.1246 15.2166 17.1885C13.4065 17.3082 11.0146 17.1805 8.43683 16.2465C7.34592 15.8633 6.40046 15.3924 5.5843 14.9054C4.59036 14.3147 3.78228 13.7 3.19238 13.1811C3.20854 12.2951 3.23279 11.4169 3.24895 10.5309C3.29743 8.12805 3.34592 5.72524 3.3944 3.31445C3.43481 3.64973 4.10551 4.11273 4.98632 4.59968C6.79642 5.58156 9.51158 6.65124 9.81056 6.77099C13.4227 8.19192 20.2429 9.87628 31.4833 7.689H31.4914C31.855 9.83636 31.5075 11.3691 31.0631 12.4228V12.4387Z" fill="url(#paint3_linear_1714_16268)" stroke="#C6BA9B" stroke-width="0.246377" stroke-miterlimit="10"/>
        <path d="M4.98645 4.62331C4.09756 4.13636 3.42685 3.66538 3.39453 3.33809V3.2423C3.46726 2.90702 4.2915 2.81123 4.76019 2.7793C4.82483 3.33011 4.89756 3.91285 4.98645 4.62331Z" fill="url(#paint4_linear_1714_16268)" stroke="#C6BA9B" stroke-width="0.246377" stroke-miterlimit="10"/>
        <path d="M3.39422 3.33017C3.39422 3.33017 3.38614 3.26631 3.39422 3.23438" stroke="#C6BA9B" stroke-width="0.246377" stroke-miterlimit="10"/>
        <path d="M17.6082 16.8754C17.0506 17.1707 16.5092 17.5299 15.9839 17.945C13.8506 19.6853 12.1456 22.4713 11.1112 25.9118C10.4809 28.0033 10.093 30.3423 10.0122 32.8169C7.77384 32.8967 4.7597 32.8089 0.897074 32.1464C0.250609 29.52 -0.460502 24.9938 0.7597 19.6773C1.36576 17.035 2.29505 14.8637 3.18394 13.1953C3.78192 13.7142 4.58192 14.3289 5.57586 14.9196C6.38394 15.4065 7.33748 15.8775 8.42839 16.2607C11.0062 17.1867 13.4062 17.3224 15.2082 17.2027C16.2021 17.1388 17.0264 17.0031 17.6001 16.8833L17.6082 16.8754Z" fill="url(#paint5_linear_1714_16268)" stroke="#C6BA9B" stroke-width="0.246377" stroke-miterlimit="10"/>
        <path d="M41.6887 39.6819C41.4301 39.6819 41.1553 39.6898 40.8968 39.6898C39.2968 39.7058 37.7048 39.7138 36.0968 39.7377C35.8382 39.7457 35.5877 39.7457 35.321 39.7457C33.8745 39.7617 32.4442 39.7697 30.9978 39.7936C30.6907 39.7936 30.3917 39.8016 30.0846 39.8016C28.4442 39.8176 26.7957 39.8415 25.1553 39.8575C24.8483 39.8575 24.5493 39.8575 24.2422 39.8655C22.6341 39.8734 21.0099 39.8894 19.4018 39.9134C19.119 39.9134 18.8523 39.9213 18.5695 39.9213C18.2543 39.9213 17.9392 39.9293 17.6159 39.9293C17.123 39.4104 16.525 38.8517 15.8301 38.2929C15.6361 38.1252 15.426 37.9576 15.2159 37.8059C14.7796 37.4706 14.2947 37.1433 13.7776 36.824C13.2846 36.5127 12.7998 36.2333 12.3311 35.9938C12.0644 35.8501 11.7897 35.7144 11.5392 35.5947C11.2968 35.4829 11.0624 35.3792 10.8281 35.2834C9.87453 35.2355 8.93716 35.1876 7.98362 35.1477C7.83817 35.1477 7.68463 35.1397 7.53918 35.1317C6.63413 35.0918 5.72099 35.0519 4.81594 35.004C4.69473 35.004 4.56544 34.996 4.44423 34.988C3.45837 34.9401 2.48059 34.8922 1.49473 34.8523C1.34928 34.8523 1.19574 34.8443 1.05029 34.8363C0.993722 33.9423 0.945238 33.0482 0.888672 32.1621C4.74322 32.8247 7.76544 32.9205 10.0038 32.8327C10.3917 32.8247 10.7553 32.7927 11.1028 32.7768C12.0968 32.7049 13.5351 32.5612 15.1109 33.2557C15.4503 33.3994 15.7654 33.5751 16.0483 33.7746C17.4867 34.7166 18.3755 36.0816 18.9008 37.1433C26.4483 36.9118 33.9957 36.6963 41.5432 36.4648C41.624 36.8879 41.7048 37.3669 41.7291 37.9097C41.7776 38.5882 41.7372 39.1949 41.6806 39.7058L41.6887 39.6819Z" fill="url(#paint6_linear_1714_16268)" stroke="#C6BA9B" stroke-width="0.246377" stroke-miterlimit="10"/>
        <path d="M40.8967 39.6934C40.0401 40.787 39.1916 41.8966 38.3431 42.9902C37.5916 41.9046 36.8401 40.8269 36.0967 39.7413C37.6967 39.7253 39.2886 39.7173 40.8967 39.6934Z" fill="url(#paint7_linear_1714_16268)" stroke="#C6BA9B" stroke-width="0.246377" stroke-miterlimit="10"/>
        <path d="M35.3291 39.7461C34.5937 40.8238 33.8584 41.9014 33.123 42.9791C32.4281 41.9174 31.717 40.8557 31.0059 39.794C32.4523 39.778 33.8826 39.77 35.3291 39.7461Z" fill="url(#paint8_linear_1714_16268)" stroke="#C6BA9B" stroke-width="0.246377" stroke-miterlimit="10"/>
        <path d="M30.0924 39.8027L27.4338 43.1874C26.6823 42.0698 25.9146 40.9682 25.1631 39.8586C26.8035 39.8426 28.452 39.8187 30.0924 39.8027Z" fill="url(#paint9_linear_1714_16268)" stroke="#C6BA9B" stroke-width="0.246377" stroke-miterlimit="10"/>
        <path d="M24.2508 39.8652L21.6407 43.1861C20.8973 42.0924 20.1539 41.0068 19.4023 39.9131C21.0104 39.8972 22.6347 39.8732 24.2427 39.8652H24.2508Z" fill="url(#paint10_linear_1714_16268)" stroke="#C6BA9B" stroke-width="0.246377" stroke-miterlimit="10"/>
        <path d="M66.1333 29.8086C65.3172 30.8783 64.4848 31.932 63.6606 32.9937C62.9333 31.948 62.198 30.8863 61.4707 29.8405C63.0303 29.8325 64.5737 29.8246 66.1253 29.8166L66.1333 29.8086Z" fill="url(#paint11_linear_1714_16268)" stroke="#C6BA9B" stroke-width="0.246377" stroke-miterlimit="10"/>
        <path d="M61.4784 29.8318L61.4219 29.752" stroke="#C6BA9B" stroke-width="0.246377" stroke-miterlimit="10"/>
        <path d="M66.2214 29.6973L66.1406 29.809" stroke="#C6BA9B" stroke-width="0.246377" stroke-miterlimit="10"/>
        <path d="M60.5895 29.832C59.8704 30.8778 59.1673 31.9395 58.4481 32.9772C57.7532 31.9395 57.0582 30.8937 56.3633 29.856C57.7693 29.848 59.1835 29.84 60.5895 29.832Z" fill="url(#paint12_linear_1714_16268)" stroke="#C6BA9B" stroke-width="0.246377" stroke-miterlimit="10"/>
        <path d="M56.3642 29.8653C56.3642 29.8653 56.3396 29.8248 56.3232 29.8086" stroke="#C6BA9B" stroke-width="0.246377" stroke-miterlimit="10"/>
        <path d="M60.6461 29.7598C60.6461 29.7598 60.6057 29.8077 60.5977 29.8316" stroke="#C6BA9B" stroke-width="0.246377" stroke-miterlimit="10"/>
        <path d="M55.3857 29.8652L52.7675 33.202C52.016 32.1004 51.2564 30.9908 50.5049 29.8892C52.1372 29.8812 53.7534 29.8732 55.3857 29.8652Z" fill="url(#paint13_linear_1714_16268)" stroke="#C6BA9B" stroke-width="0.246377" stroke-miterlimit="10"/>
        <path d="M50.5059 29.8901C50.5059 29.8901 50.4976 29.8735 50.4893 29.8652" stroke="#C6BA9B" stroke-width="0.246377" stroke-miterlimit="10"/>
        <path d="M55.4267 29.8164L55.3857 29.865" stroke="#C6BA9B" stroke-width="0.246377" stroke-miterlimit="10"/>
        <path d="M49.5594 29.8867C48.6947 30.9883 47.8301 32.0979 46.9574 33.1996C46.5856 32.6966 46.2058 32.1379 45.818 31.5312C45.4705 30.9724 45.1553 30.4136 44.8887 29.8947C44.9048 29.9027 44.9291 29.9107 44.9452 29.9107C46.4806 29.9027 48.0159 29.8947 49.5594 29.8867Z" fill="url(#paint14_linear_1714_16268)" stroke="#C6BA9B" stroke-width="0.246377" stroke-miterlimit="10"/>
        <path d="M49.6237 29.8164L49.5752 29.8883" stroke="#C6BA9B" stroke-width="0.246377" stroke-miterlimit="10"/>
        <path d="M18.5773 39.9234C17.947 40.5141 17.3005 41.0889 16.6702 41.6716C16.3874 40.5461 16.1207 39.4205 15.8379 38.2949C16.5328 38.8537 17.1308 39.4205 17.6237 39.9314C17.9389 39.9314 18.2541 39.9234 18.5773 39.9234Z" fill="url(#paint15_linear_1714_16268)" stroke="#C6BA9B" stroke-width="0.246377" stroke-miterlimit="10"/>
        <path d="M15.2244 37.8062C14.4487 38.4129 13.6891 39.0196 12.9133 39.6263C12.7275 38.4129 12.5416 37.1995 12.3477 35.9941C12.8163 36.2336 13.3012 36.513 13.7941 36.8243C14.3032 37.1437 14.7881 37.4789 15.2325 37.8062H15.2244Z" fill="url(#paint16_linear_1714_16268)" stroke="#C6BA9B" stroke-width="0.246377" stroke-miterlimit="10"/>
        <path d="M11.5553 35.5955C10.6179 36.3538 9.68054 37.1042 8.75125 37.8626C8.50074 36.9605 8.25832 36.0505 8.00781 35.1484C8.96135 35.1963 9.89872 35.2442 10.8523 35.2841C11.0866 35.3879 11.3209 35.4837 11.5634 35.5955H11.5553Z" fill="url(#paint17_linear_1714_16268)" stroke="#C6BA9B" stroke-width="0.246377" stroke-miterlimit="10"/>
        <path d="M4.46051 34.9816C3.8302 35.7399 3.21606 36.4823 2.58576 37.2247C2.22212 36.4265 1.86657 35.6441 1.50293 34.8379C2.48879 34.8858 3.46657 34.9337 4.45242 34.9736L4.46051 34.9816Z" fill="url(#paint18_linear_1714_16268)" stroke="#C6BA9B" stroke-width="0.246377" stroke-miterlimit="10"/>
        <path d="M7.555 35.1258C7.05399 35.964 6.56914 36.8021 6.08429 37.6324C5.66409 36.7543 5.24388 35.8841 4.83984 34.998C5.74489 35.0459 6.65803 35.0938 7.56308 35.1258H7.555Z" fill="url(#paint19_linear_1714_16268)" stroke="#C6BA9B" stroke-width="0.246377" stroke-miterlimit="10"/>
        <path d="M56.1135 5.62868C55.9923 6.17949 55.8065 6.66644 55.5883 7.07356C55.3701 7.5206 55.1358 7.89579 54.9337 8.15123C54.1984 8.07939 52.1782 7.9357 49.6731 8.47054C48.2509 8.77389 46.6671 9.30873 45.059 10.1948C43.5156 10.2427 41.463 10.1549 39.1358 9.65199C38.1418 9.42847 37.2206 9.16504 36.3802 8.86968C35.3539 8.51844 34.4489 8.13527 33.6974 7.76806C33.5358 7.69622 33.3903 7.62437 33.2529 7.53656C33.2772 7.4727 33.3095 7.40884 33.3337 7.34498C33.3337 6.98575 33.3418 6.61855 33.3499 6.24336C33.3903 5.34929 33.463 4.49513 33.5519 3.68887C33.7297 3.3057 33.8994 2.92253 34.0529 2.55532C34.1499 2.33181 34.2388 2.11627 34.3358 1.90074C34.3762 1.78898 34.4166 1.6852 34.4651 1.58143C34.6832 1.05457 34.8691 0.5756 35.0307 0.144531C37.358 1.23019 40.4368 2.41163 44.1701 3.17798C49.0347 4.1838 53.2448 4.11994 56.2509 3.84055C56.2752 4.31153 56.259 4.93418 56.1055 5.63667L56.1135 5.62868Z" fill="url(#paint20_linear_1714_16268)" stroke="#C6BA9B" stroke-width="0.246377" stroke-miterlimit="10"/>
        <path d="M67.0865 27.7167C61.0905 27.8205 54.9976 27.8205 48.7996 27.7167C47.6602 27.7007 46.537 27.6688 45.4218 27.6449C45.1632 27.6369 44.6542 27.581 44.1289 27.2777C44.1289 25.8408 44.3148 21.9851 46.9491 18.2332C47.0218 18.1214 47.0946 18.0097 47.1835 17.8979C48.541 16.0699 50.1329 14.7607 51.7006 13.8187C53.5026 12.749 55.2481 12.1743 56.5249 11.847H56.541C57.4138 11.6315 58.0602 11.5516 58.3592 11.5117C59.4016 11.7273 63.0703 12.5814 65.6319 15.9501C69.543 21.083 67.24 27.2856 67.0865 27.7087V27.7167Z" fill="url(#paint21_linear_1714_16268)" stroke="#C6BA9B" stroke-width="0.246377" stroke-miterlimit="10"/>
        <path d="M67.087 27.7162C66.9819 28.4187 66.893 29.1132 66.788 29.8077H66.1334C64.5738 29.8156 63.0304 29.8236 61.4789 29.8316H60.59C59.1839 29.8396 57.7698 29.8476 56.3637 29.8556H55.386C53.7536 29.8635 52.1375 29.8715 50.5051 29.8795H49.5678C48.0324 29.8875 46.4971 29.8955 44.9536 29.9035C44.9375 29.9035 44.9132 29.8955 44.8971 29.8875C44.7112 29.8396 44.4607 29.7598 44.2021 29.6241C43.9193 29.4804 43.7092 29.3047 43.5718 29.1611C43.5637 28.2351 43.4506 27.333 43.2324 26.4629C43.3698 26.6625 43.6526 26.9977 44.1294 27.2612C44.6627 27.5645 45.1637 27.6204 45.4223 27.6284C46.5375 27.6523 47.6688 27.6843 48.8001 27.7002C54.9981 27.804 61.091 27.804 67.087 27.7002V27.7162Z" fill="url(#paint22_linear_1714_16268)" stroke="#C6BA9B" stroke-width="0.246377" stroke-miterlimit="10"/>
        <path d="M45.0666 10.1954C44.4524 10.5386 43.8302 10.9298 43.2161 11.3928C42.7797 11.7121 42.3676 12.0553 41.9958 12.3986H41.9878C39.911 14.2905 38.6989 16.382 38.012 17.9147C37.9312 18.1063 37.8423 18.2899 37.7615 18.4974C37.5999 18.8726 37.4625 19.2558 37.3413 19.607C35.5231 18.8726 33.8504 18.7529 33.1393 18.7209C32.7352 18.2899 32.1453 17.6992 31.2888 17.2042C31.2726 15.8551 31.3696 14.1468 31.7655 12.223C32.1534 10.355 32.7272 8.77444 33.2686 7.53711C33.4059 7.61694 33.5595 7.69676 33.713 7.76861C34.4645 8.13582 35.3696 8.52697 36.3958 8.87023C37.2363 9.16559 38.1575 9.42902 39.1514 9.65254C41.4787 10.1555 43.5312 10.2433 45.0746 10.1954H45.0666Z" fill="url(#paint23_linear_1714_16268)" stroke="#C6BA9B" stroke-width="0.246377" stroke-miterlimit="10"/>
        <path d="M33.252 7.53711H33.2441" stroke="#C6BA9B" stroke-width="0.246377" stroke-miterlimit="10"/>
    </g>
    <defs>
        <linearGradient id="paint0_linear_1714_16268" x1="10.0122" y1="24.5171" x2="33.1314" y2="24.5171" gradientUnits="userSpaceOnUse">
            <stop stop-color="#727171"/>
            <stop offset="1" stop-color="#F7F9F9"/>
        </linearGradient>
        <linearGradient id="paint1_linear_1714_16268" x1="37.334" y1="17.6837" x2="58.3602" y2="17.6837" gradientUnits="userSpaceOnUse">
            <stop stop-color="#727171"/>
            <stop offset="1" stop-color="#F7F9F9"/>
        </linearGradient>
        <linearGradient id="paint2_linear_1714_16268" x1="16.0647" y1="27.9248" x2="43.5637" y2="27.9248" gradientUnits="userSpaceOnUse">
            <stop stop-color="#3F3B3A"/>
            <stop offset="1" stop-color="#050C05"/>
        </linearGradient>
        <linearGradient id="paint3_linear_1714_16268" x1="3.1843" y1="10.2834" x2="31.6449" y2="10.2834" gradientUnits="userSpaceOnUse">
            <stop stop-color="#3F3B3A"/>
            <stop offset="1" stop-color="#050C05"/>
        </linearGradient>
        <linearGradient id="paint4_linear_1714_16268" x1="3.39453" y1="3.69731" x2="4.98645" y2="3.69731" gradientUnits="userSpaceOnUse">
            <stop stop-color="#3F3B3A"/>
            <stop offset="1" stop-color="#050C05"/>
        </linearGradient>
        <linearGradient id="paint5_linear_1714_16268" x1="0.0970738" y1="23.0221" x2="17.6082" y2="23.0221" gradientUnits="userSpaceOnUse">
            <stop stop-color="#3F3B3A"/>
            <stop offset="1" stop-color="#050C05"/>
        </linearGradient>
        <linearGradient id="paint6_linear_1714_16268" x1="0.904833" y1="36.0337" x2="41.7614" y2="36.0337" gradientUnits="userSpaceOnUse">
            <stop stop-color="#727171"/>
            <stop offset="1" stop-color="#F7F9F9"/>
        </linearGradient>
        <linearGradient id="paint7_linear_1714_16268" x1="36.0967" y1="41.3458" x2="40.8967" y2="41.3458" gradientUnits="userSpaceOnUse">
            <stop stop-color="#3F3B3A"/>
            <stop offset="1" stop-color="#050C05"/>
        </linearGradient>
        <linearGradient id="paint8_linear_1714_16268" x1="31.0059" y1="41.3586" x2="35.3291" y2="41.3586" gradientUnits="userSpaceOnUse">
            <stop stop-color="#3F3B3A"/>
            <stop offset="1" stop-color="#050C05"/>
        </linearGradient>
        <linearGradient id="paint9_linear_1714_16268" x1="25.1631" y1="41.4951" x2="30.0924" y2="41.4951" gradientUnits="userSpaceOnUse">
            <stop stop-color="#3F3B3A"/>
            <stop offset="1" stop-color="#050C05"/>
        </linearGradient>
        <linearGradient id="paint10_linear_1714_16268" x1="19.4104" y1="41.5256" x2="24.2508" y2="41.5256" gradientUnits="userSpaceOnUse">
            <stop stop-color="#3F3B3A"/>
            <stop offset="1" stop-color="#050C05"/>
        </linearGradient>
        <linearGradient id="paint11_linear_1714_16268" x1="61.4788" y1="31.3972" x2="66.1333" y2="31.3972" gradientUnits="userSpaceOnUse">
            <stop stop-color="#3F3B3A"/>
            <stop offset="1" stop-color="#050C05"/>
        </linearGradient>
        <linearGradient id="paint12_linear_1714_16268" x1="56.3633" y1="31.4126" x2="60.5895" y2="31.4126" gradientUnits="userSpaceOnUse">
            <stop stop-color="#3F3B3A"/>
            <stop offset="1" stop-color="#050C05"/>
        </linearGradient>
        <linearGradient id="paint13_linear_1714_16268" x1="50.5049" y1="31.5336" x2="55.3857" y2="31.5336" gradientUnits="userSpaceOnUse">
            <stop stop-color="#3F3B3A"/>
            <stop offset="1" stop-color="#050C05"/>
        </linearGradient>
        <linearGradient id="paint14_linear_1714_16268" x1="44.8968" y1="31.5471" x2="49.5594" y2="31.5471" gradientUnits="userSpaceOnUse">
            <stop stop-color="#3F3B3A"/>
            <stop offset="1" stop-color="#050C05"/>
        </linearGradient>
        <linearGradient id="paint15_linear_1714_16268" x1="15.8379" y1="39.9793" x2="18.5773" y2="39.9793" gradientUnits="userSpaceOnUse">
            <stop stop-color="#3F3B3A"/>
            <stop offset="1" stop-color="#050C05"/>
        </linearGradient>
        <linearGradient id="paint16_linear_1714_16268" x1="12.3477" y1="37.8062" x2="15.2244" y2="37.8062" gradientUnits="userSpaceOnUse">
            <stop stop-color="#3F3B3A"/>
            <stop offset="1" stop-color="#050C05"/>
        </linearGradient>
        <linearGradient id="paint17_linear_1714_16268" x1="7.99973" y1="36.5055" x2="11.5553" y2="36.5055" gradientUnits="userSpaceOnUse">
            <stop stop-color="#3F3B3A"/>
            <stop offset="1" stop-color="#050C05"/>
        </linearGradient>
        <linearGradient id="paint18_linear_1714_16268" x1="1.51101" y1="36.0353" x2="4.46051" y2="36.0353" gradientUnits="userSpaceOnUse">
            <stop stop-color="#3F3B3A"/>
            <stop offset="1" stop-color="#050C05"/>
        </linearGradient>
        <linearGradient id="paint19_linear_1714_16268" x1="4.83176" y1="36.3152" x2="7.555" y2="36.3152" gradientUnits="userSpaceOnUse">
            <stop stop-color="#3F3B3A"/>
            <stop offset="1" stop-color="#050C05"/>
        </linearGradient>
        <linearGradient id="paint20_linear_1714_16268" x1="33.2529" y1="5.17367" x2="56.2752" y2="5.17367" gradientUnits="userSpaceOnUse">
            <stop stop-color="#3F3B3A"/>
            <stop offset="1" stop-color="#050C05"/>
        </linearGradient>
        <linearGradient id="paint21_linear_1714_16268" x1="44.1208" y1="19.6541" x2="67.9026" y2="19.6541" gradientUnits="userSpaceOnUse">
            <stop stop-color="#3F3B3A"/>
            <stop offset="1" stop-color="#050C05"/>
        </linearGradient>
        <linearGradient id="paint22_linear_1714_16268" x1="43.2243" y1="28.1951" x2="67.087" y2="28.1951" gradientUnits="userSpaceOnUse">
            <stop stop-color="#727171"/>
            <stop offset="1" stop-color="#F7F9F9"/>
        </linearGradient>
        <linearGradient id="paint23_linear_1714_16268" x1="31.2726" y1="13.5721" x2="45.0666" y2="13.5721" gradientUnits="userSpaceOnUse">
            <stop stop-color="#3F3B3A"/>
            <stop offset="1" stop-color="#050C05"/>
        </linearGradient>
        <clipPath id="clip0_1714_16268">
            <rect width="68" height="43.3623" fill="white"/>
        </clipPath>
    </defs>
</svg>
