<svg xmlns="http://www.w3.org/2000/svg" width="69" height="238" viewBox="0 0 69 238" fill="none">
    <g clip-path="url(#clip0_1710_10311)">
        <path d="M57.6055 17.7759V17.7383" stroke="#C6BA9B" stroke-width="0.25" stroke-miterlimit="10"/>
        <path d="M64.4048 102.571C64.4048 102.571 64.3972 102.609 64.3896 102.632" stroke="#C6BA9B" stroke-width="0.25" stroke-miterlimit="10"/>
        <path d="M19.1572 143.536C18.4997 144.806 18.3279 146.024 18.2905 146.87C17.4537 146.736 16.8634 146.603 16.5571 146.358C16.4824 146.239 16.4077 146.12 16.3329 146.009C16.2433 145.526 16.7439 144.769 19.1572 143.536Z" fill="url(#paint0_linear_1710_10311)" stroke="#C6BA9B" stroke-width="0.25" stroke-miterlimit="10"/>
        <path d="M48.7374 170.326H48.7295" stroke="#C6BA9B" stroke-width="0.25" stroke-miterlimit="10"/>
        <path d="M49.7389 160.31C49.171 162.612 48.3492 166.117 48.7302 170.327C46.9221 171.099 41.6173 173.052 35.6774 171.092C33.6302 170.416 32.0238 169.443 30.8358 168.56C30.8433 167.75 30.7686 166.562 30.2829 165.263C29.3639 162.813 27.765 161.974 25.7402 159.976C25.0229 159.271 23.3343 156.709 19.9871 151.623C18.5974 149.514 17.4318 147.717 16.5576 146.358C16.864 146.603 17.4542 146.737 18.291 146.871C19.5687 147.079 21.4141 147.309 23.6407 147.992C28.5495 149.492 28.6989 151.17 32.4422 151.623C35.6027 152.002 35.3636 150.784 39.4132 151.125C40.8925 151.244 42.4616 151.541 44.3668 151.957C45.2559 152.15 46.2123 152.373 47.2733 152.61C47.5647 152.677 48.5808 152.915 49.9855 153.212C50.0751 153.234 50.1648 153.249 50.247 153.271C51.024 153.435 51.6591 153.568 52.0924 153.657C51.1585 155.662 50.3366 157.882 49.7389 160.31Z" fill="url(#paint1_linear_1710_10311)" stroke="#C6BA9B" stroke-width="0.25" stroke-miterlimit="10"/>
        <path d="M49.4098 174.166C48.7373 174.789 47.6764 175.814 46.4585 177.225C45.547 177.381 44.0825 177.596 42.2744 177.693C38.0082 177.908 32.9947 178.175 30.3797 175.331C30.3274 175.279 30.2825 175.227 30.2377 175.175C30.0061 174.908 28.3026 172.911 28.9526 170.802C29.3337 169.562 30.3498 168.849 30.8354 168.56C32.0234 169.443 33.6298 170.416 35.677 171.092C41.6169 173.052 46.9217 171.099 48.7299 170.327C48.8419 171.552 49.0586 172.836 49.4098 174.166Z" fill="url(#paint2_linear_1710_10311)" stroke="#C6BA9B" stroke-width="0.25" stroke-miterlimit="10"/>
        <path d="M46.4577 177.224C45.5537 178.264 44.5525 179.526 43.5588 180.989H43.5513C42.0719 181.598 39.3747 182.437 36.2142 181.813C35.2205 181.62 33.2181 181.227 31.7686 180.143C31.1036 179.653 30.5582 179.007 30.2818 178.182C29.9007 177.061 30.1547 175.984 30.3789 175.331C32.9939 178.175 38.0074 177.908 42.2736 177.692C44.0818 177.596 45.5462 177.38 46.4577 177.224Z" fill="url(#paint3_linear_1710_10311)" stroke="#C6BA9B" stroke-width="0.25" stroke-miterlimit="10"/>
        <path d="M53.6982 236.553C43.4771 239.033 38.9568 237.704 36.7527 235.855C36.1923 235.38 34.5859 233.872 31.941 231.897C29.4828 230.063 28.2201 229.395 27.2115 228.675C22.4894 225.341 20.9652 219.371 19.9865 215.562C19.1123 212.161 19.1571 209.028 19.2393 202.768C19.3663 193.101 20.8233 190.873 22.1457 189.655C23.4309 188.467 24.0809 188.705 26.1281 187.175C29.1018 184.963 30.7904 182.193 31.7691 180.144C33.2186 181.228 35.221 181.621 36.2147 181.814C39.3752 182.438 42.0724 181.599 43.5518 180.99C40.8396 184.948 38.0901 190.435 37.0067 197.377C36.6182 199.887 34.9147 212.413 42.6552 224.658C43.3874 225.809 47.5192 232.202 53.6982 236.553Z" fill="url(#paint4_linear_1710_10311)" stroke="#C6BA9B" stroke-width="0.25" stroke-miterlimit="10"/>
        <path d="M47.2723 152.61C46.2114 152.373 45.255 152.15 44.3659 151.957C45.8004 147.153 45.0533 144.331 44.0596 142.624C42.9089 140.656 41.2353 139.846 39.076 136.52C38.03 134.894 37.3576 133.446 36.9541 132.466C37.7237 132.763 38.5306 132.941 39.3301 133.223C43.955 134.879 46.3235 139.549 46.8016 140.485C47.22 141.317 47.5339 142.148 47.758 142.972C48.9385 147.294 47.7132 151.311 47.2723 152.61Z" fill="url(#paint5_linear_1710_10311)" stroke="#C6BA9B" stroke-width="0.25" stroke-miterlimit="10"/>
        <path d="M44.3668 151.956C42.4616 151.54 40.8925 151.243 39.4132 151.125C35.3636 150.783 35.6027 152.001 32.4422 151.622C28.6989 151.169 28.5495 149.491 23.6407 147.991C21.4141 147.308 19.5687 147.078 18.291 146.87C18.3284 146.023 18.5002 144.806 19.1577 143.536C19.7554 142.363 20.2112 142.244 20.5698 141.39C21.3544 139.512 19.8077 138.598 19.9871 136.356C20.1888 133.794 22.5125 131.307 24.3878 130.089C25.3741 129.443 26.2408 129.153 26.7937 128.106C27.369 127.015 27.242 125.812 27.0402 124.973C27.5109 124.55 27.9742 124.134 28.4449 123.718H28.4524C28.7736 123.429 29.0874 123.146 29.4012 122.857C29.7225 122.575 30.0438 122.293 30.3651 122.003C32.0238 124.023 32.8755 125.864 33.3537 127.201C33.9963 128.997 33.9514 129.903 34.848 130.995C35.4756 131.752 36.1929 132.168 36.955 132.465C37.3585 133.445 38.0309 134.893 39.0769 136.519C41.2362 139.846 42.9099 140.655 44.0605 142.623C45.0542 144.331 45.8014 147.152 44.3668 151.956Z" fill="url(#paint6_linear_1710_10311)" stroke="#C6BA9B" stroke-width="0.25" stroke-miterlimit="10"/>
        <path d="M30.3642 122.004C30.0429 122.293 29.7216 122.575 29.4004 122.858C28.9595 122.122 28.4216 121.276 27.7641 120.355H27.7566C27.4876 119.969 27.1963 119.568 26.875 119.152C26.4491 118.595 25.6795 117.615 24.6335 116.516C21.8466 113.591 21.0173 114.014 19.9414 112.306C19.4557 111.534 19.6425 111.467 18.6189 106.7C18.1033 104.302 17.8418 103.099 17.4533 101.785C16.9901 100.226 16.3251 98.3989 15.3389 96.3941C15.3463 95.5328 15.4509 94.82 15.5555 94.3076C17.0797 98.8296 18.843 100.797 20.2327 101.748C20.7782 102.119 22.5788 103.225 23.722 105.416C24.0134 105.973 24.1703 106.426 24.2226 106.574C25.149 109.321 23.976 111.222 24.1329 113.257C24.2375 114.526 24.8875 116.323 27.5624 118.388H27.5698C28.0555 119.42 28.8848 120.697 30.3642 122.004Z" fill="url(#paint7_linear_1710_10311)" stroke="#C6BA9B" stroke-width="0.25" stroke-miterlimit="10"/>
        <path d="M29.4005 122.858C29.0867 123.148 28.7729 123.43 28.4516 123.712C26.397 122.286 23.6848 120.987 21.0623 121.715C19.2467 122.219 19.1047 123.229 16.3776 125.056C14.7413 126.147 10.7963 128.82 6.45532 128.026C5.43919 127.84 3.2799 127.269 1.0459 125.123C1.41948 125.294 1.89766 125.479 2.43561 125.628C4.07936 126.407 6.70188 127.321 9.44395 126.578C13.105 125.598 13.9418 122.509 17.3713 120.89C19.3662 119.94 22.706 119.272 28.2648 121.395H28.2723C28.6384 121.804 29.012 122.286 29.4005 122.858Z" fill="url(#paint8_linear_1710_10311)" stroke="#C6BA9B" stroke-width="0.25" stroke-miterlimit="10"/>
        <path d="M28.452 123.711H28.4445C27.9738 124.134 27.5106 124.55 27.0399 124.973C25.3364 124.231 22.8857 123.51 20.5396 124.394C18.5372 125.144 18.4177 126.391 16.2808 127.862C15.967 128.069 11.3197 131.158 6.20167 129.51C2.83199 128.418 0.971565 125.827 0.28418 124.721C0.456026 124.825 0.717531 124.966 1.04628 125.122C3.28028 127.268 5.43957 127.839 6.4557 128.025C10.7967 128.819 14.7417 126.146 16.378 125.055C19.1051 123.228 19.247 122.218 21.0626 121.713C23.6852 120.986 26.3973 122.285 28.452 123.711Z" fill="url(#paint9_linear_1710_10311)" stroke="#C6BA9B" stroke-width="0.25" stroke-miterlimit="10"/>
        <path d="M27.7568 120.356C27.0395 119.732 25.9337 118.848 24.5066 117.876C21.4507 115.811 20.868 116.094 19.3213 114.742C18.5144 114.037 16.0189 111.646 15.6677 107.978C15.5108 106.344 15.8321 105 16.0936 104.191C16.3626 103.827 16.5419 103.441 16.6092 102.832C16.796 101.162 15.7948 100.33 15.4436 97.939C15.3614 97.3895 15.3315 96.8697 15.339 96.3945C16.3252 98.3993 16.9902 100.226 17.4535 101.785C17.842 103.099 18.1035 104.302 18.619 106.701C19.6426 111.468 19.4558 111.535 19.9415 112.307C21.0174 114.015 21.8467 113.591 24.6336 116.517C25.6797 117.616 26.4492 118.596 26.8751 119.153C27.1964 119.569 27.4878 119.97 27.7568 120.356Z" fill="url(#paint10_linear_1710_10311)" stroke="#C6BA9B" stroke-width="0.25" stroke-miterlimit="10"/>
        <path d="M29.4004 122.857C29.0119 122.286 28.6383 121.803 28.2722 121.402H28.2647C26.9049 119.902 25.6721 119.412 24.7157 119.278C23.7295 119.145 23.1318 119.397 21.1892 119.486C19.4109 119.568 17.954 119.449 16.9976 119.33C15.4958 118.053 14.7262 116.732 14.3377 115.922C12.948 113.019 12.9256 109.262 14.4498 106.411C15.0774 105.245 15.6826 104.755 16.0935 104.19C15.832 105 15.5108 106.344 15.6677 107.977C16.0188 111.645 18.5143 114.036 19.3213 114.742C20.8679 116.093 21.4507 115.811 24.5065 117.875C25.9336 118.848 27.0394 119.731 27.7567 120.355H27.7641C28.4216 121.276 28.9596 122.122 29.4004 122.857Z" fill="url(#paint11_linear_1710_10311)" stroke="#C6BA9B" stroke-width="0.25" stroke-miterlimit="10"/>
        <path d="M28.2648 121.395C22.7059 119.271 19.3661 119.94 17.3712 120.89C13.9418 122.509 13.105 125.598 9.44388 126.578C6.70182 127.32 4.07929 126.407 2.43555 125.627C3.38444 125.872 4.55747 125.999 5.82017 125.716C8.57718 125.085 10.191 122.865 10.5198 122.412C11.7078 120.779 11.5359 119.784 12.6268 119.115C13.9044 118.328 15.6453 118.774 16.9976 119.331C17.954 119.45 19.411 119.568 21.1892 119.487C23.1318 119.398 23.7295 119.145 24.7158 119.279C25.6721 119.412 26.905 119.902 28.2648 121.395Z" fill="url(#paint12_linear_1710_10311)" stroke="#C6BA9B" stroke-width="0.25" stroke-miterlimit="10"/>
        <path d="M27.5625 118.388C24.8877 116.323 24.2376 114.526 24.133 113.257C23.9761 111.222 25.1492 109.321 24.2227 106.574C24.1704 106.426 24.0135 105.973 23.7221 105.416C22.5789 103.225 20.7783 102.119 20.2329 101.748C18.8432 100.797 17.0799 98.8296 15.5557 94.3076C17.0425 96.9064 18.7012 98.1019 19.9863 98.7108C21.4358 99.3939 22.5864 99.4162 24.0807 100.574C25.4406 101.636 26.1205 102.891 26.4044 103.441C28.8999 108.178 25.2463 112.351 27.2337 117.63C27.3234 117.868 27.428 118.12 27.5625 118.388Z" fill="url(#paint13_linear_1710_10311)" stroke="#C6BA9B" stroke-width="0.25" stroke-miterlimit="10"/>
        <path d="M2.43651 125.627C2.43651 125.627 2.42155 125.612 2.41406 125.612" stroke="#C6BA9B" stroke-width="0.25" stroke-miterlimit="10"/>
        <path d="M59.7949 119.45C57.6207 118.848 54.8114 122.101 53.5113 126.719C52.3981 130.677 52.7567 134.352 54.2585 135.689L53.4515 135.236L52.3383 134.597L52.2038 134.523L49.5813 133.038C49.2899 131.627 48.7743 128.167 50.2612 124.172C51.7331 120.207 54.3705 117.92 55.5137 117.029L59.7949 119.45Z" fill="url(#paint14_linear_1710_10311)" stroke="#C6BA9B" stroke-width="0.25" stroke-miterlimit="10"/>
        <path d="M55.5145 117.029C54.3714 117.92 51.7339 120.207 50.262 124.172C48.7752 128.167 49.2907 131.627 49.5821 133.038L45.5176 130.743C45.2336 129.125 44.9198 126.117 45.9434 122.576C47.1837 118.291 49.7091 115.596 50.9344 114.438L55.5145 117.029Z" fill="url(#paint15_linear_1710_10311)" stroke="#C6BA9B" stroke-width="0.25" stroke-miterlimit="10"/>
        <path d="M50.9342 114.438C49.7089 115.596 47.1835 118.291 45.9432 122.576C44.9196 126.117 45.2334 129.125 45.5173 130.743L43.9856 129.875C41.8114 129.266 41.1016 125.041 42.3942 120.422C43.6942 115.811 46.5036 112.559 48.6778 113.16L49.5146 113.636L50.9342 114.438Z" fill="url(#paint16_linear_1710_10311)" stroke="#C6BA9B" stroke-width="0.25" stroke-miterlimit="10"/>
        <path d="M62.0285 124.543C62.021 125.872 61.8118 127.357 61.3784 128.894C61.2589 129.31 61.1319 129.718 60.9899 130.104C59.8019 133.431 57.8444 135.829 56.0736 136.178C55.7374 136.252 55.4086 136.245 55.0948 136.156C54.7885 136.067 54.5046 135.911 54.258 135.681C52.7562 134.344 52.3976 130.669 53.5109 126.711C54.8109 122.093 57.6202 118.84 59.7945 119.442C60.7359 119.702 61.4009 120.645 61.7445 122.003C61.9388 122.746 62.0359 123.607 62.0285 124.543Z" fill="url(#paint17_linear_1710_10311)" stroke="#C6BA9B" stroke-width="0.25" stroke-miterlimit="10"/>
        <path d="M68.9025 131.412C68.2376 132.028 67.5577 132.734 66.8852 133.528C66.2128 134.33 65.6375 135.124 65.1443 135.882C65.0547 134.62 64.8754 133.224 64.5466 131.724C63.9265 128.813 62.9552 126.4 62.0287 124.544C62.0362 123.608 61.939 122.747 61.7448 122.012C61.4011 120.645 60.7361 119.702 59.7947 119.442C59.2866 117.957 58.4872 115.529 57.5906 112.507C55.5807 105.706 55.0951 102.632 53.272 96.4986C52.211 92.9048 51.3144 90.3876 50.2012 87.2616C46.5102 76.8738 44.0371 72.3296 38.3288 58.8825C31.7016 43.2376 30.5136 39.3617 26.0456 30.7484C24.6409 28.0308 23.7144 26.427 21.9213 22.7441C18.6637 16.0614 17.5728 12.8908 14.5319 7.7303C13.0899 5.27999 11.7898 3.37171 10.9605 2.19853C10.7737 1.81984 10.0415 0.305102 10.3254 0.112047C10.6317 -0.0958587 11.9691 1.35948 12.2082 1.62679C13.9491 4.35926 16.6015 8.50253 19.9039 13.5071C25.8737 22.5584 28.8026 26.6349 30.6107 29.3451C37.9329 40.2898 35.527 43.3341 43.3946 62.016C51.4489 81.1358 55.5807 81.7967 59.3389 96.4986C60.0412 99.2533 60.624 102.105 61.7074 106.478C61.4683 106.656 61.2442 106.79 61.0649 106.894C61.3114 107.013 61.6028 107.169 61.9241 107.362C62.3799 109.181 62.9103 111.245 63.5678 113.658C65.63 121.217 67.5651 127.35 68.9025 131.412Z" fill="url(#paint18_linear_1710_10311)" stroke="#C9BC9C" stroke-width="0.25" stroke-miterlimit="10"/>
        <path d="M61.745 122.004L59.7949 119.442C60.7363 119.702 61.4013 120.645 61.745 122.004Z" fill="url(#paint19_linear_1710_10311)" stroke="#C6BA9B" stroke-width="0.25" stroke-miterlimit="10"/>
        <path d="M61.9247 107.361C61.6034 107.168 61.312 107.012 61.0654 106.893C61.2447 106.789 61.4689 106.656 61.708 106.478C61.7752 106.767 61.8499 107.057 61.9247 107.361Z" fill="url(#paint20_linear_1710_10311)" stroke="#C6BA9B" stroke-width="0.25" stroke-miterlimit="10"/>
        <path d="M53.4515 135.235C51.4267 138.332 50.7467 140.982 50.4927 142.794C50.291 144.272 50.276 146.269 50.2461 150.256C50.2387 151.519 50.2387 152.558 50.2461 153.271C50.164 153.249 50.0743 153.234 49.9846 153.212C48.58 152.915 47.5639 152.677 47.2725 152.61C47.7133 151.311 48.9386 147.294 47.7581 142.972C48.2213 141.383 48.9461 139.497 50.1191 137.515C50.799 136.356 51.5163 135.362 52.2037 134.522L52.3382 134.597L53.4515 135.235Z" fill="url(#paint21_linear_1710_10311)" stroke="#C6BA9B" stroke-width="0.25" stroke-miterlimit="10"/>
        <path d="M54.2581 135.688C54.1759 137.47 54.0937 139.26 54.019 141.057C53.892 144.272 53.7799 147.465 53.6828 150.628C53.1299 151.571 52.5994 152.581 52.0988 153.657H52.0913C51.658 153.568 51.0229 153.435 50.2458 153.271C50.2384 152.558 50.2384 151.519 50.2458 150.257C50.2757 146.269 50.2907 144.272 50.4924 142.794C50.7464 140.982 51.4263 138.332 53.4511 135.235L54.2581 135.688Z" fill="url(#paint22_linear_1710_10311)" stroke="#C6BA9B" stroke-width="0.25" stroke-miterlimit="10"/>
        <path d="M56.4322 146.477C55.5281 147.673 54.5867 149.061 53.6826 150.628C53.7797 147.465 53.8918 144.272 54.0188 141.057C54.0936 139.26 54.1757 137.471 54.2579 135.688C54.5045 135.919 54.7884 136.075 55.0947 136.164C55.4086 136.253 55.7373 136.26 56.0735 136.186C56.3873 137.485 56.6712 139.074 56.7609 140.894C56.873 143.084 56.6862 144.977 56.4322 146.477Z" fill="url(#paint23_linear_1710_10311)" stroke="#C6BA9B" stroke-width="0.25" stroke-miterlimit="10"/>
        <path d="M65.1445 135.889V135.881" stroke="#C6BA9B" stroke-width="0.25" stroke-miterlimit="10"/>
        <path d="M12.2612 4.09863C10.9537 8.32357 2.64531 36.8958 19.9121 62.7503C29.9988 77.8458 43.8735 84.6398 50.2019 87.2609" stroke="#241916" stroke-miterlimit="10" stroke-linecap="round"/>
        <path d="M50.2012 87.2607C49.9172 89.6368 49.8201 92.5178 50.246 95.7477C51.3518 104.198 55.3939 110.234 57.8371 113.316" stroke="#241916" stroke-miterlimit="10" stroke-linecap="round"/>
    </g>
    <defs>
        <linearGradient id="paint0_linear_1710_10311" x1="16.3255" y1="145.199" x2="19.1572" y2="145.199" gradientUnits="userSpaceOnUse">
            <stop stop-color="#5A4021"/>
            <stop offset="1" stop-color="#B28247"/>
        </linearGradient>
        <linearGradient id="paint1_linear_1710_10311" x1="16.5576" y1="159.145" x2="52.0924" y2="159.145" gradientUnits="userSpaceOnUse">
            <stop stop-color="#C59D62"/>
            <stop offset="1" stop-color="#C9BC9C"/>
        </linearGradient>
        <linearGradient id="paint2_linear_1710_10311" x1="39.1065" y1="177.811" x2="39.1065" y2="168.56" gradientUnits="userSpaceOnUse">
            <stop stop-color="#5A4021"/>
            <stop offset="1" stop-color="#B28247"/>
        </linearGradient>
        <linearGradient id="paint3_linear_1710_10311" x1="38.2689" y1="182.029" x2="38.2689" y2="175.331" gradientUnits="userSpaceOnUse">
            <stop stop-color="#5A4021"/>
            <stop offset="1" stop-color="#B28247"/>
        </linearGradient>
        <linearGradient id="paint4_linear_1710_10311" x1="19.2019" y1="209.028" x2="53.6982" y2="209.028" gradientUnits="userSpaceOnUse">
            <stop stop-color="#C59D62"/>
            <stop offset="1" stop-color="#C9BC9C"/>
        </linearGradient>
        <linearGradient id="paint5_linear_1710_10311" x1="36.9541" y1="142.534" x2="48.2586" y2="142.534" gradientUnits="userSpaceOnUse">
            <stop stop-color="#BC5457"/>
            <stop offset="1" stop-color="#D88876"/>
        </linearGradient>
        <linearGradient id="paint6_linear_1710_10311" x1="18.291" y1="136.98" x2="45.1663" y2="136.98" gradientUnits="userSpaceOnUse">
            <stop stop-color="#BC5457"/>
            <stop offset="1" stop-color="#D88876"/>
        </linearGradient>
        <linearGradient id="paint7_linear_1710_10311" x1="22.8553" y1="122.858" x2="22.8553" y2="94.3076" gradientUnits="userSpaceOnUse">
            <stop stop-color="#BC5457"/>
            <stop offset="1" stop-color="#D88876"/>
        </linearGradient>
        <linearGradient id="paint8_linear_1710_10311" x1="15.2269" y1="128.167" x2="15.2269" y2="119.984" gradientUnits="userSpaceOnUse">
            <stop stop-color="#BC5457"/>
            <stop offset="1" stop-color="#D88876"/>
        </linearGradient>
        <linearGradient id="paint9_linear_1710_10311" x1="14.3681" y1="129.985" x2="14.3681" y2="121.498" gradientUnits="userSpaceOnUse">
            <stop stop-color="#BC5457"/>
            <stop offset="1" stop-color="#D88876"/>
        </linearGradient>
        <linearGradient id="paint10_linear_1710_10311" x1="21.5479" y1="120.356" x2="21.5479" y2="96.3945" gradientUnits="userSpaceOnUse">
            <stop stop-color="#BC5457"/>
            <stop offset="1" stop-color="#D88876"/>
        </linearGradient>
        <linearGradient id="paint11_linear_1710_10311" x1="21.3535" y1="122.857" x2="21.3535" y2="104.19" gradientUnits="userSpaceOnUse">
            <stop stop-color="#BC5457"/>
            <stop offset="1" stop-color="#D88876"/>
        </linearGradient>
        <linearGradient id="paint12_linear_1710_10311" x1="15.3539" y1="126.852" x2="15.3539" y2="118.685" gradientUnits="userSpaceOnUse">
            <stop stop-color="#BC5457"/>
            <stop offset="1" stop-color="#D88876"/>
        </linearGradient>
        <linearGradient id="paint13_linear_1710_10311" x1="21.5628" y1="118.388" x2="21.5628" y2="94.3076" gradientUnits="userSpaceOnUse">
            <stop stop-color="#BC5457"/>
            <stop offset="1" stop-color="#D88876"/>
        </linearGradient>
        <linearGradient id="paint14_linear_1710_10311" x1="49.2525" y1="126.355" x2="59.7949" y2="126.355" gradientUnits="userSpaceOnUse">
            <stop stop-color="#9FA0A0"/>
            <stop offset="1" stop-color="#F7F9F9"/>
        </linearGradient>
        <linearGradient id="paint15_linear_1710_10311" x1="45.2411" y1="123.734" x2="55.5145" y2="123.734" gradientUnits="userSpaceOnUse">
            <stop stop-color="#9FA0A0"/>
            <stop offset="1" stop-color="#F7F9F9"/>
        </linearGradient>
        <linearGradient id="paint16_linear_1710_10311" x1="41.7516" y1="121.915" x2="50.9342" y2="121.915" gradientUnits="userSpaceOnUse">
            <stop stop-color="#9FA0A0"/>
            <stop offset="1" stop-color="#F7F9F9"/>
        </linearGradient>
        <linearGradient id="paint17_linear_1710_10311" x1="52.8608" y1="127.803" x2="62.0285" y2="127.803" gradientUnits="userSpaceOnUse">
            <stop stop-color="#9FA0A0"/>
            <stop offset="1" stop-color="#F7F9F9"/>
        </linearGradient>
        <linearGradient id="paint18_linear_1710_10311" x1="10.2581" y1="67.9858" x2="68.9025" y2="67.9858" gradientUnits="userSpaceOnUse">
            <stop stop-color="#C9BC9C"/>
            <stop offset="1" stop-color="#C9A063"/>
        </linearGradient>
        <linearGradient id="paint19_linear_1710_10311" x1="59.7949" y1="120.727" x2="61.745" y2="120.727" gradientUnits="userSpaceOnUse">
            <stop stop-color="#C59D62"/>
            <stop offset="1" stop-color="#C9BC9C"/>
        </linearGradient>
        <linearGradient id="paint20_linear_1710_10311" x1="61.0654" y1="106.923" x2="61.9247" y2="106.923" gradientUnits="userSpaceOnUse">
            <stop stop-color="#C59D62"/>
            <stop offset="1" stop-color="#C9BC9C"/>
        </linearGradient>
        <linearGradient id="paint21_linear_1710_10311" x1="47.2725" y1="143.893" x2="53.4515" y2="143.893" gradientUnits="userSpaceOnUse">
            <stop stop-color="#BC5457"/>
            <stop offset="1" stop-color="#D88876"/>
        </linearGradient>
        <linearGradient id="paint22_linear_1710_10311" x1="50.2384" y1="144.443" x2="54.2581" y2="144.443" gradientUnits="userSpaceOnUse">
            <stop stop-color="#BC5457"/>
            <stop offset="1" stop-color="#D88876"/>
        </linearGradient>
        <linearGradient id="paint23_linear_1710_10311" x1="53.6826" y1="143.158" x2="56.7908" y2="143.158" gradientUnits="userSpaceOnUse">
            <stop stop-color="#BC5457"/>
            <stop offset="1" stop-color="#D88876"/>
        </linearGradient>
        <clipPath id="clip0_1710_10311">
            <rect width="69" height="238" fill="white"/>
        </clipPath>
    </defs>
</svg>
