<svg xmlns="http://www.w3.org/2000/svg" width="92" height="72" viewBox="0 0 92 72" fill="none">
    <g filter="url(#filter0_d_1246_4963)">
        <path d="M42.91 36.0298V36.2198C42.88 40.7398 41.89 44.9198 40.21 48.3098C37.7 53.4298 33.65 56.7498 29.08 56.7498C25.98 56.7498 23.12 55.2198 20.81 52.6398C17.44 48.8598 15.25 42.8298 15.25 36.0298C15.25 34.4998 15.36 33.0198 15.57 31.5898C16.09 27.9898 17.24 24.7398 18.84 22.0998C21.37 17.9198 25.02 15.2998 29.08 15.2998C32.71 15.2998 36.01 17.3898 38.47 20.8098C40.7 23.9098 42.26 28.1098 42.74 32.8298C42.79 33.2398 42.82 33.6698 42.85 34.0898C42.89 34.7298 42.91 35.3798 42.91 36.0298Z" fill="white"/>
        <path d="M42.91 36.0298V36.2198C42.88 40.7398 41.89 44.9198 40.21 48.3098C37.7 53.4298 33.65 56.7498 29.08 56.7498C25.98 56.7498 23.12 55.2198 20.81 52.6398C17.44 48.8598 15.25 42.8298 15.25 36.0298C15.25 34.4998 15.36 33.0198 15.57 31.5898C16.09 27.9898 17.24 24.7398 18.84 22.0998C21.37 17.9198 25.02 15.2998 29.08 15.2998C32.71 15.2998 36.01 17.3898 38.47 20.8098C40.7 23.9098 42.26 28.1098 42.74 32.8298C42.79 33.2398 42.82 33.6698 42.85 34.0898C42.89 34.7298 42.91 35.3798 42.91 36.0298Z" stroke="#C9BC9C" stroke-width="0.25" stroke-miterlimit="10"/>
    </g>
    <g filter="url(#filter1_d_1246_4963)">
        <path d="M75.9103 32.0504C75.9103 40.2104 72.4003 46.8304 68.0503 46.9104C65.7803 42.2004 65.0803 41.2304 63.9103 40.1904C63.3103 39.6504 62.2103 38.7004 60.6803 37.9604C60.4303 36.8704 60.2403 35.7104 60.1403 34.5104C60.0703 33.7104 60.0303 32.8904 60.0303 32.0504C60.0303 31.4404 60.0503 30.8404 60.0903 30.2504C60.2103 28.3904 60.5103 26.6304 60.9703 25.0404C62.3003 20.3704 64.9403 17.1904 67.9703 17.1904C68.7403 17.1904 69.4903 17.4004 70.2003 17.7904C73.5003 19.5804 75.9103 25.2904 75.9103 32.0504Z" fill="white"/>
        <path d="M75.9103 32.0504C75.9103 40.2104 72.4003 46.8304 68.0503 46.9104C65.7803 42.2004 65.0803 41.2304 63.9103 40.1904C63.3103 39.6504 62.2103 38.7004 60.6803 37.9604C60.4303 36.8704 60.2403 35.7104 60.1403 34.5104C60.0703 33.7104 60.0303 32.8904 60.0303 32.0504C60.0303 31.4404 60.0503 30.8404 60.0903 30.2504C60.2103 28.3904 60.5103 26.6304 60.9703 25.0404C62.3003 20.3704 64.9403 17.1904 67.9703 17.1904C68.7403 17.1904 69.4903 17.4004 70.2003 17.7904C73.5003 19.5804 75.9103 25.2904 75.9103 32.0504Z" stroke="#C9BC9C" stroke-width="0.25" stroke-miterlimit="10"/>
    </g>
    <path d="M60.1402 34.5097C59.6202 33.6297 57.6002 30.4597 54.1802 29.8797C50.7202 29.2997 46.6802 31.5297 44.2902 35.7297C43.8202 35.8197 43.3602 35.9797 42.9102 36.2197V36.0297C42.9102 35.3797 42.8902 34.7297 42.8502 34.0897C42.8202 33.6697 42.7902 33.2397 42.7402 32.8297C45.2002 28.9597 49.3302 26.7197 53.4502 27.0797C56.6302 27.3597 58.9102 29.1097 60.0902 30.2497C60.0502 30.8397 60.0302 31.4397 60.0302 32.0497C60.0302 32.8897 60.0702 33.7097 60.1402 34.5097Z" fill="url(#paint0_linear_1246_4963)" stroke="#C9BC9C" stroke-width="0.25" stroke-miterlimit="10"/>
    <path d="M47.95 43.4204C47.32 45.4704 48.15 46.0404 47.58 47.6404C47.03 49.2004 45.28 51.2504 43.21 50.9704C41.95 50.8004 40.79 49.7704 40.21 48.3204C41.89 44.9204 42.88 40.7404 42.91 36.2204C43.36 35.9804 43.82 35.8204 44.29 35.7304C45.57 35.4804 46.85 35.7204 47.8 36.4504C48.56 37.0404 49.09 37.9004 49.31 38.8004C49.43 39.2304 49.47 39.6604 49.43 40.0804C49.31 41.4904 48.51 41.6104 47.95 43.4204Z" fill="url(#paint1_linear_1246_4963)" stroke="#C9BC9C" stroke-width="0.25" stroke-miterlimit="10"/>
    <defs>
        <filter id="filter0_d_1246_4963" x="5.125" y="5.1748" width="47.9102" height="61.7002" filterUnits="userSpaceOnUse" color-interpolation-filters="sRGB">
            <feFlood flood-opacity="0" result="BackgroundImageFix"/>
            <feColorMatrix in="SourceAlpha" type="matrix" values="0 0 0 0 0 0 0 0 0 0 0 0 0 0 0 0 0 0 127 0" result="hardAlpha"/>
            <feOffset/>
            <feGaussianBlur stdDeviation="5"/>
            <feColorMatrix type="matrix" values="0 0 0 0 1 0 0 0 0 1 0 0 0 0 1 0 0 0 0.75 0"/>
            <feBlend mode="normal" in2="BackgroundImageFix" result="effect1_dropShadow_1246_4963"/>
            <feBlend mode="normal" in="SourceGraphic" in2="effect1_dropShadow_1246_4963" result="shape"/>
        </filter>
        <filter id="filter1_d_1246_4963" x="49.9053" y="7.06543" width="36.1299" height="49.9717" filterUnits="userSpaceOnUse" color-interpolation-filters="sRGB">
            <feFlood flood-opacity="0" result="BackgroundImageFix"/>
            <feColorMatrix in="SourceAlpha" type="matrix" values="0 0 0 0 0 0 0 0 0 0 0 0 0 0 0 0 0 0 127 0" result="hardAlpha"/>
            <feOffset/>
            <feGaussianBlur stdDeviation="5"/>
            <feColorMatrix type="matrix" values="0 0 0 0 1 0 0 0 0 1 0 0 0 0 1 0 0 0 0.75 0"/>
            <feBlend mode="normal" in2="BackgroundImageFix" result="effect1_dropShadow_1246_4963"/>
            <feBlend mode="normal" in="SourceGraphic" in2="effect1_dropShadow_1246_4963" result="shape"/>
        </filter>
        <linearGradient id="paint0_linear_1246_4963" x1="42.7402" y1="31.6297" x2="60.1402" y2="31.6297" gradientUnits="userSpaceOnUse">
            <stop stop-color="#3F3B3A"/>
            <stop offset="1" stop-color="#050C05"/>
        </linearGradient>
        <linearGradient id="paint1_linear_1246_4963" x1="40.21" y1="43.3204" x2="49.44" y2="43.3204" gradientUnits="userSpaceOnUse">
            <stop stop-color="#C9BC9C"/>
            <stop offset="1" stop-color="#C9A063"/>
        </linearGradient>
    </defs>
</svg>
