<svg xmlns="http://www.w3.org/2000/svg" width="90" height="83" viewBox="0 0 90 83" fill="none">
    <g clip-path="url(#clip0_1710_10879)">
        <path d="M67.28 10.6855L67.1035 10.7736" stroke="#C9BC9C" stroke-width="0.25" stroke-miterlimit="10"/>
        <path d="M87.3871 29.4424C86.3465 31.0145 85.2649 32.1628 84.429 32.9472C84.237 33.1144 84.0117 33.3294 83.7551 33.5623C82.088 35.0611 78.9854 37.4634 74.7524 37.6526C73.2941 37.7225 72.076 37.5082 71.1991 37.2873C71.12 37.2719 71.0415 37.2464 70.9724 37.2316C71.4433 35.7806 72.0443 33.6068 72.3597 30.9221C72.6469 28.3558 72.5279 26.5934 72.4783 24.1141C72.4298 21.7652 72.4194 18.4266 72.6516 14.3329C72.846 13.1134 73.3537 11.2739 74.7831 9.58827C75.1652 9.13348 77.8939 5.90354 81.0588 6.52273C81.3653 6.58396 82.2436 6.78485 83.2959 7.65932C83.4002 7.74669 83.4944 7.83338 83.5973 7.94071C85.7818 9.98584 86.2589 13.096 86.5913 15.8354C87.0017 19.3319 87.3757 23.9385 87.3864 29.4523L87.3871 29.4424Z" fill="url(#paint0_linear_1710_10879)" stroke="#C9BC9C" stroke-width="0.25" stroke-miterlimit="10"/>
        <path d="M83.7568 33.5518C83.7076 34.4105 83.6869 35.2911 83.6742 36.2024C83.6636 36.5024 83.6636 36.7931 83.6636 37.0838C81.4819 37.9056 78.9747 39.0859 76.372 40.7809C74.9657 41.6963 73.7269 42.6534 72.6505 43.5815C72.6319 43.2695 72.5834 42.9554 72.5462 42.6221C72.229 40.2446 71.6053 38.3873 71.1908 37.2762C72.0577 37.4963 73.2858 37.7113 74.7441 37.6415C78.9771 37.4522 82.0797 35.05 83.7468 33.5511L83.7568 33.5518Z" fill="url(#paint1_linear_1710_10879)" stroke="#C9BC9C" stroke-width="0.25" stroke-miterlimit="10"/>
        <path d="M86.3133 38.0485C86.1719 40.5347 85.861 43.2998 85.3054 46.2686C84.979 47.9502 84.6088 49.5385 84.2163 51.0149C82.9872 52.123 81.3986 53.3567 79.4143 54.5129C76.8446 56.0197 74.4279 56.9055 72.5369 57.4367C72.5142 54.859 72.5496 52.7465 72.5902 51.2858C72.6411 49.0941 72.7136 47.6056 72.7398 46.3544C74.4388 45.1184 76.2696 43.8613 78.2401 42.6139C81.0479 40.8529 83.7587 39.3358 86.3133 38.0485Z" fill="url(#paint2_linear_1710_10879)" stroke="#C9BC9C" stroke-width="0.25" stroke-miterlimit="10"/>
        <path d="M86.3132 38.0483C83.7586 39.3357 81.0578 40.8535 78.24 42.6138C76.2695 43.8612 74.4287 45.1175 72.7403 46.3443C72.7599 45.3332 72.7379 44.4897 72.6601 43.5822C73.7365 42.6541 74.9746 41.707 76.3816 40.7816C78.9851 39.0767 81.4922 37.8963 83.6732 37.0844C83.6708 37.2647 83.6791 37.4357 83.6873 37.6067C84.5591 37.757 85.4415 37.898 86.3232 38.049L86.3132 38.0483Z" fill="url(#paint3_linear_1710_10879)" stroke="#C9BC9C" stroke-width="0.25" stroke-miterlimit="10"/>
        <path d="M81.0596 6.51379C77.8947 5.89461 75.1653 9.13452 74.7838 9.57933C73.3644 11.2657 72.8467 13.1044 72.6524 14.3239C72.4202 18.4177 72.4206 21.7556 72.4791 24.1052C72.5286 26.5845 72.647 28.3568 72.3605 30.9132C72.055 33.5985 71.454 35.7723 70.9731 37.2227C71.0423 37.2375 71.1207 37.2629 71.1998 37.2784C71.6144 38.3896 72.2281 40.2462 72.5553 42.6243C72.5924 42.9577 72.6409 43.2717 72.6595 43.5838C72.7473 44.4919 72.7593 45.3348 72.7397 46.3458C72.7129 47.607 72.6403 49.0955 72.5894 51.2872C72.5488 52.7478 72.5134 54.8604 72.5362 57.4381C72.0735 57.316 71.2898 57.0514 70.501 56.4257C69.7686 55.8539 69.3403 55.233 69.1077 54.8261C69.1125 50.1052 69.0973 45.383 69.0928 40.6514C68.3852 39.7206 67.618 38.3445 67.6902 36.7156C67.7521 35.5271 68.2434 34.7991 68.7336 33.6501C69.3762 32.1809 69.6049 30.7532 70.0404 27.9265C70.8423 22.8396 69.794 21.6146 70.4349 15.3739C70.8294 11.542 71.3802 10.3871 71.8528 9.63784C73.395 7.18813 75.8375 6.07351 77.2861 5.56195C78.5472 5.87946 79.8091 6.187 81.0602 6.50382L81.0596 6.51379Z" fill="url(#paint4_linear_1710_10879)" stroke="#C9BC9C" stroke-width="0.25" stroke-miterlimit="10"/>
        <path opacity="0.7" d="M77.2857 5.55936C75.8378 6.06094 73.3947 7.18553 71.8525 9.63525C71.3898 10.3852 70.8291 11.5394 70.4345 15.3713C69.7937 21.612 70.8319 22.8363 70.0401 27.9239C69.6039 30.7606 69.3758 32.1783 68.7332 33.6476C68.243 34.7966 67.7518 35.5245 67.6899 36.713C67.6176 38.3419 68.3948 39.7186 69.0924 40.6488C69.097 45.3804 69.1022 50.1019 69.1074 54.8235C67.6391 53.1485 64.8867 50.4728 60.6312 48.8061C58.68 48.03 56.8801 47.6754 55.4091 47.4938C54.9389 46.6093 54.1844 44.9034 54.0857 42.7014C54.0633 42.2989 54.0723 41.8785 54.1018 41.4495C54.193 40.273 54.4355 37.1924 56.9154 35.098C58.213 34.0147 59.6128 33.6301 60.4054 33.4742C61.0525 32.6669 62.0095 31.2894 62.6039 29.3557C63.303 27.0684 63.1777 25.1051 63.0219 24.0218C64.0721 22.31 64.6975 20.7995 65.0866 19.6636C65.1468 19.5174 65.197 19.3705 65.2366 19.2329C65.4939 18.4086 65.6122 17.8554 66.5867 13.1714C66.8234 12.065 66.9748 11.3237 67.0917 10.7905C67.2974 9.84238 67.3824 9.62772 67.5661 9.28956C68.9937 6.61142 71.6653 5.66296 72.0048 5.53602C72.1899 5.46859 72.3843 5.41182 72.5773 5.37501C74.823 4.78811 76.6875 5.36775 77.2844 5.57931L77.2857 5.55936Z" fill="url(#paint5_linear_1710_10879)" stroke="#C9BC9C" stroke-width="0.25" stroke-miterlimit="10"/>
        <path d="M47.4633 47.7593C47.3402 47.8009 47.2277 47.8332 47.1038 47.8848C45.5761 48.3809 43.8196 49.1419 41.995 50.3091C36.6563 53.74 34.1661 58.6002 33.1475 61.0159C33.0487 61.1394 32.9094 61.2701 32.7594 61.4101C32.3095 61.8301 31.6579 62.2664 30.8557 62.2712C29.6131 62.2657 28.7149 61.1914 28.2333 60.6169C22.1411 53.1701 19.4633 49.2667 19.4633 49.2667C18.1055 47.2986 16.8973 45.6315 14.9405 42.9004C13.5215 40.9482 12.3584 39.3544 11.5785 38.3083C11.5627 38.247 11.5468 38.1858 11.5317 38.1146C11.4051 37.6247 11.2864 36.8748 11.3483 35.9769C11.3483 35.9769 11.4419 34.6201 12.165 33.1464C13.0738 31.3046 16.3639 27.4919 21.3475 23.1043C21.7215 22.7692 22.6751 22.0231 24.0896 21.86C24.5946 21.8046 25.0336 21.8349 25.3907 21.8896C25.5895 21.9133 25.767 21.9556 25.9246 21.9965C29.4259 23.8418 33.5703 26.3929 37.8894 29.8983C38.5911 30.478 39.2737 31.0463 39.9249 31.6325C42.8744 34.2115 45.2953 36.7541 47.2524 39.0441C47.3116 41.9651 47.3814 44.8768 47.4413 47.7878L47.4633 47.7593Z" fill="url(#paint6_linear_1710_10879)" stroke="#C9BC9C" stroke-width="0.25" stroke-miterlimit="10"/>
        <path d="M60.7459 71.86C60.6888 72.6881 60.5488 73.4101 60.3871 74.0104C57.6522 75.8767 54.928 77.7337 52.1932 79.6C51.5736 79.7177 50.2089 79.8842 48.6337 79.3245C47.323 78.8532 46.4547 78.0716 46.0347 77.6217C45.1179 76.8167 44.2111 76.0124 43.2943 75.2074C41.707 73.8049 40.1097 72.4017 38.5224 70.9992C39.0034 68.9675 40.0825 65.6739 42.6343 62.3917C46.6499 57.2156 51.8348 55.2878 53.935 54.6307C55.6038 57.3219 57.2823 60.4547 58.7908 64.017C59.4114 65.4831 59.9536 66.9238 60.4393 68.3105C60.6502 69.1771 60.8456 70.4135 60.7459 71.86Z" fill="url(#paint7_linear_1710_10879)" stroke="#C9BC9C" stroke-width="0.25" stroke-miterlimit="10"/>
        <path d="M53.9367 54.6211C51.8366 55.2782 46.6616 57.2068 42.6361 62.3821C40.0842 65.6643 39.0051 68.9579 38.5242 70.9896C37.8712 69.1203 37.197 67.2695 36.5433 65.4101C37.5998 63.3179 39.6896 59.9035 43.5091 56.9894C45.7421 55.279 47.9196 54.2263 49.618 53.5816C51.0581 53.9214 52.4967 54.2813 53.9467 54.6218L53.9367 54.6211Z" fill="url(#paint8_linear_1710_10879)" stroke="#C9BC9C" stroke-width="0.25" stroke-miterlimit="10"/>
        <path d="M49.6073 53.581C47.9089 54.2257 45.7313 55.2784 43.4984 56.9889C39.6789 59.903 37.599 63.318 36.5326 65.4096C36.0792 64.7168 35.4823 63.9239 34.7059 63.1185C34.023 62.4099 33.3604 61.843 32.7588 61.4105C32.9088 61.2705 33.0481 61.1398 33.1468 61.0163C34.1654 58.6007 36.6556 53.7404 41.9943 50.3096C43.8189 49.1423 45.5754 48.3814 47.1032 47.8853C47.0392 48.5224 46.9776 49.8513 47.6182 51.3188C48.0689 52.3423 48.6812 53.0561 49.114 53.4668C49.2715 53.5078 49.4391 53.5494 49.6073 53.581Z" fill="url(#paint9_linear_1710_10879)" stroke="#C9BC9C" stroke-width="0.25" stroke-miterlimit="10"/>
        <path d="M25.4008 21.8793C25.0437 21.8246 24.6048 21.7943 24.0997 21.8497C22.6759 22.0021 21.7316 22.7589 21.3576 23.094C16.3647 27.4709 13.0839 31.2943 12.1751 33.1361C11.452 34.6099 11.3584 35.9666 11.3584 35.9666C11.2965 36.8645 11.4152 37.6144 11.5418 38.1043C10.8431 37.3344 10.1238 36.5731 9.42508 35.8032C9.37003 35.4386 9.33528 34.925 9.35798 34.3051C9.50588 30.9974 11.4815 28.6578 13.1042 26.785C15.88 23.5984 19.0249 21.6 21.5162 20.3584C22.8142 20.8689 24.1121 21.3794 25.4108 21.88L25.4008 21.8793Z" fill="url(#paint10_linear_1710_10879)" stroke="#C9BC9C" stroke-width="0.25" stroke-miterlimit="10"/>
        <path opacity="0.7" d="M43.296 75.1971C41.1611 74.1778 39.332 73.8111 37.874 73.7306C36.0377 73.614 33.3964 73.8328 31.8704 72.1238C31.3953 71.5999 31.1472 70.9813 31.001 70.3397C30.8562 69.6782 30.8524 69.0064 30.8923 68.4277C23.6037 60.3071 19.976 54.9148 18.0103 51.4413C17.6174 50.7426 16.5204 48.7725 14.8522 46.0713C14.4467 45.4119 14.0039 44.7098 13.5333 43.9756C11.6966 41.1025 10.0986 38.8372 9.06556 37.3927C8.79344 36.8327 8.42294 35.9551 8.1601 34.8243C7.93752 33.8367 7.80919 32.645 7.91995 31.3295C8.29213 27.0951 10.9651 24.3825 12.2541 23.2786C12.4667 23.1028 12.6473 22.9549 12.7639 22.8627C16.4554 20.06 20.4814 20.2574 21.5083 20.3383C19.0169 21.5798 15.872 23.5782 13.0962 26.7648C11.4742 28.6276 9.49861 30.9673 9.35003 34.2849C9.32733 34.9048 9.36139 35.4284 9.41712 35.7831C10.1158 36.553 10.8351 37.3142 11.5338 38.0841C11.559 38.156 11.5648 38.2166 11.5806 38.2778C12.3505 39.3233 13.5236 40.9177 14.9427 42.87C16.9094 45.6017 18.1069 47.2781 19.4655 49.2362C19.4655 49.2362 22.1426 53.1496 28.2354 60.5864C28.7071 61.1602 29.6146 62.2452 30.8578 62.2407C31.6601 62.2359 32.3116 61.7997 32.7616 61.3796C33.3633 61.812 34.0251 62.3889 34.7087 63.0876C35.4951 63.8936 36.0813 64.6959 36.5354 65.3787C37.189 67.2381 37.8633 69.0889 38.5163 70.9582C40.1036 72.3607 41.7008 73.7639 43.2881 75.1664L43.296 75.1971Z" fill="url(#paint11_linear_1710_10879)" stroke="#C9BC9C" stroke-width="0.25" stroke-miterlimit="10"/>
        <path d="M3.41351 35.769C3.40388 35.9086 3.39356 36.0583 3.3626 36.2165" stroke="#C9BC9C" stroke-width="0.25" stroke-miterlimit="10"/>
        <path d="M50.5012 29.5651L50.4905 29.5744" stroke="#C9BC9C" stroke-width="0.25" stroke-miterlimit="10"/>
        <path opacity="0.7" d="M62.6054 29.3459C62.001 31.2789 61.0533 32.667 60.4069 33.4644C59.6043 33.6195 58.2046 34.0042 56.9169 35.0881C56.6854 35.1023 53.6055 35.1405 51.7506 32.9677C51.602 32.7971 51.4547 32.6065 51.3281 32.4073C50.7216 31.4634 50.509 30.4764 50.4918 29.5631C50.4791 28.4395 50.7481 27.4457 50.9345 26.7769C50.9345 26.7769 51.6717 24.0812 54.6209 21.8689C55.0653 21.5286 55.5449 21.261 56.1008 21.3394C56.676 21.4292 57.0568 21.8664 57.2127 22.0777C57.8061 23.5019 59.0497 24.5098 60.4829 24.6587C61.7464 24.796 62.7089 24.2108 63.034 24.0027C63.1899 25.086 63.3151 27.0492 62.6161 29.3366L62.6054 29.3459Z" fill="url(#paint12_linear_1710_10879)" stroke="#C9BC9C" stroke-width="0.25" stroke-miterlimit="10"/>
        <path d="M53.469 16.0373L53.4697 16.0273" stroke="#C9BC9C" stroke-width="0.25" stroke-miterlimit="10"/>
    </g>
    <defs>
        <linearGradient id="paint0_linear_1710_10879" x1="79.1997" y1="37.6356" x2="79.0661" y2="6.43587" gradientUnits="userSpaceOnUse">
            <stop stop-color="#3F3B3A"/>
            <stop offset="1" stop-color="#050C05"/>
        </linearGradient>
        <linearGradient id="paint1_linear_1710_10879" x1="71.2148" y1="38.5993" x2="83.7846" y2="38.5455" gradientUnits="userSpaceOnUse">
            <stop stop-color="#3F3B3A"/>
            <stop offset="1" stop-color="#050C05"/>
        </linearGradient>
        <linearGradient id="paint2_linear_1710_10879" x1="72.5038" y1="47.764" x2="86.3637" y2="47.7047" gradientUnits="userSpaceOnUse">
            <stop stop-color="#3F3B3A"/>
            <stop offset="1" stop-color="#050C05"/>
        </linearGradient>
        <linearGradient id="paint3_linear_1710_10879" x1="79.5176" y1="46.3138" x2="79.4781" y2="37.1039" gradientUnits="userSpaceOnUse">
            <stop stop-color="#3F3B3A"/>
            <stop offset="1" stop-color="#050C05"/>
        </linearGradient>
        <linearGradient id="paint4_linear_1710_10879" x1="67.6635" y1="31.526" x2="81.1734" y2="31.4681" gradientUnits="userSpaceOnUse">
            <stop stop-color="#3F3B3A"/>
            <stop offset="1" stop-color="#050C05"/>
        </linearGradient>
        <linearGradient id="paint5_linear_1710_10879" x1="54.0267" y1="30.0418" x2="77.3964" y2="29.9417" gradientUnits="userSpaceOnUse">
            <stop offset="0.01" stop-color="#3E3B3A"/>
            <stop offset="0.95" stop-color="#241916"/>
        </linearGradient>
        <linearGradient id="paint6_linear_1710_10879" x1="29.4956" y1="62.2687" x2="29.3223" y2="21.7891" gradientUnits="userSpaceOnUse">
            <stop stop-color="#3F3B3A"/>
            <stop offset="1" stop-color="#050C05"/>
        </linearGradient>
        <linearGradient id="paint7_linear_1710_10879" x1="49.6896" y1="79.7222" x2="49.5822" y2="54.6425" gradientUnits="userSpaceOnUse">
            <stop stop-color="#3F3B3A"/>
            <stop offset="1" stop-color="#050C05"/>
        </linearGradient>
        <linearGradient id="paint8_linear_1710_10879" x1="45.2931" y1="70.9614" x2="45.2187" y2="53.6016" gradientUnits="userSpaceOnUse">
            <stop stop-color="#3F3B3A"/>
            <stop offset="1" stop-color="#050C05"/>
        </linearGradient>
        <linearGradient id="paint9_linear_1710_10879" x1="41.2284" y1="65.3889" x2="41.1536" y2="47.9091" gradientUnits="userSpaceOnUse">
            <stop stop-color="#3F3B3A"/>
            <stop offset="1" stop-color="#050C05"/>
        </linearGradient>
        <linearGradient id="paint10_linear_1710_10879" x1="9.32349" y1="29.2538" x2="25.4433" y2="29.1847" gradientUnits="userSpaceOnUse">
            <stop stop-color="#3F3B3A"/>
            <stop offset="1" stop-color="#050C05"/>
        </linearGradient>
        <linearGradient id="paint11_linear_1710_10879" x1="7.9438" y1="47.8603" x2="43.1835" y2="47.7094" gradientUnits="userSpaceOnUse">
            <stop offset="0.01" stop-color="#3E3B3A"/>
            <stop offset="0.95" stop-color="#241916"/>
        </linearGradient>
        <linearGradient id="paint12_linear_1710_10879" x1="50.4897" y1="28.237" x2="63.1596" y2="28.1827" gradientUnits="userSpaceOnUse">
            <stop offset="0.01" stop-color="#3E3B3A"/>
            <stop offset="0.95" stop-color="#241916"/>
        </linearGradient>
        <clipPath id="clip0_1710_10879">
            <rect width="83.61" height="76.34" fill="white" transform="translate(5.72461 0.214844) rotate(3.94463)"/>
        </clipPath>
    </defs>
</svg>
