<svg xmlns="http://www.w3.org/2000/svg" width="107" height="137" viewBox="0 0 107 137" fill="none">
    <path d="M104.41 79.4603C103.44 72.4603 101.85 61.1803 97.8897 46.7203C94.5897 34.6303 89.2497 18.8903 80.3397 1.38034C76.4397 0.530344 68.8997 -0.559656 59.9697 1.83034C53.0797 3.67034 48.0997 6.86034 45.1497 9.09034C45.2897 15.5103 44.8697 24.8203 42.0397 35.5303C38.5797 48.6303 33.6397 67.3603 16.9297 76.4203C11.7397 79.2403 6.76973 80.3803 0.969727 80.7803C1.44973 80.9303 1.91973 81.1103 2.36973 81.3303C7.18973 83.6603 8.27973 88.8103 8.39973 89.4403C9.16973 85.2503 11.9197 81.9003 15.4897 81.0103C19.5697 79.9903 23.0297 82.6203 24.1497 83.4803C27.4097 85.9503 28.5497 89.2803 29.4697 92.0803C30.1197 94.0603 30.5197 96.0203 30.7497 97.8803C31.7697 98.3303 32.7397 98.7803 33.6697 99.2503C33.3897 98.9603 33.1097 98.6803 32.8297 98.4203C34.3297 98.6903 36.0997 99.2003 37.9097 100.16C39.8797 101.2 41.0497 102.32 44.4697 105.68C45.5797 106.78 46.5497 107.73 47.3897 108.56L47.4497 108.62C47.4497 108.62 47.5197 108.68 47.5697 108.74C47.6297 108.79 47.6997 108.87 47.7797 108.95C47.8297 109 47.8697 109.05 47.9197 109.1C47.9797 109.16 48.0397 109.21 48.0897 109.27C50.1597 111.29 51.2697 112.39 51.5497 112.7C52.1197 113.33 52.7197 114.05 53.4097 114.91C53.4097 114.93 53.4497 114.96 53.4697 114.98C55.2197 116.84 57.3597 119.13 59.8997 121.84C60.0097 121.96 60.1197 122.08 60.2397 122.2C60.3697 122.34 60.5097 122.49 60.6497 122.64C61.6697 123.73 63.3597 125.53 65.5397 127.98C68.0997 130.84 70.1597 133.26 71.5397 134.92C72.3497 135.16 73.4297 135.45 74.7397 135.7H74.7497C75.4497 135.83 76.2197 135.94 77.0397 136.03C85.0897 136.91 91.4297 134.37 94.5397 133.09C96.9497 132.09 100.36 130.41 104.04 127.59C104.93 123.19 105.93 117.05 106.34 109.68C106.96 98.2503 105.83 89.7603 104.41 79.4603ZM103.37 108.09C103.22 114.55 102.59 119.88 102.04 123.53C100.15 125.57 97.2497 128.15 93.1497 130.09C91.7497 130.76 89.1297 131.96 85.6397 132.54C83.7197 132.87 81.5397 133 79.1497 132.75C75.5897 132.38 72.7997 131.28 71.0397 130.42C69.6097 128.01 67.8797 124.95 66.0197 121.3C65.9897 121.24 65.9497 121.17 65.9197 121.1C65.5797 120.43 65.2297 119.74 64.8897 119.02C63.9097 117.04 62.9197 114.91 61.9297 112.64C60.4097 109.16 59.1097 105.83 57.9697 102.55C57.7297 101.86 57.4997 101.17 57.2797 100.48C55.1497 94.0203 53.6097 87.6703 52.2297 80.6003C52.2297 80.6003 52.2297 80.6103 52.2097 80.6103C52.1397 80.2703 52.0797 79.9403 52.0197 79.6103C51.1497 75.1303 50.4597 71.1703 49.9397 67.5703C49.9297 67.5303 49.9197 67.4903 49.9197 67.4403C49.4497 64.6303 48.9897 61.6603 48.4897 58.5303C48.4297 58.1403 48.3697 57.7503 48.3097 57.3703C48.3097 57.3703 48.2997 57.3203 48.2997 57.3003C46.8897 48.2403 46.1497 41.4203 45.9897 35.4503V35.4303C45.9597 34.3203 45.9397 33.2503 45.9497 32.1903C45.9697 28.7003 46.1997 25.4403 46.5997 22.0903C47.1597 17.4203 47.9397 13.5703 48.5597 10.9003C50.5297 9.26034 52.4097 8.08034 54.0497 7.22034C55.0497 6.70034 55.9597 6.29034 56.7397 5.98034C61.5097 4.06034 65.7297 3.80034 70.8197 3.49034C74.0497 3.30034 76.7497 3.34034 78.6297 3.42034C85.6297 18.4703 90.1097 31.8603 93.0397 42.3103C96.3497 54.0903 97.8197 62.5903 100.15 76.0903C103.2 93.7003 103.53 101.55 103.37 108.09Z" fill="url(#paint0_linear_1716_19586)" stroke="#C6BA9B" stroke-width="0.25" stroke-miterlimit="10"/>
    <defs>
        <linearGradient id="paint0_linear_1716_19586" x1="0.969727" y1="68.2903" x2="106.52" y2="68.2903" gradientUnits="userSpaceOnUse">
            <stop stop-color="#DEB280"/>
            <stop offset="0.99" stop-color="#EDD7D2"/>
        </linearGradient>
    </defs>
</svg>
