<svg xmlns="http://www.w3.org/2000/svg" width="75" height="62" viewBox="0 0 75 62" fill="none">
    <g clip-path="url(#clip0_1710_10068)">
        <path d="M72.8582 28.8645C72.4008 29.4801 71.8672 30.1111 71.2878 30.7421C70.2434 31.8733 69.0465 33.0122 67.7886 34.1203C66.8128 34.9822 65.7912 35.8209 64.7849 36.6212H64.7773C61.7432 39.0221 58.7776 41.0613 57.0928 42.2233C54.3712 44.0932 51.1313 46.1402 47.3119 48.2179C46.1607 48.8489 44.9486 49.4799 43.6907 50.1109C42.3032 50.8034 40.8548 51.4883 39.3301 52.1732C33.8793 54.6202 27.5594 56.975 20.2866 58.9757C16.3833 60.053 12.2057 61.0303 7.73828 61.8691C7.95936 61.4151 8.18044 60.9303 8.3939 60.4147C8.554 60.0299 8.71409 59.6298 8.86656 59.2066C10.8182 58.7449 12.7012 58.2601 14.5461 57.7445H14.5537C15.4609 57.4982 16.3605 57.2366 17.2448 56.975H17.2524C19.1888 56.3978 21.0489 55.7976 22.8633 55.182C26.8504 53.8122 30.5554 52.3502 33.9708 50.8419C36.1282 49.8877 38.1637 48.9181 40.1 47.9331C40.405 47.7869 40.7099 47.633 41.0072 47.4791C41.8153 47.0636 42.6005 46.648 43.3705 46.2248C43.9957 45.8939 44.5979 45.5553 45.1925 45.2167C48.3106 43.4622 51.0855 41.7308 53.5403 40.0841C53.9672 39.7993 57.8094 37.1984 61.9414 33.951C63.2907 32.8814 64.6782 31.7502 65.9818 30.6036C66.8966 29.8033 67.7657 29.003 68.5662 28.2027C69.5954 27.1946 70.4949 26.202 71.1811 25.2709C71.425 24.9477 71.6385 24.6398 71.8291 24.332C72.5762 23.1162 72.8735 22.062 72.5075 21.2771C72.3703 20.9846 72.1569 20.7538 71.8519 20.5537C72.9421 21 74.2381 21.7542 74.7107 23.07C75.3054 24.7014 74.4668 26.7329 72.8582 28.8645Z" fill="url(#paint0_linear_1710_10068)" stroke="#C6BA9B" stroke-width="0.25" stroke-miterlimit="10"/>
        <path d="M34.6336 42.9156C33.8407 43.0618 33.0403 43.362 32.3999 43.9776C31.081 45.2396 31.5766 46.7324 30.4559 47.3558C28.8626 48.2407 27.1778 45.6474 24.6544 46.3323C23.9226 46.5324 23.9226 46.7786 22.5046 47.8021C22.1539 48.056 21.7118 48.3638 21.14 48.7255C18.8148 50.203 18.2964 50.2107 17.9153 50.0875C16.8403 49.7413 16.1847 48.1176 16.0094 47.0095C15.8493 45.9475 16.1314 45.3473 15.6739 44.9164C15.0946 44.3777 14.1645 44.8702 13.7681 44.3623C13.4631 43.9776 13.6918 43.285 13.9205 42.7694C14.1645 42.731 14.4084 42.6925 14.6676 42.6463C15.7044 42.477 16.8403 42.2615 18.0525 41.9922C18.67 41.8614 19.318 41.7152 19.9812 41.5459C20.0956 42.4231 20.3548 43.3927 20.9647 43.5928C21.5059 43.7698 21.8871 43.2004 22.6647 42.931C22.779 42.8849 22.9086 42.8464 23.0459 42.8233C24.5706 42.5386 25.1423 43.9314 26.4764 43.8468C27.4904 43.7852 27.8944 42.931 28.489 42.0307C29.564 41.9922 31.1115 42.0307 32.8116 42.3539C33.1013 42.4078 33.3681 42.4693 33.6502 42.554C34.0542 42.6771 34.3896 42.8079 34.6336 42.9156Z" fill="url(#paint1_linear_1710_10068)" stroke="#C6BA9B" stroke-width="0.25" stroke-miterlimit="10"/>
        <path d="M48.4247 39.9613C48.3942 40.0844 48.3409 40.2075 48.257 40.346C47.548 41.4926 46.1605 41.0848 45.3753 42.1082C45.017 42.5776 44.6968 43.4549 45.1924 45.2171C44.5977 45.5556 43.9955 45.8942 43.3703 46.2251C43.2026 46.1251 43.0273 46.0174 42.8291 45.9096L42.5318 45.748C42.021 45.471 41.434 45.1863 40.7707 44.9169C40.5954 44.8477 40.4353 44.7784 40.2828 44.7246C40.0846 44.6553 39.894 44.5861 39.7034 44.5322C39.7873 44.3167 39.8178 44.1243 39.7263 43.932C39.5967 43.6549 39.3223 43.5857 38.8191 43.4933C38.3922 43.4087 37.7899 43.3087 36.9742 43.0393C36.776 42.9701 36.5625 42.9008 36.3567 42.8239H36.3491C35.5029 42.5237 34.7024 42.1467 34.6033 41.5388C34.5271 41.0617 34.9235 40.5923 35.1979 40.3229C35.4724 40.3306 35.7697 40.3229 36.0899 40.2998C38.0568 40.1767 39.6196 39.6381 40.5801 39.2302C41.4416 39.4995 42.4708 39.0686 43.2331 38.2375C43.6372 38.0836 44.0107 38.0144 44.3233 37.9913C44.8569 37.9528 45.3524 38.0298 45.8022 38.176C47.1973 38.6069 48.1808 39.6765 48.4247 39.9613Z" fill="url(#paint2_linear_1710_10068)" stroke="#C6BA9B" stroke-width="0.25" stroke-miterlimit="10"/>
        <path d="M20.0192 21.6157C19.5466 21.6696 19.3636 20.7923 18.0752 19.6227C17.5873 19.184 16.5886 18.276 16.1236 18.5376C15.6281 18.8224 16.3599 20.1382 15.59 21.4233C15.4146 21.7081 15.1173 22.0774 14.7971 22.239C14.6599 22.3237 14.515 22.3545 14.3778 22.3314C13.8747 22.2467 13.9128 21.4541 13.3258 21.2463C13.0132 21.1386 12.7083 21.2617 11.4961 21.962C9.87995 22.8931 9.75798 23.0393 9.46066 22.9855C8.6297 22.8316 7.87497 21.3233 8.13417 20.1075C8.3705 18.9763 9.36156 18.7146 9.26245 17.8605C9.18622 17.1756 8.5001 16.7447 8.05031 16.4599C6.70858 15.6135 5.23724 15.7751 4.60449 15.8905C5.60317 15.2749 6.78481 14.5746 8.13417 13.8359C10.2688 12.6739 11.3894 12.0583 12.7464 11.5273C12.6549 11.6197 11.6943 12.6816 11.9993 14.0975C12.2432 15.1826 13.1809 16.2137 14.0653 16.1752C15.2088 16.1214 15.3765 14.3284 16.6877 14.1514C17.6026 14.0283 18.403 14.7901 19.2035 15.5519C19.295 15.6443 19.4017 15.7366 19.5161 15.852C19.9125 16.2522 20.3928 16.7908 20.7053 17.4988H20.7129C20.873 17.8605 20.995 18.2683 21.0408 18.7146C21.1704 20.0382 20.6367 21.5542 20.0192 21.6157Z" fill="url(#paint3_linear_1710_10068)" stroke="#C6BA9B" stroke-width="0.25" stroke-miterlimit="10"/>
        <path d="M36.0441 24.0551C35.8688 25.7403 34.7329 27.1101 34.6033 27.264C33.9553 28.0335 33.5055 28.1566 33.3759 28.803C33.2692 29.3263 33.4216 29.9573 33.7494 30.4421C32.6135 32.212 30.4485 32.766 28.9314 31.9195C28.7789 31.8349 28.6341 31.7426 28.5045 31.6348C27.5134 30.8499 26.9722 29.4879 27.2161 28.4567C27.3686 27.7795 27.7802 27.6333 27.8717 26.7715C27.9403 26.102 27.765 25.571 27.4906 24.763C27.3305 24.2859 27.0636 23.6318 26.6367 22.9008C26.8654 23.0085 27.1246 23.1009 27.4067 23.1547C28.5273 23.3625 29.4193 22.8392 30.0292 22.4776C31.3023 21.7234 31.9427 20.623 32.2247 20.0459C32.8575 20.4999 33.5131 20.6076 33.6275 20.623C34.2221 20.7077 34.6109 20.5769 34.9845 20.4614C35.4037 21.0463 36.2195 22.4006 36.0441 24.0551Z" fill="url(#paint4_linear_1710_10068)" stroke="#C6BA9B" stroke-width="0.25" stroke-miterlimit="10"/>
        <path d="M65.9812 30.6036C64.6776 31.7502 63.2901 32.8814 61.9407 33.951C60.6752 32.7275 59.5546 32.3427 58.7617 32.2196C57.9308 32.0888 57.542 32.2581 56.7644 32.1042C56.6576 32.0811 56.5433 32.058 56.4137 32.0195C56.1926 31.958 54.6908 31.5117 54.1952 30.6806C54.1114 30.5498 54.058 30.4036 54.0428 30.2574C53.9894 29.7879 54.3172 29.7187 54.7823 28.2874C55.0643 27.3947 55.0415 27.0869 54.95 26.833C54.7594 26.3328 54.2867 26.0789 54.0352 25.9711C54.2181 25.7634 54.4621 25.5402 54.7823 25.294C55.8191 24.5091 56.528 24.4475 56.6958 24.4398C57.3819 24.4013 57.9384 24.6322 58.251 24.7938C58.4873 25.4633 59.2115 26.1789 60.0196 26.3636C60.2026 26.4098 60.3855 26.4175 60.5685 26.4021C60.8582 27.2562 60.7362 27.7256 60.5685 27.9873C60.2178 28.5336 59.5622 28.4567 59.3411 29.0184C59.1886 29.3955 59.2801 29.9572 59.5927 30.1727C60.0577 30.4882 60.6524 29.7956 62.1771 29.4417C62.8479 29.2878 63.6027 29.1185 64.4184 29.4032C65.2188 29.6725 65.722 30.2497 65.9812 30.6036Z" fill="url(#paint5_linear_1710_10068)" stroke="#C6BA9B" stroke-width="0.25" stroke-miterlimit="10"/>
        <path d="M54.7824 28.2874C54.3174 29.7187 53.9896 29.788 54.043 30.2574C54.0582 30.4036 54.1116 30.5498 54.1954 30.6806C53.5703 30.4498 52.5792 30.1882 51.4586 30.4267C51.207 30.4806 50.9783 30.5575 50.7648 30.6345C49.5527 31.1193 48.9505 31.9734 47.906 31.7503C47.7231 31.7118 47.5477 31.6502 47.3953 31.5656C46.8159 31.2578 46.4271 30.7114 46.2517 30.4652C45.7105 29.7034 45.6037 28.9338 45.5732 28.5799C46.6634 27.5718 47.7993 26.4406 48.9505 25.1709C48.9505 25.294 48.9047 26.6868 49.9491 27.4333C50.6581 27.9335 51.4738 27.8642 52.0075 27.7257C52.3353 27.641 52.564 27.5333 52.6021 27.5179C53.3645 27.1409 53.4178 26.6484 54.0353 25.9712C54.2869 26.0789 54.7596 26.3329 54.9502 26.8331C55.0416 27.087 55.0645 27.3948 54.7824 28.2874Z" fill="url(#paint6_linear_1710_10068)" stroke="#C6BA9B" stroke-width="0.25" stroke-miterlimit="10"/>
        <path d="M61.9407 33.9513C57.8088 37.1987 53.9666 39.7997 53.5396 40.0844C51.0849 41.7312 48.3099 43.4626 45.1919 45.2171C44.6964 43.4549 45.0166 42.5776 45.3749 42.1082C46.1601 41.0848 47.5476 41.4926 48.2566 40.346C48.3404 40.2075 48.3938 40.0844 48.4243 39.9613C48.5767 39.4303 48.3175 39.0071 48.6835 38.0375C48.7902 37.7374 49.3925 36.2214 50.7418 35.6981C51.7786 35.298 52.0988 35.9367 53.5625 35.6443C54.0123 35.5519 55.354 35.2749 56.1621 34.1052C56.6958 33.328 56.7568 32.5123 56.7644 32.1045C57.542 32.2584 57.9308 32.0891 58.7617 32.2199C59.5546 32.343 60.6752 32.7278 61.9407 33.9513Z" fill="url(#paint7_linear_1710_10068)" stroke="#C6BA9B" stroke-width="0.25" stroke-miterlimit="10"/>
        <path d="M10.8706 48.9496C10.741 48.9112 10.6114 48.8727 10.4971 48.8496" stroke="#C6BA9B" stroke-width="0.25" stroke-miterlimit="10"/>
        <path d="M24.0594 50.7725C23.1903 51.9345 21.9782 51.7036 21.6428 52.4885C21.4522 52.9349 21.5513 53.7198 22.8625 55.1818C21.0481 55.7975 19.188 56.3977 17.2516 56.9748H17.244C16.4969 56.6208 15.6278 56.0514 15.3915 55.1357C15.2085 54.4277 15.5592 54.0968 15.5058 53.1426C15.4982 53.0426 15.3534 51.0418 14.1489 50.4647C13.821 50.3108 13.4399 50.2646 13.0282 50.3262C12.2049 50.4493 11.2824 51.0111 10.5811 51.9499C10.703 51.0341 10.7945 50.0261 10.8631 48.9488C10.947 47.5482 10.9775 46.0092 10.9165 44.3317C10.9089 44.0623 10.8936 43.793 10.8784 43.5083C10.8784 43.4005 10.8784 43.2928 10.8631 43.1774C11.7322 43.085 12.7614 42.9542 13.9201 42.7695C13.6914 43.2851 13.4627 43.9777 13.7677 44.3624C14.1641 44.8703 15.0942 44.3778 15.6736 44.9165C16.131 45.3474 15.8489 45.9476 16.009 47.0096C16.1843 48.1177 16.8399 49.7414 17.9149 50.0876C18.296 50.2108 18.8144 50.2031 21.1396 48.7256C21.7114 48.3639 22.1535 48.0561 22.5042 47.8022C23.4114 47.7021 24.2195 48.0638 24.5244 48.6794C24.9666 49.5721 24.1738 50.6186 24.0594 50.7725Z" fill="url(#paint8_linear_1710_10068)" stroke="#C6BA9B" stroke-width="0.25" stroke-miterlimit="10"/>
        <path d="M17.2444 56.9748C16.3601 57.2365 15.4605 57.4981 14.5533 57.7443H14.5457C12.7008 58.2599 10.8178 58.7447 8.86621 59.2064C8.88908 59.1526 8.91195 59.0987 8.9272 59.0371C8.98819 58.8832 9.04917 58.7139 9.10254 58.5523C9.39223 57.7212 10.0783 55.6205 10.5281 52.3654C10.551 52.2269 10.5663 52.0884 10.5815 51.9499C11.2829 51.0111 12.2053 50.4493 13.0286 50.3262C13.4403 50.2646 13.8215 50.3108 14.1493 50.4647C15.3538 51.0418 15.4987 53.0426 15.5063 53.1426C15.5596 54.0968 15.209 54.4277 15.3919 55.1357C15.6283 56.0514 16.4973 56.6208 17.2444 56.9748Z" fill="url(#paint9_linear_1710_10068)" stroke="#C6BA9B" stroke-width="0.25" stroke-miterlimit="10"/>
        <path d="M43.3707 46.2252C42.6007 46.6484 41.8155 47.0639 41.0074 47.4795C40.7101 47.6334 40.4052 47.7873 40.1002 47.9335C39.6809 47.6103 39.2083 47.1101 39.1092 46.4406C38.9872 45.6172 39.5056 45.0401 39.7038 44.5322C39.8944 44.5861 40.085 44.6553 40.2832 44.7246C40.4357 44.7785 40.5958 44.8477 40.7711 44.917C41.4343 45.1863 42.0214 45.471 42.5321 45.7481L42.8294 45.9097C43.0277 46.0174 43.203 46.1251 43.3707 46.2252Z" fill="url(#paint10_linear_1710_10068)" stroke="#C6BA9B" stroke-width="0.25" stroke-miterlimit="10"/>
        <path d="M14.6601 24.1629C14.6678 24.2553 14.683 24.4323 14.7135 24.6554C14.4619 24.5477 13.6767 24.2553 12.8381 24.5708C11.4202 25.1017 11.1915 26.8793 11.1838 26.964C11.0847 27.8335 11.4735 28.6107 12.2435 30.1729C13.0135 31.7196 13.3489 31.9351 13.387 32.7354C13.4404 34.0051 12.6475 34.9208 12.5408 35.0439C11.5574 36.1443 10.2156 36.1597 10.0022 36.1597C8.75955 29.6727 6.53349 24.5939 4.58188 20.1384C4.0711 18.9764 3.59082 17.876 3.11816 16.8294C3.5527 16.5524 4.04823 16.2369 4.60475 15.8906C5.2375 15.7752 6.70883 15.6136 8.05057 16.4601C8.50036 16.7448 9.18647 17.1757 9.26271 17.8606C9.36181 18.7147 8.37076 18.9764 8.13443 20.1076C7.87523 21.3234 8.62995 22.8317 9.46092 22.9856C9.75823 23.0394 9.88021 22.8932 11.4964 21.9621C12.7085 21.2619 13.0135 21.1387 13.326 21.2465C13.913 21.4542 13.8749 22.2468 14.3781 22.3315C14.5153 22.3546 14.6601 22.3238 14.7974 22.2391C14.6068 23.0471 14.6144 23.7166 14.6601 24.1629Z" fill="url(#paint11_linear_1710_10068)" stroke="#C6BA9B" stroke-width="0.25" stroke-miterlimit="10"/>
        <path d="M24.9371 10.0503C24.7389 10.5967 24.594 11.0045 24.5254 11.3431C23.8469 11.4586 22.9016 11.6432 21.8038 11.9587C20.3858 12.3666 20.0962 12.5897 19.9056 12.7821C19.0441 13.7132 19.3872 15.3215 19.5168 15.8525C19.4024 15.7371 19.2957 15.6447 19.2042 15.5524C18.4037 14.7906 17.6033 14.0287 16.6884 14.1519C15.3772 14.3289 15.2095 16.1218 14.066 16.1757C13.1816 16.2142 12.2439 15.183 12 14.098C11.6951 12.6821 12.6556 11.6202 12.7471 11.5278C12.8157 11.497 12.8919 11.4739 12.9606 11.4432C17.0468 9.90413 17.7862 11.0584 20.7594 9.73484C21.7276 9.30391 22.2079 8.92684 24.1442 7.20312C24.068 7.52632 24.0299 7.90339 24.2281 8.08037C24.5788 8.39588 25.3487 7.82643 25.5851 8.08037C25.7985 8.31123 25.3335 8.91145 24.9371 10.0503Z" fill="url(#paint12_linear_1710_10068)" stroke="#C6BA9B" stroke-width="0.25" stroke-miterlimit="10"/>
        <path d="M32.0186 0.246094C31.424 0.76167 30.654 1.43115 29.7316 2.23914C28.8625 3.00866 27.8638 3.88591 26.766 4.8632C25.6606 5.84048 24.8144 6.60231 24.1435 7.20253C22.2072 8.92625 21.7269 9.30331 20.7587 9.73424C17.7855 11.0578 17.0461 9.90353 12.9599 11.4426C12.8912 11.4733 12.815 11.4964 12.7464 11.5272C11.3894 12.0582 10.2688 12.6738 8.13418 13.8358C6.78482 14.5745 5.60318 15.2748 4.6045 15.8904C4.04798 16.2367 3.55246 16.5522 3.11792 16.8292C2.14211 14.6899 1.20442 12.7584 0.114258 10.9347C3.23227 7.27179 6.27405 5.60963 8.46961 4.77855C9.73512 4.29375 13.1581 3.82435 19.9963 2.89323C22.4435 2.56234 25.0812 2.22375 28.6338 1.26955C30.0594 0.884793 31.2258 0.515425 32.0186 0.246094Z" fill="url(#paint13_linear_1710_10068)" stroke="#C6BA9B" stroke-width="0.25" stroke-miterlimit="10"/>
        <path d="M38.3612 34.1274C37.6217 34.5968 36.8899 35.0431 36.158 35.451C32.8952 37.3055 29.7848 38.5906 27.0098 39.5371C26.9336 39.1293 26.6973 38.1674 25.8816 37.3286C25.8587 37.3055 25.7291 37.1747 25.5156 37.0131C25.7062 36.7668 26.0645 36.2205 26.156 35.451C26.217 34.9431 26.1408 34.5198 26.0721 34.2505C26.3542 34.2813 26.6439 34.1813 26.7964 34.1274C28.161 33.658 28.4812 31.7958 28.504 31.6342C28.6336 31.7419 28.7785 31.8342 28.931 31.9189C30.448 32.7653 32.6131 32.2113 33.749 30.4414C33.9243 30.703 34.1607 30.9262 34.4351 31.0647C35.3347 31.5187 36.0284 30.7338 36.8899 31.0647C37.4616 31.2879 38.0944 31.9958 38.3612 34.1274Z" fill="url(#paint14_linear_1710_10068)" stroke="#C6BA9B" stroke-width="0.25" stroke-miterlimit="10"/>
        <path d="M56.7652 32.104C56.7576 32.5118 56.6966 33.3275 56.163 34.1047C55.3549 35.2744 54.0132 35.5514 53.5634 35.6438C52.0997 35.9362 51.7795 35.2975 50.7427 35.6976C49.3933 36.2209 48.7911 37.7368 48.6843 38.037C48.3184 39.0065 48.5776 39.4298 48.4251 39.9607C48.1812 39.676 47.1977 38.6064 45.8026 38.1755C45.3529 38.0293 44.8573 37.9523 44.3237 37.9908C44.0111 38.0139 43.6376 38.0831 43.2335 38.237C42.273 37.6214 41.8918 36.4902 42.2425 35.6438C42.6084 34.7588 43.6833 34.3894 44.4457 34.5049C45.3757 34.6357 45.5587 35.436 46.3058 35.3821C47.0376 35.3359 47.7695 34.5203 47.6933 33.9046C47.6094 33.2044 46.5269 33.0351 46.5345 32.4503C46.5421 32.0809 46.9614 31.7808 47.3959 31.5653C47.5484 31.65 47.7238 31.7115 47.9067 31.75C48.9511 31.9732 49.5534 31.119 50.7655 30.6419C50.979 30.5572 51.2077 30.4803 51.4593 30.4264C52.5799 30.1879 53.571 30.4495 54.1961 30.6804C54.6916 31.5114 56.1935 31.9578 56.4146 32.0193C56.5442 32.0578 56.6585 32.0809 56.7652 32.104Z" fill="url(#paint15_linear_1710_10068)" stroke="#C6BA9B" stroke-width="0.25" stroke-miterlimit="10"/>
        <path d="M49.6371 24.4016C49.4083 24.6632 49.1796 24.9248 48.9509 25.1711C47.7998 26.4408 46.6639 27.572 45.5737 28.58C44.4226 29.6343 43.3172 30.5577 42.2956 31.3503C42.1736 30.9578 42.0288 30.3576 42.0364 29.6112C42.044 28.9109 42.1889 28.3338 42.3109 27.949C42.9741 28.2337 44.1481 27.2872 44.6818 26.2792C44.8114 26.0406 45.2688 25.1634 45.063 24.1014C44.8266 22.824 43.9423 22.7702 43.584 21.4081C43.5078 21.1003 43.2943 20.1153 43.7517 19.0534C44.1939 18.0376 45.002 17.5375 45.3069 17.3682C46.0159 18.6071 46.8392 19.9999 47.7769 21.5005C48.3563 22.4316 48.9738 23.3935 49.6371 24.4016Z" fill="url(#paint16_linear_1710_10068)" stroke="#C6BA9B" stroke-width="0.25" stroke-miterlimit="10"/>
        <path d="M45.0631 24.1018C45.2689 25.1638 44.8115 26.041 44.6819 26.2796C44.1483 27.2876 42.9742 28.2341 42.311 27.9494C41.6935 27.6724 42.067 26.5566 41.2971 26.0256C40.5042 25.4793 39.6123 26.3257 38.9262 25.8101C38.5526 25.5254 38.5297 24.679 38.4992 22.986V22.6705C38.4916 20.7082 38.6822 20.3466 38.8423 20.1234C39.3073 19.477 39.7266 19.6848 40.2831 18.9691C40.954 18.0996 40.9311 17.0223 40.9159 16.5759C40.8854 15.4448 40.428 14.6137 40.184 14.2289C40.7024 14.0519 41.4877 13.5748 42.6769 12.5898C43.4316 14.0981 44.1406 15.337 45.1927 17.1762C45.2308 17.2377 45.2613 17.2993 45.307 17.3685C45.0021 17.5378 44.194 18.038 43.7518 19.0538C43.2944 20.1157 43.5079 21.1007 43.5841 21.4085C43.9424 22.7706 44.8268 22.8244 45.0631 24.1018Z" fill="url(#paint17_linear_1710_10068)" stroke="#C6BA9B" stroke-width="0.25" stroke-miterlimit="10"/>
        <path d="M42.6759 12.5818C41.4866 13.5745 40.7014 14.0516 40.183 14.2286C39.8094 14.3594 39.5807 14.3286 39.4359 14.2209C39.1691 14.0285 39.3215 13.6899 39.009 13.3667C38.3457 12.6972 37.1336 13.6822 36.173 13.1128C35.2125 12.5433 35.2353 10.835 35.243 10.4579C35.2506 9.53453 35.5631 8.82657 35.769 8.44181C35.8223 8.48029 35.8833 8.51107 35.9596 8.53416C36.6304 8.71115 37.0345 7.75694 37.7358 7.85698C38.3762 7.94163 38.422 8.77271 39.1767 9.0959C39.8018 9.35754 40.5032 9.11129 40.9758 8.87274C41.2274 9.45758 41.5476 10.2348 42.188 11.5737C42.3557 11.9277 42.5234 12.2586 42.6759 12.5818Z" fill="url(#paint18_linear_1710_10068)" stroke="#C6BA9B" stroke-width="0.25" stroke-miterlimit="10"/>
        <path d="M40.9764 8.87238C40.5037 9.11093 39.8024 9.35718 39.1772 9.09554C38.4225 8.77234 38.3768 7.94127 37.7364 7.85662C37.035 7.75658 36.631 8.71078 35.9601 8.53379C35.8839 8.51071 35.8229 8.47993 35.7695 8.44145C35.6247 8.33372 35.5332 8.14904 35.2816 7.89509C34.748 7.34874 33.8865 6.87164 33.1623 6.87164C32.7506 6.87164 32.5143 7.02554 32.2551 7.2487C31.9273 7.51803 31.569 7.89509 30.7914 8.19521C30.2349 8.41067 29.1523 8.83391 28.3824 8.32602C27.5895 7.81045 27.2846 6.4484 27.7039 5.54807C28.1765 4.51691 29.3887 4.5323 29.7317 3.40881C29.8766 2.95479 29.808 2.53926 29.7317 2.24684C30.6542 1.43115 31.4241 0.76167 32.0188 0.246094C32.9717 0.753975 34.2601 1.53119 35.6628 2.63929C36.8749 3.59349 38.575 4.92476 40.0234 7.0871C40.4961 7.79506 40.6943 8.2106 40.9764 8.87238Z" fill="url(#paint19_linear_1710_10068)" stroke="#C6BA9B" stroke-width="0.25" stroke-miterlimit="10"/>
        <path d="M71.8288 24.3323C71.5772 24.4708 71.2951 24.6017 71.0207 24.6709C70.7234 24.7556 70.4337 24.7556 70.2202 24.6094C69.9229 24.4093 69.9839 24.063 69.8009 23.7167C69.3435 22.8318 67.6587 22.4239 66.2331 22.7625C66.0807 22.801 65.9206 22.8472 65.7757 22.901C64.6398 23.3243 64.7999 23.9245 63.0236 25.1711C62.0707 25.8329 61.3312 26.3485 60.5689 26.4023C60.3859 26.4177 60.2029 26.41 60.02 26.3638C59.2119 26.1792 58.4877 25.4635 58.2513 24.794C58.1751 24.5632 58.1522 24.34 58.198 24.1399C58.3504 23.5012 59.2119 23.4012 59.2119 22.8164C59.2119 22.3085 58.5563 21.916 58.4038 21.8314C57.4814 21.285 56.6656 21.7237 56.3302 21.2773C56.193 21.0927 56.1244 20.731 56.4674 19.9769C58.4495 19.7691 60.6146 19.646 62.9398 19.6537C63.9994 19.6614 64.9676 19.6614 65.852 19.6767C67.5901 19.7075 69.0005 19.7768 70.0754 19.9615C70.8301 20.0923 71.4247 20.2847 71.8517 20.554C72.1566 20.7541 72.37 20.9849 72.5073 21.2773C72.8732 22.0622 72.5759 23.1165 71.8288 24.3323Z" fill="url(#paint20_linear_1710_10068)" stroke="#C6BA9B" stroke-width="0.25" stroke-miterlimit="10"/>
        <path d="M59.2116 22.8161C59.2116 23.4009 58.3502 23.501 58.1977 24.1397C58.152 24.3397 58.1748 24.5629 58.2511 24.7937C57.9385 24.6321 57.382 24.4013 56.6959 24.4398C56.5281 24.4475 55.8192 24.509 54.7824 25.2939C54.4622 25.5402 54.2182 25.7633 54.0353 25.9711C53.4178 26.6483 53.3644 27.1408 52.602 27.5178C52.5639 27.5332 52.3352 27.641 52.0074 27.7256C51.4738 27.8641 50.658 27.9334 49.9491 27.4332C48.9046 26.6868 48.9504 25.2939 48.9504 25.1708C49.1791 24.9246 49.4078 24.6629 49.6365 24.4013C48.9733 23.3932 48.3558 22.4313 47.7764 21.5002C49.2629 21.1231 51.1078 20.723 53.25 20.3844C54.2563 20.2305 55.3313 20.0843 56.4672 19.9766C56.1241 20.7307 56.1927 21.0924 56.3299 21.277C56.6654 21.7234 57.4811 21.2847 58.4035 21.8311C58.556 21.9157 59.2116 22.3082 59.2116 22.8161Z" fill="url(#paint21_linear_1710_10068)" stroke="#C6BA9B" stroke-width="0.25" stroke-miterlimit="10"/>
        <path d="M71.181 25.2707C70.4949 26.2018 69.5953 27.1945 68.5662 28.2026C67.7657 29.0029 66.8966 29.8032 65.9818 30.6035C65.7226 30.2495 65.2194 29.6724 64.419 29.403C63.6033 29.1183 62.8485 29.2876 62.1777 29.4415C60.653 29.7955 60.0583 30.488 59.5933 30.1725C59.2807 29.9571 59.1892 29.3953 59.3417 29.0183C59.5628 28.4565 60.2184 28.5335 60.5691 27.9871C60.7368 27.7255 60.8588 27.2561 60.5691 26.4019C61.3314 26.348 62.0709 25.8325 63.0239 25.1707C64.8001 23.9241 64.64 23.3238 65.776 22.9006C65.9208 22.8467 66.0809 22.8006 66.2334 22.7621C67.659 22.4235 69.3438 22.8314 69.8012 23.7163C69.9841 24.0626 69.9231 24.4089 70.2205 24.6089C70.4339 24.7551 70.7236 24.7551 71.0209 24.6705C71.0743 24.8783 71.1277 25.0783 71.181 25.2707Z" fill="url(#paint22_linear_1710_10068)" stroke="#C6BA9B" stroke-width="0.25" stroke-miterlimit="10"/>
        <path d="M71.8286 24.332C71.638 24.6398 71.4246 24.9476 71.1806 25.2708C71.1272 25.0785 71.0739 24.8784 71.0205 24.6706C71.295 24.6014 71.577 24.4705 71.8286 24.332Z" fill="url(#paint23_linear_1710_10068)" stroke="#C6BA9B" stroke-width="0.25" stroke-miterlimit="10"/>
        <path d="M42.6847 12.5811H42.6768" stroke="#C6BA9B" stroke-width="0.25" stroke-miterlimit="10"/>
        <path d="M32.224 20.0454C31.942 20.6225 31.3016 21.7229 30.0285 22.4771C29.4186 22.8387 28.5266 23.362 27.406 23.1542C27.1239 23.1004 26.8647 23.008 26.636 22.9003C25.6373 22.4001 25.1265 21.4613 25.0351 21.2766C25.3248 20.5533 25.927 19.0835 25.4162 17.5598C24.8673 15.9439 23.4875 15.4898 23.6781 14.6511C23.8153 14.0432 24.6768 13.72 25.3629 13.543C25.7745 13.9277 26.2853 14.2201 26.7656 14.3817C27.7795 14.7203 28.3818 14.4587 29.0831 14.6357C29.6625 14.7819 30.3944 15.2513 31.0653 16.6826C30.8518 17.5675 30.9966 18.6218 31.5379 19.3682C31.7742 19.6991 32.0411 19.9146 32.224 20.0454Z" fill="url(#paint24_linear_1710_10068)" stroke="#C6BA9B" stroke-width="0.25" stroke-miterlimit="10"/>
        <path d="M42.0358 29.6102C42.0282 30.3567 42.173 30.9569 42.295 31.3494C41.3192 32.1112 40.4196 32.7576 39.6192 33.3039C39.1999 33.5886 38.7806 33.8657 38.3613 34.1273C38.0945 31.9957 37.4617 31.2878 36.89 31.0646C36.0285 30.7337 35.3348 31.5186 34.4352 31.0646C34.1607 30.9261 33.9244 30.703 33.7491 30.4413C33.4213 29.9565 33.2688 29.3255 33.3755 28.8022C33.5051 28.1559 33.9549 28.0327 34.6029 27.2632C34.7325 27.1093 35.8684 25.7396 36.0438 24.0543C36.2191 22.3999 35.4034 21.0455 34.9841 20.4607C35.289 20.3606 35.5863 20.2683 35.9751 20.3068C36.6536 20.3837 37.5532 20.8685 38.4985 22.6692V22.9847C38.529 24.6776 38.5519 25.5241 38.9254 25.8088C39.6116 26.3244 40.5035 25.4779 41.2963 26.0243C42.0663 26.5553 41.6928 27.6711 42.3103 27.9481C42.1883 28.3328 42.0434 28.91 42.0358 29.6102Z" fill="url(#paint25_linear_1710_10068)" stroke="#C6BA9B" stroke-width="0.25" stroke-miterlimit="10"/>
        <path d="M26.1558 35.4512C26.0643 36.2208 25.706 36.7671 25.5154 37.0134C24.9589 36.567 23.8306 35.8591 22.6185 36.113C21.3225 36.3824 21.2767 37.4751 19.8054 37.7983C19.6072 37.8444 18.2807 38.1369 17.4269 37.375C16.5807 36.6132 16.6035 35.1742 16.8551 34.297C17.1372 33.3274 17.6632 33.1581 17.8538 32.0038C17.9376 31.4728 18.0291 30.9419 17.7471 30.4648C17.2668 29.6491 16.2071 29.9107 15.8183 29.2258C15.643 28.9103 15.5667 28.3255 16.2452 27.1712C16.3901 27.1558 16.6035 27.1558 16.8475 27.2097C16.8627 27.2097 17.0457 27.2482 17.221 27.3251C17.8919 27.6252 17.8767 28.0485 18.2959 28.1408C18.9363 28.2793 19.4318 27.1251 20.4153 26.9404C20.8269 26.8634 21.4292 26.9558 22.2678 27.6791H22.2754C22.3212 27.9331 22.3898 28.1947 22.5041 28.4486C23.2512 30.1647 24.8674 29.8568 25.4163 31.3574C25.8585 32.5886 25.1037 33.689 25.7212 34.12C25.828 34.1969 25.9499 34.2354 26.0719 34.2431C26.1405 34.5124 26.2168 34.9357 26.1558 35.4435V35.4512Z" fill="url(#paint26_linear_1710_10068)" stroke="#C6BA9B" stroke-width="0.25" stroke-miterlimit="10"/>
        <path d="M22.2682 27.6799C21.4296 26.9565 20.8274 26.8642 20.4157 26.9411C19.4323 27.1258 18.9368 28.2801 18.2964 28.1416C17.8771 28.0492 17.8923 27.626 17.2215 27.3259C17.0461 27.2489 16.8632 27.2104 16.8479 27.2104C16.604 27.1566 16.3905 27.1566 16.2457 27.172C16.177 27.1643 16.1084 27.1412 16.0322 27.1104C15.1479 26.7718 14.8353 25.4329 14.7133 24.6557C14.6828 24.4325 14.6676 24.2555 14.66 24.1632C14.6142 23.7168 14.6066 23.0474 14.7972 22.2394C15.1174 22.0778 15.4147 21.7084 15.59 21.4237C16.36 20.1386 15.6282 18.8227 16.1237 18.538C16.5887 18.2764 17.5874 19.1844 18.0753 19.623C19.3637 20.7927 19.5466 21.6699 20.0193 21.6161C20.6368 21.5545 21.1704 20.0385 21.0408 18.715C20.9951 18.2687 20.8731 17.8608 20.713 17.5068C22.3368 18.7227 22.6494 19.623 22.5732 20.254C22.4664 21.1851 21.4983 21.593 21.605 22.5626C21.666 23.1859 22.1615 23.8477 22.7028 23.9246C22.5122 24.4094 22.2758 25.1481 22.2225 26.0639C22.192 26.5025 22.1615 27.0796 22.2682 27.6799Z" fill="url(#paint27_linear_1710_10068)" stroke="#C6BA9B" stroke-width="0.25" stroke-miterlimit="10"/>
        <path d="M24.5323 11.3428H24.5244" stroke="#C6BA9B" stroke-width="0.25" stroke-miterlimit="10"/>
        <path d="M40.2829 18.9679C39.7264 19.6836 39.3071 19.4758 38.842 20.1222C38.6819 20.3453 38.4914 20.707 38.499 22.6693C37.5537 20.8686 36.6541 20.3838 35.9756 20.3069C35.5868 20.2684 35.2895 20.3607 34.9845 20.4608C34.611 20.5762 34.2222 20.707 33.6276 20.6224C33.5132 20.607 32.8576 20.4992 32.2248 20.0452C32.0419 19.9144 31.7751 19.6989 31.5387 19.3681C30.9975 18.6216 30.8526 17.5674 31.0661 16.6824C31.1118 16.4824 31.1728 16.2977 31.2567 16.1207C31.6683 15.2357 32.1791 15.3666 32.7585 14.2662C33.0253 13.7506 33.5361 12.7887 33.1778 12.0115C32.8423 11.2804 32.0266 11.3882 31.7141 10.534C31.6607 10.4032 31.4625 9.81065 31.7369 9.36433C32.0495 8.85645 32.667 8.97188 32.8423 8.59481C32.9491 8.36396 32.8805 7.96381 32.2553 7.24816C32.5145 7.025 32.7509 6.87109 33.1625 6.87109C33.8868 6.87109 34.7482 7.34819 35.2819 7.89455C35.5334 8.14849 35.6249 8.33318 35.7698 8.44091C35.5639 8.82567 35.2514 9.53362 35.2437 10.457C35.2361 10.8341 35.2133 12.5424 36.1738 13.1119C37.1344 13.6813 38.3465 12.6963 39.0098 13.3658C39.3223 13.689 39.1699 14.0276 39.4367 14.22C39.5815 14.3277 39.8102 14.3585 40.1838 14.2277C40.4277 14.6124 40.8851 15.4435 40.9156 16.5747C40.9309 17.021 40.9538 18.0983 40.2829 18.9679Z" fill="url(#paint28_linear_1710_10068)" stroke="#C6BA9B" stroke-width="0.25" stroke-miterlimit="10"/>
        <path d="M32.7583 14.2669C32.1789 15.3673 31.6681 15.2365 31.2565 16.1215C31.1726 16.2985 31.1116 16.4831 31.0659 16.6832C30.395 15.2519 29.6632 14.7825 29.0838 14.6363C28.3824 14.4593 27.7802 14.7209 26.7662 14.3824C26.286 14.2208 25.7752 13.9283 25.3635 13.5436C24.9366 13.1511 24.6088 12.6586 24.5097 12.0969C24.4639 11.8506 24.4792 11.6121 24.5249 11.3428C24.5935 11.0042 24.7384 10.5963 24.9366 10.05C25.333 8.91109 25.798 8.31087 25.5846 8.08001C25.3483 7.82607 24.5783 8.39551 24.2276 8.08001C24.0294 7.90302 24.0675 7.52596 24.1437 7.20276C24.8146 6.60254 25.6608 5.84072 26.7662 4.86343C27.864 3.88614 28.8627 3.00889 29.7318 2.24707C29.808 2.53949 29.8766 2.95503 29.7318 3.40904C29.3887 4.53254 28.1766 4.51715 27.7039 5.5483C27.2846 6.44863 27.5896 7.81068 28.3824 8.32626C29.1524 8.83414 30.2349 8.4109 30.7914 8.19544C31.569 7.89533 31.9273 7.51826 32.2552 7.24893C32.8803 7.96458 32.9489 8.36473 32.8422 8.59559C32.6668 8.97265 32.0493 8.85722 31.7368 9.3651C31.4623 9.81142 31.6605 10.404 31.7139 10.5348C32.0264 11.3889 32.8422 11.2812 33.1776 12.0122C33.5359 12.7895 33.0251 13.7514 32.7583 14.2669Z" fill="url(#paint29_linear_1710_10068)" stroke="#C6BA9B" stroke-width="0.25" stroke-miterlimit="10"/>
        <path d="M25.0357 21.2772C24.9138 21.5697 23.8541 24.0937 22.7029 23.9244C22.1617 23.8474 21.6661 23.1856 21.6052 22.5623C21.4984 21.5927 22.4666 21.1849 22.5733 20.2538C22.6496 19.6228 22.337 18.7224 20.7132 17.5066H20.7056C20.393 16.791 19.9127 16.2523 19.5163 15.8521C19.3867 15.3212 19.0437 13.7129 19.9051 12.7818C20.0957 12.5894 20.3854 12.3662 21.8034 11.9584C22.9011 11.6429 23.8465 11.4582 24.525 11.3428C24.4792 11.6121 24.464 11.8507 24.5097 12.0969C24.6088 12.6586 24.9366 13.1511 25.3635 13.5436C24.6774 13.7206 23.816 14.0438 23.6787 14.6517C23.4882 15.4905 24.868 15.9445 25.4169 17.5605C25.9277 19.0841 25.3254 20.5539 25.0357 21.2772Z" fill="url(#paint30_linear_1710_10068)" stroke="#C6BA9B" stroke-width="0.25" stroke-miterlimit="10"/>
        <path d="M28.5039 31.6352C28.481 31.7968 28.1608 33.659 26.7962 34.1284C26.6437 34.1823 26.354 34.2823 26.072 34.2515C25.95 34.2438 25.828 34.2053 25.7213 34.1284C25.1038 33.6975 25.8585 32.5971 25.4164 31.3658C24.8675 29.8653 23.2513 30.1731 22.5042 28.4571C22.3898 28.2031 22.3212 27.9415 22.2755 27.6875H22.2679C22.1611 27.0873 22.1916 26.5102 22.2221 26.0716C22.2755 25.1558 22.5118 24.4171 22.7024 23.9323C23.8535 24.1016 24.9132 21.5776 25.0352 21.2852C25.1267 21.4698 25.6374 22.4087 26.6361 22.9088C27.063 23.6399 27.3299 24.294 27.49 24.7711C27.7644 25.5791 27.9397 26.11 27.8711 26.7795C27.7796 27.6414 27.368 27.7876 27.2155 28.4648C26.9716 29.4959 27.5128 30.8579 28.5039 31.6429V31.6352Z" fill="url(#paint31_linear_1710_10068)" stroke="#C6BA9B" stroke-width="0.25" stroke-miterlimit="10"/>
        <path d="M40.5801 39.2297C39.6196 39.6376 38.0568 40.1762 36.0899 40.2993C35.7697 40.3224 35.4724 40.3301 35.198 40.3224C32.8499 40.2993 31.9275 39.576 30.4104 40.2609C29.4575 40.6841 28.9238 41.369 28.4893 42.0308C27.8946 42.9311 27.4906 43.7853 26.4767 43.8468C25.1426 43.9315 24.5708 42.5386 23.0461 42.8234C22.9089 42.8464 22.7793 42.8849 22.6649 42.9311C21.8873 43.2004 21.5061 43.7699 20.9649 43.5929C20.355 43.3928 20.0958 42.4232 19.9814 41.546C20.1034 41.5152 20.233 41.4844 20.3626 41.4536C20.9649 41.2997 21.6053 41.1381 22.299 40.9534C22.3371 40.9457 22.3752 40.9303 22.421 40.915C23.8084 40.5456 25.3484 40.0993 27.0103 39.5375C29.7853 38.591 32.8957 37.3059 36.1585 35.4514C37.5231 34.7819 38.1254 34.8896 38.4151 35.1282C38.9335 35.5514 38.4761 36.3979 39.0554 37.6522C39.2003 37.9754 39.6501 38.9527 40.5801 39.2297Z" fill="url(#paint32_linear_1710_10068)" stroke="#C6BA9B" stroke-width="0.25" stroke-miterlimit="10"/>
        <path d="M16.8555 34.2976C16.6039 35.1749 16.581 36.6139 17.4272 37.3757C16.9851 37.5373 16.2532 37.8836 15.6281 38.6146C15.1783 39.1379 14.9191 39.7073 14.759 40.2537C14.3931 40.2768 13.9967 40.3153 13.585 40.3614C12.876 40.4307 11.8621 40.6077 10.6957 41.0463C10.528 39.3303 10.2916 37.7066 10.002 36.1599C10.2154 36.1599 11.5571 36.1445 12.5406 35.0441C12.6473 34.9209 13.4402 34.0052 13.3868 32.7355C13.3487 31.9352 13.0132 31.7197 12.2433 30.173C11.4733 28.6109 11.0845 27.8337 11.1836 26.9641C11.1912 26.8795 11.4199 25.1019 12.8379 24.5709C13.6765 24.2554 14.4617 24.5479 14.7133 24.6556C14.8353 25.4328 15.1478 26.7718 16.0321 27.1103C16.1084 27.1411 16.177 27.1642 16.2456 27.1719C15.5671 28.3262 15.6433 28.911 15.8187 29.2265C16.2075 29.9114 17.2671 29.6497 17.7474 30.4654C18.0295 30.9425 17.938 31.4735 17.8542 32.0045C17.6636 33.1587 17.1376 33.328 16.8555 34.2976Z" fill="url(#paint33_linear_1710_10068)" stroke="#C6BA9B" stroke-width="0.25" stroke-miterlimit="10"/>
        <path d="M27.0107 39.5374C25.3488 40.0992 23.8089 40.5455 22.4214 40.9149C22.3756 40.9303 22.3375 40.9457 22.2994 40.9534C21.6057 41.138 20.9653 41.2996 20.363 41.4535C20.2334 41.4843 20.1038 41.5151 19.9819 41.5459C19.3186 41.7152 18.6706 41.8614 18.0531 41.9922C18.0074 41.946 17.9616 41.9076 17.9235 41.8614C17.306 41.1996 17.0697 40.9457 16.8867 40.7687C16.3836 40.2916 15.6593 40.2146 14.7598 40.2531C14.9199 39.7067 15.1791 39.1373 15.6288 38.614C16.254 37.883 16.9858 37.5367 17.428 37.3751C18.2818 38.1369 19.6083 37.8445 19.8065 37.7983C21.2779 37.4751 21.3236 36.3824 22.6196 36.1131C23.8317 35.8592 24.96 36.5671 25.5165 37.0134C25.73 37.175 25.8596 37.3058 25.8825 37.3289C26.6982 38.1677 26.9345 39.1296 27.0107 39.5374Z" fill="url(#paint34_linear_1710_10068)" stroke="#C6BA9B" stroke-width="0.25" stroke-miterlimit="10"/>
        <path d="M18.053 41.9928C16.8408 42.2621 15.7049 42.4776 14.6681 42.6469C14.4089 42.6931 14.165 42.7316 13.921 42.77C12.7623 42.9547 11.7331 43.0855 10.864 43.1779C10.8488 42.9855 10.8411 42.7854 10.8259 42.5853C10.8183 42.4391 10.803 42.2852 10.7954 42.139C10.7649 41.7697 10.7344 41.408 10.6963 41.0463C11.8627 40.6077 12.8766 40.4307 13.5856 40.3614C13.9973 40.3153 14.3937 40.2768 14.7596 40.2537C15.6592 40.2152 16.3834 40.2922 16.8866 40.7693C17.0695 40.9463 17.3059 41.2002 17.9234 41.862C17.9615 41.9082 18.0072 41.9466 18.053 41.9928Z" fill="url(#paint35_linear_1710_10068)" stroke="#C6BA9B" stroke-width="0.25" stroke-miterlimit="10"/>
        <path d="M45.1924 45.2246V45.2168" stroke="#C6BA9B" stroke-width="0.25" stroke-miterlimit="10"/>
        <path d="M47.6926 33.9051C47.7688 34.5208 47.0369 35.3364 46.3051 35.3826C45.558 35.4365 45.375 34.6362 44.4449 34.5054C43.6826 34.3899 42.6077 34.7593 42.2418 35.6442C41.8911 36.4907 42.2722 37.6219 43.2328 38.2375C42.4705 39.0686 41.4413 39.4995 40.5798 39.2302C39.6498 38.9532 39.2 37.9759 39.0551 37.6527C38.4757 36.3984 38.9332 35.5519 38.4148 35.1287C38.1251 34.8901 37.5228 34.7824 36.1582 35.4519C36.8901 35.044 37.6219 34.5977 38.3614 34.1283C38.7807 33.8667 39.2 33.5896 39.6193 33.3049C40.4197 32.7586 41.3193 32.1122 42.2951 31.3503C43.3167 30.5577 44.4221 29.6343 45.5732 28.5801C45.6037 28.9341 45.7104 29.7036 46.2517 30.4654C46.4271 30.7116 46.8159 31.258 47.3952 31.5658C46.9607 31.7813 46.5414 32.0814 46.5338 32.4507C46.5262 33.0356 47.6087 33.2049 47.6926 33.9051Z" fill="url(#paint36_linear_1710_10068)" stroke="#C6BA9B" stroke-width="0.25" stroke-miterlimit="10"/>
        <path d="M36.3491 42.8242C35.8307 42.8011 35.2361 42.8088 34.6414 42.9166H34.6338C34.3898 42.8088 34.0544 42.678 33.6504 42.5549C33.3683 42.4702 33.1015 42.4087 32.8118 42.3548C31.1117 42.0316 29.5642 41.9931 28.4893 42.0316C28.9238 41.3698 29.4574 40.685 30.4104 40.2617C31.9275 39.5769 32.8499 40.3002 35.1979 40.3233C34.9235 40.5926 34.5271 41.062 34.6033 41.5391C34.7024 42.1471 35.5029 42.5241 36.3491 42.8242Z" fill="url(#paint37_linear_1710_10068)" stroke="#C6BA9B" stroke-width="0.25" stroke-miterlimit="10"/>
        <path d="M40.0993 47.9327C38.1629 48.9177 36.1274 49.8873 33.97 50.8415C30.5546 52.3498 26.8496 53.8118 22.8625 55.1816C21.5513 53.7195 21.4522 52.9346 21.6428 52.4883C21.9782 51.7034 23.1903 51.9342 24.0594 50.7722C24.1738 50.6183 24.9666 49.5718 24.5245 48.6792C24.2195 48.0635 23.4114 47.7019 22.5042 47.8019C23.9222 46.7785 23.9222 46.5322 24.6541 46.3321C27.1774 45.6473 28.8622 48.2405 30.4555 47.3556C31.5762 46.7323 31.0807 45.2394 32.3995 43.9774C33.0399 43.3618 33.8404 43.0617 34.6332 42.9155H34.6408C35.2355 42.8077 35.8301 42.8 36.3485 42.8231H36.3561C36.562 42.9001 36.7754 42.9693 36.9736 43.0386C37.7894 43.3079 38.3916 43.408 38.8185 43.4926C39.3217 43.585 39.5961 43.6542 39.7257 43.9312C39.8172 44.1236 39.7867 44.316 39.7029 44.5315C39.5046 45.0393 38.9862 45.6165 39.1082 46.4399C39.2073 47.1093 39.68 47.6095 40.0993 47.9327Z" fill="url(#paint38_linear_1710_10068)" stroke="#C6BA9B" stroke-width="0.25" stroke-miterlimit="10"/>
        <path d="M40.1075 47.9415L40.0996 47.9336" stroke="#C6BA9B" stroke-width="0.25" stroke-miterlimit="10"/>
    </g>
    <defs>
        <linearGradient id="paint0_linear_1710_10068" x1="41.3198" y1="61.8691" x2="41.3198" y2="20.5537" gradientUnits="userSpaceOnUse">
            <stop stop-color="#394434"/>
            <stop offset="1" stop-color="#809178"/>
        </linearGradient>
        <linearGradient id="paint1_linear_1710_10068" x1="27.3608" y1="49.1641" x2="21.1683" y2="38.5488" gradientUnits="userSpaceOnUse">
            <stop stop-color="#809178"/>
            <stop offset="1" stop-color="#B7A797"/>
        </linearGradient>
        <linearGradient id="paint2_linear_1710_10068" x1="34.5957" y1="42.1005" x2="48.4247" y2="42.1005" gradientUnits="userSpaceOnUse">
            <stop stop-color="#809178"/>
            <stop offset="1" stop-color="#B7A797"/>
        </linearGradient>
        <linearGradient id="paint3_linear_1710_10068" x1="16.642" y1="23.6319" x2="10.2098" y2="12.6029" gradientUnits="userSpaceOnUse">
            <stop stop-color="#394434"/>
            <stop offset="1" stop-color="#809178"/>
        </linearGradient>
        <linearGradient id="paint4_linear_1710_10068" x1="26.6367" y1="26.179" x2="36.0746" y2="26.179" gradientUnits="userSpaceOnUse">
            <stop stop-color="#394434"/>
            <stop offset="1" stop-color="#809178"/>
        </linearGradient>
        <linearGradient id="paint5_linear_1710_10068" x1="54.0352" y1="29.1954" x2="65.9812" y2="29.1954" gradientUnits="userSpaceOnUse">
            <stop stop-color="#B7A797"/>
            <stop offset="1" stop-color="#C6BA9B"/>
        </linearGradient>
        <linearGradient id="paint6_linear_1710_10068" x1="50.2922" y1="31.7887" x2="50.2922" y2="25.1709" gradientUnits="userSpaceOnUse">
            <stop stop-color="#394434"/>
            <stop offset="1" stop-color="#809178"/>
        </linearGradient>
        <linearGradient id="paint7_linear_1710_10068" x1="53.4405" y1="45.2171" x2="53.4405" y2="32.1045" gradientUnits="userSpaceOnUse">
            <stop stop-color="#394434"/>
            <stop offset="1" stop-color="#809178"/>
        </linearGradient>
        <linearGradient id="paint8_linear_1710_10068" x1="20.9719" y1="56.2899" x2="12.7074" y2="42.1055" gradientUnits="userSpaceOnUse">
            <stop stop-color="#394434"/>
            <stop offset="1" stop-color="#809178"/>
        </linearGradient>
        <linearGradient id="paint9_linear_1710_10068" x1="8.86621" y1="54.7586" x2="17.2444" y2="54.7586" gradientUnits="userSpaceOnUse">
            <stop stop-color="#809178"/>
            <stop offset="1" stop-color="#B7A797"/>
        </linearGradient>
        <linearGradient id="paint10_linear_1710_10068" x1="39.0939" y1="46.2329" x2="43.3707" y2="46.2329" gradientUnits="userSpaceOnUse">
            <stop stop-color="#394434"/>
            <stop offset="1" stop-color="#15181F"/>
        </linearGradient>
        <linearGradient id="paint11_linear_1710_10068" x1="3.11816" y1="25.979" x2="14.7974" y2="25.979" gradientUnits="userSpaceOnUse">
            <stop stop-color="#394434"/>
            <stop offset="1" stop-color="#15181F"/>
        </linearGradient>
        <linearGradient id="paint12_linear_1710_10068" x1="11.9466" y1="11.6894" x2="25.6384" y2="11.6894" gradientUnits="userSpaceOnUse">
            <stop stop-color="#394434"/>
            <stop offset="1" stop-color="#15181F"/>
        </linearGradient>
        <linearGradient id="paint13_linear_1710_10068" x1="0.114258" y1="8.54149" x2="32.0186" y2="8.54149" gradientUnits="userSpaceOnUse">
            <stop stop-color="#809178"/>
            <stop offset="1" stop-color="#B7A797"/>
        </linearGradient>
        <linearGradient id="paint14_linear_1710_10068" x1="25.5156" y1="34.9893" x2="38.3612" y2="34.9893" gradientUnits="userSpaceOnUse">
            <stop stop-color="#809178"/>
            <stop offset="1" stop-color="#B7A797"/>
        </linearGradient>
        <linearGradient id="paint15_linear_1710_10068" x1="42.1205" y1="35.1513" x2="56.7652" y2="35.1513" gradientUnits="userSpaceOnUse">
            <stop stop-color="#394434"/>
            <stop offset="1" stop-color="#15181F"/>
        </linearGradient>
        <linearGradient id="paint16_linear_1710_10068" x1="42.0364" y1="24.3631" x2="49.6371" y2="24.3631" gradientUnits="userSpaceOnUse">
            <stop stop-color="#394434"/>
            <stop offset="1" stop-color="#15181F"/>
        </linearGradient>
        <linearGradient id="paint17_linear_1710_10068" x1="38.4992" y1="20.3004" x2="45.307" y2="20.3004" gradientUnits="userSpaceOnUse">
            <stop stop-color="#394434"/>
            <stop offset="1" stop-color="#809178"/>
        </linearGradient>
        <linearGradient id="paint18_linear_1710_10068" x1="35.243" y1="11.0813" x2="42.6759" y2="11.0813" gradientUnits="userSpaceOnUse">
            <stop stop-color="#394434"/>
            <stop offset="1" stop-color="#15181F"/>
        </linearGradient>
        <linearGradient id="paint19_linear_1710_10068" x1="27.5209" y1="4.73238" x2="40.9764" y2="4.73238" gradientUnits="userSpaceOnUse">
            <stop stop-color="#809178"/>
            <stop offset="1" stop-color="#B7A797"/>
        </linearGradient>
        <linearGradient id="paint20_linear_1710_10068" x1="56.2235" y1="23.0318" x2="72.6674" y2="23.0318" gradientUnits="userSpaceOnUse">
            <stop stop-color="#394434"/>
            <stop offset="1" stop-color="#15181F"/>
        </linearGradient>
        <linearGradient id="paint21_linear_1710_10068" x1="47.7764" y1="23.9011" x2="59.2116" y2="23.9011" gradientUnits="userSpaceOnUse">
            <stop stop-color="#809178"/>
            <stop offset="1" stop-color="#B7A797"/>
        </linearGradient>
        <linearGradient id="paint22_linear_1710_10068" x1="59.2731" y1="26.6251" x2="71.181" y2="26.6251" gradientUnits="userSpaceOnUse">
            <stop stop-color="#394434"/>
            <stop offset="1" stop-color="#809178"/>
        </linearGradient>
        <linearGradient id="paint23_linear_1710_10068" x1="71.0205" y1="24.8014" x2="71.8286" y2="24.8014" gradientUnits="userSpaceOnUse">
            <stop stop-color="#394434"/>
            <stop offset="1" stop-color="#809178"/>
        </linearGradient>
        <linearGradient id="paint24_linear_1710_10068" x1="30.059" y1="22.4617" x2="24.8946" y2="13.6002" gradientUnits="userSpaceOnUse">
            <stop stop-color="#394434"/>
            <stop offset="1" stop-color="#15181F"/>
        </linearGradient>
        <linearGradient id="paint25_linear_1710_10068" x1="33.345" y1="27.217" x2="42.3103" y2="27.217" gradientUnits="userSpaceOnUse">
            <stop stop-color="#B7A797"/>
            <stop offset="1" stop-color="#C6BA9B"/>
        </linearGradient>
        <linearGradient id="paint26_linear_1710_10068" x1="15.704" y1="32.404" x2="26.1786" y2="32.404" gradientUnits="userSpaceOnUse">
            <stop stop-color="#B7A797"/>
            <stop offset="1" stop-color="#C6BA9B"/>
        </linearGradient>
        <linearGradient id="paint27_linear_1710_10068" x1="14.6371" y1="22.8319" x2="22.7028" y2="22.8319" gradientUnits="userSpaceOnUse">
            <stop stop-color="#394434"/>
            <stop offset="1" stop-color="#809178"/>
        </linearGradient>
        <linearGradient id="paint28_linear_1710_10068" x1="30.9746" y1="14.774" x2="40.9233" y2="14.774" gradientUnits="userSpaceOnUse">
            <stop stop-color="#809178"/>
            <stop offset="1" stop-color="#B7A797"/>
        </linearGradient>
        <linearGradient id="paint29_linear_1710_10068" x1="24.0828" y1="9.46514" x2="33.3072" y2="9.46514" gradientUnits="userSpaceOnUse">
            <stop stop-color="#394434"/>
            <stop offset="1" stop-color="#809178"/>
        </linearGradient>
        <linearGradient id="paint30_linear_1710_10068" x1="19.341" y1="17.6374" x2="25.6151" y2="17.6374" gradientUnits="userSpaceOnUse">
            <stop stop-color="#809178"/>
            <stop offset="1" stop-color="#B7A797"/>
        </linearGradient>
        <linearGradient id="paint31_linear_1710_10068" x1="28.7402" y1="33.0434" x2="22.6868" y2="22.6501" gradientUnits="userSpaceOnUse">
            <stop stop-color="#394434"/>
            <stop offset="1" stop-color="#15181F"/>
        </linearGradient>
        <linearGradient id="paint32_linear_1710_10068" x1="30.2808" y1="43.8468" x2="30.2808" y2="34.9435" gradientUnits="userSpaceOnUse">
            <stop stop-color="#394434"/>
            <stop offset="1" stop-color="#809178"/>
        </linearGradient>
        <linearGradient id="paint33_linear_1710_10068" x1="10.002" y1="32.7432" x2="17.938" y2="32.7432" gradientUnits="userSpaceOnUse">
            <stop stop-color="#809178"/>
            <stop offset="1" stop-color="#B7A797"/>
        </linearGradient>
        <linearGradient id="paint34_linear_1710_10068" x1="14.7598" y1="39.0296" x2="27.0107" y2="39.0296" gradientUnits="userSpaceOnUse">
            <stop stop-color="#394434"/>
            <stop offset="1" stop-color="#809178"/>
        </linearGradient>
        <linearGradient id="paint35_linear_1710_10068" x1="10.6963" y1="41.7158" x2="18.053" y2="41.7158" gradientUnits="userSpaceOnUse">
            <stop stop-color="#394434"/>
            <stop offset="1" stop-color="#809178"/>
        </linearGradient>
        <linearGradient id="paint36_linear_1710_10068" x1="36.1582" y1="33.9436" x2="47.7002" y2="33.9436" gradientUnits="userSpaceOnUse">
            <stop stop-color="#394434"/>
            <stop offset="1" stop-color="#809178"/>
        </linearGradient>
        <linearGradient id="paint37_linear_1710_10068" x1="33.6809" y1="44.3787" x2="31.0446" y2="39.8676" gradientUnits="userSpaceOnUse">
            <stop stop-color="#394434"/>
            <stop offset="1" stop-color="#15181F"/>
        </linearGradient>
        <linearGradient id="paint38_linear_1710_10068" x1="21.5742" y1="48.9947" x2="40.0993" y2="48.9947" gradientUnits="userSpaceOnUse">
            <stop stop-color="#B7A797"/>
            <stop offset="1" stop-color="#C6BA9B"/>
        </linearGradient>
        <clipPath id="clip0_1710_10068">
            <rect width="75" height="62" fill="white"/>
        </clipPath>
    </defs>
</svg>
