<svg xmlns="http://www.w3.org/2000/svg" width="40" height="53" viewBox="0 0 40 53" fill="none">
    <g clip-path="url(#clip0_1710_10677)">
        <path d="M0.32543 52.0237L0.31543 52.0137" stroke="#C9BC9C" stroke-width="0.25" stroke-miterlimit="10"/>
        <path d="M39.2069 24.5998C38.2293 26.3615 36.5287 28.9481 33.6876 30.9949C33.5654 31.0866 33.433 31.1782 33.3006 31.2597C33.1071 30.5672 32.8627 29.834 32.5368 29.0601C32.099 28.0214 31.6102 27.0947 31.1214 26.3106C32.6692 25.3228 33.8403 24.2027 34.6753 23.2251C34.6957 22.4613 34.6448 21.3106 34.2171 20.0071C33.6366 18.2352 32.659 17.0438 32.0684 16.4226C31.1723 17.2882 29.9503 18.2861 28.3617 19.1517C28.3413 19.1619 28.3108 19.1721 28.2904 19.1925C27.0684 16.5244 25.2558 13.3574 22.6386 10.1395C21.3352 8.56105 20.0317 7.1863 18.7792 6.01522C19.1967 5.76063 19.5022 5.52642 19.6549 5.39403C19.6753 4.32478 19.3189 3.37773 18.7588 2.64453C20.1539 2.7871 21.325 3.04168 22.1397 3.24535C29.4309 5.1089 33.4839 10.1089 34.7263 11.779C38.0155 16.2393 38.8912 20.7912 39.1255 23.3676C39.1866 23.8564 39.2069 24.2739 39.2171 24.61L39.2069 24.5998Z" fill="url(#paint0_linear_1710_10677)" stroke="#C9BC9C" stroke-width="0.25" stroke-miterlimit="10"/>
        <path d="M10 15.8419C7.34217 23.9376 8.5438 31.0354 9.37884 34.4876C8.53362 34.457 7.65785 34.4061 6.75154 34.3552C7.47455 26.6362 5.71284 20.5466 4.89817 17.8073C4.1446 15.3123 3.19755 12.1555 1.54785 8.95793C2.54582 7.84795 4.15479 6.2899 6.45622 4.98643C8.66601 3.74406 10.9063 3.07196 13.0041 2.74609C12.3727 3.68296 12.0774 4.91515 12.4135 6.20843C12.8412 6.43246 13.5846 6.7787 14.5723 6.91108C13.0448 9.04958 11.2831 12.0333 10.0204 15.8419H10Z" fill="url(#paint1_linear_1710_10677)" stroke="#C9BC9C" stroke-width="0.25" stroke-miterlimit="10"/>
        <path d="M19.6442 5.38447C19.4915 5.51685 19.1961 5.75107 18.7684 6.00565C18.7277 6.02602 18.687 6.05657 18.6462 6.07693C17.9232 6.50463 16.854 6.94252 15.52 6.97307C15.1737 6.97307 14.858 6.96288 14.5525 6.91197C13.5749 6.77958 12.8214 6.43335 12.3937 6.20932C12.0678 4.91603 12.3529 3.68385 12.9843 2.74698C13.5953 1.8203 14.5322 1.19911 15.5403 1.10746C16.7012 0.985263 17.9334 1.58608 18.7379 2.62478C19.298 3.35798 19.6544 4.30503 19.634 5.37428L19.6442 5.38447Z" fill="url(#paint2_linear_1710_10677)" stroke="#C9BC9C" stroke-width="0.25" stroke-miterlimit="10"/>
        <path d="M34.6753 23.2267C33.8403 24.2043 32.6794 25.3245 31.1213 26.3123C31.0704 26.3428 31.0195 26.3734 30.9787 26.4039C26.3962 29.2756 21.6304 29.0007 19.7363 28.7766C19.8382 26.2715 19.94 23.7461 20.052 21.2308C21.8239 21.2308 24.9706 20.966 28.2802 19.1839C28.3005 19.1737 28.3311 19.1636 28.3514 19.1432C29.94 18.2674 31.162 17.2695 32.0582 16.4141C32.659 17.0454 33.6264 18.2267 34.2069 19.9986C34.6346 21.2919 34.6957 22.4426 34.6651 23.2165L34.6753 23.2267Z" fill="url(#paint3_linear_1710_10677)" stroke="#C9BC9C" stroke-width="0.25" stroke-miterlimit="10"/>
        <path d="M33.2996 31.2601C32.8311 31.586 32.3423 31.8915 31.8128 32.1766C31.1305 32.533 30.1835 32.9811 28.2894 33.4088C26.6091 33.7754 24.1753 34.1318 20.55 34.366C17.6478 34.5493 13.8596 34.6817 9.37891 34.4984C8.54387 31.0463 7.35242 23.9485 10.0001 15.8527C11.2628 12.0442 13.0245 9.06044 14.552 6.92194C14.8474 6.97286 15.1732 6.99323 15.5195 6.98304C16.8535 6.95249 17.9227 6.52479 18.6457 6.08691C18.6865 6.06654 18.7272 6.03599 18.7679 6.01562C20.0205 7.18671 21.324 8.56146 22.6274 10.1399C25.2547 13.3578 27.0572 16.5248 28.2792 19.1929C24.9696 20.9648 21.8229 21.2397 20.051 21.2397C19.939 23.755 19.8372 26.2805 19.7354 28.7856C21.6295 28.9994 26.3953 29.2744 30.9778 26.4129C31.0287 26.3823 31.0796 26.3518 31.1203 26.3212C31.6091 27.1053 32.0979 28.0218 32.5358 29.0707C32.8617 29.8446 33.1061 30.5778 33.2996 31.2703V31.2601Z" fill="url(#paint4_linear_1710_10677)" stroke="#C9BC9C" stroke-width="0.25" stroke-miterlimit="10"/>
    </g>
    <defs>
        <linearGradient id="paint0_linear_1710_10677" x1="19.6007" y1="17.4109" x2="38.5825" y2="16.0203" gradientUnits="userSpaceOnUse">
            <stop stop-color="#5A4021"/>
            <stop offset="1" stop-color="#B28247"/>
        </linearGradient>
        <linearGradient id="paint1_linear_1710_10677" x1="9.9832" y1="34.4419" x2="7.68934" y2="3.13059" gradientUnits="userSpaceOnUse">
            <stop stop-color="#5A4021"/>
            <stop offset="1" stop-color="#B28247"/>
        </linearGradient>
        <linearGradient id="paint2_linear_1710_10677" x1="16.076" y1="6.93831" x2="15.6482" y2="1.09854" gradientUnits="userSpaceOnUse">
            <stop stop-color="#5A4021"/>
            <stop offset="1" stop-color="#B28247"/>
        </linearGradient>
        <linearGradient id="paint3_linear_1710_10677" x1="27.411" y1="28.5519" x2="26.5516" y2="16.8216" gradientUnits="userSpaceOnUse">
            <stop stop-color="#3F3B3A"/>
            <stop offset="1" stop-color="#050C05"/>
        </linearGradient>
        <linearGradient id="paint4_linear_1710_10677" x1="7.89833" y1="21.0356" x2="32.4152" y2="19.2395" gradientUnits="userSpaceOnUse">
            <stop stop-color="#C59D62"/>
            <stop offset="1" stop-color="#C9BC9C"/>
        </linearGradient>
        <clipPath id="clip0_1710_10677">
            <rect width="39.0938" height="51.1509" fill="white" transform="translate(0.234375 0.964844)"/>
        </clipPath>
    </defs>
</svg>
