<svg xmlns="http://www.w3.org/2000/svg" width="91" height="75" viewBox="0 0 91 75" fill="none">
    <g clip-path="url(#clip0_1246_4968)">
        <path d="M42.3896 20.6499C42.0796 23.2999 41.5196 26.0999 40.6996 28.9599C38.7996 35.5999 35.8596 41.2599 32.6696 44.9999H32.6596C29.5396 48.6499 26.1796 50.4899 23.2796 49.6599L22.4496 49.4199L19.8096 48.6699C20.3996 48.8399 21.0196 48.8999 21.6396 48.8499C27.2096 48.4399 33.8596 39.7599 37.2296 27.9599C40.5996 16.1799 39.5596 5.29992 35.0596 1.98992C34.5496 1.61992 33.9996 1.33992 33.3996 1.16992L36.8696 2.16992C41.4596 3.47992 43.5096 11.1099 42.3896 20.6499Z" fill="url(#paint0_linear_1246_4968)" stroke="#C9BC9C" stroke-width="0.25" stroke-miterlimit="10"/>
        <path d="M61.8799 39.8501C58.9399 52.5101 52.6499 62.1301 47.1099 63.0301C46.4599 63.1401 45.8099 63.1301 45.1899 62.9801C40.6499 61.9301 38.3199 54.2901 38.9599 44.4001C39.1599 41.3901 39.6299 38.1701 40.3999 34.8601C41.3699 30.6901 42.6999 26.8501 44.2499 23.5401C44.3499 23.3301 44.4499 23.1201 44.5499 22.9201C48.2099 15.3701 53.0099 10.7901 57.0799 11.7301C57.7199 11.8801 58.3099 12.1501 58.8599 12.5501C63.4199 15.8301 64.8099 27.2201 61.8799 39.8501Z" fill="url(#paint1_linear_1246_4968)" stroke="#C9BC9C" stroke-width="0.25" stroke-miterlimit="10"/>
        <path d="M65.5904 40.7105C65.2104 42.3405 64.7804 43.9205 64.3004 45.4305C62.7904 50.2205 60.8104 54.3805 58.6304 57.5405C55.5104 62.0805 52.0004 64.5605 48.9004 63.8505L45.1904 62.9805C45.8104 63.1305 46.4604 63.1405 47.1104 63.0305C52.6504 62.1305 58.9404 52.5105 61.8804 39.8505C64.8104 27.2205 63.4204 15.8305 58.8604 12.5505C58.3104 12.1505 57.7204 11.8805 57.0804 11.7305L60.8004 12.5905C64.4404 13.4405 66.6604 18.5105 67.0604 25.5705C67.3204 30.0105 66.8604 35.2505 65.5904 40.7105Z" fill="url(#paint2_linear_1246_4968)" stroke="#C9BC9C" stroke-width="0.25" stroke-miterlimit="10"/>
        <path d="M90.2495 62.1797C89.5795 68.5897 87.3795 73.0697 84.0095 73.7897C83.5795 73.8797 83.1395 73.9097 82.6995 73.8697C77.1495 73.4497 70.8195 63.4897 68.0695 50.3697C65.3695 37.5297 67.0095 26.0897 71.6895 23.1497C72.0595 22.9097 72.4495 22.7297 72.8495 22.6097L73.2295 22.5097C79.0595 21.2897 86.1995 31.7697 89.1695 45.9297C89.4795 47.4097 89.7295 48.8697 89.9295 50.2997C90.5295 54.6297 90.6195 58.6897 90.2495 62.1797Z" fill="url(#paint3_linear_1246_4968)" stroke="#C9BC9C" stroke-width="0.25" stroke-miterlimit="10"/>
        <path d="M84.0098 73.7904L81.5298 74.4104L81.1498 74.5104C76.5798 75.4704 71.1998 69.2104 67.6598 59.6304C66.6898 57.0004 65.8598 54.1304 65.2198 51.0804C64.8198 49.1504 64.5098 47.2604 64.2998 45.4304C64.7798 43.9204 65.2098 42.3403 65.5898 40.7104C66.8598 35.2503 67.3198 30.0104 67.0598 25.5704C67.9898 24.3104 69.0998 23.5004 70.3798 23.2304L72.8498 22.6104C72.4498 22.7304 72.0598 22.9104 71.6898 23.1504C67.0098 26.0904 65.3698 37.5303 68.0698 50.3703C70.8198 63.4903 77.1498 73.4504 82.6998 73.8704C83.1398 73.9104 83.5798 73.8804 84.0098 73.7904Z" fill="url(#paint4_linear_1246_4968)" stroke="#C9BC9C" stroke-width="0.25" stroke-miterlimit="10"/>
        <path d="M27.5902 2.53019C23.0902 5.57019 18.5602 12.8102 15.9702 21.8802C15.8202 22.4002 15.6802 22.9302 15.5502 23.4502C10.3602 28.3902 5.20017 31.2202 2.34017 30.6402C1.85017 30.5502 1.44017 30.3602 1.10017 30.0602C-1.69983 27.6102 1.76017 19.0702 8.83017 10.9902C15.8902 2.91019 23.9002 -1.65981 26.7002 0.790189C27.0402 1.09019 27.2902 1.47019 27.4402 1.94019C27.5102 2.12019 27.5602 2.32019 27.5902 2.53019Z" fill="url(#paint5_linear_1246_4968)" stroke="#C9BC9C" stroke-width="0.25" stroke-miterlimit="10"/>
        <path d="M37.2303 27.9601C33.8603 39.7601 27.2103 48.4401 21.6403 48.8501C21.0203 48.9001 20.4003 48.8401 19.8103 48.6701C14.8203 47.2401 12.8303 38.3801 14.6403 27.7201C14.8803 26.3201 15.1803 24.8901 15.5503 23.4501C15.6803 22.9301 15.8203 22.4001 15.9703 21.8801C18.5603 12.8101 23.0903 5.57011 27.5903 2.53011C27.7703 2.41011 27.9503 2.29011 28.1403 2.18011C28.1703 2.16011 28.2003 2.14011 28.2303 2.13011C30.0103 1.08011 31.7803 0.710109 33.4003 1.17011C34.0003 1.34011 34.5503 1.62011 35.0603 1.99011C39.5603 5.30011 40.6003 16.1801 37.2303 27.9601Z" fill="url(#paint6_linear_1246_4968)" stroke="#C9BC9C" stroke-width="0.25" stroke-miterlimit="10"/>
        <path d="M15.5496 23.4502C15.1796 24.8902 14.8796 26.3202 14.6396 27.7202C9.63961 31.7602 5.05961 33.5302 3.07961 31.7902L1.09961 30.0602C1.43961 30.3602 1.84961 30.5502 2.33961 30.6402C5.19961 31.2202 10.3596 28.3902 15.5496 23.4502Z" fill="url(#paint7_linear_1246_4968)" stroke="#C9BC9C" stroke-width="0.25" stroke-miterlimit="10"/>
    </g>
    <defs>
        <linearGradient id="paint0_linear_1246_4968" x1="19.8096" y1="25.5099" x2="42.6896" y2="25.5099" gradientUnits="userSpaceOnUse">
            <stop stop-color="#C9BC9C"/>
            <stop offset="1" stop-color="#C9A063"/>
        </linearGradient>
        <linearGradient id="paint1_linear_1246_4968" x1="51.1299" y1="63.1001" x2="51.1299" y2="11.6001" gradientUnits="userSpaceOnUse">
            <stop stop-color="#C9BC9C"/>
            <stop offset="1" stop-color="#C9A063"/>
        </linearGradient>
        <linearGradient id="paint2_linear_1246_4968" x1="45.1904" y1="37.8505" x2="67.1304" y2="37.8505" gradientUnits="userSpaceOnUse">
            <stop stop-color="#C9BC9C"/>
            <stop offset="1" stop-color="#C9A063"/>
        </linearGradient>
        <linearGradient id="paint3_linear_1246_4968" x1="78.6195" y1="22.4097" x2="78.6195" y2="73.8797" gradientUnits="userSpaceOnUse">
            <stop stop-color="#C9BC9C"/>
            <stop offset="1" stop-color="#C9A063"/>
        </linearGradient>
        <linearGradient id="paint4_linear_1246_4968" x1="64.2998" y1="48.6004" x2="84.0098" y2="48.6004" gradientUnits="userSpaceOnUse">
            <stop stop-color="#C9BC9C"/>
            <stop offset="1" stop-color="#C9A063"/>
        </linearGradient>
        <linearGradient id="paint5_linear_1246_4968" x1="0.120174" y1="15.4202" x2="27.5902" y2="15.4202" gradientUnits="userSpaceOnUse">
            <stop stop-color="#C9BC9C"/>
            <stop offset="1" stop-color="#C9A063"/>
        </linearGradient>
        <linearGradient id="paint6_linear_1246_4968" x1="26.6003" y1="48.8601" x2="26.6003" y2="0.970108" gradientUnits="userSpaceOnUse">
            <stop stop-color="#C9BC9C"/>
            <stop offset="1" stop-color="#C9A063"/>
        </linearGradient>
        <linearGradient id="paint7_linear_1246_4968" x1="1.09961" y1="27.9502" x2="15.5496" y2="27.9502" gradientUnits="userSpaceOnUse">
            <stop stop-color="#C9BC9C"/>
            <stop offset="1" stop-color="#C9A063"/>
        </linearGradient>
        <clipPath id="clip0_1246_4968">
            <rect width="90.59" height="74.73" fill="white"/>
        </clipPath>
    </defs>
</svg>
