<svg xmlns="http://www.w3.org/2000/svg" width="65" height="154" viewBox="0 0 65 154" fill="none">
    <g clip-path="url(#clip0_1714_11448)">
        <path d="M40.3715 76.6811C38.5522 79.0958 36.9562 81.2211 35.6083 83.2719C33.2184 85.4468 31.5893 85.7197 30.4977 85.4716C29.4061 85.2236 28.7446 84.438 27.6943 84.7357C26.9583 84.9341 26.7681 85.4634 25.627 86.4309C24.8248 87.1173 24.0806 87.5721 23.5596 87.8533C24.6346 85.2732 25.7096 82.6848 26.7847 80.1047C26.9997 79.5755 27.223 79.0462 27.438 78.5252C27.992 78.856 28.7859 79.2199 29.5963 79.0049C30.4646 78.7733 30.5804 78.0621 31.5562 77.5991C32.4989 77.1442 33.0861 77.475 34.31 77.4089C35.1783 77.3675 36.4269 77.1277 37.9485 76.1602H37.9568C38.8499 76.3752 39.6603 76.5488 40.3715 76.6811Z" fill="url(#paint0_linear_1714_11448)" stroke="#C6BA9B" stroke-width="0.413476" stroke-miterlimit="10"/>
        <path d="M47.0701 10.3588C45.9124 9.25899 38.1969 2.15547 27.2315 3.41243C20.6407 4.17323 16.1669 7.58027 14.3311 9.16802C17.4073 5.79406 22.8321 1.37813 30.531 0.708299C30.7461 0.69176 30.9611 0.675221 31.1843 0.658682C38.0729 0.253475 43.3157 3.06511 45.4906 4.40478C45.5981 4.64459 45.7139 4.89268 45.8379 5.1573C46.6318 6.83602 46.7476 6.98487 46.8964 7.45623C47.2438 8.523 47.2107 9.41611 47.0701 10.3588Z" fill="url(#paint1_linear_1714_11448)" stroke="#C6BA9B" stroke-width="0.413476" stroke-miterlimit="10"/>
        <path opacity="0.39" d="M64.585 53.9969C62.9724 55.0471 60.4585 56.5191 57.159 57.8091C54.521 58.8345 54.4962 58.5368 53.3633 59.157C51.2215 60.3396 50.1878 62.0348 49.1127 64.2015C47.2521 64.5653 44.3743 64.9292 40.9259 64.5157C34.0705 63.7053 29.3238 60.3396 25.5777 57.6272C23.5185 56.1221 19.3342 53.0376 15.8444 48.1586C14.9927 46.9843 2.1501 28.4523 11.3375 13.0627C11.5112 12.7733 12.5118 11.1525 14.3311 9.16778C16.1669 7.58003 20.6408 4.17299 27.2316 3.41219C38.197 2.15522 45.9124 9.25874 47.0701 10.3586C46.9709 11.0119 46.8221 11.69 46.7146 12.4673C46.392 14.7745 46.6401 16.5111 46.9461 18.6695C47.4423 22.2005 48.5752 24.7641 49.2864 26.3436C50.4276 28.8658 51.0891 30.3378 52.6852 31.8097C53.2971 32.3638 53.9173 32.8103 54.5045 33.1742C54.4879 33.6208 54.43 34.1583 54.2977 34.7454C54.1819 35.2581 54.0331 35.7047 53.8842 36.0768C54.5541 36.4407 55.6291 37.1436 56.4561 38.4254C56.9357 39.1613 57.6469 40.2695 57.4649 41.7332C57.3574 42.5932 56.977 43.2713 56.6132 43.7344H56.6049C56.3651 44.0569 56.1253 44.2802 55.993 44.3959C56.762 44.7763 57.8536 45.4296 58.7963 46.5543C60.2352 48.2578 59.8218 49.2253 61.4178 51.2431C61.8974 51.8468 62.8897 53.1038 64.585 53.9969Z" fill="#A0D3EE" stroke="#C6BA9B" stroke-width="0.413476" stroke-miterlimit="10"/>
        <path d="M49.1133 64.2011C48.6916 65.0529 48.2616 65.9791 47.7571 66.9714C45.3011 67.112 41.8692 67.0872 37.8916 66.2603C25.909 63.7711 18.4665 55.9812 15.845 52.905C14.1498 50.912 3.019 37.441 6.37643 21.059C7.02972 17.8918 8.36939 11.3258 14.2821 6.26487C15.2496 5.43792 16.242 4.72674 17.2426 4.12306C22.8907 0.716018 28.6711 0.666401 30.5317 0.707748C22.8328 1.37758 17.408 5.79351 14.3317 9.16747C12.5124 11.1522 11.5118 12.773 11.3381 13.0624C2.1507 28.452 14.9933 46.984 15.845 48.1583C19.3348 53.0373 23.5192 56.1218 25.5783 57.6269C29.3244 60.3393 34.0711 63.705 40.9265 64.5154C44.3749 64.9289 47.2527 64.565 49.1133 64.2011Z" fill="url(#paint2_linear_1714_11448)" stroke="#C6BA9B" stroke-width="0.413476" stroke-miterlimit="10"/>
        <path d="M47.756 66.9714C47.3094 67.848 46.805 68.7742 46.193 69.7583C44.0678 73.157 43.8031 72.1233 40.3713 76.6798C39.6601 76.5475 38.8497 76.3739 37.9566 76.1589H37.9483C35.6246 75.6048 32.7468 74.7365 29.5878 73.3555C29.8442 72.7353 30.1005 72.1233 30.3569 71.5031C30.9936 68.4847 29.4472 65.5656 26.9581 64.6063C25.0975 63.8952 22.9143 64.3417 21.2604 65.7145C20.9214 66.4918 20.5906 67.2609 20.2515 68.0382C19.4825 67.4841 18.7217 66.8887 17.9526 66.2602C9.18691 59.0658 5.39947 50.8541 4.48155 48.7454C2.62918 44.5114 -1.24923 35.6465 1.17374 24.6067C2.96823 16.4116 7.39242 10.871 9.8402 8.21646C12.3045 6.85199 14.7771 5.48752 17.2414 4.12305C16.2408 4.72672 15.2485 5.4379 14.2809 6.26485C8.36823 11.3258 7.02856 17.8918 6.37527 21.059C3.01785 37.441 14.1486 50.912 15.8439 52.905C18.4653 55.9812 25.9079 63.7711 37.8904 66.2602C41.8681 67.0872 45.2999 67.112 47.756 66.9714Z" fill="url(#paint3_linear_1714_11448)" stroke="#C6BA9B" stroke-width="0.413476" stroke-miterlimit="10"/>
        <path d="M30.3575 71.503C30.1012 72.1232 29.8448 72.7351 29.5885 73.3553C28.869 75.0754 28.1579 76.8037 27.4384 78.5238C27.2234 79.0448 27.0001 79.574 26.7851 80.095C26.6776 77.7382 25.247 75.6543 23.0969 74.7198C21.1205 73.8515 18.8381 74.1079 17.085 75.3483C18.1435 72.9088 19.202 70.4775 20.2522 68.038C20.5912 67.2607 20.922 66.4916 21.2611 65.7143C22.915 64.3416 25.0981 63.895 26.9588 64.6062C29.4479 65.5654 30.9943 68.4846 30.3575 71.503Z" fill="url(#paint4_linear_1714_11448)" stroke="#C6BA9B" stroke-width="0.413476" stroke-miterlimit="10"/>
        <path d="M26.7939 80.0954C25.7189 82.6837 24.6438 85.2721 23.5688 87.8522C22.6343 87.7529 21.3443 87.4552 20.3519 86.4794C19.401 85.5367 19.4588 84.6767 18.698 83.9076C18.0199 83.213 16.672 82.5845 13.7363 83.0807C14.5385 81.2283 15.3489 79.3842 16.1428 77.5318C16.4653 76.7958 16.7795 76.0764 17.0938 75.3486C18.8469 74.1082 21.1293 73.8519 23.1057 74.7202C25.2558 75.6546 26.6864 77.7385 26.7939 80.0954Z" fill="url(#paint5_linear_1714_11448)" stroke="#C6BA9B" stroke-width="0.413476" stroke-miterlimit="10"/>
        <path d="M16.1424 77.5312C15.3485 79.3836 14.5381 81.2277 13.7359 83.0801C13.43 82.617 13.124 82.1622 12.818 81.6991C12.1813 80.7564 11.5528 79.8302 10.916 78.9123C11.3543 79.028 12.0324 79.1438 12.7849 78.9701C13.5871 78.7965 13.9427 78.4161 14.7448 78.0274C15.0921 77.8538 15.5552 77.6718 16.1424 77.5312Z" fill="url(#paint6_linear_1714_11448)" stroke="#C6BA9B" stroke-width="0.413476" stroke-miterlimit="10"/>
        <path d="M35.6164 83.2701C33.5904 86.3464 32.1267 89.2655 31.2832 92.8132C31.0434 93.8469 30.2247 97.5847 27.7025 100.355C26.2967 101.893 25.3291 102.083 24.6676 102.009C23.8406 101.91 23.2452 101.356 22.9227 100.992C23.7662 102.455 24.7585 104.705 24.6676 107.425C24.5849 110.105 23.4933 111.841 22.3769 114.314C22.3769 114.314 20.8718 117.638 19.251 124.791C18.7962 126.793 16.3732 138.453 23.0137 148.5C23.7331 149.583 24.8247 151.055 26.4207 152.627C24.8412 153.214 22.0048 154.032 18.4489 153.735C16.58 153.578 13.7683 153.346 11.3454 151.527C8.87277 149.683 9.36894 148.111 6.4498 142.836C3.33219 137.221 1.86848 137.361 0.809984 133.64C-0.248514 129.91 0.346891 126.669 0.685942 124.824C0.950566 123.41 1.80233 119.565 4.6057 115.637C6.56557 112.9 8.69084 111.229 10.2455 109.997C12.3129 108.368 13.5368 107.401 15.5132 106.45C17.4152 105.523 18.1016 105.54 18.7466 104.622C20.2103 102.538 18.8624 99.2469 18.6556 98.7424C18.4654 98.2959 17.961 97.1795 16.9025 96.03C14.9509 93.913 13.6608 94.4836 12.4039 92.7718C11.395 91.3991 11.304 89.7783 11.213 88.083C11.1221 86.4953 11.3702 86.0156 11.4363 84.2708C11.4859 83.0138 11.4363 81.178 10.9153 78.9121C11.5521 79.83 12.1806 80.7562 12.8173 81.6989C13.1233 82.162 13.4293 82.6169 13.7352 83.0799C16.6709 82.5838 18.0189 83.2123 18.697 83.9069C19.4578 84.676 19.3999 85.536 20.3509 86.4787C21.3432 87.4545 22.6333 87.7522 23.5677 87.8515C24.0887 87.5703 24.8329 87.1155 25.6351 86.4291C26.7763 85.4616 26.9665 84.9323 27.7025 84.7339C28.7527 84.4362 29.4143 85.2218 30.5058 85.4698C31.5974 85.7179 33.2265 85.445 35.6164 83.2701Z" fill="url(#paint7_linear_1714_11448)" stroke="#C6BA9B" stroke-width="0.413476" stroke-miterlimit="10"/>
        <path d="M19.418 101.951C19.7322 102.431 20.402 103.34 21.5846 104.035C22.825 104.763 23.991 104.887 24.5699 104.912" stroke="#241916" stroke-width="0.826952" stroke-miterlimit="10" stroke-linecap="round"/>
        <path d="M19.3843 101.515C19.3181 101.242 18.5573 98.3644 15.663 97.2232C12.8679 96.1234 9.65104 97.248 9.60142 98.1412C9.55181 98.8854 11.6936 99.9604 19.3843 101.515Z" stroke="#241916" stroke-width="0.826952" stroke-miterlimit="10" stroke-linecap="round"/>
        <path d="M19.3837 101.514C19.2265 100.844 15.3151 100.571 12.2636 102.556C11.0645 103.333 9.41062 104.846 9.69178 105.309C10.2872 106.302 19.6483 102.614 19.3837 101.514Z" stroke="#241916" stroke-width="0.826952" stroke-miterlimit="10" stroke-linecap="round"/>
        <path d="M19.3839 101.514C18.6066 102.481 15.6378 105.954 10.61 106.69C8.14564 107.046 6.08653 106.616 4.82129 106.227" stroke="#241916" stroke-width="0.826952" stroke-miterlimit="10" stroke-linecap="round"/>
    </g>
    <defs>
        <linearGradient id="paint0_linear_1714_11448" x1="23.5596" y1="82.0067" x2="40.3715" y2="82.0067" gradientUnits="userSpaceOnUse">
            <stop stop-color="#9E8049"/>
            <stop offset="0.71" stop-color="#6E5E32"/>
        </linearGradient>
        <linearGradient id="paint1_linear_1714_11448" x1="14.3311" y1="5.48808" x2="47.1693" y2="5.48808" gradientUnits="userSpaceOnUse">
            <stop stop-color="#3F3B3A"/>
            <stop offset="1" stop-color="#050C05"/>
        </linearGradient>
        <linearGradient id="paint2_linear_1714_11448" x1="5.74795" y1="33.8685" x2="49.1133" y2="33.8685" gradientUnits="userSpaceOnUse">
            <stop stop-color="#C59D62"/>
            <stop offset="1" stop-color="#C9BC9C"/>
        </linearGradient>
        <linearGradient id="paint3_linear_1714_11448" x1="0.404676" y1="40.4014" x2="47.756" y2="40.4014" gradientUnits="userSpaceOnUse">
            <stop stop-color="#3F3B3A"/>
            <stop offset="1" stop-color="#050C05"/>
        </linearGradient>
        <linearGradient id="paint4_linear_1714_11448" x1="17.085" y1="72.1811" x2="30.5064" y2="72.1811" gradientUnits="userSpaceOnUse">
            <stop stop-color="#C59D62"/>
            <stop offset="1" stop-color="#C9BC9C"/>
        </linearGradient>
        <linearGradient id="paint5_linear_1714_11448" x1="13.7363" y1="81.0298" x2="26.7939" y2="81.0298" gradientUnits="userSpaceOnUse">
            <stop stop-color="#3F3B3A"/>
            <stop offset="1" stop-color="#050C05"/>
        </linearGradient>
        <linearGradient id="paint6_linear_1714_11448" x1="10.916" y1="80.3015" x2="16.1424" y2="80.3015" gradientUnits="userSpaceOnUse">
            <stop stop-color="#9E8049"/>
            <stop offset="0.71" stop-color="#6E5E32"/>
        </linearGradient>
        <linearGradient id="paint7_linear_1714_11448" x1="0.206309" y1="116.348" x2="35.6164" y2="116.348" gradientUnits="userSpaceOnUse">
            <stop stop-color="#C59D62"/>
            <stop offset="1" stop-color="#C9BC9C"/>
        </linearGradient>
        <clipPath id="clip0_1714_11448">
            <rect width="64.9985" height="153.59" fill="white" transform="translate(0 0.410156)"/>
        </clipPath>
    </defs>
</svg>
