<svg xmlns="http://www.w3.org/2000/svg" width="98" height="99" viewBox="0 0 98 99" fill="none">
    <g clip-path="url(#clip0_1246_4977)">
        <path d="M69.6398 37.0898C67.6698 44.5998 66.3098 51.0698 65.3398 56.2098C64.5098 60.6398 63.6398 65.7998 62.8498 71.6198C61.6398 71.3198 60.0798 70.7298 58.5598 69.5398C57.1998 68.4598 56.3198 67.2398 55.7598 66.2598C55.7798 66.2498 55.7898 66.2298 55.7998 66.2198C60.0198 61.0098 65.0298 52.3198 69.6398 37.0898Z" fill="url(#paint0_linear_1246_4977)" stroke="#C9BC9C" stroke-width="0.25" stroke-miterlimit="10"/>
        <path d="M66.5299 38.6497C64.9899 39.2697 63.6499 39.5896 62.6799 39.7596C60.6399 40.1296 56.6699 40.8396 53.1899 38.8696C52.5299 38.4996 52.0299 38.0996 51.6199 37.6996C51.5399 37.0996 51.0299 32.3296 54.5599 28.9796C56.7399 26.9296 59.2799 26.4996 60.2399 26.3896C59.5499 28.4396 59.1499 30.3196 58.8999 31.9096C59.1099 32.7596 59.5299 33.9696 60.4499 35.1696C62.5599 37.9296 65.6699 38.5197 66.5299 38.6497Z" fill="url(#paint1_linear_1246_4977)" stroke="#C9BC9C" stroke-width="0.25" stroke-miterlimit="10"/>
        <path d="M45.7197 31.8201C41.6897 29.2901 36.3797 28.1401 31.8597 29.0901C24.4697 30.6501 19.9697 37.6301 19.5597 38.2801C17.6597 41.3301 16.8897 44.4801 15.2097 46.3801C14.9897 41.9001 14.7997 36.7301 14.6797 30.9801C14.4297 19.4001 14.7397 16.9401 16.4497 14.3201C18.5297 11.1201 21.6297 9.30013 24.0997 8.26013H24.1197C25.8197 7.56013 27.2097 7.23013 27.7897 7.09013C29.8897 6.60013 32.9397 5.88013 36.3397 7.21013C40.5597 8.85013 42.5197 12.5401 43.2297 13.8701C44.3097 15.8901 44.6897 17.7601 45.0697 20.7301C45.1497 21.4401 45.2397 22.2201 45.3397 23.0901C45.7497 26.6901 45.7697 29.7001 45.7197 31.8201Z" fill="url(#paint2_linear_1246_4977)" stroke="#C9BC9C" stroke-width="0.25" stroke-miterlimit="10"/>
        <path d="M24.1002 8.25977C21.6302 9.29977 18.5302 11.1198 16.4502 14.3198C14.7402 16.9398 14.4302 19.3998 14.6802 30.9798C14.8002 36.7298 14.9902 41.8998 15.2102 46.3798C14.6002 47.0798 13.8602 47.6098 12.9002 47.9098C12.7902 47.2098 12.6402 46.2398 12.4802 45.0798C12.4002 44.5098 12.3202 43.8998 12.2302 43.2398C12.2302 43.2398 11.6602 38.9098 11.3402 35.4298C11.1102 32.8598 10.8702 30.2598 10.8002 27.7498C10.8002 27.6098 10.7902 27.4598 10.7902 27.3198C10.7502 25.5798 10.8002 23.8798 10.9902 22.2598C11.3802 18.8298 12.3902 15.7198 14.5302 13.2398C14.9202 12.7798 15.4802 12.2098 16.2402 11.6098C16.7702 11.1898 17.4002 10.7498 18.1502 10.3298C19.6302 9.50977 21.5702 8.73977 24.1002 8.25977Z" fill="url(#paint3_linear_1246_4977)" stroke="#C9BC9C" stroke-width="0.25" stroke-miterlimit="10"/>
        <path d="M12.8996 47.9098C11.6296 48.2998 11.0896 47.9498 8.59961 48.6498C5.99961 49.3798 4.77961 50.2698 3.55961 49.6898C2.59961 49.2198 2.26961 48.1198 2.07961 47.6098C1.69961 46.5598 1.00961 45.5498 0.129613 44.5998C0.0996129 43.9098 -0.0203872 39.4298 3.33961 36.5798C4.55961 35.5398 5.83961 35.0498 6.76961 34.7998C6.13961 37.6798 6.57961 40.1198 6.81961 41.1698C6.89961 41.5098 7.36961 43.3498 9.18961 44.4298C10.6296 45.2698 12.0396 45.1398 12.4796 45.0798C12.6396 46.2398 12.7896 47.2098 12.8996 47.9098Z" fill="url(#paint4_linear_1246_4977)" stroke="#C9BC9C" stroke-width="0.25" stroke-miterlimit="10"/>
        <path d="M16.6599 9.41016H16.6299" stroke="#C9BC9C" stroke-width="0.25" stroke-miterlimit="10"/>
        <path d="M12.4797 45.08C12.0397 45.14 10.6297 45.27 9.18968 44.43C7.36968 43.35 6.89968 41.51 6.81968 41.17C6.57968 40.12 6.13968 37.68 6.76968 34.8C6.95968 33.89 7.25968 32.94 7.70968 31.98C8.63968 30 9.87968 28.61 10.7997 27.75C10.8697 30.26 11.1097 32.86 11.3397 35.43C11.6597 38.91 12.2297 43.24 12.2297 43.24C12.3197 43.9 12.3997 44.51 12.4797 45.08Z" fill="url(#paint5_linear_1246_4977)" stroke="#C9BC9C" stroke-width="0.25" stroke-miterlimit="10"/>
        <path d="M97.1904 16.95C95.8204 22.9 94.3104 35.93 92.6004 56.65C91.1504 57.9 89.1604 59.96 87.9004 62.98C87.1204 64.83 86.9104 66.35 86.7904 67.21C85.3004 77.51 84.5204 82.71 82.7904 85.09C79.8404 89.13 75.1404 90.35 74.0104 90.65C70.4804 91.57 67.4804 91.12 65.9004 90.76C68.1004 76.5601 69.7304 65.5 70.6804 59.02C72.0404 49.65 74.8704 29.93 83.8604 10.28C85.8104 6.02004 88.5704 0.630045 91.5604 0.870045C93.9004 1.07004 95.9104 4.65004 96.9004 8.17004C97.1304 8.97005 97.3004 9.76005 97.4204 10.5C97.9304 13.82 97.3104 16.44 97.1904 16.95Z" fill="url(#paint6_linear_1246_4977)" stroke="#C9BC9C" stroke-width="0.25" stroke-miterlimit="10"/>
        <path d="M91.5597 0.869883C88.5697 0.629883 85.8097 6.01988 83.8597 10.2799C74.8697 29.9299 72.0397 49.6499 70.6797 59.0199C69.7297 65.4999 68.0997 76.5599 65.8997 90.7599C65.4097 90.8199 64.2497 90.8999 62.9697 90.3199C61.9097 89.8299 61.2697 89.1099 60.9697 88.7199C61.0297 87.9999 61.0897 87.2799 61.1597 86.5699C61.6397 81.2099 62.2097 76.1999 62.8497 71.6199C63.6397 65.7999 64.5097 60.6399 65.3397 56.2099C66.3097 51.0699 67.6697 44.5999 69.6397 37.0899C69.8997 36.1099 70.1697 35.1099 70.4497 34.0899C71.4697 30.3999 72.4197 27.2599 73.2997 24.5999C75.6997 17.2399 77.4797 13.5099 78.3097 11.8399C78.9697 10.4999 79.6297 9.24988 80.2697 8.06988C82.0997 4.75988 83.8397 2.08988 85.1897 0.129883C87.3197 0.379883 89.4397 0.629883 91.5597 0.869883Z" fill="url(#paint7_linear_1246_4977)" stroke="#C9BC9C" stroke-width="0.25" stroke-miterlimit="10"/>
        <path d="M80.2696 8.06955C79.6296 9.24955 78.9696 10.4995 78.3096 11.8395C77.4796 13.5095 75.6996 17.2395 73.2996 24.5995C72.3296 24.3095 70.1396 23.5195 68.2296 21.4295C66.3996 19.4295 65.7896 17.2995 65.5596 16.3195C65.6296 16.0195 65.7096 15.7195 65.7996 15.4295C67.1096 11.0095 70.3596 7.76955 74.2296 7.08955C76.8996 6.62955 79.1396 7.51955 80.2696 8.06955Z" fill="url(#paint8_linear_1246_4977)" stroke="#C9BC9C" stroke-width="0.25" stroke-miterlimit="10"/>
        <path d="M80.2795 8.07031H80.2695" stroke="#C9BC9C" stroke-width="0.25" stroke-miterlimit="10"/>
        <path d="M73.3004 24.6003C72.4204 27.2603 71.4704 30.4003 70.4504 34.0903C70.1704 35.1103 69.9004 36.1103 69.6404 37.0903C68.5404 37.7503 67.5004 38.2603 66.5304 38.6503C65.6704 38.5203 62.5604 37.9303 60.4504 35.1703C59.5304 33.9703 59.1104 32.7603 58.9004 31.9103C59.1504 30.3203 59.5504 28.4403 60.2404 26.3903C60.4304 25.8003 60.6504 25.2003 60.9004 24.5803C60.9804 24.3803 61.0604 24.1803 61.1404 23.9903C62.5104 20.7003 64.1704 18.1403 65.5604 16.3203C65.7904 17.3003 66.4004 19.4303 68.2304 21.4303C70.1404 23.5203 72.3304 24.3103 73.3004 24.6003Z" fill="url(#paint9_linear_1246_4977)" stroke="#C9BC9C" stroke-width="0.25" stroke-miterlimit="10"/>
        <path d="M62.8502 71.6198C62.2102 76.1998 61.6402 81.2098 61.1602 86.5698C59.0502 85.0798 56.4402 82.9098 53.9002 79.8698C51.8802 77.4598 50.4402 75.1298 49.4102 73.1698C51.6302 70.7598 53.1802 69.1798 54.0802 68.2098C54.6202 67.6198 55.1902 66.9698 55.7602 66.2598C56.3202 67.2398 57.2002 68.4598 58.5602 69.5398C60.0802 70.7298 61.6402 71.3198 62.8502 71.6198Z" fill="url(#paint10_linear_1246_4977)" stroke="#C9BC9C" stroke-width="0.25" stroke-miterlimit="10"/>
        <path d="M40.5602 89.0899C40.2902 89.7199 39.5102 91.3599 38.0102 93.0899C35.4502 96.0499 32.4102 97.4199 30.6002 98.0599C30.3102 96.3799 30.0302 94.6999 29.7402 93.0199C31.8902 91.6599 33.7102 90.3199 35.7102 88.4999C38.1302 86.3099 39.1002 84.9799 41.9002 81.6699C41.9802 83.1899 41.9402 85.9999 40.5602 89.0899Z" fill="url(#paint11_linear_1246_4977)" stroke="#C9BC9C" stroke-width="0.25" stroke-miterlimit="10"/>
        <path d="M30.6003 98.0595C29.7003 98.1195 28.4103 98.0995 26.9303 97.7295C25.6103 97.4095 24.5603 96.9195 23.8203 96.4995C26.1603 95.1695 28.0503 94.0895 29.7403 93.0195C30.0303 94.6995 30.3103 96.3795 30.6003 98.0595Z" fill="url(#paint12_linear_1246_4977)" stroke="#C9BC9C" stroke-width="0.25" stroke-miterlimit="10"/>
    </g>
    <defs>
        <linearGradient id="paint0_linear_1246_4977" x1="55.7598" y1="54.3598" x2="69.6398" y2="54.3598" gradientUnits="userSpaceOnUse">
            <stop stop-color="#C9BEB9"/>
            <stop offset="0.42" stop-color="#C8A491"/>
            <stop offset="1" stop-color="#D8887A"/>
        </linearGradient>
        <linearGradient id="paint1_linear_1246_4977" x1="51.5499" y1="33.2896" x2="66.5299" y2="33.2896" gradientUnits="userSpaceOnUse">
            <stop stop-color="#C9BEB9"/>
            <stop offset="0.42" stop-color="#C8A491"/>
            <stop offset="1" stop-color="#D8887A"/>
        </linearGradient>
        <linearGradient id="paint2_linear_1246_4977" x1="30.1797" y1="46.3801" x2="30.1797" y2="6.45013" gradientUnits="userSpaceOnUse">
            <stop stop-color="#C59D62"/>
            <stop offset="1" stop-color="#C9BC9C"/>
        </linearGradient>
        <linearGradient id="paint3_linear_1246_4977" x1="17.4402" y1="8.25977" x2="17.4402" y2="47.9098" gradientUnits="userSpaceOnUse">
            <stop stop-color="#C59D62"/>
            <stop offset="1" stop-color="#C9BC9C"/>
        </linearGradient>
        <linearGradient id="paint4_linear_1246_4977" x1="0.119613" y1="42.3398" x2="12.8996" y2="42.3398" gradientUnits="userSpaceOnUse">
            <stop stop-color="#C59D62"/>
            <stop offset="1" stop-color="#C9BC9C"/>
        </linearGradient>
        <linearGradient id="paint5_linear_1246_4977" x1="6.44968" y1="36.44" x2="12.4797" y2="36.44" gradientUnits="userSpaceOnUse">
            <stop stop-color="#3F3B3A"/>
            <stop offset="1" stop-color="#050C05"/>
        </linearGradient>
        <linearGradient id="paint6_linear_1246_4977" x1="81.7604" y1="91.2001" x2="81.7604" y2="0.870047" gradientUnits="userSpaceOnUse">
            <stop stop-color="#C59D62"/>
            <stop offset="1" stop-color="#C9BC9C"/>
        </linearGradient>
        <linearGradient id="paint7_linear_1246_4977" x1="76.2697" y1="0.129883" x2="76.2697" y2="90.7999" gradientUnits="userSpaceOnUse">
            <stop stop-color="#C59D62"/>
            <stop offset="1" stop-color="#C9BC9C"/>
        </linearGradient>
        <linearGradient id="paint8_linear_1246_4977" x1="65.5596" y1="15.7795" x2="80.2696" y2="15.7795" gradientUnits="userSpaceOnUse">
            <stop stop-color="#3F3B3A"/>
            <stop offset="1" stop-color="#050C05"/>
        </linearGradient>
        <linearGradient id="paint9_linear_1246_4977" x1="58.9004" y1="27.4903" x2="73.3004" y2="27.4903" gradientUnits="userSpaceOnUse">
            <stop stop-color="#C59D62"/>
            <stop offset="1" stop-color="#C9BC9C"/>
        </linearGradient>
        <linearGradient id="paint10_linear_1246_4977" x1="49.4102" y1="76.4198" x2="62.8502" y2="76.4198" gradientUnits="userSpaceOnUse">
            <stop stop-color="#C59D62"/>
            <stop offset="1" stop-color="#C9BC9C"/>
        </linearGradient>
        <linearGradient id="paint11_linear_1246_4977" x1="35.8402" y1="98.0599" x2="35.8402" y2="81.6699" gradientUnits="userSpaceOnUse">
            <stop stop-color="#C59D62"/>
            <stop offset="1" stop-color="#C9BC9C"/>
        </linearGradient>
        <linearGradient id="paint12_linear_1246_4977" x1="27.2103" y1="98.0895" x2="27.2103" y2="93.0195" gradientUnits="userSpaceOnUse">
            <stop stop-color="#C59D62"/>
            <stop offset="1" stop-color="#C9BC9C"/>
        </linearGradient>
        <clipPath id="clip0_1246_4977">
            <rect width="97.75" height="98.23" fill="white"/>
        </clipPath>
    </defs>
</svg>
