<svg xmlns="http://www.w3.org/2000/svg" width="79" height="66" viewBox="0 0 79 66" fill="none">
    <g clip-path="url(#clip0_1716_17397)">
        <path d="M40.3455 29.488C40.2391 29.284 40.1326 29.0712 40.0439 28.8672H40.0528C40.1415 29.0712 40.2391 29.2752 40.3455 29.488Z" fill="url(#paint0_linear_1716_17397)" stroke="#C6BA9B" stroke-width="0.221719" stroke-miterlimit="10"/>
        <path d="M40.0606 28.8672C40.1493 29.0712 40.2469 29.2752 40.3533 29.488C40.2469 29.284 40.1404 29.0712 40.0518 28.8672H40.0606Z" fill="url(#paint1_linear_1716_17397)" stroke="#C6BA9B" stroke-width="0.221719" stroke-miterlimit="10"/>
        <path d="M78.3555 43.6498V43.703C76.5551 44.6875 74.3024 45.6985 71.6418 46.4701C66.2053 48.0398 61.425 47.8625 58.2944 47.4634C58.1879 46.4257 57.9839 45.4768 57.7445 44.6343C57.3897 43.3394 56.9286 42.2574 56.5117 41.4238C55.9885 40.5458 55.1814 39.3928 54.0019 38.2399C53.8866 36.6879 53.7624 35.3487 53.656 34.2756C53.6028 33.7966 53.5584 33.3621 53.5141 32.9807C53.3101 31.2247 53.1505 30.4709 52.9376 29.7525C52.5651 28.4577 52.0596 27.3047 51.5098 26.3114C53.5584 26.3026 55.3499 26.0542 56.8044 25.7793C56.6359 26.2227 56.4497 26.6041 56.2723 26.9411C56.2723 27.4644 56.3255 28.1739 56.5472 28.972C56.6891 29.4776 56.8665 29.9121 57.0616 30.2935C57.3099 30.7901 57.5671 31.1804 57.78 31.473C57.6913 31.7391 57.6203 32.0052 57.5582 32.2801C57.2833 33.4064 57.1858 34.5061 57.2567 35.526C57.2567 35.5349 57.2567 35.5438 57.2656 35.5615C57.4075 37.4594 58.1259 39.0647 59.3675 39.9604C61.4516 41.4592 64.6355 40.7231 65.8683 40.4305C66.8616 40.191 67.1897 39.9782 67.7307 39.7298C68.0943 39.5436 68.5821 39.3573 69.4335 39.1179C70.0366 38.9583 70.551 38.8518 71.0033 38.772C72.7504 38.4705 73.6373 38.5858 74.9144 37.7432C75.3046 37.486 77.0074 36.2888 76.7591 35.0649C77.2646 35.8808 77.9032 37.1313 78.2668 38.772C78.7279 40.865 78.5417 42.621 78.3377 43.6587L78.3555 43.6498Z" fill="url(#paint2_linear_1716_17397)" stroke="#C6BA9B" stroke-width="0.221719" stroke-miterlimit="10"/>
        <path d="M54.011 38.2514C53.5676 37.8257 53.0798 37.3823 52.5299 36.9655C51.7495 36.3624 50.9513 35.8835 50.1886 35.4844C47.7851 34.2427 45.568 33.8791 44.3618 33.7461C44.1578 33.7372 43.9539 33.7284 43.7499 33.7018H43.7144C42.9339 33.6574 42.1624 33.6131 41.373 33.5599C41.3908 32.8326 41.4085 32.1054 41.4174 31.3693C41.4529 30.305 41.4706 29.2585 41.4883 28.1943C42.3486 27.1832 43.1202 26.1988 43.8031 25.2676C45.089 25.6223 46.579 25.9416 48.2463 26.1367C49.3904 26.2697 50.4724 26.3052 51.51 26.3052C52.0599 27.2985 52.5654 28.4515 52.9379 29.7463C53.1507 30.4647 53.3104 31.2185 53.5144 32.9745C53.5587 33.3647 53.603 33.7904 53.6563 34.2694C53.7627 35.3425 53.878 36.6817 54.0021 38.2337L54.011 38.2514Z" fill="url(#paint3_linear_1716_17397)" stroke="#C6BA9B" stroke-width="0.221719" stroke-miterlimit="10"/>
        <path d="M44.3704 33.7447C44.3349 33.8511 44.3083 33.9575 44.2728 34.0551C43.5722 36.2102 42.4814 37.2035 41.8073 37.6824C41.2043 38.0992 40.2819 38.383 38.7831 38.6934H38.7742C38.0913 38.8353 37.2843 38.995 36.3264 39.1635C35.7056 39.2788 34.3576 39.536 32.5129 39.8819C32.238 39.669 31.8566 39.3497 31.4664 38.8974C31.3954 38.8265 31.3245 38.7466 31.2624 38.658H31.2535C30.9963 38.3387 30.7391 37.9485 30.4997 37.4962C30.34 37.1857 30.1981 36.8753 30.0917 36.5738C29.7192 35.5273 29.666 34.6138 29.666 34.0994C30.4199 34.2679 31.289 34.4276 32.2468 34.5429C32.8588 34.6138 33.5239 34.6582 34.2157 34.6759C35.4484 34.6936 36.5925 34.6138 37.639 34.463C39.129 34.2502 40.3972 33.9043 41.3905 33.5762C42.1709 33.6294 42.9425 33.6737 43.7318 33.7181H43.7673C43.9713 33.7358 44.1753 33.7535 44.3793 33.7624L44.3704 33.7447Z" fill="url(#paint4_linear_1716_17397)" stroke="#C6BA9B" stroke-width="0.221719" stroke-miterlimit="10"/>
        <path d="M34.3661 56.1658C30.2244 56.2545 28.7345 56.2988 26.4995 55.6603C24.1759 55.004 24.1937 54.5251 20.1318 52.8578C18.5798 52.2281 18.6862 52.3434 12.0878 50.1262C10.4294 49.5586 9.12568 49.1152 8.05256 48.7249H8.04369C5.98614 47.9622 4.71791 47.3591 3.27231 46.4279C2.00408 45.612 1.04625 44.8316 0.407703 44.2817C0.0618224 39.6699 0.0795599 36.3796 0.185985 34.0383C0.22146 33.4175 0.248066 32.8588 0.29241 32.3621C0.345622 31.7413 0.50526 29.8877 0.64716 27.2981C0.64716 27.2094 0.656028 27.1384 0.656028 27.0586C1.58725 28.3091 3.15701 30.1272 5.56044 31.626C8.96604 33.7634 12.1765 34.127 14.7751 34.3842C18.429 34.7478 21.7548 34.4285 24.5839 33.8254C25.3998 34.7389 26.535 36.1757 27.4574 38.1357C27.6791 38.6146 27.8742 39.0757 28.0338 39.5192C28.9385 41.9847 28.9562 43.9979 29.3198 46.2417C29.4883 47.2527 29.7278 48.2992 30.1357 49.461C30.7654 51.2082 31.9361 53.6028 34.375 56.1481L34.3661 56.1658Z" fill="url(#paint5_linear_1716_17397)" stroke="#C6BA9B" stroke-width="0.221719" stroke-miterlimit="10"/>
        <path d="M29.259 32.5018C27.9287 32.9807 26.3501 33.4685 24.5763 33.841C21.7472 34.4441 18.4214 34.7634 14.7675 34.3997C12.1689 34.1426 8.96732 33.7789 5.55285 31.6416C3.14942 30.1427 1.58852 28.3247 0.648438 27.0742C0.754862 25.1053 0.799206 23.4823 0.816944 22.4181C1.20717 22.1609 1.77477 21.8416 2.51087 21.611C3.31793 21.3716 4.01856 21.3361 4.50634 21.345C4.51521 21.5401 4.52408 21.7174 4.54182 21.8948L4.57729 22.3116C4.58616 22.4535 4.59503 22.5777 4.61277 22.7196C4.65711 23.1187 4.70145 23.5089 4.7458 23.9169C4.76354 24.0588 4.79014 24.1918 4.79901 24.3337C4.83449 24.5732 4.85222 24.8038 4.89657 25.061C4.93204 25.3182 4.95865 25.5753 4.99412 25.8503C8.24008 27.3757 11.087 28.165 13.1002 28.6085C16.3639 29.318 22.3857 30.5596 28.8954 28.2803C28.8777 29.2115 28.9131 30.3113 29.0994 31.5263C29.1526 31.8544 29.2058 32.1826 29.2679 32.493L29.259 32.5018Z" fill="url(#paint6_linear_1716_17397)" stroke="#C6BA9B" stroke-width="0.221719" stroke-miterlimit="10"/>
        <path d="M58.7823 58.9413C38.1802 66.9498 31.1207 66.2314 28.6818 63.7836C28.0343 63.1273 25.8526 60.4933 22.1721 59.6596C20.3717 59.2428 20.017 59.6774 17.5604 59.5266C14.474 59.3581 11.9642 58.3559 7.0775 56.396C5.40131 55.7219 3.13978 54.7552 0.479153 53.4604C0.461416 50.4007 0.425941 47.341 0.408203 44.2812C1.03788 44.8311 2.00458 45.6116 3.27281 46.4275C4.71841 47.3587 5.98664 47.9618 8.04419 48.7245H8.05306C9.12618 49.1236 10.421 49.5582 12.0883 50.1258C18.6867 52.3429 18.5714 52.2276 20.1323 52.8573C24.1942 54.5158 24.1764 55.0036 26.5001 55.6598C28.7438 56.2895 30.2338 56.2541 34.3666 56.1654C34.7125 56.1565 35.0673 56.1565 35.4397 56.1476C35.9364 56.1388 36.4064 56.1299 36.841 56.1122C45.6122 55.9614 44.9116 56.2274 46.5168 55.9614C49.2839 55.5091 53.5054 54.3561 58.3122 51.0215C58.4009 52.3429 58.4719 53.6733 58.5517 55.0036C58.6404 56.325 58.7113 57.6287 58.7912 58.9502L58.7823 58.9413Z" fill="url(#paint7_linear_1716_17397)" stroke="#C6BA9B" stroke-width="0.221719" stroke-miterlimit="10"/>
        <path d="M30.9886 29.3911C30.7225 29.3733 30.2791 29.2935 29.8002 29.0363C29.339 28.788 29.0464 28.4776 28.8867 28.2825C29.2858 28.1406 29.6051 28.0164 29.8091 27.9277C30.217 28.5042 30.625 28.992 30.9886 29.3822V29.3911Z" stroke="#C6BA9B" stroke-width="0.221719" stroke-miterlimit="10"/>
        <path d="M67.1189 24.0165C66.4893 24.6816 65.4782 25.6128 64.006 26.3401C63.873 26.4022 63.7399 26.4731 63.5892 26.5352C63.261 26.6771 62.924 26.8013 62.6047 26.8988C62.5959 26.9077 62.587 26.9077 62.5693 26.9166C59.6958 27.7946 57.1682 27.1826 56.2725 26.9254C56.4587 26.5973 56.6361 26.2071 56.8046 25.7636H56.8135C56.911 25.5064 57.0086 25.2315 57.1061 24.9388C57.452 23.8214 57.5584 22.8281 57.5762 22.0742C59.7934 22.8458 61.7445 23.307 63.3054 23.5819C64.414 23.777 65.2476 23.9101 65.9749 23.981C66.3828 24.0253 66.7553 24.0253 67.1101 23.9987L67.1189 24.0165Z" fill="url(#paint8_linear_1716_17397)" stroke="#C6BA9B" stroke-width="0.221719" stroke-miterlimit="10"/>
        <path d="M65.8861 30.1515C65.1855 30.6215 63.9261 31.3399 62.1967 31.6503C60.2367 32.0139 58.6403 31.6946 57.7889 31.4552C57.5761 31.1625 57.3189 30.7723 57.0706 30.2756C56.8755 29.9031 56.6981 29.4597 56.5562 28.9542C56.3345 28.1649 56.2812 27.4554 56.2812 26.9232C57.1681 27.1804 59.7046 27.7924 62.5781 26.9144C62.5869 26.9055 62.5958 26.9055 62.6135 26.8966C62.9328 26.7991 63.2698 26.6749 63.598 26.533C63.7487 26.4709 63.8906 26.4 64.0148 26.3379C64.0059 26.7459 64.0503 27.4554 64.3873 28.2358C64.6267 28.8034 64.946 29.2468 65.2564 29.5661C65.4959 29.8322 65.7265 30.0273 65.8861 30.1426V30.1515Z" fill="url(#paint9_linear_1716_17397)" stroke="#C6BA9B" stroke-width="0.221719" stroke-miterlimit="10"/>
        <path d="M57.5857 22.092C57.5679 22.8459 57.4526 23.8392 57.1156 24.9566C57.0181 25.2493 56.9205 25.5242 56.8229 25.7814H56.8141C55.3596 26.0563 53.5681 26.3047 51.5194 26.3135C50.4907 26.3135 49.4087 26.2692 48.2557 26.145C46.5973 25.9499 45.1073 25.6306 43.8125 25.2759C44.9388 23.7239 45.8434 22.296 46.5263 21.0898C47.6083 21.347 48.8322 21.5688 50.1891 21.6929C53.1247 21.9412 55.6345 21.622 57.5325 21.214C57.5413 21.5067 57.5679 21.7905 57.5768 22.092H57.5857Z" fill="url(#paint10_linear_1716_17397)" stroke="#C6BA9B" stroke-width="0.221719" stroke-miterlimit="10"/>
        <path d="M57.5598 21.2109H57.5498" stroke="#C6BA9B" stroke-width="0.221719" stroke-miterlimit="10"/>
        <path d="M41.507 28.2012C41.4893 29.2654 41.4627 30.3119 41.4361 31.3673C41.4272 32.1034 41.4183 32.8395 41.3917 33.5668C40.3984 33.8949 39.1302 34.2408 37.6402 34.4536C36.6026 34.6044 35.4497 34.6931 34.2169 34.6665C33.5163 34.6576 32.8511 34.6133 32.248 34.5335C31.2814 34.427 30.4122 34.2674 29.6672 34.09C29.5165 33.6111 29.3746 33.0701 29.2682 32.4936C29.2061 32.1832 29.1529 31.864 29.0996 31.527C28.9134 30.3031 28.8779 29.2122 28.8957 28.281C29.0553 28.4761 29.348 28.7865 29.8091 29.0348C30.2881 29.292 30.7315 29.363 30.9976 29.3896C32.0707 29.6823 33.8001 30.0015 35.8842 29.833C36.2301 29.8153 36.5849 29.7709 36.9485 29.7177C37.5604 29.6202 38.128 29.496 38.6513 29.3452C39.1657 29.2033 39.6268 29.0437 40.0525 28.8752C40.1412 29.0792 40.2477 29.292 40.3541 29.496C40.2477 29.2832 40.1501 29.0792 40.0614 28.8752C40.6201 28.6535 41.1079 28.4229 41.507 28.21V28.2012Z" fill="url(#paint11_linear_1716_17397)" stroke="#C6BA9B" stroke-width="0.221719" stroke-miterlimit="10"/>
        <path d="M56.5124 41.4335C56.4947 41.9124 56.4237 42.5244 56.2375 43.1452C56.0424 43.8015 55.7142 44.4755 55.1555 45.052C54.2775 45.9654 53.3818 46.063 49.6125 46.9055C45.0274 47.9254 45.2225 48.023 43.9011 48.1471C43.5108 48.1826 43.0851 48.2181 42.6328 48.2447C41.338 48.2979 39.7682 48.2536 38.0033 47.9786C36.9746 46.5862 35.9369 45.114 34.9082 43.5709C34.4115 42.8525 33.9503 42.143 33.5069 41.4335C33.161 40.9014 32.8417 40.387 32.5225 39.8637C34.3672 39.5179 35.7152 39.2607 36.336 39.1454C37.2938 38.9769 38.092 38.8172 38.7838 38.6753H38.7927C40.2915 38.3649 41.2138 38.09 41.8169 37.6643C42.4909 37.1942 43.5907 36.1921 44.2824 34.037C44.3179 33.9394 44.3445 33.833 44.38 33.7266C45.5773 33.8596 47.8033 34.2232 50.2067 35.4648C50.9695 35.8639 51.7588 36.3428 52.5481 36.9459C53.0979 37.3627 53.5857 37.8062 54.0292 38.2319C55.2087 39.3937 56.0158 40.5378 56.539 41.4158L56.5124 41.4335Z" fill="url(#paint12_linear_1716_17397)" stroke="#C6BA9B" stroke-width="0.221719" stroke-miterlimit="10"/>
        <path d="M74.9231 37.7341C73.646 38.5855 72.7592 38.4613 71.012 38.7628C70.5597 38.8338 70.0453 38.9491 69.4423 39.1087C68.582 39.3482 68.1031 39.5344 67.7394 39.7207C67.1896 39.969 66.8703 40.1818 65.877 40.4213C64.6443 40.714 61.4604 41.4501 59.3762 39.9513C58.1346 39.0644 57.4162 37.4503 57.2743 35.5524C57.2655 35.5435 57.2655 35.5346 57.2655 35.5169C57.1945 34.497 57.2832 33.3972 57.567 32.2709C57.6291 32.0049 57.7089 31.7388 57.7887 31.4639C58.6401 31.7033 60.2365 32.0226 62.1965 31.659C63.9259 31.3486 65.1853 30.6302 65.8859 30.1602C67.3226 31.322 68.6175 31.8984 69.5664 32.2C71.5796 32.8651 72.8124 33.2731 74.2136 33.3352C74.4354 33.344 74.9941 33.3706 75.5883 33.6899C75.7213 33.7609 76.6259 34.2841 76.7767 35.0646C77.025 36.2885 75.3222 37.4857 74.932 37.7429L74.9231 37.7341Z" fill="url(#paint13_linear_1716_17397)" stroke="#C6BA9B" stroke-width="0.221719" stroke-miterlimit="10"/>
        <path d="M58.2949 47.4735C58.0732 47.4557 57.8514 47.4202 57.6475 47.3848" stroke="#C6BA9B" stroke-width="0.221719" stroke-miterlimit="10"/>
        <path d="M58.3041 51.0218C53.4972 54.3565 49.2757 55.5183 46.5087 55.9617C44.9123 56.2278 45.604 55.9617 36.8329 56.1125C36.3894 56.1214 35.9194 56.1302 35.4316 56.148C35.0591 56.1569 34.7044 56.1569 34.3585 56.1657C31.9284 53.6115 30.7578 51.2258 30.1192 49.4787C29.7113 48.3169 29.4718 47.2704 29.3033 46.2593C28.9397 44.0155 28.9131 42.0023 28.0173 39.5368C27.8577 39.0934 27.6626 38.6322 27.4409 38.1533C26.5185 36.1933 25.3833 34.7566 24.5674 33.8431C26.35 33.4706 27.9198 32.9828 29.2501 32.5039C29.3565 33.0804 29.4984 33.6214 29.6492 34.1003C29.6492 34.6147 29.7024 35.5281 30.0749 36.5747C30.1813 36.8762 30.3232 37.1866 30.4828 37.497C30.7223 37.9493 30.9795 38.3307 31.2367 38.6588H31.2455C31.3076 38.7475 31.3786 38.8185 31.4495 38.8983C31.8486 39.3506 32.2211 39.6699 32.496 39.8827C32.8153 40.3971 33.1435 40.9115 33.4805 41.4347C33.9328 42.1531 34.394 42.8626 34.8817 43.581C35.9105 45.1241 36.9482 46.5963 37.9769 47.9887C39.7418 48.2637 41.3116 48.308 42.6064 48.2548C43.0587 48.2371 43.4844 48.1927 43.8746 48.1572C45.205 48.0242 45.001 47.9355 49.5861 46.9156C53.3642 46.0642 54.2511 45.9755 55.1291 45.062C55.6878 44.4856 56.016 43.8116 56.2111 43.1553C56.4062 42.5345 56.4683 41.9225 56.486 41.4436C56.9028 42.2684 57.364 43.3504 57.7188 44.6541C57.9582 45.5055 58.1622 46.4456 58.2686 47.4832C58.2686 47.5187 58.2775 47.5453 58.2775 47.5808C58.4105 48.8756 58.375 50.0463 58.2775 51.0307L58.3041 51.0218Z" fill="url(#paint14_linear_1716_17397)" stroke="#C6BA9B" stroke-width="0.221719" stroke-miterlimit="10"/>
        <path d="M78.4358 50.2483C76.396 51.1883 74.0281 52.1373 71.3586 52.9266C66.4719 54.3722 62.0641 54.8777 58.5432 54.993C58.4723 53.6627 58.3925 52.3324 58.3038 51.011C58.4013 50.0265 58.4368 48.8559 58.3038 47.561C58.3038 47.5256 58.2949 47.4989 58.2949 47.4635C61.4256 47.8626 66.2058 48.0311 71.6424 46.4702C74.303 45.6986 76.5557 44.6876 78.356 43.7031C78.3915 45.876 78.4092 48.0665 78.427 50.2483H78.4358Z" fill="url(#paint15_linear_1716_17397)" stroke="#C6BA9B" stroke-width="0.221719" stroke-miterlimit="10"/>
        <path d="M50.6842 9.53372C50.631 13.6843 48.9814 16.7174 46.8707 20.5044C46.7643 20.6995 46.6578 20.8946 46.5425 21.0897C45.8596 22.287 44.955 23.7148 43.8287 25.2757C43.1458 26.207 42.3742 27.1914 41.514 28.2024C41.1149 28.4153 40.6271 28.6459 40.0684 28.8676H40.0595C39.6338 29.0361 39.1726 29.1957 38.6582 29.3376C38.135 29.4884 37.5674 29.6126 36.9554 29.7101C36.5918 29.7633 36.2371 29.8077 35.8912 29.8254C33.7982 29.9939 32.0776 29.6746 31.0045 29.382C28.8494 22.287 28.3527 16.3893 28.2995 12.3895C28.2108 6.18134 29.1864 3.94642 30.6764 2.54515C30.8803 2.35004 31.0932 2.17267 31.3238 2.01303C33.0266 0.771405 35.1019 0.567424 37.5142 0.319099C39.2702 0.150593 42.3742 -0.159813 45.1235 0.585161C45.9483 0.80688 46.7554 1.11729 47.4738 1.56959C48.1478 1.98642 48.7597 2.50968 49.2741 3.17483C50.7552 5.11709 50.7286 7.39636 50.702 9.52486L50.6842 9.53372Z" fill="url(#paint16_linear_1716_17397)" stroke="#C6BA9B" stroke-width="0.221719" stroke-miterlimit="10"/>
        <path d="M28.2831 12.399C28.3363 16.3988 28.8329 22.2965 30.988 29.3915C30.6244 28.9924 30.2165 28.5135 29.8085 27.937C29.1256 26.9792 28.4161 25.773 27.8929 24.3097C27.6357 23.6002 27.4849 23.0415 26.935 19.3875C26.0748 13.6761 25.9595 11.9644 25.9772 10.1729C26.0127 8.08876 26.0304 7.04225 26.5359 5.96026C27.68 3.53023 30.1278 2.43937 31.3073 2.01367C31.0856 2.17331 30.8639 2.35955 30.6599 2.5458C29.17 3.94706 28.1944 6.18198 28.2831 12.3901V12.399Z" fill="url(#paint17_linear_1716_17397)" stroke="#C6BA9B" stroke-width="0.221719" stroke-miterlimit="10"/>
        <path d="M74.4365 14.8265C74.2414 16.9373 73.4432 18.8796 72.5297 20.2542C71.9976 21.0701 70.6229 23.1366 68.1663 23.8372C67.8115 23.9347 67.4834 23.988 67.1286 24.0234C66.7739 24.0412 66.4014 24.0412 65.9934 24.0057C65.2662 23.9436 64.4237 23.8017 63.3239 23.6066C61.7719 23.3317 59.8208 22.8705 57.5947 22.0989C57.8963 19.0392 58.3752 16.5559 58.7831 14.7822C59.9982 9.59398 61.0979 8.22819 61.6477 7.64286C62.2331 6.99544 63.4924 5.63852 65.3992 5.19508C65.5677 5.15074 65.754 5.12413 65.9313 5.09753C69.0975 4.68956 71.9266 7.14621 73.2481 9.30131C73.5673 9.82457 73.8245 10.3744 74.0108 10.9332C74.3034 11.7668 74.4542 12.6182 74.4808 13.4608C74.4986 13.9219 74.4897 14.3742 74.4365 14.8354V14.8265Z" fill="url(#paint18_linear_1716_17397)" stroke="#C6BA9B" stroke-width="0.221719" stroke-miterlimit="10"/>
        <path d="M65.3989 5.1875C63.4921 5.63094 62.2328 6.98785 61.6474 7.63527C61.0976 8.22061 59.9979 9.5864 58.7828 14.7746C58.3749 16.5395 57.896 19.0316 57.5944 22.0913C57.5856 21.7898 57.5589 21.506 57.5501 21.2133C57.4437 17.6392 57.7452 14.7303 58.0733 12.655C58.5345 9.74604 59.0046 8.63744 59.8027 7.71509C61.5765 5.63094 64.2637 5.28506 65.3989 5.19637V5.1875Z" fill="url(#paint19_linear_1716_17397)" stroke="#C6BA9B" stroke-width="0.221719" stroke-miterlimit="10"/>
    </g>
    <defs>
        <linearGradient id="paint0_linear_1716_17397" x1="40.0439" y1="29.1776" x2="40.3455" y2="29.1776" gradientUnits="userSpaceOnUse">
            <stop stop-color="#C28A7C"/>
            <stop offset="1" stop-color="#C9BEB4"/>
        </linearGradient>
        <linearGradient id="paint1_linear_1716_17397" x1="40.0429" y1="29.1776" x2="40.3444" y2="29.1776" gradientUnits="userSpaceOnUse">
            <stop stop-color="#C3C4C4"/>
            <stop offset="0.52" stop-color="#91B2D6"/>
            <stop offset="1" stop-color="#919AA1"/>
        </linearGradient>
        <linearGradient id="paint2_linear_1716_17397" x1="51.5186" y1="36.7588" x2="78.5683" y2="36.7588" gradientUnits="userSpaceOnUse">
            <stop stop-color="#C3483E"/>
            <stop offset="0.16" stop-color="#C3483E"/>
            <stop offset="0.87" stop-color="#E3805D"/>
        </linearGradient>
        <linearGradient id="paint3_linear_1716_17397" x1="41.3819" y1="31.7595" x2="54.011" y2="31.7595" gradientUnits="userSpaceOnUse">
            <stop stop-color="#9FA0A0"/>
            <stop offset="1" stop-color="#F7F9F9"/>
        </linearGradient>
        <linearGradient id="paint4_linear_1716_17397" x1="37.0093" y1="39.8819" x2="37.0093" y2="33.5673" gradientUnits="userSpaceOnUse">
            <stop stop-color="#9FA0A0"/>
            <stop offset="1" stop-color="#F7F9F9"/>
        </linearGradient>
        <linearGradient id="paint5_linear_1716_17397" x1="0.106166" y1="41.6477" x2="34.3661" y2="41.6477" gradientUnits="userSpaceOnUse">
            <stop stop-color="#9FA0A0"/>
            <stop offset="1" stop-color="#F7F9F9"/>
        </linearGradient>
        <linearGradient id="paint6_linear_1716_17397" x1="14.9537" y1="34.5505" x2="14.9537" y2="21.345" gradientUnits="userSpaceOnUse">
            <stop stop-color="#C3483E"/>
            <stop offset="0.16" stop-color="#C3483E"/>
            <stop offset="0.87" stop-color="#E3805D"/>
        </linearGradient>
        <linearGradient id="paint7_linear_1716_17397" x1="0.399334" y1="54.8705" x2="58.7823" y2="54.8705" gradientUnits="userSpaceOnUse">
            <stop stop-color="#C59D62"/>
            <stop offset="1" stop-color="#C9BC9C"/>
        </linearGradient>
        <linearGradient id="paint8_linear_1716_17397" x1="61.7001" y1="27.3866" x2="61.7001" y2="22.092" gradientUnits="userSpaceOnUse">
            <stop stop-color="#9FA0A0"/>
            <stop offset="1" stop-color="#F7F9F9"/>
        </linearGradient>
        <linearGradient id="paint9_linear_1716_17397" x1="61.0881" y1="31.8188" x2="61.0881" y2="26.3468" gradientUnits="userSpaceOnUse">
            <stop stop-color="#9FA0A0"/>
            <stop offset="1" stop-color="#F7F9F9"/>
        </linearGradient>
        <linearGradient id="paint10_linear_1716_17397" x1="50.7035" y1="26.3135" x2="50.7035" y2="21.0898" gradientUnits="userSpaceOnUse">
            <stop stop-color="#C3483E"/>
            <stop offset="0.16" stop-color="#C3483E"/>
            <stop offset="0.87" stop-color="#E3805D"/>
        </linearGradient>
        <linearGradient id="paint11_linear_1716_17397" x1="35.1925" y1="34.6665" x2="35.1925" y2="28.2012" gradientUnits="userSpaceOnUse">
            <stop stop-color="#9FA0A0"/>
            <stop offset="1" stop-color="#F7F9F9"/>
        </linearGradient>
        <linearGradient id="paint12_linear_1716_17397" x1="32.5047" y1="41.0078" x2="56.5124" y2="41.0078" gradientUnits="userSpaceOnUse">
            <stop stop-color="#9FA0A0"/>
            <stop offset="1" stop-color="#F7F9F9"/>
        </linearGradient>
        <linearGradient id="paint13_linear_1716_17397" x1="57.2389" y1="35.4991" x2="76.7944" y2="35.4991" gradientUnits="userSpaceOnUse">
            <stop stop-color="#9FA0A0"/>
            <stop offset="1" stop-color="#F7F9F9"/>
        </linearGradient>
        <linearGradient id="paint14_linear_1716_17397" x1="24.5763" y1="44.3348" x2="58.3928" y2="44.3348" gradientUnits="userSpaceOnUse">
            <stop stop-color="#C3483E"/>
            <stop offset="0.16" stop-color="#C3483E"/>
            <stop offset="0.87" stop-color="#E3805D"/>
        </linearGradient>
        <linearGradient id="paint15_linear_1716_17397" x1="58.2949" y1="49.3525" x2="78.4358" y2="49.3525" gradientUnits="userSpaceOnUse">
            <stop stop-color="#C59D62"/>
            <stop offset="1" stop-color="#C9BC9C"/>
        </linearGradient>
        <linearGradient id="paint16_linear_1716_17397" x1="39.483" y1="29.8786" x2="39.483" y2="0.106248" gradientUnits="userSpaceOnUse">
            <stop stop-color="#9FA0A0"/>
            <stop offset="1" stop-color="#F7F9F9"/>
        </linearGradient>
        <linearGradient id="paint17_linear_1716_17397" x1="28.6378" y1="29.3915" x2="28.6378" y2="2.01367" gradientUnits="userSpaceOnUse">
            <stop stop-color="#9FA0A0"/>
            <stop offset="1" stop-color="#F7F9F9"/>
        </linearGradient>
        <linearGradient id="paint18_linear_1716_17397" x1="66.0378" y1="24.0323" x2="66.0378" y2="5.04431" gradientUnits="userSpaceOnUse">
            <stop stop-color="#9FA0A0"/>
            <stop offset="1" stop-color="#F7F9F9"/>
        </linearGradient>
        <linearGradient id="paint19_linear_1716_17397" x1="61.4612" y1="22.0913" x2="61.4612" y2="5.1875" gradientUnits="userSpaceOnUse">
            <stop stop-color="#9FA0A0"/>
            <stop offset="1" stop-color="#F7F9F9"/>
        </linearGradient>
        <clipPath id="clip0_1716_17397">
            <rect width="78.6835" height="65.5578" fill="white"/>
        </clipPath>
    </defs>
</svg>
