<svg xmlns="http://www.w3.org/2000/svg" width="62" height="59" viewBox="0 0 62 59" fill="none">
    <g clip-path="url(#clip0_1714_11316)">
        <path d="M61.3505 37.8215C61.0389 37.8215 60.5877 37.7313 59.7101 37.0012C58.6356 36.1236 58.2418 35.3936 57.1591 33.9992C56.2487 32.8262 55.7893 32.2439 55.3792 31.9486C54.9773 31.6533 54.034 31.0627 51.4175 30.8987C48.8829 30.7428 46.9144 31.1201 46.2172 31.2596C44.2322 31.6697 44.0025 31.965 39.2943 33.6301C35.5048 34.9753 34.3237 35.2541 32.9129 35.3608C31.3052 35.492 29.96 35.3444 29.0742 35.1967H29.066C28.9511 35.0737 28.8281 34.9507 28.7051 34.8358C31.7564 32.7278 37.1289 29.6027 44.4865 28.1673C50.0805 27.0682 54.8625 27.3224 58.127 27.7654C58.6602 32.1126 60.1202 35.5494 61.3505 37.8215Z" fill="url(#paint0_linear_1714_11316)" stroke="#C6BA9B" stroke-width="0.410119" stroke-miterlimit="10"/>
        <path d="M8.13244 53.957C6.87748 55.4662 5.77016 54.9741 4.76127 56.147C4.13789 56.8688 3.90822 57.8039 3.8508 58.6897C2.16111 58.9276 1.12761 58.7471 0.750306 58.1484C0.62727 57.9515 0.569853 57.7136 0.59446 57.4266C0.684687 55.8845 2.86652 53.0301 7.10715 48.8633C7.18097 49.1504 7.2876 49.3882 7.40243 49.5851C7.9684 50.5448 8.84605 50.6596 9.04291 51.5865C9.25617 52.6036 8.45234 53.5714 8.13244 53.957Z" fill="url(#paint1_linear_1714_11316)" stroke="#C6BA9B" stroke-width="0.410119" stroke-miterlimit="10"/>
        <path d="M19.1722 41.4542C18.6801 41.6428 17.9665 41.9709 17.2447 42.5615C15.8011 43.7344 15.8503 44.7023 14.2344 46.6627C12.8236 48.3688 11.8393 48.7871 11.4128 48.9429C10.9781 49.0988 10.1168 49.3859 9.22274 49.0332C8.74701 48.8445 8.44352 48.541 8.27947 48.377C8.18924 48.2868 8.11542 48.1965 8.0498 48.1063C9.15713 46.9744 10.3957 45.7932 11.7737 44.6121C13.8735 42.8158 15.9159 41.3147 17.8106 40.0762C18.0239 40.273 18.2372 40.4863 18.4586 40.7078C18.6555 40.9046 18.8933 41.1589 19.1722 41.4542Z" fill="url(#paint2_linear_1714_11316)" stroke="#C6BA9B" stroke-width="0.410119" stroke-miterlimit="10"/>
        <path d="M58.1247 27.7658C54.8602 27.3229 50.0782 27.0686 44.4842 28.1677C37.1267 29.6032 31.7541 32.7283 28.7028 34.8363C28.3255 34.4754 27.9072 34.0981 27.4561 33.7372C29.9988 31.9736 33.3372 30.0543 37.4712 28.5615C45.8704 25.5184 53.4084 25.7234 57.9853 26.2648C58.0099 26.6913 58.0427 27.0276 58.0673 27.2491C58.0837 27.4213 58.1083 27.5936 58.1247 27.7658Z" fill="url(#paint3_linear_1714_11316)" stroke="#C6BA9B" stroke-width="0.410119" stroke-miterlimit="10"/>
        <path d="M26.3416 53.4414H26.3252" stroke="#C6BA9B" stroke-width="0.410119" stroke-miterlimit="10"/>
        <path d="M3.85728 58.6895H3.84961" stroke="#C6BA9B" stroke-width="0.410119" stroke-miterlimit="10"/>
        <path d="M7.10603 48.8631C2.8654 53.0299 0.683564 55.8843 0.593338 57.4264C0.511314 56.3108 0.42929 55.1953 0.355469 54.0798C0.740981 53.5384 1.1593 52.9807 1.61043 52.4065C2.23381 51.6109 2.93102 50.7824 3.69384 49.9458C4.89959 48.6334 6.08893 47.4933 7.19625 46.5254C6.93378 47.5507 6.95838 48.3053 7.10603 48.8631Z" fill="url(#paint4_linear_1714_11316)" stroke="#C6BA9B" stroke-width="0.410119" stroke-miterlimit="10"/>
        <path d="M0.618357 57.7683L0.59375 57.4238" stroke="#C6BA9B" stroke-width="0.410119" stroke-miterlimit="10"/>
        <path d="M17.8114 40.0761C15.9166 41.3146 13.8742 42.8157 11.7744 44.612C10.3964 45.7931 9.15784 46.9743 8.05052 48.1062C7.55838 47.4828 7.39433 46.7938 7.33691 46.3591C8.38682 45.4322 9.46133 44.4971 10.5604 43.5621C12.5126 41.9052 14.4484 40.3385 16.3595 38.8457C16.8107 39.1902 17.3028 39.6003 17.8114 40.0761Z" fill="url(#paint5_linear_1714_11316)" stroke="#C6BA9B" stroke-width="0.410119" stroke-miterlimit="10"/>
        <path d="M16.3592 38.8464C14.448 40.3393 12.5123 41.9059 10.5601 43.5628C9.461 44.4979 8.38649 45.4329 7.33659 46.3598C7.32839 46.2614 7.32018 46.1794 7.31198 46.1137C7.27097 46.2532 7.22996 46.3926 7.19715 46.5239C6.08983 47.4917 4.90048 48.6319 3.69473 49.9442C2.93191 50.7809 2.23471 51.6093 1.61133 52.405C3.29282 49.772 4.9579 46.7125 6.40152 43.2019C6.78703 42.2504 7.13973 41.3153 7.45962 40.4049C9.7891 40.3557 11.0195 40.2572 12.5041 39.7405C13.8165 39.2812 14.8172 38.6742 15.4815 38.2148C15.744 38.3953 16.0393 38.6086 16.3592 38.8464Z" fill="url(#paint6_linear_1714_11316)" stroke="#C6BA9B" stroke-width="0.410119" stroke-miterlimit="10"/>
        <path d="M42.2802 12.2134C38.745 12.0329 31.4695 12.1396 23.4393 15.9537C15.9998 19.4889 11.4967 24.5252 9.34764 27.2812C7.53492 26.1902 6.7721 24.4349 5.58275 21.5723C4.87735 19.8744 3.99149 17.3317 3.51575 14.0343C3.27789 14.0097 3.03181 14.0015 2.79395 14.0015C4.49184 11.4588 7.66616 7.50522 12.8747 4.43753C22.5535 -1.24672 32.3471 0.246113 35.2261 0.795673C37.5802 4.60158 39.9261 8.40748 42.2802 12.2134Z" fill="url(#paint7_linear_1714_11316)" stroke="#C6BA9B" stroke-width="0.410119" stroke-miterlimit="10"/>
        <path d="M48.4136 19.0791C45.9201 18.1932 39.8585 16.4133 32.46 18.1358C23.0191 20.3422 17.7531 26.7811 16.2931 28.7087C15.6779 28.5692 15.1366 28.4626 14.6937 28.3724C11.0436 27.6587 10.6335 28.0607 9.3457 27.2814C11.4947 24.5254 15.9978 19.4892 23.4374 15.954C31.4675 12.1398 38.743 12.0332 42.2782 12.2137C42.8442 12.1973 43.4102 12.1727 43.9761 12.1562C44.255 13.0339 44.78 14.092 45.7971 14.6416C46.7157 15.1419 47.3965 14.8794 47.9871 15.3716C48.5039 15.8063 48.9058 16.766 48.4136 19.0791Z" fill="url(#paint8_linear_1714_11316)" stroke="#C6BA9B" stroke-width="0.410119" stroke-miterlimit="10"/>
        <path d="M57.9948 26.2641C53.4179 25.7227 45.8799 25.5176 37.4807 28.5607C33.3467 30.0536 30.0083 31.9729 27.4656 33.7364C27.4656 33.7364 27.4601 33.731 27.4492 33.72C25.1361 31.8417 22.9871 30.9312 21.4943 30.3242C19.5585 29.5286 17.7294 29.0283 16.2939 28.7084C17.754 26.7808 23.0199 20.3419 32.4608 18.1355C39.8594 16.413 45.9209 18.1929 48.4145 19.0788C49.1691 19.7186 50.0959 20.3994 51.2115 21.0227C53.7952 22.4746 56.2641 23.0077 57.962 23.2046C57.9128 24.4595 57.9456 25.5094 57.9948 26.2641Z" fill="url(#paint9_linear_1714_11316)" stroke="#C6BA9B" stroke-width="0.410119" stroke-miterlimit="10"/>
        <path d="M2.79395 14.002V14.0096" stroke="#C6BA9B" stroke-width="0.410119" stroke-miterlimit="10"/>
    </g>
    <defs>
        <linearGradient id="paint0_linear_1714_11316" x1="45.0278" y1="37.8215" x2="45.0278" y2="27.3881" gradientUnits="userSpaceOnUse">
            <stop stop-color="#262F2D"/>
            <stop offset="0.53" stop-color="#5A4021"/>
            <stop offset="1" stop-color="#6E5E32"/>
        </linearGradient>
        <linearGradient id="paint1_linear_1714_11316" x1="4.82689" y1="58.7964" x2="4.82689" y2="48.8633" gradientUnits="userSpaceOnUse">
            <stop stop-color="#262F2D"/>
            <stop offset="0.53" stop-color="#5A4021"/>
            <stop offset="1" stop-color="#6E5E32"/>
        </linearGradient>
        <linearGradient id="paint2_linear_1714_11316" x1="13.611" y1="49.2054" x2="13.611" y2="40.0762" gradientUnits="userSpaceOnUse">
            <stop stop-color="#262F2D"/>
            <stop offset="0.53" stop-color="#5A4021"/>
            <stop offset="1" stop-color="#6E5E32"/>
        </linearGradient>
        <linearGradient id="paint3_linear_1714_11316" x1="27.4561" y1="30.3906" x2="58.1247" y2="30.3906" gradientUnits="userSpaceOnUse">
            <stop stop-color="#615749"/>
            <stop offset="1" stop-color="#7D7662"/>
        </linearGradient>
        <linearGradient id="paint4_linear_1714_11316" x1="0.355469" y1="51.98" x2="7.19625" y2="51.98" gradientUnits="userSpaceOnUse">
            <stop stop-color="#615749"/>
            <stop offset="1" stop-color="#7D7662"/>
        </linearGradient>
        <linearGradient id="paint5_linear_1714_11316" x1="7.33691" y1="43.48" x2="17.8114" y2="43.48" gradientUnits="userSpaceOnUse">
            <stop stop-color="#615749"/>
            <stop offset="1" stop-color="#7D7662"/>
        </linearGradient>
        <linearGradient id="paint6_linear_1714_11316" x1="1.61133" y1="45.3099" x2="16.3592" y2="45.3099" gradientUnits="userSpaceOnUse">
            <stop stop-color="#9C8D78"/>
            <stop offset="1" stop-color="#C9BC9C"/>
        </linearGradient>
        <linearGradient id="paint7_linear_1714_11316" x1="2.79395" y1="13.7472" x2="42.2802" y2="13.7472" gradientUnits="userSpaceOnUse">
            <stop stop-color="#9C8D78"/>
            <stop offset="1" stop-color="#C9BC9C"/>
        </linearGradient>
        <linearGradient id="paint8_linear_1714_11316" x1="9.3457" y1="20.4325" x2="48.6351" y2="20.4325" gradientUnits="userSpaceOnUse">
            <stop stop-color="#262F2D"/>
            <stop offset="0.53" stop-color="#5A4021"/>
            <stop offset="1" stop-color="#6E5E32"/>
        </linearGradient>
        <linearGradient id="paint9_linear_1714_11316" x1="16.2939" y1="25.5751" x2="57.9948" y2="25.5751" gradientUnits="userSpaceOnUse">
            <stop stop-color="#9C8D78"/>
            <stop offset="1" stop-color="#C9BC9C"/>
        </linearGradient>
        <clipPath id="clip0_1714_11316">
            <rect width="61.5506" height="58.9997" fill="white" transform="translate(0.142578)"/>
        </clipPath>
    </defs>
</svg>
