<svg xmlns="http://www.w3.org/2000/svg" width="112" height="148" viewBox="0 0 112 148" fill="none">
    <g clip-path="url(#clip0_1716_17665)">
        <path d="M21.9951 21.908C21.7038 21.7866 21.4205 21.6815 21.1211 21.5844C21.2829 21.3821 21.4772 21.1475 21.6876 20.8887C21.7442 20.8887 21.7928 20.8968 21.8332 20.8968C21.8818 21.2446 21.9384 21.5844 21.9951 21.9161V21.908Z" fill="url(#paint0_linear_1716_17665)" stroke="#C6BA9B" stroke-width="0.167785" stroke-miterlimit="10"/>
        <path d="M99.1243 132.76C99.1324 133.188 99.1081 133.625 99.0515 134.078C98.9948 134.547 98.9058 134.992 98.7925 135.421C98.4202 136.845 97.7648 138.066 97.0041 139.102C95.8468 140.679 94.4549 141.812 93.4596 142.621C91.8734 143.899 90.174 144.886 88.4018 145.646C87.2769 146.124 86.1278 146.512 84.9463 146.811C84.4931 146.941 84.0237 147.046 83.5544 147.151C82.4538 147.386 81.3451 147.556 80.2364 147.661C77.7925 147.928 75.3486 147.944 73.026 147.855C72.3624 147.831 71.707 147.79 71.0676 147.75C69.6596 147.669 68.3 147.548 67.0295 147.442C66.0341 147.361 64.9335 147.264 63.7439 147.135C62.9994 147.062 62.2145 146.965 61.4052 146.844C60.7578 146.763 60.1023 146.658 59.4145 146.536C57.6827 146.245 55.8295 145.865 53.9197 145.331C48.6757 143.891 42.9301 141.416 37.4838 136.974C34.3035 134.37 32.0133 131.765 30.5162 129.823C30.4676 128.626 30.4353 127.429 30.3867 126.223C30.6861 126.175 30.9775 126.142 31.2769 126.094C37.8156 131.708 44.0145 135.001 48.5867 136.974C49.8896 137.541 51.2006 138.058 52.4954 138.511C53.0861 138.73 53.6688 138.924 54.2596 139.11C55.6757 139.579 57.0757 139.976 58.4596 140.323C60.6202 140.874 62.7486 141.294 64.8202 141.585C64.9578 141.61 65.1035 141.634 65.2411 141.642H65.2572C65.6052 141.699 65.9451 141.747 66.2931 141.78C66.9567 141.861 67.596 141.925 68.2434 141.982C71.9902 142.322 75.4942 142.265 78.6179 141.941H78.626C79.6133 141.836 80.5601 141.707 81.4746 141.561C83.2549 141.262 84.8896 140.874 86.322 140.421C87.6491 140 88.8064 139.531 89.7937 139.021C90.8052 138.511 91.6226 137.945 92.2295 137.379C92.8445 136.805 94.1151 135.615 94.6734 133.965C94.8596 133.439 94.9728 132.865 94.9728 132.25C94.9728 130.244 93.7671 128.699 93.0549 127.922C93.0064 127.874 92.9578 127.825 92.9255 127.785C93.759 127.016 94.9567 126.482 96.3405 125.18C96.9879 126.021 98.663 128.351 99.0515 131.465C99.1081 131.878 99.1486 132.307 99.1486 132.752L99.1243 132.76Z" fill="url(#paint1_linear_1716_17665)" stroke="#C6BA9B" stroke-width="0.167785" stroke-miterlimit="10"/>
        <path d="M107.048 115.125C104.717 122.123 101.926 127.778 99.5544 131.96C99.3359 131.79 99.1417 131.644 98.9799 131.523C98.5914 128.409 96.9082 126.079 96.2689 125.237C98.4134 123.215 99.255 121.039 100.517 117.787C101.877 114.26 102.322 111.056 102.443 108.662C103.795 108.395 104.208 108.12 104.475 107.739C104.782 107.303 104.847 106.817 104.855 106.518C104.685 105.094 104.564 103.945 104.475 103.064C104.402 102.198 104.353 101.608 104.353 101.3C104.232 100.79 103.819 99.124 102.63 97.312C101.812 96.05 100.898 95.1763 100.234 94.6181C100.331 94.3997 100.461 94.0842 100.574 93.6959C100.865 92.62 100.809 91.6654 100.615 90.5005C100.242 88.2596 99.9914 86.7631 98.8504 85.1209C98.1221 84.0773 97.3209 83.3897 96.7787 82.9771C96.7544 81.2055 96.6411 79.6927 96.5197 78.544C96.2203 75.5427 95.8238 74.2565 95.6215 73.6902C95.3382 72.857 95.0307 72.2017 94.8122 71.7406C94.877 71.6597 94.9741 71.5222 95.0631 71.3685C95.3059 70.9235 95.3706 70.5191 95.3949 70.2764C95.5729 68.7636 95.4758 67.534 95.4758 67.534C95.3625 66.0212 95.1683 64.7754 94.8041 62.3323C94.7556 62.0088 94.707 61.7094 94.6018 61.313C94.2943 60.3018 93.8492 59.7275 93.3799 58.9509C93.0723 58.4493 92.6434 57.6889 92.2388 56.6858C92.344 56.3865 92.3845 56.1276 92.4169 55.893C92.4735 55.3914 92.4088 55.0031 92.3197 54.7281C92.1498 54.2023 91.907 54.0324 91.4134 53.1344C91.1059 52.5681 90.9602 52.2041 90.7417 51.7106C90.329 50.748 89.4955 48.944 88.9937 48.1108C87.8365 46.1773 85.9995 45.247 84.1868 44.3248C84.0654 44.2682 83.944 44.2035 83.8388 44.1549C84.3082 44.2115 87.5128 44.5998 89.9163 42.3509C91.2758 41.0647 91.7128 39.5357 91.8585 39.0584C92.1498 37.9663 92.5301 36.6073 91.7614 35.2725C91.1706 34.2451 89.9163 33.3067 88.6458 33.4281C87.1567 33.5656 87.0677 35.0703 85.2064 35.7902C83.8145 36.3241 81.9371 36.219 80.6666 35.2806C80.4723 34.3503 79.0319 26.7865 84.0573 21.4473C85.8943 19.4896 88.0064 18.4946 89.4712 17.9688C94.092 22.4019 96.7221 26.7784 99.1903 30.985C111.442 51.7673 111.839 72.7194 111.904 81.9659C112.033 99.755 108.011 112.278 107.064 115.133L107.048 115.125Z" fill="url(#paint2_linear_1716_17665)" stroke="#C6BA9B" stroke-width="0.167785" stroke-miterlimit="10"/>
        <path d="M80.0429 10.9534C70.2995 5.35536 60.9042 4.29562 57.7562 3.96394C53.9527 3.58373 50.6591 3.64844 48.1504 3.82642C53.8637 2.31365 58.1203 2.29747 59.3828 2.30556C63.3643 2.34601 70.6718 2.41882 76.644 7.32923C78.2463 8.66402 79.355 9.99881 80.051 10.9453L80.0429 10.9534Z" fill="url(#paint3_linear_1716_17665)" stroke="#C6BA9B" stroke-width="0.167785" stroke-miterlimit="10"/>
        <path d="M59.1309 107.042C59.1066 107.617 59.0742 108.215 59.0338 108.83C58.961 110.229 58.8558 111.702 58.7263 113.247C58.7101 113.481 58.6777 113.716 58.6615 113.959C58.6534 114.088 58.6373 114.226 58.6211 114.363C58.5644 114.444 58.5078 114.509 58.4592 114.606C58.4511 114.622 58.4349 114.654 58.4107 114.679C58.3621 114.784 58.3055 114.897 58.265 115.019C58.2164 115.132 58.1841 115.253 58.1517 115.374C58.1517 115.391 58.1436 115.415 58.1436 115.439C58.1031 115.569 58.087 115.69 58.0789 115.827C58.0708 115.892 58.0708 115.973 58.0708 116.054C58.0708 116.175 58.0789 116.734 58.3216 117.251C57.9575 120.463 57.4557 123.925 56.7598 127.614C56.6141 128.455 56.4442 129.305 56.2662 130.162C56.1205 130.907 55.9586 131.675 55.7887 132.444C55.3112 134.62 54.7691 136.861 54.1459 139.166C53.5552 138.98 52.9725 138.786 52.3818 138.567C51.087 138.114 49.776 137.597 48.4731 137.03C43.9008 135.057 37.7101 131.764 31.1633 126.15C30.1841 125.381 29.1725 124.556 28.161 123.642C27.3112 122.89 26.4534 122.073 25.5956 121.215C25.4662 121.086 25.3367 120.956 25.2234 120.827C26.7448 120.447 29.0026 119.605 30.7505 117.631C32.0453 116.159 32.7656 114.412 33.0893 111.394C33.1378 110.925 33.1864 110.424 33.2107 109.882C33.2754 108.741 33.3078 107.447 33.3078 105.966C33.2997 104.178 33.2511 102.488 33.1702 100.943C32.9517 96.4932 32.5066 93.2008 32.3124 91.7932C32.1667 90.7415 32.0292 89.7546 31.8997 88.8081C30.8396 81.1391 30.2326 77.0215 29.5771 74.2953C29.4557 73.7856 29.3263 73.2679 29.2049 72.7501C28.9621 71.7713 28.7112 70.7763 28.4361 69.757C27.5055 66.2865 26.3482 62.6624 24.5436 58.844C23.7263 57.1129 22.7633 55.3412 21.6222 53.5211C18.0049 47.7289 13.9344 43.7002 11.0049 41.1763C12.2835 36.8807 13.8696 33.3293 15.2615 30.6678C15.6014 30.0126 15.9332 29.422 16.2407 28.8638C18.4581 24.9484 20.5864 22.2627 21.1124 21.6074C21.4118 21.7126 21.7031 21.8097 21.9864 21.931C29.4962 24.7138 34.376 28.6859 37.0708 31.2422C39.5956 33.6448 41.5055 36.0636 43.0916 38.4501H43.0997C44.613 40.7152 45.8349 42.956 47.0245 45.124C48.3679 47.5994 49.517 50.0182 50.5043 52.4047C50.7875 53.06 51.0465 53.7233 51.2974 54.3786C51.7505 55.5516 52.1714 56.7165 52.5679 57.8976C52.8673 58.8036 53.1586 59.7096 53.4338 60.6076C53.8627 62.0071 54.2511 63.3904 54.6072 64.7576C54.9633 66.0762 55.287 67.3867 55.5783 68.6811C59.8592 87.2144 59.2604 103.596 59.1147 107.05L59.1309 107.042Z" fill="url(#paint4_linear_1716_17665)" stroke="#C6BA9B" stroke-width="0.167785" stroke-miterlimit="10"/>
        <path d="M33.3167 105.951C33.3167 107.431 33.2924 108.734 33.2196 109.866C33.1953 110.408 33.1467 110.91 33.0982 111.379C32.7745 114.405 32.0543 116.144 30.7595 117.616C29.0115 119.59 26.7537 120.431 25.2323 120.812C22.4161 117.924 20.1259 114.979 18.2889 112.204C16.897 110.117 15.7641 108.111 14.8254 106.283C15.3109 106.202 15.9017 105.927 16.4519 105.676C17.3097 105.271 17.9814 104.859 18.4184 104.551C19.0901 104.317 20.1017 103.872 21.1132 103.031C22.2219 102.125 22.8774 101.138 23.2415 100.49C21.9063 93.412 20.9999 88.178 20.4415 84.8936C20.4415 84.8936 19.26 77.9527 15.0519 67.4361C14.971 67.2177 14.7849 66.7809 14.3803 66.344C13.0126 64.8798 10.5768 65.074 9.55715 65.1468C9.42767 65.1549 9.26582 65.171 9.11206 65.1953C8.41611 59.7833 8.57796 55.2531 8.88547 52.0416C9.27391 48.021 10.0508 44.3645 11.0138 41.1367C13.9433 43.6607 18.0138 47.6893 21.6311 53.4815C22.7722 55.3017 23.7271 57.0733 24.5525 58.8045C26.3491 62.6228 27.5063 66.247 28.445 69.7174C28.7121 70.7367 28.971 71.7317 29.2138 72.7106C29.3352 73.2364 29.4647 73.7461 29.5861 74.2557C30.2415 76.9819 30.8485 81.0996 31.9086 88.7685C32.0381 89.7069 32.1676 90.702 32.3213 91.7536C32.5155 93.1612 32.9687 96.4537 33.1791 100.903C33.26 102.448 33.3086 104.139 33.3167 105.927V105.951Z" fill="url(#paint5_linear_1716_17665)" stroke="#C6BA9B" stroke-width="0.167785" stroke-miterlimit="10"/>
        <path d="M18.6277 103.516C18.5549 103.961 18.4821 104.317 18.4254 104.551C17.9884 104.859 17.3167 105.279 16.4589 105.676C15.9086 105.926 15.3179 106.202 14.8323 106.282C13.1896 106.541 11.5873 104.81 11.1017 104.276C7.96992 100.87 6.72368 93.606 4.19073 84.5132C3.33292 81.4553 2.44275 78.5835 1.98148 74.2232C1.7468 71.9904 1.69824 70.146 1.69824 68.9002C1.86009 68.6656 2.07859 68.3582 2.3861 68.0265C3.0335 67.3146 4.02888 66.4652 5.42888 66.0041C5.89824 65.8423 6.34333 65.7533 6.74795 65.7048C6.89362 65.6886 7.03928 65.6643 7.16876 65.6562C8.13986 66.2468 9.49131 67.1205 10.5595 68.0751C10.778 68.2692 10.9399 68.4391 11.1098 68.698C11.6439 69.5312 11.4092 70.2107 11.6601 71.1168C11.9029 71.9824 12.437 72.4677 12.6959 72.7751C14.6624 75.1454 15.6011 85.8075 17.8832 94.0509C18.3445 95.7012 19.3722 99.1797 18.6358 103.516H18.6277Z" fill="url(#paint6_linear_1716_17665)" stroke="#C6BA9B" stroke-width="0.167785" stroke-miterlimit="10"/>
        <path d="M23.25 100.499C22.8858 101.147 22.2303 102.134 21.1216 103.04C20.102 103.881 19.0985 104.326 18.4268 104.56C18.4835 104.326 18.5563 103.97 18.6292 103.525C19.3656 99.1889 18.3297 95.7104 17.8766 94.0601C15.5945 85.8168 14.6558 75.1546 12.6893 72.7844C12.4303 72.4769 11.8962 71.9916 11.6534 71.126C11.4026 70.2199 11.6373 69.5404 11.1031 68.7072C10.9332 68.4483 10.7633 68.2784 10.5529 68.0843C9.49274 67.1297 8.13321 66.256 7.16211 65.6655C7.91471 65.4066 8.58639 65.2772 9.1124 65.2125C9.27425 65.1963 9.42801 65.172 9.55749 65.1639C10.5771 65.0911 13.013 64.897 14.3806 66.3612C14.7852 66.798 14.9714 67.2349 15.0523 67.4533C19.2604 77.9698 20.4419 84.9107 20.4419 84.9107C21.0003 88.1951 21.9066 93.4291 23.2419 100.508L23.25 100.499Z" fill="url(#paint7_linear_1716_17665)" stroke="#C6BA9B" stroke-width="0.167785" stroke-miterlimit="10"/>
        <path d="M83.474 13.1076C82.3248 12.3229 81.1919 11.603 80.0508 10.9639C80.0508 10.9558 80.0428 10.9558 80.0428 10.9558C79.3549 10.0012 78.2381 8.67451 76.6358 7.33972C70.6636 2.42122 63.3561 2.34841 59.3746 2.31606C58.1121 2.30797 53.8474 2.32414 48.1422 3.83691H48.1341C33.6809 7.65522 24.8277 17.1282 21.6959 20.898C21.4774 21.1568 21.2832 21.3914 21.1295 21.5937C20.6035 22.2489 18.4832 24.9347 16.2578 28.8501C15.9503 29.4002 15.6104 29.9988 15.2786 30.6541C13.8867 33.3237 12.3006 36.8669 11.022 41.1625C10.0589 44.3903 9.29016 48.0468 8.89363 52.0674C8.58611 55.2789 8.41617 59.8091 9.12022 65.2211C8.59421 65.2858 7.92253 65.4153 7.16993 65.6741C7.04045 65.6822 6.90288 65.6984 6.74912 65.7146C6.25548 62.8428 5.77802 58.6928 6.09363 53.7338C6.70057 44.0829 9.92138 37.0853 11.7422 33.2185C12.6485 31.3012 13.5873 29.5458 14.526 27.9683C16.2578 25.0237 17.9329 22.6858 19.2035 21.084C20.1098 19.9272 20.7977 19.1425 21.1376 18.7623C23.4035 16.1979 28.785 10.5998 37.363 6.06156C40.4139 4.45172 44.5653 2.29179 50.311 1.07834C50.3352 1.07834 50.3595 1.07025 50.3838 1.07025C50.9826 0.940817 51.5977 0.827561 52.2289 0.722396C54.8751 0.293645 59.5364 -0.402064 65.3954 0.779024C67.4509 1.1916 71.7318 2.10572 76.126 5.07462C77.5341 6.0292 80.2046 7.87364 82.4058 11.2389C82.8994 12.0074 83.2555 12.6465 83.4902 13.1238L83.474 13.1076Z" fill="url(#paint8_linear_1716_17665)" stroke="#C6BA9B" stroke-width="0.167785" stroke-miterlimit="10"/>
        <path d="M50.2945 1.05106C44.5488 2.2645 40.3974 4.41635 37.3465 6.03428C28.7766 10.5726 23.387 16.1706 21.1211 18.735C20.7812 19.1152 20.0933 19.8999 19.187 21.0567C17.9165 22.6585 16.2494 24.9964 14.5095 27.941C13.5789 29.5185 12.6321 31.274 11.7257 33.1912C9.9049 37.0581 6.68409 44.0556 6.07715 53.7065C5.76154 58.6655 6.239 62.8155 6.73264 65.6873C6.32802 65.7439 5.88293 65.8329 5.41357 65.9947C4.01357 66.4639 3.01819 67.3133 2.37079 68.0171C0.857498 62.9045 -0.655797 55.1627 0.477151 45.9243C1.16501 40.2049 3.6575 27.4395 14.0482 16.1787C20.0852 9.65035 26.543 6.05046 30.6378 4.15748C37.1766 3.12201 43.7396 2.08653 50.2783 1.04297L50.2945 1.05106Z" fill="url(#paint9_linear_1716_17665)" stroke="#C6BA9B" stroke-width="0.167785" stroke-miterlimit="10"/>
        <path opacity="0.5" d="M107.047 115.122C104.716 122.12 101.925 127.774 99.5535 131.957C99.335 131.787 99.1407 131.641 98.9789 131.52C98.5905 128.405 96.9072 126.075 96.2679 125.234C94.8841 126.528 93.6864 127.07 92.8529 127.839C92.8933 127.888 92.9338 127.936 92.9824 127.977C93.7026 128.753 94.9084 130.298 94.9084 132.304C94.9084 132.919 94.7951 133.502 94.609 134.019C94.0506 135.67 92.7801 136.851 92.165 137.433C91.5581 138 90.7407 138.566 89.7292 139.076C88.7419 139.585 87.5847 140.054 86.2575 140.467C84.817 140.92 83.1905 141.316 81.4101 141.616C80.4957 141.761 79.5569 141.899 78.5616 141.996H78.5535C75.4298 142.311 71.9257 142.368 68.1789 142.036C67.5315 141.98 66.8922 141.915 66.2286 141.834C65.8806 141.794 65.5407 141.753 65.1928 141.697H65.1766C65.039 141.688 64.8933 141.672 64.7558 141.64C62.6841 141.349 60.5558 140.928 58.3951 140.378C57.0113 140.03 55.6113 139.634 54.1951 139.164C54.8182 136.859 55.3604 134.61 55.8379 132.442C56.0078 131.665 56.1616 130.905 56.3153 130.161C56.4933 129.303 56.6633 128.454 56.8089 127.612C57.4968 123.932 58.0066 120.461 58.3708 117.25C58.128 116.74 58.1199 116.174 58.1199 116.052C58.1199 115.98 58.1199 115.891 58.128 115.826C58.1361 115.688 58.1523 115.567 58.1928 115.438C58.1928 115.413 58.2009 115.389 58.2009 115.373C58.2251 115.251 58.2656 115.13 58.3142 115.017C58.3627 114.896 58.4194 114.782 58.4598 114.677C58.476 114.653 58.5003 114.621 58.5084 114.604C58.5569 114.507 58.6136 114.443 58.6702 114.37C58.6783 114.232 58.6945 114.087 58.7107 113.957C58.7269 113.714 58.7592 113.48 58.7754 113.245C58.9049 111.7 59.0101 110.22 59.0829 108.828C59.1234 108.214 59.1477 107.615 59.18 107.041C59.3257 103.586 59.9246 87.2047 55.6436 68.6713C55.3523 67.377 55.0286 66.0584 54.6725 64.7479C54.3165 63.3807 53.928 61.9974 53.4991 60.606C53.2159 59.6918 52.9327 58.7858 52.6332 57.8798C52.2448 56.7068 51.824 55.5419 51.3627 54.3608C51.1118 53.6974 50.8529 53.0341 50.5696 52.3869C49.5824 50.0005 48.4332 47.5736 47.0899 45.1062C45.8922 42.9301 44.6702 40.6974 43.165 38.4323H43.1569C41.5708 36.0458 39.6691 33.627 37.1361 31.2244C34.4413 28.6681 29.5616 24.6961 22.0517 21.9132C21.7604 21.7919 21.4772 21.6867 21.1777 21.5896C21.3396 21.3874 21.5338 21.1528 21.7442 20.8939C24.876 17.1241 33.7292 7.65118 48.1824 3.83287H48.1905C50.6991 3.65489 53.9928 3.59018 57.7962 3.97039C60.9523 4.29398 70.3477 5.36181 80.0829 10.9598C80.0829 10.9598 80.091 10.9598 80.091 10.9679C81.2321 11.6151 82.365 12.327 83.5142 13.1117L83.5223 13.1279C85.0275 14.1633 86.5246 15.3202 87.9893 16.6145C88.4991 17.0594 89.0009 17.5205 89.4621 17.9655C94.0829 22.3986 96.713 26.7751 99.1812 30.9817C111.433 51.764 111.83 72.7162 111.895 81.9626C112.024 99.7518 108.002 112.275 107.055 115.13L107.047 115.122Z" fill="black"/>
    </g>
    <defs>
        <linearGradient id="paint0_linear_1716_17665" x1="21.5581" y1="21.908" x2="21.5581" y2="20.8806" gradientUnits="userSpaceOnUse">
            <stop stop-color="#15181F"/>
            <stop offset="0.46" stop-color="#205D79"/>
            <stop offset="1" stop-color="#BDCCE9"/>
        </linearGradient>
        <linearGradient id="paint1_linear_1716_17665" x1="30.3705" y1="136.546" x2="99.1243" y2="136.546" gradientUnits="userSpaceOnUse">
            <stop stop-color="#727171"/>
            <stop offset="1" stop-color="#F7F9F9"/>
        </linearGradient>
        <linearGradient id="paint2_linear_1716_17665" x1="80.3186" y1="74.9603" x2="111.895" y2="74.9603" gradientUnits="userSpaceOnUse">
            <stop stop-color="#9FA0A0"/>
            <stop offset="1" stop-color="#F7F9F9"/>
        </linearGradient>
        <linearGradient id="paint3_linear_1716_17665" x1="48.1423" y1="6.62543" x2="80.0429" y2="6.62543" gradientUnits="userSpaceOnUse">
            <stop stop-color="#3F3B3A"/>
            <stop offset="1" stop-color="#050C05"/>
        </linearGradient>
        <linearGradient id="paint4_linear_1716_17665" x1="11.0211" y1="80.3706" x2="59.2442" y2="80.3706" gradientUnits="userSpaceOnUse">
            <stop stop-color="#9FA0A0"/>
            <stop offset="1" stop-color="#F7F9F9"/>
        </linearGradient>
        <linearGradient id="paint5_linear_1716_17665" x1="8.62651" y1="80.9863" x2="33.3167" y2="80.9863" gradientUnits="userSpaceOnUse">
            <stop stop-color="#9FA0A0"/>
            <stop offset="1" stop-color="#F7F9F9"/>
        </linearGradient>
        <linearGradient id="paint6_linear_1716_17665" x1="10.2925" y1="106.315" x2="10.2925" y2="65.6562" gradientUnits="userSpaceOnUse">
            <stop stop-color="#727171"/>
            <stop offset="1" stop-color="#F7F9F9"/>
        </linearGradient>
        <linearGradient id="paint7_linear_1716_17665" x1="7.16211" y1="84.8298" x2="23.25" y2="84.8298" gradientUnits="userSpaceOnUse">
            <stop stop-color="#727171"/>
            <stop offset="1" stop-color="#F7F9F9"/>
        </linearGradient>
        <linearGradient id="paint8_linear_1716_17665" x1="5.98843" y1="32.903" x2="83.474" y2="32.903" gradientUnits="userSpaceOnUse">
            <stop stop-color="#727171"/>
            <stop offset="0.58" stop-color="#F7F9F9"/>
        </linearGradient>
        <linearGradient id="paint9_linear_1716_17665" x1="0.0968039" y1="34.5422" x2="50.2945" y2="34.5422" gradientUnits="userSpaceOnUse">
            <stop stop-color="#727171"/>
            <stop offset="0.58" stop-color="#F7F9F9"/>
        </linearGradient>
        <clipPath id="clip0_1716_17665">
            <rect width="112" height="148" fill="white"/>
        </clipPath>
    </defs>
</svg>
