<svg width="260" height="260" viewBox="0 0 260 260" fill="none" xmlns="http://www.w3.org/2000/svg">
<rect width="260" height="260" fill="none"/>
<path d="M200.041 90.543V188.281H41.2172V90.543H200.041ZM200.041 78.3258H41.2172C34.4977 78.3258 29 83.8236 29 90.543V188.281C29 195 34.4977 200.498 41.2172 200.498H200.041C206.76 200.498 212.258 195 212.258 188.281V90.543C212.258 83.7625 206.822 78.3258 200.041 78.3258Z" fill="#272928"/>
<path d="M59.5431 176.063C56.1833 176.063 53.4344 173.315 53.4344 169.955V72.2172C53.4344 68.8574 56.1833 66.1086 59.5431 66.1086H218.367C221.727 66.1086 224.475 68.8574 224.475 72.2172V169.955C224.475 173.315 221.727 176.063 218.367 176.063H59.5431Z" fill="#9EFEDD"/>
<path d="M218.367 72.2173V169.955H59.543V72.2173H218.367ZM218.367 60.0001H59.543C52.8236 60.0001 47.3258 65.4978 47.3258 72.2173V169.955C47.3258 176.674 52.8236 182.172 59.543 182.172H218.367C225.086 182.172 230.584 176.674 230.584 169.955V72.2173C230.584 65.4367 225.147 60.0001 218.367 60.0001Z" fill="#272928"/>
<path d="M114.52 139.412H96.1946C91.1245 139.412 87.0317 135.319 87.0317 130.249C87.0317 125.179 91.1245 121.086 96.1946 121.086H114.52C119.591 121.086 123.683 125.179 123.683 130.249C123.683 135.319 119.591 139.412 114.52 139.412Z" fill="#6CD7B2"/>
<path d="M206.15 139.412H187.824C182.754 139.412 178.661 135.319 178.661 130.249C178.661 125.179 182.754 121.086 187.824 121.086H206.15C211.22 121.086 215.313 125.179 215.313 130.249C215.313 135.319 211.22 139.412 206.15 139.412Z" fill="#6CD7B2"/>
<path d="M114.52 133.303C112.81 133.303 111.466 131.959 111.466 130.249V99.7059C111.466 97.9955 112.81 96.6516 114.52 96.6516C116.231 96.6516 117.575 97.9955 117.575 99.7059V130.249C117.575 131.898 116.231 133.303 114.52 133.303Z" fill="#FF7BAC"/>
<path d="M114.521 90.543C109.45 90.543 105.358 94.6358 105.358 99.7059V130.249C105.358 135.319 109.45 139.412 114.521 139.412C119.591 139.412 123.683 135.319 123.683 130.249V99.7059C123.683 94.6358 119.591 90.543 114.521 90.543Z" fill="#272928"/>
<path d="M187.824 133.303C186.113 133.303 184.77 131.959 184.77 130.249V99.7059C184.77 97.9955 186.113 96.6516 187.824 96.6516C189.534 96.6516 190.878 97.9955 190.878 99.7059V130.249C190.878 131.898 189.534 133.303 187.824 133.303Z" fill="#FF7BAC"/>
<path d="M187.824 90.543C182.754 90.543 178.661 94.6358 178.661 99.7059V130.249C178.661 135.319 182.754 139.412 187.824 139.412C192.894 139.412 196.987 135.319 196.987 130.249V99.7059C196.987 94.6358 192.894 90.543 187.824 90.543Z" fill="#272928"/>
</svg>
