<?xml version="1.0" standalone="no"?>
<!DOCTYPE svg PUBLIC "-//W3C//DTD SVG 1.1//EN" "http://www.w3.org/Graphics/SVG/1.1/DTD/svg11.dtd" >
<svg xmlns="http://www.w3.org/2000/svg">
<metadata>Generated by IcoMoon</metadata>
<defs>
<font id="icomoon" horiz-adv-x="1024">
<font-face units-per-em="1024" ascent="960" descent="-64" />
<missing-glyph horiz-adv-x="1024" />
<glyph unicode="&#x20;" horiz-adv-x="512" d="" />
<glyph unicode="&#xe900;" glyph-name="icon_share" d="M963.763 368.49c-15.974 0-31.292-6.346-42.59-17.643s-17.647-26.618-17.647-42.593v-191.548c0-15.979-6.34-31.296-17.638-42.594s-26.615-17.638-42.594-17.638h-662.588c-15.975 0-31.297 6.34-42.593 17.638s-17.643 26.615-17.643 42.594v662.588c0 15.975 6.346 31.297 17.643 42.593s26.618 17.643 42.593 17.643h191.548c15.975 0 31.297 6.345 42.593 17.642s17.643 26.618 17.643 42.593c0 15.975-6.346 31.296-17.643 42.593s-26.618 17.642-42.593 17.642h-191.548c-47.927 0-93.89-19.039-127.779-52.928s-52.927-79.852-52.927-127.779v-662.588c0-47.927 19.039-93.888 52.927-127.782 33.889-33.886 79.852-52.924 127.779-52.924h662.588c47.927 0 93.888 19.038 127.782 52.924 33.886 33.894 52.924 79.855 52.924 127.782v191.548c0 15.975-6.349 31.297-17.638 42.593-11.298 11.296-26.624 17.643-42.598 17.643zM1019.179 922.654c-6.11 14.718-17.809 26.415-32.521 32.527-7.245 3.087-15.019 4.724-22.895 4.819h-361.411c-15.975 0-31.296-6.346-42.592-17.642s-17.643-26.617-17.643-42.593c0-15.975 6.346-31.297 17.643-42.593s26.617-17.642 42.592-17.642h216.245l-439.718-439.116c-5.646-5.6-10.127-12.262-13.185-19.602s-4.633-15.213-4.633-23.165c0-7.952 1.574-15.825 4.633-23.165s7.539-14.002 13.185-19.602c5.6-5.646 12.262-10.127 19.602-13.185s15.213-4.633 23.165-4.633c7.951 0 15.824 1.574 23.165 4.633s14.002 7.539 19.602 13.185l439.113 439.718v-216.245c0-15.975 6.349-31.296 17.647-42.592s26.615-17.643 42.59-17.643c15.974 0 31.3 6.346 42.598 17.643 11.29 11.296 17.638 26.617 17.638 42.592v361.412c-0.094 7.871-1.732 15.648-4.821 22.889z" />
<glyph unicode="&#xe901;" glyph-name="Union" d="M554.242 823.828c23.328 23.328 23.328 61.149 0 84.476s-61.148 23.327-84.476 0l-418.133-418.133c-23.327-23.328-23.327-61.148 0-84.476l418.133-418.133c23.328-23.328 61.148-23.328 84.476 0s23.328 61.148 0 84.475l-316.162 316.163h695.792c30.928 0 56.001 26.743 56.001 59.733s-25.073 59.733-56.001 59.733h-695.792l316.162 316.162z" />
<glyph unicode="&#xe902;" glyph-name="wallet" horiz-adv-x="1170" d="M983.37 732.445h-56.889v56.889c0 45.264-17.984 88.673-49.986 120.68-32.009 32.006-75.42 49.987-120.68 49.987h-568.888c-45.264 0-88.673-17.981-120.68-49.987s-49.987-75.415-49.987-120.68v-682.667c0-45.26 17.981-88.671 49.987-120.68 32.006-32.002 75.415-49.986 120.68-49.986h796.444c45.26 0 88.671 17.984 120.68 49.986 32.002 32.009 49.986 75.42 49.986 120.68v455.111c0 45.264-17.984 88.673-49.986 120.68-32.009 32.006-75.42 49.987-120.68 49.987zM186.926 846.222h568.888c15.087 0 29.56-5.994 40.225-16.662 10.672-10.669 16.664-25.139 16.664-40.227v-56.889h-625.778c-15.088 0-29.558 5.994-40.227 16.662s-16.662 25.139-16.662 40.227c0 15.088 5.994 29.558 16.662 40.227s25.139 16.662 40.227 16.662zM1040.259 277.334h-56.889c-15.087 0-29.56 5.994-40.225 16.662-10.672 10.669-16.664 25.139-16.664 40.227s5.992 29.558 16.664 40.227c10.665 10.669 25.138 16.662 40.225 16.662h56.889v-113.777zM1040.259 504.889h-56.889c-45.26 0-88.671-17.981-120.68-49.987-32.002-32.006-49.986-75.415-49.986-120.68s17.984-88.673 49.986-120.68c32.009-32.002 75.42-49.986 120.68-49.986h56.889v-56.889c0-15.087-5.992-29.56-16.664-40.225-10.665-10.672-25.138-16.664-40.225-16.664h-796.444c-15.088 0-29.558 5.992-40.227 16.664-10.669 10.665-16.662 25.138-16.662 40.225v521.671c18.277-6.43 37.515-9.7 56.889-9.671h796.444c15.087 0 29.56-5.994 40.225-16.662 10.672-10.669 16.664-25.139 16.664-40.227v-56.889z" />
<glyph unicode="&#xe903;" glyph-name="oval" d="M0 448c0 282.769 229.23 512 512 512 3.624 0 7.24-0.038 10.844-0.113 277.775-5.785 501.155-232.742 501.155-511.886 0-282.771-229.229-512-512-512-32.882 0-59.535 26.653-59.535 59.535s26.653 59.535 59.535 59.535c217.007 0 392.93 175.923 392.93 392.93 0 214.214-171.432 388.404-384.562 392.843-2.781 0.058-5.573 0.087-8.368 0.087-217.009 0-392.93-175.921-392.93-392.93 0-32.882-26.655-59.535-59.535-59.535s-59.535 26.653-59.535 59.535z" />
<glyph unicode="&#xe904;" glyph-name="copy" horiz-adv-x="1088" d="M497.43 541.118c-25.707 0-46.548-20.841-46.548-46.548v-418.928c0-25.708 20.841-46.55 46.548-46.55h418.928c25.708 0 46.55 20.842 46.55 46.55v418.928c0 25.707-20.842 46.548-46.55 46.548h-418.928zM357.787 494.57c0 77.122 62.521 139.643 139.643 139.643h418.928c77.124 0 139.643-62.521 139.643-139.643v-418.928c0-77.124-62.519-139.643-139.643-139.643h-418.928c-77.122 0-139.643 62.519-139.643 139.643v418.928zM171.641 866.906c-12.345 0-24.184-4.904-32.914-13.634s-13.634-20.569-13.634-32.914v-418.929c0-12.345 4.904-24.184 13.634-32.914s20.569-13.634 32.914-13.634h46.548c25.707 0 46.548-20.841 46.548-46.546 0-25.708-20.841-46.55-46.548-46.55h-46.548c-37.036 0-72.554 14.712-98.742 40.901-26.187 26.187-40.901 61.706-40.901 98.742v418.929c0 37.036 14.713 72.554 40.901 98.742s61.707 40.9 98.742 40.9h418.929c37.036 0 72.552-14.713 98.742-40.9s40.901-61.707 40.901-98.742v-46.548c0-25.707-20.842-46.548-46.55-46.548s-46.546 20.841-46.546 46.548v46.548c0 12.345-4.904 24.184-13.634 32.914s-20.569 13.634-32.914 13.634h-418.929z" />
<glyph unicode="&#xe905;" glyph-name="close" horiz-adv-x="956" d="M79.939 925.657l862.201-862.201c18.315-18.315 18.315-48.009 0-66.324v0c-18.315-18.315-48.009-18.315-66.324 0l-862.201 862.201c-18.315 18.315-18.315 48.009 0 66.324v0c18.315 18.315 48.009 18.315 66.324 0zM942.125 881.452l-862.201-862.201c-18.315-18.315-48.009-18.315-66.324 0v0c-18.315 18.315-18.315 48.009 0 66.324l862.201 862.201c18.315 18.315 48.009 18.315 66.324 0v0c18.315-18.315 18.315-48.009 0-66.324z" />
<glyph unicode="&#xe906;" glyph-name="add" d="M448.003 960c-35.346 0-64-28.654-64-64v-320h-320.003c-35.346 0-64-28.654-64-64v-128c0-35.346 28.654-64 64-64h320.003v-320c0-35.346 28.654-64 64-64h128c35.346 0 64 28.654 64 64v320h319.997c35.346 0 64 28.654 64 64v128c0 35.346-28.654 64-64 64h-319.997v320c0 35.346-28.654 64-64 64h-128z" />
<glyph unicode="&#xe907;" glyph-name="minus" d="M960 575.999c35.346 0 64-28.654 64-64v-127.999c0-35.346-28.654-64-64-64h-895.999c-35.346 0-64 28.654-64 64v127.999c0 35.346 28.654 64 64 64h895.999z" />
<glyph unicode="&#xe908;" glyph-name="more" d="M199.887 472.752c0-55.195-44.744-99.939-99.939-99.939s-99.939 44.744-99.939 99.939c0 55.195 44.744 99.939 99.939 99.939s99.939-44.744 99.939-99.939zM611.95 472.752c0-55.195-44.744-99.939-99.939-99.939s-99.94 44.744-99.94 99.939 44.744 99.939 99.94 99.939c55.195 0 99.939-44.744 99.939-99.939zM924.070 372.813c55.195 0 99.939 44.744 99.939 99.939s-44.744 99.939-99.939 99.939c-55.195 0-99.939-44.744-99.939-99.939s44.744-99.939 99.939-99.939z" />
<glyph unicode="&#xe909;" glyph-name="wechat" d="M0.001 554.414c0 171.677 165.706 310.864 370.117 310.864 184.651 0 332.699-113.574 360.573-262.089-1.618 0.079-2.95 0.152-4.13 0.216-3.659 0.2-5.892 0.322-10.991 0.322-186.431 0-337.552-126.945-337.552-283.516 0-26.412 4.378-51.937 12.426-76.199-6.732-0.294-13.501-0.478-20.326-0.478-42.239 0-83.011 6.083-120.817 17.039-3.44 1.058-7.085 1.625-10.877 1.625-7.112 0-13.558-2.178-19.64-5.714l-81.044-47.151c-2.254-1.318-4.433-2.308-7.122-2.308-6.816 0-12.334 5.55-12.334 12.425 0 2.321 0.686 4.636 1.358 6.901 0.218 0.731 0.434 1.46 0.626 2.184 0.397 1.502 7.772 29.239 13.798 51.889l2.875 10.813c0.722 2.656 1.307 5.167 1.307 7.919 0 8.376-4.099 15.763-10.367 20.275-78.021 56.975-127.882 141.296-127.882 234.981zM202.984 653.885c0-24.35 19.594-44.101 43.777-44.101 24.146 0 43.74 19.751 43.74 44.101 0 24.36-19.594 44.102-43.74 44.102-24.184 0-43.777-19.742-43.777-44.102zM449.736 653.885c0-24.35 19.594-44.091 43.759-44.091s43.759 19.741 43.759 44.091c0 24.36-19.594 44.102-43.759 44.102s-43.759-19.742-43.759-44.102zM1023.999 320.212c0-78.056-41.54-148.316-106.564-195.815-5.23-3.755-8.642-9.926-8.642-16.883 0-2.293 0.492-4.403 1.086-6.601 4.71-17.668 11.96-44.953 13.585-51.063l0.314-1.188c0.164-0.628 0.355-1.262 0.539-1.904 0.553-1.864 1.12-3.762 1.12-5.687 0-5.707-4.595-10.356-10.28-10.356-2.232 0-4.062 0.853-5.953 1.932l-67.508 39.294c-5.080 2.963-10.458 4.778-16.378 4.778-3.161 0-6.199-0.492-9.066-1.372-31.512-9.127-65.495-14.2-100.686-14.2-170.332 0-308.434 115.984-308.434 259.065 0 143.083 138.102 259.049 308.434 259.049 170.353 0 308.435-115.966 308.435-259.049zM574.246 403.105c0-21.43 17.25-38.799 38.508-38.799 21.272 0 38.509 17.37 38.509 38.799 0 21.438-17.237 38.816-38.509 38.816-21.258 0-38.508-17.378-38.508-38.816zM779.891 403.105c0-21.43 17.216-38.799 38.489-38.799s38.509 17.37 38.509 38.799c0 21.438-17.237 38.816-38.509 38.816s-38.489-17.378-38.489-38.816z" />
<glyph unicode="&#xe90a;" glyph-name="whatsapp" d="M0.217-63.996l69.222 254.362c-45.612 78.186-69.576 167.114-69.428 257.635 0 282.778 229.223 512.001 512.001 512.001 282.78 0 511.998-229.223 511.998-512.001s-229.218-511.998-511.998-511.998c-90.482-0.146-179.372 23.793-257.536 69.374l-254.26-69.374zM327.232 688.232c-6.612-0.411-13.073-2.151-18.995-5.12-5.555-3.145-10.625-7.077-15.053-11.674-6.144-5.786-9.625-10.802-13.363-15.667-18.923-24.627-29.102-54.856-28.929-85.913 0.103-25.089 6.656-49.511 16.896-72.346 20.941-46.183 55.399-95.079 100.916-140.391 10.957-10.905 21.657-21.863 33.178-32.051 56.493-49.739 123.815-85.609 196.609-104.756l29.133-4.451c9.472-0.515 18.943 0.2 28.467 0.66 14.911 0.768 29.471 4.809 42.65 11.828 8.499 4.506 12.492 6.759 19.61 11.264 0 0 2.202 1.433 6.4 4.608 6.912 5.12 11.163 8.755 16.896 14.745 4.249 4.403 7.936 9.574 10.754 15.462 3.993 8.345 7.987 24.269 9.623 37.53 1.229 10.138 0.868 15.667 0.714 19.097-0.2 5.479-4.762 11.163-9.723 13.568l-29.801 13.363c0 0-44.544 19.405-71.731 31.795-2.867 1.25-5.938 1.961-9.063 2.099-3.503 0.36-7.042-0.034-10.38-1.156s-6.399-2.944-8.973-5.346v0.102c-0.256 0-3.687-2.918-40.704-47.77-2.124-2.855-5.052-5.013-8.406-6.198s-6.989-1.345-10.435-0.459c-3.336 0.893-6.605 2.021-9.78 3.379-6.348 2.663-8.55 3.687-12.902 5.581l-0.256 0.102c-29.291 12.789-56.411 30.063-80.384 51.2-6.451 5.632-12.441 11.776-18.586 17.716-20.144 19.29-37.698 41.113-52.225 64.922l-3.021 4.864c-2.169 3.269-3.924 6.795-5.223 10.496-1.946 7.526 3.124 13.568 3.124 13.568s12.441 13.619 18.227 20.992c4.817 6.128 9.312 12.502 13.466 19.097 6.041 9.727 7.936 19.712 4.762 27.443-14.337 35.021-29.184 69.888-44.442 104.499-3.021 6.861-11.981 11.776-20.121 12.749-2.765 0.308-5.529 0.614-8.294 0.819-6.875 0.341-13.767 0.273-20.634-0.205v-0.051z" />
<glyph unicode="&#xe90b;" glyph-name="search" d="M748.411 139.223l188.174-188.168c19.994-19.994 52.409-19.994 72.402 0s19.994 52.409 0 72.402l-188.17 188.173c63.061 78.831 100.767 178.825 100.767 287.626 0 254.494-206.307 460.801-460.801 460.801s-460.801-206.307-460.801-460.801c0-254.493 206.308-460.799 460.801-460.799 108.801 0 208.795 37.706 287.626 100.765zM102.385 499.257c0 197.94 160.462 358.401 358.4 358.401s358.401-160.462 358.401-358.401c0-96.565-38.19-184.209-100.29-248.656-1.75-1.345-3.431-2.819-5.034-4.421s-3.076-3.284-4.421-5.034c-64.446-62.1-152.091-100.29-248.657-100.29-197.939 0-358.4 160.462-358.4 358.4z" />
<glyph unicode="&#xe90c;" glyph-name="qrcode" d="M739.555 163.555v56.891h-170.666v170.666h170.666v-113.777h113.781v-113.779h-56.891v-113.774h-113.779v-113.781h-113.777v170.664h113.777v56.891h56.888zM1024-64h-227.555v113.781h113.774v113.774h113.781v-227.555zM0 960h455.111v-455.111h-455.111v455.111zM568.889 960h455.111v-455.111h-455.111v455.111zM0 391.111h455.111v-455.111h-455.111v455.111zM853.336 391.111h170.664v-113.777h-170.664v113.777zM170.666 789.334v-113.778h113.778v113.778h-113.778zM170.666 220.445v-113.781h113.778v113.781h-113.778zM739.555 789.334v-113.778h113.781v113.778h-113.781z" />
<glyph unicode="&#xe90d;" glyph-name="download" d="M536.333 235.843c-0.482-0.031-1.045-0.049-1.611-0.049-14.793 0-26.786 11.992-26.786 26.786 0 0.567 0.018 1.13 0.052 1.688l-0.004-0.076v586.725c-0.034 0.522-0.054 1.133-0.054 1.747 0 15.657 12.692 28.349 28.349 28.349s28.349-12.692 28.349-28.349c0-0.615-0.020-1.225-0.058-1.83l0.004 0.083v-589.555c-1.3-14.358-13.278-25.522-27.864-25.522-0.133 0-0.265 0.001-0.397 0.003h0.020zM536.333 162.142l-269.258 246.595c-5.778 5.175-9.397 12.658-9.397 20.987 0 15.537 12.596 28.133 28.133 28.133 6.914 0 13.245-2.494 18.143-6.631l-0.042 0.034 229.484-212.534 229.592 212.588c4.856 4.103 11.188 6.597 18.101 6.597 15.537 0 28.133-12.596 28.133-28.133 0-8.329-3.619-15.812-9.37-20.963l-0.027-0.024zM833.94 0.701h-598.070c-14.886 0.947-26.601 13.253-26.601 28.295s11.715 27.347 26.519 28.291l0.083 0.004h598.070c0.522 0.034 1.133 0.054 1.747 0.054 15.657 0 28.349-12.692 28.349-28.349s-12.692-28.349-28.349-28.349c-0.615 0-1.225 0.020-1.83 0.058l0.083-0.004z" />
<glyph unicode="&#xe90e;" glyph-name="Polygon-2" horiz-adv-x="1365" d="M821.059 768.239c-68.12 94.39-208.664 94.39-276.782 0.002l-405.371-561.698c-81.459-112.874-0.806-270.543 138.391-270.543h810.742c139.197 0 219.849 157.669 138.39 270.541l-405.369 561.698z" />
<glyph unicode="&#xe90f;" glyph-name="uniE90F" horiz-adv-x="1071" d="M463.792 363.776h-428.883v166.232h428.883v429.992h166.233v-429.992h428.884v-166.232h-428.884v-427.776h-166.233v427.776z" />
<glyph unicode="&#xe910;" glyph-name="addressl-ist" d="M655.872 433.664c32.41 34.804 50.668 80.447 51.2 128 0 51.329-20.388 100.556-56.684 136.85s-85.524 56.686-136.852 56.686c-51.329 0-100.556-20.39-136.85-56.686s-56.686-85.521-56.686-136.85c0.535-47.553 18.791-93.196 51.2-128-45.125-22.472-83.957-55.803-113.002-97.004s-47.395-88.975-53.398-139.028c-1.494-13.578 2.468-27.197 11.014-37.852 8.546-10.66 20.975-17.485 34.554-18.98s27.195 2.468 37.853 11.013c10.658 8.545 17.485 20.977 18.979 34.555 6.11 49.608 30.149 95.263 67.589 128.374s85.695 51.389 135.675 51.389c49.981 0 98.237-18.278 135.675-51.389 37.443-33.111 61.481-78.766 67.589-128.374 1.423-13.128 7.864-25.201 17.976-33.69 10.117-8.494 23.117-12.749 36.296-11.878h5.632c13.42 1.546 25.687 8.33 34.13 18.877 8.438 10.552 12.365 24.008 10.926 37.443-5.555 49.787-23.327 97.434-51.732 138.701-28.406 41.262-66.56 74.875-111.084 97.843zM512 470.528c-18.025 0-35.645 5.345-50.633 15.359s-26.668 24.248-33.566 40.901c-6.898 16.653-8.702 34.977-5.186 52.656s12.196 33.917 24.942 46.663c12.746 12.746 28.984 21.426 46.663 24.942s36.002 1.712 52.657-5.186c16.65-6.898 30.884-18.579 40.899-33.567s15.36-32.607 15.36-50.632c0-24.17-9.6-47.352-26.696-64.443-17.091-17.092-40.269-26.693-64.44-26.693zM870.4 960h-716.8c-40.737 0-79.806-16.183-108.612-44.988s-44.988-67.874-44.988-108.612v-716.8c0-40.735 16.183-79.805 44.988-108.611s67.874-44.989 108.612-44.989h716.8c40.735 0 79.805 16.184 108.611 44.989s44.989 67.876 44.989 108.611v716.8c0 40.737-16.184 79.806-44.989 108.612s-67.876 44.988-108.611 44.988zM921.6 89.6c0-13.578-5.396-26.604-14.996-36.204s-22.625-14.996-36.204-14.996h-716.8c-13.579 0-26.602 5.396-36.204 14.996s-14.996 22.625-14.996 36.204v716.8c0 13.579 5.394 26.602 14.996 36.204s22.625 14.996 36.204 14.996h716.8c13.578 0 26.604-5.394 36.204-14.996s14.996-22.625 14.996-36.204v-716.8z" />
<glyph unicode="&#xe911;" glyph-name="selected" d="M651.264 612.352l-219.647-220.16-84.481 84.48c-4.59 5.36-10.238 9.713-16.59 12.786s-13.271 4.8-20.322 5.072c-7.051 0.272-14.083-0.916-20.653-3.49s-12.537-6.478-17.527-11.468c-4.989-4.989-8.894-10.957-11.468-17.527s-3.762-13.601-3.49-20.655c0.272-7.050 1.999-13.967 5.072-20.321 3.073-6.349 7.426-12.001 12.786-16.589l120.32-120.832c4.784-4.746 10.458-8.499 16.696-11.049 6.238-2.545 12.918-3.84 19.656-3.799 13.431 0.056 26.303 5.391 35.839 14.848l256 256c4.797 4.76 8.607 10.422 11.208 16.662s3.937 12.932 3.937 19.69c0 6.759-1.336 13.451-3.937 19.69s-6.41 11.902-11.208 16.662c-9.595 9.536-22.569 14.888-36.096 14.888s-26.501-5.352-36.096-14.888zM512 960c-101.264 0-200.254-30.028-284.452-86.287s-149.822-136.223-188.574-229.779c-38.752-93.556-48.891-196.502-29.136-295.82s68.519-190.546 140.124-262.154c71.604-71.603 162.834-120.366 262.152-140.124 99.318-19.753 202.266-9.615 295.818 29.138 93.558 38.753 173.522 104.376 229.78 188.575s86.287 183.188 86.287 284.452c0 67.237-13.245 133.815-38.973 195.934s-63.442 118.561-110.986 166.105c-47.544 47.543-103.987 85.257-166.108 110.988-62.116 25.73-128.696 38.974-195.932 38.974zM512 38.4c-81.011 0-160.203 24.023-227.561 69.028-67.358 45.010-119.858 108.979-150.859 183.823s-39.113 157.203-23.309 236.658c15.804 79.455 54.815 152.438 112.099 209.722s130.267 96.294 209.722 112.099c79.455 15.804 161.814 7.693 236.658-23.308s138.813-83.501 183.823-150.86c45.005-67.358 69.028-146.55 69.028-227.561 0-108.631-43.151-212.818-119.967-289.633-76.815-76.81-181.002-119.967-289.633-119.967z" />
<glyph unicode="&#xe912;" glyph-name="email" d="M970.56 692.48c0.097 1.53 0.153 3.319 0.153 5.12s-0.056 3.59-0.165 5.363l0.012-0.243v2.88l-17.92-1.6 15.68 3.84v3.52c-2.505 8.363-5.332 15.47-8.69 22.268l0.37-0.828c-3.447 7.879-7.191 14.605-11.486 20.927l0.286-0.447c-22.558 33.198-60.144 54.72-102.756 54.72-0.1 0-0.2 0-0.299 0h-668.784c-42.706-0.165-80.296-21.922-102.438-54.915l-0.282-0.445c-4.346-6.521-8.319-13.997-11.531-21.865l-0.309-0.855c-2.685-6.435-5.007-14.045-6.587-21.923l-0.133-0.797 16-3.2h-16.64c-0.756-3.409-1.326-7.464-1.588-11.602l-0.012-0.238v-512c0.182-68.499 55.661-123.978 124.143-124.16h668.817c68.499 0.182 123.978 55.661 124.16 124.143v512.017zM883.2 656v-448c0-35.346-28.654-64-64-64v0h-614.080c-35.346 0-64 28.654-64 64v0 448c-0.001 0.129-0.001 0.282-0.001 0.435 0 5.528 0.701 10.892 2.018 16.009l-0.097-0.444 334.4-267.84 2.56-3.2c7.247-6.375 16.477-10.658 26.655-11.819l0.225-0.021h6.080c0.501-0.021 1.088-0.033 1.679-0.033 11.414 0 21.771 4.527 29.373 11.884l-0.011-0.011 336.96 271.040c1.375-4.785 2.189-10.287 2.24-15.971v-0.029zM512 487.040l-290.88 233.6h581.76z" />
<glyph unicode="&#xe913;" glyph-name="link" d="M414.48 177.371l-86.309-83.873c-22.632-22.63-53.327-35.343-85.334-35.343s-62.701 12.712-85.333 35.343c-22.632 22.63-35.346 53.328-35.346 85.336s12.714 62.7 35.346 85.331l221.379 221.867c21.729 21.799 51.006 34.412 81.774 35.229s60.673-10.225 83.528-30.841l5.851-4.876c9.247-9.053 21.711-14.061 34.651-13.924s25.295 5.409 34.348 14.656c9.052 9.247 14.061 21.711 13.924 34.651s-5.409 25.295-14.656 34.347c-2.752 3.558-5.682 6.976-8.777 10.24-41.626 36.215-95.46 55.255-150.598 53.263s-107.458-24.866-146.362-63.99l-224.305-221.866c-38.114-41.487-58.728-96.094-57.535-152.419 1.192-56.32 24.099-110.007 63.935-149.848 39.836-39.834 93.522-62.742 149.846-63.934s110.931 19.419 152.417 57.534l84.358 82.41c8.33 9.084 12.908 20.992 12.815 33.317s-4.851 24.159-13.317 33.119c-8.466 8.96-20.010 14.387-32.312 15.177s-24.446-3.109-33.99-10.906zM935.746 871.739c-41.019 40.765-96.505 63.645-154.331 63.645-57.831 0-113.313-22.88-154.332-63.645l-84.359-82.408c-8.329-9.087-12.908-20.991-12.815-33.317s4.851-24.16 13.316-33.12c8.466-8.96 20.010-14.381 32.312-15.173s24.446 3.105 33.99 10.906l84.358 83.87c22.632 22.632 53.327 35.346 85.334 35.346s62.698-12.714 85.336-35.346c22.63-22.631 35.343-53.327 35.343-85.333s-12.712-62.702-35.343-85.334l-221.382-221.866c-21.729-21.799-51.006-34.412-81.774-35.229s-60.673 10.225-83.528 30.841l-5.851 4.876c-9.247 9.053-21.711 14.062-34.651 13.925s-25.295-5.409-34.348-14.656c-9.052-9.247-14.061-21.71-13.924-34.65s5.409-25.295 14.656-34.348c3.542-3.622 7.286-7.041 11.216-10.24 41.675-36.106 95.487-55.074 150.591-53.083s107.407 24.793 146.369 63.811l221.865 221.866c41.026 40.761 64.256 96.099 64.622 153.929s-22.162 113.457-62.669 154.734z" />
<glyph unicode="&#xe914;" glyph-name="hash" d="M853.333 362.667h-183.467l31.147 170.667h152.32c23.564 0 42.667 19.103 42.667 42.667s-19.103 42.667-42.667 42.667h-136.96l29.44 162.56c0.547 2.563 0.861 5.508 0.861 8.526 0 21.46-15.843 39.219-36.47 42.22l-0.23 0.028c-2.97 0.738-6.379 1.161-9.888 1.161-21.263 0-38.894-15.554-42.134-35.905l-0.032-0.243-32-178.347h-165.547l29.44 162.56c0.547 2.563 0.861 5.508 0.861 8.526 0 21.46-15.843 39.219-36.47 42.22l-0.23 0.028c-2.97 0.738-6.379 1.161-9.888 1.161-21.263 0-38.894-15.554-42.134-35.905l-0.032-0.243-32-178.347h-199.253c-23.564 0-42.667-19.103-42.667-42.667s19.103-42.667 42.667-42.667h183.467l-31.147-170.667h-152.32c-23.564 0-42.667-19.103-42.667-42.667s19.103-42.667 42.667-42.667v0h136.96l-29.44-162.56c-0.547-2.563-0.861-5.508-0.861-8.526 0-21.46 15.843-39.219 36.47-42.22l0.23-0.028c2.97-0.738 6.379-1.161 9.888-1.161 21.263 0 38.894 15.554 42.134 35.905l0.032 0.243 32 178.347h165.547l-29.44-162.56c-0.547-2.563-0.861-5.508-0.861-8.526 0-21.46 15.843-39.219 36.47-42.22l0.23-0.028c2.97-0.738 6.379-1.161 9.888-1.161 21.263 0 38.894 15.554 42.134 35.905l0.032 0.243 32 178.347h199.253c23.564 0 42.667 19.103 42.667 42.667s-19.103 42.667-42.667 42.667v0zM413.867 362.667l31.147 170.667h165.12l-31.147-170.667z" />
<glyph unicode="&#xe915;" glyph-name="lock" horiz-adv-x="819" d="M409.6 396.8c-13.579 0-26.602-5.396-36.204-14.996s-14.996-22.625-14.996-36.204v-153.6c0-13.578 5.394-26.604 14.996-36.204s22.625-14.996 36.204-14.996c13.579 0 26.602 5.396 36.204 14.996s14.996 22.625 14.996 36.204v153.6c0 13.578-5.394 26.604-14.996 36.204s-22.625 14.996-36.204 14.996zM665.6 601.6v102.4c0 67.895-26.972 133.010-74.982 181.019-48.005 48.010-113.122 74.981-181.018 74.981s-133.010-26.971-181.019-74.981c-48.010-48.009-74.981-113.124-74.981-181.019v-102.4c-40.737 0-79.806-16.183-108.612-44.988s-44.988-67.874-44.988-108.612v-358.4c0-40.735 16.183-79.805 44.988-108.611s67.874-44.989 108.612-44.989h512c40.735 0 79.805 16.184 108.611 44.989s44.989 67.876 44.989 108.611v358.4c0 40.737-16.184 79.806-44.989 108.612s-67.876 44.988-108.611 44.988zM256 704c0 40.737 16.183 79.806 44.988 108.612s67.874 44.988 108.612 44.988c40.737 0 79.806-16.183 108.611-44.988s44.989-67.874 44.989-108.612v-102.4h-307.2v102.4zM716.8 89.6c0-13.578-5.396-26.604-14.996-36.204s-22.625-14.996-36.204-14.996h-512c-13.579 0-26.602 5.396-36.204 14.996s-14.996 22.625-14.996 36.204v358.4c0 13.579 5.394 26.602 14.996 36.204s22.625 14.996 36.204 14.996h512c13.578 0 26.604-5.394 36.204-14.996s14.996-22.625 14.996-36.204v-358.4z" />
<glyph unicode="&#xe916;" glyph-name="exchange" horiz-adv-x="983" d="M737.284 529.912c0 10.863-4.313 21.282-11.997 28.964-7.68 7.682-18.096 11.997-28.963 11.997h-474.725l94.208 93.798c7.713 7.713 12.046 18.174 12.046 29.082s-4.333 21.369-12.046 29.082c-7.713 7.713-18.174 12.046-29.082 12.046s-21.369-4.333-29.082-12.046l-163.84-163.84c-5.684-5.76-9.533-13.075-11.065-21.021s-0.674-16.167 2.463-23.626c3.073-7.479 8.291-13.881 14.997-18.403 6.706-4.518 14.599-6.951 22.686-6.992h573.438c10.867 0 21.283 4.317 28.963 11.997 7.684 7.68 11.997 18.1 11.997 28.963zM897.847 381.637c-3.072 7.479-8.29 13.885-14.995 18.403s-14.598 6.951-22.688 6.992h-573.438c-10.863 0-21.282-4.313-28.963-11.997-7.681-7.68-11.997-18.1-11.997-28.963s4.316-21.283 11.997-28.963c7.682-7.68 18.1-11.997 28.963-11.997h474.725l-94.208-93.798c-3.838-3.805-6.885-8.335-8.966-13.328-2.077-4.993-3.15-10.346-3.15-15.753s1.073-10.76 3.15-15.753c2.081-4.989 5.128-9.519 8.966-13.328 3.809-3.838 8.339-6.885 13.332-8.966 4.989-2.077 10.342-3.15 15.749-3.15 5.411 0 10.764 1.073 15.753 3.15 4.993 2.081 9.523 5.128 13.328 8.966l163.84 163.84c5.685 5.759 9.535 13.074 11.067 21.021 1.528 7.946 0.672 16.167-2.466 23.626z" />
<glyph unicode="&#xe917;" glyph-name="clock" horiz-adv-x="964" d="M481.863 827.382c-79.423 0-157.062-23.551-223.099-67.677s-117.508-106.841-147.902-180.218c-30.394-73.377-38.346-154.119-22.851-232.014 15.494-77.896 53.74-149.45 109.9-205.613 56.16-56.157 127.713-94.407 205.61-109.899s158.639-7.541 232.016 22.853c73.379 30.395 136.096 81.86 180.218 147.902 44.128 66.036 67.674 143.673 67.674 223.098 0 52.735-10.385 104.953-30.563 153.674-20.185 48.72-49.76 92.989-87.052 130.278-37.286 37.289-81.559 66.868-130.277 87.049-48.721 20.181-100.939 30.568-153.673 30.568zM481.863 104.556c-63.539 0-125.65 18.842-178.48 54.146-52.831 35.298-94.006 85.474-118.321 144.173-24.315 58.701-30.677 123.295-18.281 185.612s42.992 119.56 87.921 164.488c44.928 44.928 102.171 75.525 164.488 87.921s126.911 6.034 185.615-18.281c58.699-24.315 108.869-65.491 144.173-118.321 35.298-52.83 54.139-114.941 54.139-178.48 0-85.201-33.846-166.916-94.094-227.164s-141.958-94.094-227.161-94.094zM522.020 428.625v197.974c0 10.65-4.23 20.864-11.762 28.395s-17.745 11.762-28.395 11.762c-10.65 0-20.864-4.231-28.396-11.762s-11.762-17.745-11.762-28.395v-200.785c0 0 0-2.811 0-4.417-0.988-8.164 0.554-16.433 4.417-23.692l60.235-104.406c5.325-9.27 14.113-16.041 24.43-18.824 10.318-2.789 21.319-1.361 30.585 3.963s16.036 14.113 18.823 24.431c2.786 10.318 1.36 21.317-3.965 30.581l-54.212 95.174z" />
<glyph unicode="&#xe918;" glyph-name="profile" d="M511.989 893.714c-88.664-0.168-175.366-26.117-249.544-74.685s-132.633-117.659-168.242-198.859c-35.61-81.199-46.838-171.001-32.316-258.468s54.165-168.825 114.102-234.163c42.808-46.402 94.763-83.434 152.591-108.763 57.828-25.322 120.276-38.4 183.409-38.4s125.58 13.078 183.409 38.4c57.827 25.329 109.781 62.362 152.591 108.763 59.933 65.339 99.584 146.697 114.103 234.163s3.291 177.269-32.315 258.468c-35.613 81.2-94.069 150.291-168.243 198.859-74.18 48.568-160.881 74.517-249.545 74.685zM511.989 70.861c-94.699 0.139-185.65 37.010-253.714 102.853 20.664 50.308 55.818 93.335 100.994 123.617s98.334 46.449 152.72 46.449c54.385 0 107.544-16.167 152.719-46.449s80.332-73.309 100.995-123.617c-68.065-65.843-159.015-102.715-253.714-102.853zM420.56 528c0 18.083 5.362 35.76 15.408 50.795s24.326 26.754 41.032 33.674c16.707 6.92 35.090 8.73 52.825 5.203s34.026-12.235 46.813-25.022c12.787-12.786 21.494-29.077 25.022-46.813s1.717-36.119-5.203-52.825c-6.92-16.707-18.639-30.986-33.674-41.032s-32.712-15.408-50.795-15.408c-24.248 0-47.504 9.633-64.65 26.779s-26.778 40.401-26.778 64.65zM827.875 253.714c-40.843 69.862-103.708 124.205-178.743 154.514 23.276 26.393 38.442 58.941 43.679 93.74s0.32 70.369-14.159 102.443c-14.479 32.074-37.905 59.289-67.467 78.378s-64.005 29.244-99.196 29.244c-35.19 0-69.633-10.154-99.196-29.244s-52.989-46.305-67.468-78.378c-14.479-32.074-19.395-67.645-14.158-102.443s20.402-67.347 43.679-93.74c-75.036-30.31-137.898-84.652-178.743-154.514-32.551 55.447-49.75 118.562-49.829 182.857 0 96.993 38.53 190.014 107.115 258.599s161.605 107.116 258.599 107.116c96.993 0 190.014-38.53 258.6-107.116s107.11-161.605 107.11-258.599c-0.073-64.295-17.276-127.41-49.825-182.857z" />
<glyph unicode="&#xe919;" glyph-name="user-plus" horiz-adv-x="960" d="M840 508h-40v40c0 10.609-4.211 20.783-11.718 28.284-7.501 7.501-17.67 11.716-28.282 11.716s-20.781-4.214-28.282-11.716c-7.507-7.501-11.718-17.676-11.718-28.284v-40h-40c-10.611 0-20.781-4.214-28.282-11.716-7.507-7.501-11.718-17.676-11.718-28.284s4.211-20.783 11.718-28.284c7.501-7.501 17.67-11.716 28.282-11.716h40v-40c0-10.609 4.211-20.783 11.718-28.284 7.501-7.501 17.67-11.716 28.282-11.716s20.781 4.214 28.282 11.716c7.507 7.501 11.718 17.676 11.718 28.284v40h40c10.611 0 20.781 4.214 28.282 11.716 7.507 7.501 11.718 17.676 11.718 28.284s-4.211 20.783-11.718 28.284c-7.501 7.501-17.67 11.716-28.282 11.716zM532 439.2c21.343 18.475 38.462 41.325 50.195 66.999s17.805 53.572 17.805 81.801c0 53.043-21.071 103.914-58.579 141.421s-88.378 58.579-141.421 58.579c-53.043 0-103.914-21.071-141.421-58.579s-58.579-88.378-58.579-141.421c0-28.228 6.072-56.127 17.805-81.801s28.852-48.524 50.195-66.999c-55.994-25.356-103.501-66.301-136.841-117.942-33.34-51.639-51.1-111.793-51.159-173.258 0-10.611 4.214-20.781 11.716-28.282 7.501-7.507 17.676-11.718 28.284-11.718s20.783 4.211 28.284 11.718c7.501 7.501 11.716 17.67 11.716 28.282 0 63.654 25.286 124.698 70.294 169.709 45.009 45.005 106.054 70.291 169.706 70.291s124.697-25.286 169.706-70.291c45.009-45.011 70.294-106.054 70.294-169.709 0-10.611 4.211-20.781 11.718-28.282 7.501-7.507 17.67-11.718 28.282-11.718s20.781 4.211 28.282 11.718c7.507 7.501 11.718 17.67 11.718 28.282-0.058 61.466-17.818 121.619-51.162 173.258-33.337 51.64-80.844 92.586-136.838 117.942zM400 468c-23.734 0-46.934 7.038-66.668 20.223s-35.115 31.928-44.197 53.855c-9.083 21.927-11.459 46.055-6.829 69.332s16.059 44.66 32.841 61.443c16.783 16.782 38.164 28.211 61.443 32.841s47.405 2.254 69.332-6.829c21.927-9.082 40.669-24.463 53.855-44.197s20.223-42.934 20.223-66.668c0-31.826-12.643-62.348-35.147-84.853s-53.027-35.147-84.853-35.147z" />
<glyph unicode="&#xe91a;" glyph-name="user-check" horiz-adv-x="960" d="M532 439.2c21.343 18.475 38.462 41.325 50.195 66.999s17.805 53.572 17.805 81.801c0 53.043-21.071 103.914-58.579 141.421s-88.378 58.579-141.421 58.579c-53.043 0-103.914-21.071-141.421-58.579s-58.579-88.378-58.579-141.421c0-28.228 6.072-56.127 17.805-81.801s28.852-48.524 50.195-66.999c-55.994-25.356-103.501-66.301-136.841-117.942-33.34-51.639-51.1-111.793-51.159-173.258 0-10.611 4.214-20.781 11.716-28.282 7.501-7.507 17.676-11.718 28.284-11.718s20.783 4.211 28.284 11.718c7.501 7.501 11.716 17.67 11.716 28.282 0 63.654 25.286 124.698 70.294 169.709 45.009 45.005 106.054 70.291 169.706 70.291s124.697-25.286 169.706-70.291c45.009-45.011 70.294-106.054 70.294-169.709 0-10.611 4.211-20.781 11.718-28.282 7.501-7.507 17.67-11.718 28.282-11.718s20.781 4.211 28.282 11.718c7.507 7.501 11.718 17.67 11.718 28.282-0.058 61.466-17.818 121.619-51.162 173.258-33.337 51.64-80.844 92.586-136.838 117.942zM400 468c-23.734 0-46.934 7.038-66.668 20.223s-35.115 31.928-44.197 53.855c-9.083 21.927-11.459 46.055-6.829 69.332s16.059 44.66 32.841 61.443c16.783 16.782 38.164 28.211 61.443 32.841s47.405 2.254 69.332-6.829c21.927-9.082 40.669-24.463 53.855-44.197s20.223-42.934 20.223-66.668c0-31.826-12.643-62.348-35.147-84.853s-53.027-35.147-84.853-35.147zM868.397 562.8c-3.718 3.749-8.141 6.725-13.011 8.756-4.877 2.031-10.106 3.076-15.386 3.076s-10.509-1.045-15.386-3.076c-4.87-2.031-9.293-5.007-13.011-8.756l-80-80-24.806 25.2c-3.718 3.749-8.141 6.725-13.011 8.756-4.877 2.031-10.106 3.076-15.386 3.076s-10.509-1.045-15.386-3.076c-4.87-2.031-9.293-5.007-13.018-8.756-7.45-7.494-11.629-17.633-11.629-28.2s4.179-20.705 11.629-28.2l53.6-53.6c7.501-7.45 17.638-11.632 28.205-11.632s20.704 4.182 28.198 11.632l106.797 106.8c4.045 3.627 7.302 8.038 9.581 12.964s3.533 10.266 3.68 15.692c0.147 5.426-0.806 10.826-2.81 15.87s-5.018 9.629-8.851 13.473z" />
<glyph unicode="&#xe91b;" glyph-name="sendfasong" d="M865.835 862.165c7.716 7.691 18.362 12.446 30.119 12.446 23.564 0 42.667-19.103 42.667-42.667 0-9.874-3.354-18.964-8.985-26.194l0.072 0.096-3.541-4.011-469.333-469.333c-7.716-7.691-18.362-12.446-30.119-12.446-23.564 0-42.667 19.103-42.667 42.667 0 9.874 3.354 18.964 8.985 26.194l-0.072-0.096 3.541 4.011 469.333 469.333zM891.349 874.411l4.523 0.256 5.547-0.341 3.84-0.683 5.248-1.493 4.565-1.963 4.267-2.432 3.84-2.859 3.499-3.2 2.219-2.517 3.499-4.949 2.219-4.096c2.005-4.267 3.285-8.789 3.84-13.483l0.213-4.523c0-3.2-0.341-6.357-1.024-9.387l-1.493-5.248-278.699-771.285c-10.716-22.927-33.584-38.528-60.096-38.528-0.007 0-0.015 0-0.022 0h0.001c-0.062 0-0.136 0-0.209 0-23.841 0-44.73 12.64-56.33 31.584l-0.164 0.289-2.773 5.419-143.019 285.952-284.587 142.336c-21.058 9.798-35.911 29.779-38.292 53.44l-0.023 0.278-0.256 6.357c0 23.893 12.843 45.739 35.883 58.453l5.973 2.987 773.248 278.869 4.608 0.768zM825.003 761.045l-638.635-230.485 259.413-129.707c6.659-3.396 12.136-8.258 16.16-14.187l0.096-0.149 2.773-4.779 129.621-259.2 230.571 638.507z" />
<glyph unicode="&#xe91c;" glyph-name="web" d="M514.4 896.6c-1.2 0.1-2.4 0.2-3.6 0.2-1.3 0-2.5-0.1-3.7-0.2-244.9-2.5-442.7-201.4-443.6-446.6v-1.6c0-247.5 200.7-448.2 448.2-448.2s448.2 200.7 448.2 448.2c0 246.6-199.2 446.7-445.5 448.2zM542.4 576.3c48.3 2.1 95.1 9.9 139.8 22.6 10.6-37.7 17.2-77.1 19.5-117.7h-159.3v95.1zM542.4 640.6v190.7c2-0.2 4.1-0.3 6.1-0.5 47.6-49 86.1-106.9 112.6-171-38-10.6-77.8-17.2-118.7-19.2zM479.2 831.1v-190.1c-39.7 2.6-78.3 9.4-115.2 20 27.3 63.8 66.3 121.4 114.5 170 0.2 0.1 0.5 0.1 0.7 0.1zM479.2 576.7v-95.5h-157.8c2.5 41.2 9.6 81.2 20.8 119.4 43.9-13 89.7-21.1 137-23.9zM257.1 481.2h-128.1c5.8 68.3 29.5 131.6 66.3 185.1 27.4-16.9 56.2-31.7 86.3-44.2-13.4-45.1-21.8-92.2-24.5-140.9zM256.9 418c2.4-50 10.8-98.3 24.5-144.4-29.8-12.4-58.3-27-85.5-43.8-37.7 54.2-61.7 118.6-67.1 188.2h128.1zM321.2 418h158v-99c-47.4-2.7-93.4-10.9-137.2-23.9-11.5 39.3-18.6 80.5-20.8 122.9zM479.2 254.6v-189c-1 0.1-2.1 0.2-3.1 0.3-47.3 48.3-85.7 105.4-112.6 168.5 37.1 10.8 75.8 17.6 115.7 20.2zM542.4 65.5v189.6c40-2 78.9-8.3 116.2-18.4-27.6-64.4-67.2-122.4-116.2-171.2 0.1 0 0 0 0 0zM542.4 319.4v98.6h159.1c-2.5-41.7-9.7-82.1-21-120.7-44.2 12.4-90.4 20-138.1 22.1zM765.7 418h128.9c-5.4-68.4-28.6-131.7-65.1-185.3-28 16.9-57.6 31.7-88.3 44 13.5 45.1 21.9 92.4 24.5 141.3zM765.9 481.2c-2.3 47.8-10.1 94.3-22.9 138.6 30.3 12.2 59.4 26.8 87 43.6 35.7-52.8 58.7-115 64.4-182.1h-128.5zM789.3 713.9c-21.5-12.6-44-23.7-67.3-33.3-18.1 44.6-41.4 86.5-69.1 125.1 52-20.6 98.4-52.2 136.4-91.8zM373.6 806.9c-28-38.3-51.7-80-70.3-124.3-23.1 9.8-45.4 21.1-66.7 33.8 38.2 39.3 84.9 70.4 137 90.5zM237.2 179.7c21 12.5 43 23.6 65.7 33.2 18.2-43.5 41.2-84.5 68.5-122.3-50.9 20.1-96.5 50.7-134.2 89.1zM647.1 88.9c29 39.1 53.4 81.8 72.4 127.3 23.9-9.7 47-21 69.1-33.9-39.2-40.9-87.5-73.1-141.5-93.4z" />
<glyph unicode="&#xe91d;" glyph-name="tg" d="M1024 448c0-282.767-229.233-512-512-512-282.77 0-512 229.233-512 512 0 282.77 229.23 512 512 512 282.767 0 512-229.23 512-512zM530.36 582.018c-49.801-20.713-149.329-63.585-298.588-128.614-24.237-9.638-36.934-19.069-38.089-28.285-1.953-15.585 17.559-21.719 44.13-30.075 3.614-1.137 7.359-2.314 11.198-3.564 26.142-8.494 61.307-18.437 79.588-18.831 16.583-0.358 35.090 6.477 55.524 20.511 139.457 94.135 211.444 141.716 215.965 142.743 3.19 0.723 7.608 1.633 10.598-1.028 2.995-2.661 2.703-7.7 2.386-9.052-1.935-8.24-78.531-79.451-118.167-116.299-12.357-11.489-21.122-19.635-22.913-21.499-4.014-4.168-8.105-8.11-12.037-11.904-24.286-23.409-42.499-40.965 1.009-69.637 20.908-13.778 37.638-25.17 54.331-36.536 18.227-12.416 36.408-24.796 59.93-40.218 5.996-3.927 11.715-8.008 17.29-11.981 21.217-15.124 40.274-28.713 63.816-26.547 13.686 1.26 27.817 14.126 34.995 52.495 16.957 90.675 50.299 287.141 58.004 368.101 0.676 7.093-0.174 16.17-0.855 20.155s-2.109 9.663-7.286 13.866c-6.134 4.978-15.606 6.027-19.84 5.953-19.261-0.339-48.804-10.613-190.991-69.753z" />
<glyph unicode="&#xe91e;" glyph-name="twitter" d="M322.028 31.969c386.417 0 597.77 320.143 597.77 597.773 0 9.093 0 18.145-0.614 27.156 41.119 29.741 76.611 66.565 104.817 108.749-38.339-16.998-79.017-28.141-120.668-33.055 43.858 26.253 76.687 67.551 92.365 116.204-41.242-24.474-86.359-41.721-133.407-50.995-31.677 33.682-73.569 55.985-119.199 63.459s-92.452-0.3-133.217-22.117c-40.765-21.817-73.201-56.461-92.293-98.572-19.095-42.111-23.776-89.34-13.322-134.38-83.527 4.19-165.24 25.897-239.834 63.713s-140.403 90.895-193.155 155.792c-26.866-46.25-35.095-101.002-23.010-153.106s43.573-97.644 88.055-127.347c-33.436 0.979-66.143 9.999-95.355 26.296v-2.662c0.013-48.506 16.804-95.514 47.525-133.050s73.48-63.294 121.025-72.899c-30.93-8.433-63.383-9.667-94.863-3.604 13.43-41.738 39.568-78.244 74.761-104.402s77.678-40.668 121.52-41.498c-43.559-34.237-93.442-59.551-146.794-74.496-53.352-14.94-109.127-19.215-164.133-12.585 96.078-61.65 207.869-94.356 322.028-94.208z" />
<glyph unicode="&#xe91f;" glyph-name="github" d="M511.953 960c-282.724 0-511.953-229.229-511.953-512.015 0-226.212 146.69-418.099 350.145-485.832 25.616-4.685 34.952 11.126 34.952 24.704 0 12.129-0.44 44.349-0.692 87.066-142.415-30.93-172.463 68.644-172.463 68.644-23.291 59.121-56.86 74.87-56.86 74.87-46.487 31.775 3.521 31.15 3.521 31.15 51.39-3.651 78.421-52.777 78.421-52.777 45.67-78.228 119.847-55.634 149.016-42.557 4.652 33.101 17.853 55.665 32.5 68.46-113.687 12.918-233.22 56.858-233.22 253.052 0 55.885 19.959 101.586 52.71 137.386-5.281 12.95-22.851 65 4.998 135.5 0 0 42.998 13.767 140.812-52.49 40.829 11.347 84.645 17.036 128.177 17.225 43.469-0.189 87.286-5.878 128.179-17.225 97.751 66.257 140.652 52.49 140.652 52.49 27.945-70.5 10.373-122.55 5.094-135.5 32.814-35.8 52.644-81.501 52.644-137.386 0-196.697-119.721-239.976-233.784-252.643 18.386-15.811 34.765-47.053 34.765-94.833 0-68.424-0.63-123.648-0.63-140.431 0-13.706 9.211-29.64 35.205-24.643 203.295 67.86 349.86 259.62 349.86 485.77 0 282.787-229.258 512.015-512.047 512.015z" />
<glyph unicode="&#xe920;" glyph-name="Outline" d="M512.005 874.672c-90.527 0-177.347-35.962-241.359-99.974s-99.974-150.832-99.974-241.359c0-230.401 300.8-490.669 313.6-501.761 7.728-6.611 17.564-10.24 27.733-10.24s20.005 3.629 27.733 10.24c14.934 11.091 313.599 271.36 313.599 501.761 0 90.527-35.962 177.347-99.974 241.359s-150.831 99.974-241.358 99.974v0zM512.005 121.606c-90.88 85.331-256 269.226-256 411.732 0 67.896 26.972 133.011 74.98 181.020s113.124 74.98 181.020 74.98c67.896 0 133.012-26.971 181.019-74.98 48.013-48.009 74.982-113.124 74.982-181.020 0-142.506-165.121-326.829-256.001-411.732zM512.005 704.005c-33.755 0-66.751-10.010-94.817-28.762s-49.94-45.408-62.858-76.593c-12.917-31.185-16.297-65.5-9.712-98.607s22.84-63.516 46.708-87.384c23.868-23.868 54.278-40.123 87.384-46.708s67.421-3.206 98.607 9.712c31.185 12.917 57.84 34.792 76.591 62.858 18.758 28.067 28.762 61.063 28.762 94.817 0 45.264-17.978 88.674-49.984 120.68s-75.416 49.987-120.68 49.987zM512.005 448.005c-16.877 0-33.375 5.005-47.409 14.381s-24.97 22.704-31.429 38.296c-6.459 15.592-8.148 32.75-4.856 49.303s11.42 31.758 23.354 43.692c11.934 11.934 27.139 20.061 43.692 23.354s33.711 1.603 49.304-4.856c15.592-6.458 28.92-17.396 38.296-31.429s14.381-30.531 14.381-47.409c0-22.632-8.99-44.337-24.993-60.339s-37.708-24.994-60.34-24.994z" />
<glyph unicode="&#xe921;" glyph-name="setting" d="M989.184 573.44l-96.768 32.256 45.568 91.136c4.618 9.539 6.164 20.277 4.424 30.731-1.746 10.455-6.687 20.111-14.152 27.637l-109.056 109.056c-7.567 7.573-17.316 12.584-27.878 14.329-10.557 1.745-21.402 0.136-31.002-4.601l-91.136-45.568-32.256 96.768c-3.405 10.087-9.871 18.861-18.499 25.101s-18.985 9.636-29.629 9.715h-153.6c-10.734 0.028-21.204-3.319-29.933-9.566s-15.272-15.080-18.707-25.25l-32.256-96.768-91.136 45.568c-9.539 4.619-20.277 6.164-30.731 4.422s-20.111-6.686-27.637-14.15l-109.056-109.056c-7.573-7.566-12.584-17.315-14.329-27.876s-0.136-21.404 4.601-31.004l45.568-91.136-96.768-32.256c-10.087-3.407-18.861-9.873-25.101-18.499s-9.636-18.983-9.715-29.629v-153.6c-0.028-10.732 3.319-21.207 9.566-29.932 6.248-8.73 15.080-15.273 25.25-18.708l96.768-32.256-45.568-91.136c-4.619-9.539-6.164-20.275-4.422-30.73s6.686-20.111 14.15-27.638l109.056-109.056c7.566-7.572 17.315-12.585 27.876-14.331s21.404-0.133 31.004 4.603l91.136 45.568 32.256-96.768c3.435-10.168 9.979-19 18.707-25.252 8.729-6.246 19.199-9.59 29.933-9.564h153.6c10.732-0.026 21.207 3.318 29.932 9.564 8.73 6.252 15.273 15.084 18.708 25.252l32.256 96.768 91.136-45.568c9.477-4.5 20.111-5.985 30.459-4.244s19.912 6.615 27.397 13.972l109.056 109.056c7.572 7.567 12.585 17.316 14.331 27.878 1.746 10.557 0.133 21.402-4.603 31.002l-45.568 91.136 96.768 32.256c10.086 3.405 18.862 9.871 25.103 18.499 6.236 8.627 9.636 18.985 9.713 29.629v153.6c0.026 10.734-3.318 21.204-9.564 29.933-6.252 8.728-15.084 15.272-25.252 18.707zM921.6 408.064l-61.44-20.48c-14.126-4.582-27.090-12.186-37.985-22.277-10.9-10.092-19.471-22.436-25.119-36.173-5.652-13.737-8.248-28.539-7.603-43.377 0.64-14.838 4.5-29.358 11.315-42.557l29.184-58.368-56.32-56.32-56.832 30.72c-13.128 6.543-27.51 10.184-42.173 10.685-14.659 0.502-29.256-2.156-42.803-7.788-13.542-5.632-25.723-14.106-35.707-24.852s-17.541-23.516-22.164-37.437l-20.48-61.44h-81.408l-20.48 61.44c-4.583 14.126-12.184 27.090-22.277 37.985-10.093 10.9-22.435 19.471-36.172 25.119-13.736 5.652-28.537 8.248-43.376 7.603-14.839-0.64-29.361-4.5-42.559-11.315l-58.368-29.184-56.32 56.32 30.72 56.832c6.815 13.199 10.676 27.72 11.318 42.557s-1.953 29.64-7.604 43.377c-5.65 13.737-14.221 26.081-25.118 36.173s-23.859 17.695-37.988 22.277l-61.44 20.48v79.872l61.44 20.48c14.129 4.583 27.091 12.184 37.988 22.277s19.468 22.435 25.118 36.172c5.65 13.736 8.245 28.537 7.604 43.376s-4.503 29.361-11.318 42.559l-29.184 56.832 56.32 56.32 56.832-29.184c13.198-6.815 27.72-10.676 42.559-11.318s29.64 1.953 43.376 7.604c13.736 5.65 26.079 14.221 36.172 25.118s17.694 23.859 22.277 37.988l20.48 61.44h79.872l20.48-61.44c4.582-14.129 12.186-27.091 22.277-37.988s22.436-19.468 36.173-25.118c13.737-5.65 28.539-8.245 43.377-7.604s29.358 4.503 42.557 11.318l58.368 29.184 56.32-56.32-30.72-56.832c-6.543-13.13-10.184-27.512-10.685-42.173s2.156-29.258 7.788-42.803c5.632-13.545 14.106-25.722 24.852-35.706s23.516-17.544 37.437-22.166l61.44-20.48v-81.408zM512 652.8c-40.505 0-80.101-12.012-113.781-34.515s-59.929-54.489-75.43-91.911c-15.501-37.422-19.556-78.599-11.654-118.33 7.902-39.726 27.408-76.216 56.050-104.858s65.134-48.148 104.861-56.049c39.728-7.905 80.904-3.85 118.326 11.653 37.422 15.498 69.412 41.748 91.914 75.428s34.514 73.277 34.514 113.782c0 54.316-21.576 106.408-59.986 144.815-38.405 38.408-90.496 59.985-144.814 59.985zM512 345.6c-20.253 0-40.051 6.006-56.89 17.26-16.84 11.249-29.964 27.244-37.715 45.952-7.75 18.714-9.778 39.302-5.827 59.166s13.704 38.11 28.025 52.43c14.321 14.321 32.567 24.074 52.43 28.025s40.452 1.923 59.166-5.827c18.708-7.751 34.703-20.875 45.952-37.715 11.254-16.84 17.26-36.638 17.26-56.89 0-27.156-10.788-53.202-29.993-72.407s-45.251-29.993-72.407-29.993z" />
<glyph unicode="&#xe922;" glyph-name="discord" horiz-adv-x="1280" d="M1083.002 877.29c144.262-213.417 215.507-454.146 188.877-731.281-0.115-1.171-0.723-2.246-1.677-2.957-109.248-80.71-215.091-129.696-319.456-162.182-0.813-0.25-1.677-0.237-2.483 0.038s-1.504 0.794-2.003 1.485c-24.109 33.76-46.016 69.344-65.21 106.714-1.101 2.202-0.096 4.851 2.176 5.715 34.79 13.19 67.872 28.998 99.699 47.718 2.502 1.478 2.662 5.094 0.346 6.829-6.752 5.043-13.44 10.342-19.846 15.648-1.197 0.979-2.81 1.171-4.166 0.512-206.598-95.994-432.911-95.994-641.95 0-1.357 0.608-2.97 0.403-4.136-0.563-6.387-5.299-13.093-10.554-19.783-15.597-2.316-1.734-2.124-5.35 0.399-6.829 31.822-18.362 64.906-34.528 99.649-47.782 2.252-0.864 3.322-3.45 2.204-5.651-18.777-37.421-40.684-73.005-65.241-106.758-1.069-1.363-2.826-1.99-4.486-1.478-103.865 32.486-209.71 81.472-318.956 162.182-0.91 0.71-1.565 1.83-1.661 3.008-22.258 239.715 23.104 482.435 188.697 731.277 0.399 0.659 1.006 1.173 1.709 1.478 81.479 37.626 168.771 65.307 260.006 81.116 1.661 0.257 3.321-0.514 4.183-1.992 11.273-20.082 24.158-45.836 32.876-66.882 96.169 14.78 193.837 14.78 292.019 0 8.717 20.596 21.158 46.799 32.384 66.882 0.397 0.733 1.018 1.321 1.766 1.678 0.755 0.358 1.6 0.468 2.413 0.314 91.283-15.857 178.579-43.538 259.994-81.116 0.717-0.305 1.306-0.82 1.658-1.526zM541.659 421.505c1.006 70.866-50.344 129.506-114.803 129.506-63.932 0-114.787-58.126-114.787-129.506 0-71.364 51.861-129.492 114.787-129.492 63.948 0 114.803 58.129 114.803 129.492zM966.093 421.505c1.005 70.866-50.342 129.506-114.784 129.506-63.949 0-114.803-58.126-114.803-129.506 0-71.364 51.859-129.492 114.803-129.492 64.442 0 114.784 58.129 114.784 129.492z" />
<glyph unicode="&#xe923;" glyph-name="ens" horiz-adv-x="931" d="M138.824 703.262c9.228 17.194 22.546 31.852 38.779 42.682l272.431 190.238-279.138-461.572c0 0-24.389 41.219-33.901 62.072-11.853 26.222-17.831 54.718-17.515 83.493s6.918 57.132 19.344 83.087zM26.388 384.856c3.076-44.139 15.547-87.114 36.579-126.040 21.031-38.931 50.137-72.918 85.369-99.682l301.332-210.12c0 0-188.531 271.7-347.551 542.059-16.099 28.563-26.922 59.793-31.95 92.193-2.226 14.672-2.226 29.595 0 44.267-4.146-7.682-12.195-23.414-12.195-23.414-16.124-32.884-27.105-68.049-32.56-104.265-3.14-38.285-2.813-76.774 0.976-114.997zM794.657 348.272c-9.756 20.852-33.899 62.073-33.899 62.073l-278.654-461.331 272.435 190.12c16.23 10.826 29.547 25.488 38.777 42.682 12.428 25.954 19.028 54.309 19.344 83.088 0.317 28.774-5.66 57.27-17.515 83.489l-0.489-0.121zM905.263 500.219c-3.077 44.14-15.546 87.113-36.575 126.042-21.034 38.929-50.139 72.915-85.369 99.683l-300.847 210.237c0 0 188.411-271.699 347.55-542.058 16.058-28.57 26.838-59.797 31.828-92.193 2.225-14.671 2.225-29.594 0-44.265 4.147 7.68 12.195 23.412 12.195 23.412 16.123 32.884 27.108 68.049 32.563 104.266 3.179 38.279 2.89 76.767-0.856 114.996l-0.489-0.122z" />
<glyph unicode="&#xe924;" glyph-name="web2" horiz-adv-x="1075" d="M42.238 448.003c0 273.58 221.78 495.36 495.362 495.36 273.577 0 495.36-221.78 495.36-495.36s-221.783-495.357-495.36-495.357c-273.582 0-495.362 221.778-495.362 495.357zM408.92 41.528c-12.575 20.163-23.823 43.023-33.735 67.804-9.36 23.404-17.72 49.004-24.953 76.421-33.030-16.195-63.658-36.541-91.213-60.365 43.248-37.381 94.090-66.207 149.901-83.86zM415.058 211.164c7.006-27.812 15.181-53.356 24.304-76.165 15.712-39.281 33.556-68.756 51.603-87.839 17.978-19.011 33.747-25.4 46.634-25.4 12.882 0 28.657 6.39 46.638 25.4 18.053 19.087 35.901 48.558 51.615 87.844 9.129 22.815 17.306 48.358 24.315 76.17-38.804 11.628-79.939 17.869-122.537 17.869-42.611 0-83.756-6.246-122.572-17.879zM674.156 279.101c6.835 41.713 11.244 86.871 12.698 134.344h-298.469c1.45-47.478 5.86-92.641 12.69-134.354 43.382 12.421 89.197 19.072 136.557 19.072 47.35 0 93.153-6.651 136.525-19.062zM724.997 185.769c-7.24-27.423-15.601-53.028-24.97-76.436-9.912-24.781-21.161-47.642-33.736-67.799 55.818 17.659 106.67 46.495 149.919 83.886-27.556 23.818-58.184 44.16-91.213 60.349zM864.768 174.781c54.927 65.7 90.429 148.198 97.69 238.664h-206.454c-1.608-55.752-7.076-109.133-15.846-158.449 45.619-20.465 87.572-47.621 124.611-80.215zM962.458 482.563c-7.26 90.473-42.772 172.976-97.705 238.68-37.033-32.588-78.986-59.741-124.6-80.2 8.771-49.329 14.244-102.717 15.852-158.48h206.454zM686.853 482.563c-1.454 47.484-5.868 92.654-12.703 134.372-43.372-12.41-89.17-19.058-136.52-19.058-47.358 0-93.171 6.651-136.551 19.068-6.834-41.721-11.245-86.894-12.696-134.382h298.469zM319.234 482.563c1.606 55.768 7.074 109.161 15.845 158.495-45.616 20.465-87.571 47.624-124.605 80.22-54.951-65.71-90.474-148.226-97.735-238.715h206.495zM112.738 413.445c7.26-90.486 42.777-172.989 97.719-238.7 37.037 32.604 78.995 59.766 124.616 80.236-8.767 49.321-14.234 102.707-15.839 158.464h-206.495zM259.038 770.634c27.552-23.817 58.177-44.159 91.201-60.351 7.232 27.404 15.589 52.994 24.946 76.388 9.912 24.783 21.159 47.644 33.735 67.804-55.802-17.649-106.638-46.471-149.881-83.841zM537.6 874.243c-12.887 0-28.656-6.385-46.634-25.397-18.047-19.085-35.892-48.557-51.603-87.841-9.119-22.801-17.291-48.333-24.295-76.13 38.814-11.631 79.955-17.877 122.564-17.877 42.598 0 83.727 6.242 122.532 17.866-7.009 27.8-15.186 53.335-24.31 76.138-15.713 39.284-33.562 68.756-51.615 87.843-17.981 19.013-33.756 25.399-46.638 25.399zM724.987 710.265c33.024 16.188 63.652 36.526 91.203 60.339-43.244 37.381-94.090 66.212-149.898 83.867 12.575-20.158 23.823-43.016 33.736-67.796 9.364-23.4 17.725-48.997 24.96-76.409z" />
<glyph unicode="&#xe925;" glyph-name="lens" d="M444.299 487.679c-13.151-22.113-218.297-25.828-330.215 36.893s-57.544 254.498 55.974 304.856c113.517 50.358 287.392-319.639 274.241-341.749zM442.745 410.925c13.151-22.113-86.104-196.421-198.022-259.142s-255.829 78.874-243.998 199.478c11.83 120.607 428.869 81.777 442.020 59.664zM510.446 371.247c26.305 0 132.19-170.595 132.19-296.038 0-125.44-198.284-175.622-299.971-105.373-101.687 70.246 141.479 401.414 167.781 401.411zM579.701 408.307c13.151 22.115 218.299 25.828 330.214-36.893 111.917-62.721 57.546-254.496-55.972-304.854-113.521-50.357-287.393 319.637-274.242 341.747zM581.255 485.075c-13.151 22.113 86.104 196.422 198.021 259.145 111.92 62.721 255.83-78.877 244.002-199.48-11.832-120.607-428.872-81.777-442.023-59.664zM513.551 524.753c-26.305 0-132.19 170.595-132.19 296.038s198.284 175.622 299.971 105.374c101.689-70.248-141.479-401.415-167.781-401.412z" />
<glyph unicode="&#xe926;" glyph-name="calendar" d="M511.979 362.625c8.439 0 16.688 2.502 23.705 7.19s12.485 11.352 15.714 19.148c3.229 7.796 4.075 16.375 2.428 24.652s-5.71 15.879-11.677 21.846c-5.967 5.967-13.569 10.031-21.846 11.677s-16.855 0.801-24.652-2.428c-7.796-3.229-14.46-8.698-19.148-15.715s-7.19-15.265-7.19-23.704c0-11.316 4.495-22.168 12.497-30.17s18.854-12.497 30.17-12.497zM725.312 362.625c8.442 0 16.691 2.502 23.706 7.19s12.486 11.352 15.712 19.148c3.232 7.796 4.077 16.375 2.432 24.652-1.651 8.276-5.715 15.879-11.68 21.846s-13.568 10.031-21.843 11.677c-8.282 1.646-16.858 0.801-24.653-2.428s-14.464-8.698-19.149-15.715c-4.691-7.016-7.194-15.265-7.194-23.704 0-11.316 4.499-22.168 12.499-30.17s18.854-12.497 30.17-12.497zM511.979 191.955c8.439 0 16.688 2.502 23.705 7.194s12.485 11.354 15.714 19.149c3.229 7.795 4.075 16.378 2.428 24.653s-5.71 15.878-11.677 21.843c-5.967 5.971-13.569 10.029-21.846 11.68-8.276 1.645-16.855 0.8-24.652-2.432-7.796-3.226-14.46-8.698-19.148-15.712s-7.19-15.264-7.19-23.706c0-11.315 4.495-22.17 12.497-30.17s18.854-12.499 30.17-12.499zM725.312 191.955c8.442 0 16.691 2.502 23.706 7.194s12.486 11.354 15.712 19.149c3.232 7.795 4.077 16.378 2.432 24.653-1.651 8.275-5.715 15.878-11.68 21.843-5.965 5.971-13.568 10.029-21.843 11.68-8.282 1.645-16.858 0.8-24.653-2.432-7.795-3.226-14.464-8.698-19.149-15.712-4.691-7.014-7.194-15.264-7.194-23.706 0-11.315 4.499-22.17 12.499-30.17s18.854-12.499 30.17-12.499zM298.646 362.625c8.439 0 16.688 2.502 23.704 7.19s12.485 11.352 15.715 19.148c3.229 7.796 4.074 16.375 2.428 24.652s-5.71 15.879-11.677 21.846c-5.967 5.967-13.57 10.031-21.846 11.677s-16.855 0.801-24.652-2.428c-7.796-3.229-14.46-8.698-19.148-15.715s-7.191-15.265-7.191-23.704c0-11.316 4.495-22.168 12.497-30.17s18.854-12.497 30.17-12.497zM810.643 789.292h-42.662v42.667c0 11.316-4.499 22.168-12.499 30.17s-18.854 12.497-30.17 12.497c-11.315 0-22.17-4.495-30.17-12.497s-12.499-18.854-12.499-30.17v-42.667h-341.331v42.667c0 11.316-4.495 22.168-12.497 30.17s-18.854 12.497-30.17 12.497c-11.316 0-22.168-4.495-30.17-12.497s-12.497-18.854-12.497-30.17v-42.667h-42.666c-33.948 0-66.505-13.485-90.51-37.49s-37.49-56.562-37.49-90.51v-511.999c0-33.952 13.485-66.509 37.49-90.509 24.005-24.006 56.562-37.491 90.51-37.491h597.331c33.952 0 66.509 13.485 90.515 37.491 24 24 37.485 56.557 37.485 90.509v511.999c0 33.948-13.485 66.505-37.485 90.51-24.006 24.004-56.563 37.49-90.515 37.49zM853.312 149.293c0-11.315-4.493-22.17-12.499-30.17-8-8-18.848-12.499-30.17-12.499h-597.331c-11.316 0-22.168 4.499-30.17 12.499s-12.497 18.854-12.497 30.17v383.999h682.666v-383.999zM853.312 618.625h-682.666v42.666c0 11.316 4.495 22.168 12.497 30.17s18.854 12.497 30.17 12.497h597.331c11.322 0 22.17-4.495 30.17-12.497 8.006-8.002 12.499-18.854 12.499-30.17v-42.666zM298.646 191.955c8.439 0 16.688 2.502 23.704 7.194s12.485 11.354 15.715 19.149c3.229 7.795 4.074 16.378 2.428 24.653s-5.71 15.878-11.677 21.843c-5.967 5.971-13.57 10.029-21.846 11.68-8.276 1.645-16.855 0.8-24.652-2.432-7.796-3.226-14.46-8.698-19.148-15.712s-7.191-15.264-7.191-23.706c0-11.315 4.495-22.17 12.497-30.17s18.854-12.499 30.17-12.499z" />
</font>
</defs>
</svg>
